<?xml version="1.0" encoding="utf-8"?>
<!-- Generator: Adobe Illustrator 19.0.0, SVG Export Plug-In . SVG Version: 6.00 Build 0)  -->
<svg version="1.1" id="Layer_1" xmlns="http://www.w3.org/2000/svg" xmlns:xlink="http://www.w3.org/1999/xlink" x="0px" y="0px"
	 viewBox="0 0 800 800" style="enable-background:new 0 0 800 800;" xml:space="preserve">
<style type="text/css">
	.st0{fill:#FFFFFF;}
</style>
<g id="XMLID_4_">
	<g id="XMLID_172_">
		<path id="XMLID_176_" class="st0" d="M530.5,775.6c3.2,0,3.2-5,0-5C527.3,770.6,527.3,775.6,530.5,775.6L530.5,775.6z"/>
	</g>
</g>
<g id="XMLID_542_">
	<g id="XMLID_146_">
		<path id="XMLID_150_" class="st0" d="M233.6,218.9c-5.4,24.1-15.1,47.1-28.7,67.8c-6.6,10.1-14.8,18.8-21.8,28.5
			c-6.5,8.9-11.3,19-14.4,29.7c-3.1,11-4.4,22.5-4.7,34c-0.2,8.1,0.7,16.5-0.3,24.6c-1,7.6-6.4,13-7.9,20.3
			c-1.6,7.7,1.8,15,4.7,21.9c3.7,8.5,5.6,15.5,1.9,24.3c-2.4,5.6-3.9,11.4-3.9,17.4c-0.1,18,10.7,34.5,21.6,47.9
			c2.6,3.2,4.9,5.6,5.7,9.8c0.8,4.1,0.7,8.4,0.6,12.5c-0.3,8.6-1.5,17.2-2.7,25.7c-0.7,4.9-2.3,11.9,4,13.6c2.5,0.7,5.5-0.2,7.9,1
			c4.6,2.3,5.5,12.1,6.4,16.7c3.1,15.6,1.6,30.5,0.3,46.1c-0.6,7.1-0.7,14.1,0.7,21.1c1.4,7.5,3.9,14.8,4.2,22.5
			c0.6,14.9-4.5,29.9-9.7,43.7c-5.4,14.5-12.3,28.4-20.4,41.7c-1,1.6,0.3,3.7,2.2,3.8c28,0.4,33.1-35.3,47.8-52c2-2.2,4.2-5,6.7-6.7
			c2-1.3,4.3-2.9,5.6-0.3c0.5,1.1,0.4,2.7,0.4,3.9c-0.2,6.4-2,12.7-2,19.1c-0.1,13.5,3,26.6,8.7,38.8c0.9,1.9,4.1,1.4,4.6-0.6
			c10-46.4,17.6-93.3,24.3-140.3c-1.6,0-3.2,0-4.8,0c2.3,8.7,5.7,17,10.2,24.8c0.8,1.5,2.7,1.6,3.9,0.5c4.9-4.4,4.7-10.9,3.4-16.9
			c-1.9-9.2-3-17-1.1-26.3c3.6-17.7,12.7-33.7,17.6-50.9c-1.5,0.2-3,0.4-4.6,0.6c4.4,6.4,8.5,13,12.5,19.7c1,1.7,4.2,1.6,4.6-0.6
			c1.5-8.1-3.1-16-7.1-22.8c-4.8-8-11.3-16.1-13.6-25.3c-1.4-5.7,1.4-8.9,3.9-13.5c1.9-3.5,2.9-7.2,2.7-11.3c-0.3-6.9-3-13.7-5.7-20
			c-4-9.5-9-18.6-13.7-27.8c-7.3-14.3-14.8-28.5-21.6-43c-10.2-22.2-17.5-45.4-18.2-70c-0.1-3.2-5.1-3.2-5,0
			c1,39.1,19,73.3,36.3,107.4c8,15.7,18.2,31.4,22.1,48.7c0.9,4.1,1.1,8.2-0.6,12.1c-1.6,3.6-4.5,6.6-5.4,10.5
			c-2.2,8.9,4.5,18.6,8.8,25.7c4.6,7.5,13.9,18.5,12.2,28c1.5-0.2,3-0.4,4.6-0.6c-3.9-6.7-8.1-13.3-12.5-19.7
			c-1.2-1.7-3.9-1.6-4.6,0.6c-4.7,16.2-12.8,31.3-16.9,47.7c-1.8,7.5-2.7,15.2-1.6,22.9c0.9,6.6,5.8,16-0.1,21.4
			c1.3,0.2,2.6,0.3,3.9,0.5c-4.3-7.5-7.5-15.3-9.7-23.6c-0.6-2.2-4.5-2.5-4.8,0c-6.7,47-14.4,93.8-24.3,140.3c1.5-0.2,3-0.4,4.6-0.6
			c-7-14.8-9.7-31.6-7.1-47.9c0.7-4.7,2.1-9.8,0-14.3c-1.6-3.5-5.1-5.2-8.8-3.7c-5.5,2.3-10.4,8.7-14,13.3
			c-4.5,5.7-7.8,12-10.9,18.4c-6.1,12.6-14.3,29-30.6,28.8c0.7,1.3,1.4,2.5,2.2,3.8c13.4-21.9,25.2-47.1,29.6-72.7
			c2.1-12.5,0.3-23.4-2.5-35.5c-3.3-14.2-0.2-27.9,0.5-42.2c0.6-13-1-26.2-4.7-38.7c-2.3-7.8-5.7-10.5-13.6-11.1
			c-4.1-0.3-2.8-3.4-2.4-6.7c0.5-3.6,1-7.2,1.5-10.8c1.1-8.5,2.1-17.2,1.4-25.8c-0.2-3.1-0.6-6.3-1.9-9.3c-1.8-4.4-5.9-7.9-8.8-11.7
			c-6.3-8.3-12.1-17.5-15.2-27.5c-2-6.5-2.7-13.5-1.3-20.2c1.4-6.8,5.7-12.7,5.6-19.8c-0.1-8.3-4.5-15.5-7.3-23
			c-1.3-3.5-2.4-7.1-2.1-10.9c0.4-4.6,3.3-8,5.2-12.1c2.9-6.3,3.5-12.9,3.4-19.8c0-9.9-0.2-19.7,0.9-29.6
			c1.5-13.8,5.3-27.3,12.2-39.3c6.6-11.4,16.2-20.8,23.8-31.7c15.5-22.2,26.5-47.5,32.5-73.9C239.1,217.1,234.3,215.7,233.6,218.9
			L233.6,218.9z"/>
	</g>
</g>
<g id="XMLID_550_">
	<g id="XMLID_140_">
		<path id="XMLID_144_" class="st0" d="M243.8,391.8c11.5-25,23.3-51.6,22-79.7c-0.7-15-4.5-29.1-1.9-44.2
			c2.6-14.6,8.7-28.3,15.2-41.5c1.4-2.9-2.9-5.4-4.3-2.5c-6,12.3-11.8,24.9-14.8,38.3c-3.3,14.4-1.6,27.8,0.1,42.2
			c3.5,30.1-8.4,58.1-20.7,84.8C238.1,392.2,242.4,394.7,243.8,391.8L243.8,391.8z"/>
	</g>
</g>
<g id="XMLID_552_">
	<g id="XMLID_134_">
		<path id="XMLID_138_" class="st0" d="M595.5,237.5c13,23.2,26.3,46.8,32.7,72.9c3.4,13.8,4.7,28,5.9,42.1
			c1.2,14.1,2.4,28.2,3.6,42.3c2.3,27.4,4.1,55.2-4.4,81.7c-3.9,12.2-9.2,23.8-12.6,36.2c-3.1,11.7-3.2,23.7-5.5,35.5
			c-1.4,7.2-3.9,13.9-8.4,19.7c-4.4,5.6-9.9,10.6-14.9,15.7c-3.1,3.2-8.2,9.2-12.2,3.3c-2.1-3.2-3.1-7.1-3.3-10.8
			c-0.5-7.5,1.4-15,3.4-22.2c0.4-1.6-0.8-3.2-2.4-3.2c-10.7,0.1-19.3-6.2-26.6-13.4c-7.5-7.5-16.8-16.5-18.7-27.4
			c-1-5.4-0.8-11-1.8-16.4c-0.9-5.2-2.6-10.3-4.3-15.3c-3.5-10.5-7.5-21.4-3.4-32.3c1.1-3-3.7-4.3-4.8-1.3
			c-4.4,11.5-0.6,23.1,3.1,34.1c2.1,6.1,4.2,12.3,4.9,18.8c0.7,6.3,0.5,12.7,2.7,18.8c3.8,10.2,13,19.4,20.9,26.7
			c7.8,7.2,17,12.8,27.9,12.7c-0.8-1.1-1.6-2.1-2.4-3.2c-3.2,11.7-6.6,25.9,0.5,36.9c2.4,3.8,6.6,7,11.3,5.2
			c2.5-0.9,4.3-3.1,6.1-4.9c2.8-2.8,5.6-5.7,8.4-8.6c4.5-4.6,9.1-9.1,12.5-14.5c3.5-5.7,5.4-12.2,6.6-18.7c2.5-14,2.9-27.9,7.5-41.5
			c4.5-13.6,10.6-26.8,13.6-40.9c3.2-15.1,3.6-30.6,3-46c-0.7-15.3-2.2-30.6-3.5-45.9c-1.3-15.6-2.3-31.2-4.5-46.7
			c-4.8-33.5-20.2-62.8-36.5-92C598.2,232.2,593.9,234.7,595.5,237.5L595.5,237.5z"/>
	</g>
</g>
<g id="XMLID_562_">
	<g id="XMLID_128_">
		<path id="XMLID_132_" class="st0" d="M228.1,229.3c-6-3.8-4.5-11.8-3.4-17.6c0.5-2.7,1.1-5.3,1.3-8.1c0.3-3.7-1-7.1-0.9-10.7
			c0.3-5.2,5.4-8.5,7.3-13.2c2.3-5.7-1.8-11.2-0.1-16.7c1.3-3.9,5-6.8,7.4-10.1c2.8-3.7,4.2-7.5,3.4-12.2c-0.4-2.5-1.5-4.8-1.9-7.2
			c-0.7-4,1.9-5.8,4-8.5c3.6-4.5,2.6-9.9,2.9-15.3c0.9-12.4,7.4-25.5,14.2-35.9c3.8-5.8,9.9-7,14.8-11.3c3.5-3,5.9-7,8.4-10.8
			c3-4.6,6.2-8.5,11.7-10.1c5.1-1.4,10.2-1.5,14.5-4.8c3.5-2.6,5.9-7.1,9.9-9c3.4-1.6,7.2-0.3,10.8-0.7c2.4-0.3,4.7-1.1,6.8-2.2
			c4-2.1,7.4-5.4,11.3-7.7c6.3-3.7,11.9-1.9,18.6-0.8c5,0.8,9.4,0.4,13.9-1.9c6.2-3.2,10.3-6.8,17.7-5.6c5.4,0.9,10.3,2.3,15.8,0.7
			c2.9-0.9,5.8-2.9,9-2.1c2.8,0.8,5,3.8,7.2,5.5c8.1,6,16,0.8,24.5-1.4c6.1-1.5,9.3,1.2,14.2,4.2c1.9,1.2,3.8,1.9,6.1,2.2
			c3.6,0.4,7.3-0.9,10.8,0.6c8,3.3,11.9,12.3,21.1,13.4c4.5,0.5,7.2-0.8,9.3,4.5c0.8,1.9,0.9,3.7,2.3,5.4c2.7,3.4,6.7,2.9,10.3,4.4
			c3.3,1.4,2.9,4.5,4.2,7.4c0.8,1.8,1.9,3.3,3.4,4.7c3.1,3,7.5,4.7,10.4,7.9c2.6,2.9,2.6,6.6,3.8,10.1c1.1,2.9,2.9,5.4,4.5,8
			c4,6.4,7.5,13.2,10.3,20.3c5.8,14.7,9.7,30.3,14.1,45.4c4.4,15,8.8,30.1,13.2,45.1c2.9,10,10.8,28.8-0.4,36.4
			c-2.7,1.8-0.2,6.1,2.5,4.3c8.3-5.6,8.9-15.6,7.3-24.7c-2.4-14.1-7.8-28.1-11.8-41.7c-4.4-14.9-8.7-29.7-13.1-44.6
			c-3.9-13.3-8.3-26.3-15.1-38.3c-1.7-3.1-3.9-5.9-5.6-9c-1.9-3.5-2-7.3-3.7-10.8c-1.9-3.9-5.3-6.3-8.8-8.7c-2.1-1.5-4.6-2.9-6-5.2
			c-1.3-2.2-1.2-4.8-2.4-7c-2.7-4.9-7.8-3.4-11.9-5.9c-4.1-2.5-2.4-9-7.2-11.6c-2.1-1.1-4.4-1-6.8-1.1c-3.9-0.2-6.5-1.2-9.6-3.6
			c-3.4-2.7-6.3-6.1-10-8.4c-1.9-1.1-3.9-1.9-6.1-2.2c-3.8-0.5-7.6,1-11.3-0.7c-4.9-2.2-7.8-6.2-13.6-6.3c-5.1,0-9.8,2.4-14.5,3.9
			c-2.7,0.9-5.6,1.7-8.5,0.8c-2.6-0.8-4.3-3-6.3-4.6c-4.5-3.8-8.5-4.4-14.1-2.4c-3.4,1.2-6.2,2.1-10,1.6c-2.8-0.3-5.6-1.1-8.4-1.5
			c-6.3-0.8-10.9,1.3-16.1,4.6c-2.9,1.8-5.6,3.4-9.1,3.6c-3.5,0.2-7.1-0.9-10.5-1.5c-5.3-0.9-10.1-0.7-14.9,1.9
			c-5,2.6-8.9,7.2-14.3,9.2c-5.7,2.1-11.5-0.8-16.9,2.7c-4,2.5-6.3,7.1-10.4,9.5c-5.6,3.3-12.6,2.2-18.1,6c-3.5,2.4-6,6-8.4,9.6
			c-3.6,5.4-6.7,9.6-12.4,12.7c-5.7,3.1-9.2,6.5-12.4,12.2c-3.2,5.7-6.2,11.6-8.7,17.6c-2.7,6.6-4.5,13.4-4.6,20.6
			c0,1.7,0.2,3.4,0,5.1c-0.5,3.5-2.1,4.8-4.1,7.2c-1.7,2-2.8,4.2-2.9,6.8c-0.2,6.7,4.6,11.8,0.1,18.1c-2.9,4.1-7.1,7.3-8.7,12.2
			c-0.9,2.9-0.5,5.8,0.1,8.7c1,5.4,0.2,8-3,12.2c-3.5,4.7-4.9,8.4-4.1,14.4c1.7,11.6-7.9,28.4,5,36.5
			C228.3,235.3,230.9,231,228.1,229.3L228.1,229.3z"/>
	</g>
</g>
<g id="XMLID_563_">
	<g id="XMLID_122_">
		<path id="XMLID_126_" class="st0" d="M244.2,191.5c-2.7,2.8-4.9,6-6.6,9.5c-1.4,2.9,2.9,5.4,4.3,2.5c1.5-3.1,3.4-5.9,5.8-8.5
			C249.9,192.7,246.4,189.2,244.2,191.5L244.2,191.5z"/>
	</g>
</g>
<g id="XMLID_570_">
	<g id="XMLID_116_">
		<path id="XMLID_120_" class="st0" d="M243.6,192.5c2.6,10.6,11.4,17.1,20.4,22.3c4.2,2.4,7.9,4.7,12.9,3.5c4.3-1,7.5-1,11.7,0.4
			c3.4,1.1,6.7,2.6,10.2,3.3c14.1,2.9,29.8-0.4,43.9-1.8c14.9-1.5,29.9-2.7,44.9-4.4c6.2-0.7,11.9-1.9,17.8-4.2
			c7.7-2.9,12.6,0.2,19.9,2.6c2,0.7,4.1,1.2,6.3,1.2c3.5,0,6.8-1.8,10.3-1.7c3.4,0.1,6.4,2.2,9.5,3.4c2.9,1,5.7,1.2,8.8,0.9
			c3.6-0.4,7.1-1.5,10.8-0.9c2.6,0.4,5.1,1.5,7.5,2.6c5.1,2.2,10.2,5,16,4.6c2.5-0.2,4.6-1.3,7-1.8c4.7-0.9,6.1,1.9,9.6,3.9
			c5.5,3.2,12.7,4.1,18.8,5.1c15.5,2.7,32.1,3.6,47.8,1.8c11.2-1.3,23.6-8.4,21.2-21.5c-0.6-3.2-5.4-1.8-4.8,1.3
			c1.3,7.3-5.1,12.4-11.4,14.2c-6.5,1.9-13.8,1.6-20.5,1.7c-13.8,0.1-27.5-1.1-40.9-4.3c-3.5-0.8-6.7-1.7-9.6-3.9
			c-1.4-1-2.6-2.2-4.2-2.9c-5.6-2.5-10.8,2.2-16.5,1.2c-4.7-0.8-8.9-3.4-13.3-5.2c-5-2-9.5-2.3-14.8-1.5c-3.6,0.6-6.7,1.1-10.2-0.2
			c-2.4-0.9-4.7-2.3-7.2-3c-6-1.6-11.5,2.1-17.5,0.5c-4.7-1.2-8.9-4-13.8-4.7c-5.3-0.7-9.8,1.8-14.7,3.4c-6.3,2-12.9,2.4-19.4,3
			c-7.2,0.7-14.4,1.4-21.6,2.1c-13.6,1.3-27.2,2.9-40.8,3.9c-7.7,0.6-15.3,0.6-22.7-1.9c-6.4-2.2-11.3-4-18-2.7
			c-1.4,0.3-3,0.9-4.5,0.6c-1.9-0.4-4.2-2.1-6-3.1c-2.5-1.4-5-2.9-7.3-4.6c-5.1-3.8-9.3-8.4-10.9-14.7
			C247.6,188.1,242.8,189.4,243.6,192.5L243.6,192.5z"/>
	</g>
</g>
<g id="XMLID_571_">
	<g id="XMLID_110_">
		<path id="XMLID_114_" class="st0" d="M247.2,191.3c-1.9-6.4,5.4-10.9,10.1-13.6c6-3.4,12.1-6.6,18.2-9.7
			c11.5-5.9,23.3-12.4,35.8-15.9c6.7-1.9,12.7-1.8,19.6-1.8c5.3,0,8.9-1.8,13-4.9c2.4-1.8,4.8-4,7.8-4.6c3-0.6,6.2,0.4,9.2,0.8
			c5.3,0.7,9.5-0.7,14.1-3.2c2.3-1.3,4.6-2.7,7.2-3.2c3.4-0.7,6.9,0.2,10.2,0.8c5.8,1,10.3,0.7,15.9-0.9c3.8-1.1,6.8-1.6,10.4,0.6
			c2,1.2,3.8,2.5,6.1,3c4.6,1.1,9.2-0.8,13.7-1.5c3.7-0.6,5.9,0.3,8.9,2.7c1.5,1.2,3,2.3,4.9,2.9c6,1.8,12-1.5,17.6,1.8
			c4.8,2.7,8.8,5.9,14.2,7.8c2.6,0.9,5.3,1.6,8.1,2c3.2,0.5,6.8,0,9.6,1.7c2.2,1.4,3.2,3.9,5.8,4.9c2.3,0.9,4.5,0.2,6.8,0.3
			c4.2,0.1,4.1,2.9,7,4.8c1.8,1.2,3.9,1.3,6.1,1.1c7.8-0.7,15.6,2.9,23,5.1c7.9,2.4,15.8,4.9,23.6,7.3c-0.6-0.6-1.2-1.2-1.7-1.7
			c1.2,6.2,6.8,8.8,11.9,11.5c8.7,4.6,10.6,11.6,11.6,20.9c0.3,3.2,5.3,3.2,5,0c-0.8-7.3-1.8-15.4-7.4-20.8
			c-4.6-4.4-15-5.9-16.3-12.9c-0.2-0.9-1-1.5-1.7-1.7c-7.3-2.2-14.5-4.5-21.8-6.7c-6.9-2.1-14.1-5.3-21.3-6
			c-2.6-0.2-6.4,1.1-8.6-0.5c-2-1.4-2.4-3.7-4.8-4.8c-1.7-0.7-3.4-0.6-5.2-0.5c-2.6,0.1-3.5,0.8-5.9-1.7c-0.9-1-1.3-2.1-2.4-2.9
			c-1.6-1.2-3.5-1.5-5.4-1.7c-3.6-0.3-7.1-0.4-10.6-1.3c-7.1-1.8-12-6-18.3-9.3c-5-2.6-9.9-0.7-15.2-1.1c-3.4-0.2-5.1-2.4-7.8-4.2
			c-2.3-1.5-4.9-2.2-7.6-2.1c-5.4,0.2-11.2,3.7-16.4,1.2c-5.1-2.4-8-5-14-3.7c-2.7,0.6-5.2,1.7-7.8,2.2c-4.1,0.7-7.9-0.3-11.9-1
			c-5.6-0.9-10.4-0.5-15.5,2.1c-2.3,1.2-4.6,2.8-7.1,3.6c-3.8,1.3-7.5,0.1-11.4-0.4c-5.5-0.7-9.7,1-14.1,4.3c-1.8,1.4-3.6,3-5.7,4
			c-3.9,1.9-8.2,0.9-12.3,0.9c-6.7,0-13.2,1.6-19.5,3.8c-14.5,5.2-28.3,12.8-41.8,20c-8.5,4.6-24.3,11.3-20.7,23.7
			C243.3,195.8,248.2,194.4,247.2,191.3L247.2,191.3z"/>
	</g>
</g>
<g id="XMLID_588_">
	<g id="XMLID_104_">
		<path id="XMLID_108_" class="st0" d="M453.1,238.4c-0.9,1.9-1.7,3.8-2.6,5.7c-1.2,2.6,1.7,4.9,3.9,3c3.5-3,6.8-6.2,9.9-9.7
			c-1.4-0.8-2.8-1.6-4.2-2.4c-0.8,2-1.6,4.1-2.4,6.1c-0.8,1.9,2,4.1,3.7,2.8c3.8-2.9,7.3-6,10.5-9.6c-1.4-0.8-2.8-1.6-4.2-2.4
			c-0.3,1.7-0.7,3-1.7,4.5c-1.6,2.4,1.9,5,3.9,3c1.2-1.2,2.4-2.4,3.6-3.6c-1.4-0.8-2.8-1.6-4.2-2.4c-0.3,1.2-0.6,2.3-0.9,3.5
			c-0.5,1.8,1.2,3.6,3.1,3.1c3.1-0.9,5.3-2.4,8.1-4c2.3-1.3,5.6-1.3,8.4-1.8c6.5-1,13-0.9,19.3,0.7c12.8,3.2,23.9,11.2,30.6,22.6
			c1.6,2.8,6,0.3,4.3-2.5c-6.9-11.6-17.9-20.2-30.8-24.1c-6.4-2-13.2-2.8-19.8-2.2c-1.7,0.2-3.3,0.4-4.9,0.7c-2,0.3-4.8-0.1-6.5,0.5
			c-3.5,1.1-6.2,4.1-9.9,5.3c1,1,2.1,2.1,3.1,3.1c0.3-1.2,0.6-2.3,0.9-3.5c0.6-2.4-2.4-4.2-4.2-2.4c-1.2,1.2-2.4,2.4-3.6,3.6
			c1.3,1,2.6,2,3.9,3c1.2-1.8,1.9-3.5,2.2-5.7c0.3-2.2-2.3-4.5-4.2-2.4c-2.9,3.2-6,6.2-9.5,8.8c1.2,0.9,2.4,1.9,3.7,2.8
			c0.8-2,1.6-4.1,2.4-6.1c0.9-2.3-2.6-4.3-4.2-2.4c-3.1,3.5-6.3,6.7-9.9,9.7c1.3,1,2.6,2,3.9,3c0.9-1.9,1.7-3.8,2.6-5.7
			C458.8,238,454.5,235.5,453.1,238.4L453.1,238.4z"/>
	</g>
</g>
<g id="XMLID_605_">
	<g id="XMLID_98_">
		<path id="XMLID_102_" class="st0" d="M385.1,239.4c0.9,1.7,1.2,3.4,0.9,5.2c1.3-0.7,2.5-1.4,3.8-2.2c-0.7-0.8-1.4-1.7-2-2.5
			c-1-2.1-3.9-1.2-4.6,0.6c-0.8,1.9-0.8,3.4-0.4,5.4c1.5-0.6,3-1.3,4.6-1.9c-0.8-1.9-1.8-3.7-3-5.4c-1.5-2.2-4.3-1.2-4.7,1.3
			c-0.2,1.2-0.3,2.3-0.5,3.5c1.4-0.6,2.8-1.2,4.3-1.8c-1.4-1.5-2.5-3-3.5-4.7c-1.1-2.1-3.8-1.3-4.6,0.6c-0.3,0.7-0.5,1.4-0.8,2.1
			c1.5-0.2,3-0.4,4.6-0.6c-1.2-2.1-2.7-3.5-4.8-4.6c-1.7-0.9-3.7,0.2-3.8,2.2c0,1.5-0.1,3-0.1,4.6c1.4-0.6,2.8-1.2,4.3-1.8
			c-1.5-1.8-2.9-3.7-4.2-5.6c-1.4-2.3-4.3-1.1-4.7,1.3c-0.1,1-0.3,2-0.4,3c1.3-0.7,2.5-1.4,3.8-2.2c-3.4-1.9-6.7-3.8-10.1-5.6
			c-1.7-0.9-3.6-2.2-5.6-1.9c-0.9,0.1-1.5,0.7-2.3,1c-2.1,0.5-2.3,0.1-4.4-0.6c-2.6-0.8-5.4-1.4-8.1-1.7
			c-12.3-1.4-24.4,2.5-35.5,7.4c-2.9,1.3-0.4,5.6,2.5,4.3c10.7-4.7,23-8.6,34.9-6.5c3.8,0.7,7.7,3.2,11.6,2.2
			c0.9-0.2,1.2-0.9,2.2-0.9c1.3,0,2.9,1.3,4,1.9c2.8,1.6,5.6,3.1,8.4,4.7c1.8,1,3.5-0.3,3.8-2.2c0.1-1,0.3-2,0.4-3
			c-1.6,0.4-3.1,0.8-4.7,1.3c1.5,2.3,3.1,4.5,4.9,6.6c1.5,1.7,4.2,0.3,4.3-1.8c0-1.5,0.1-3,0.1-4.6c-1.3,0.7-2.5,1.4-3.8,2.2
			c1.4,0.6,2.3,1.5,3,2.8c1.2,2,3.8,1.3,4.6-0.6c0.3-0.7,0.5-1.4,0.8-2.1c-1.5,0.2-3,0.4-4.6,0.6c1.2,2.2,2.5,4,4.2,5.7
			c1.7,1.7,4,0.2,4.3-1.8c0.2-1.2,0.3-2.3,0.5-3.5c-1.6,0.4-3.1,0.8-4.7,1.3c1.2,1.7,2.1,3.5,3,5.4c1.2,2.7,5.1,0.7,4.6-1.9
			c0.1-0.9,0.2-1.8,0.4-2.8c-1.5,0.2-3,0.4-4.6,0.6c0.9,1.9,2.1,3.1,3.8,4.3c1.7,1.1,3.7-0.4,3.8-2.2c0.2-2.9-0.4-5.2-1.6-7.8
			C388.1,234,383.8,236.5,385.1,239.4L385.1,239.4z"/>
	</g>
</g>
<g id="XMLID_1410_">
	<g id="XMLID_91_">
		<path id="XMLID_95_" class="st0" d="M383.6,336.7c-4.6,3.1-9.1,7.8-8.8,13.8c0.3,5.2,4.4,9.8,9.8,9.7c3.2,0,3.2-5,0-5
			c-3.7,0.1-5.5-3.9-4.6-7.1c0.9-3.1,3.5-5.4,6-7.1C388.8,339.2,386.3,334.9,383.6,336.7L383.6,336.7z"/>
	</g>
</g>
<g id="XMLID_1417_">
	<g id="XMLID_85_">
		<path id="XMLID_89_" class="st0" d="M455.1,346.6c4.5,3.8,4.5,10.2-0.6,13.5c-2.7,1.7-0.2,6.1,2.5,4.3c7.6-4.9,8.7-15.4,1.7-21.3
			C456.1,341,452.6,344.5,455.1,346.6L455.1,346.6z"/>
	</g>
</g>
<g id="XMLID_1424_">
	<g id="XMLID_79_">
		<path id="XMLID_83_" class="st0" d="M396.9,355.9c5.2,1.3,9,3.8,13.1,7.1c2.6,2,5,2.5,8.3,2.5c3.3-0.1,5.6-1,8.5-2.5
			c4.8-2.4,9.5-4.1,14.8-5c3.2-0.5,1.8-5.3-1.3-4.8c-4.1,0.7-8,1.8-11.8,3.5c-3.4,1.5-6.4,3.7-10.2,3.8c-4.1,0.1-6.3-2.6-9.4-4.7
			c-3.3-2.2-6.9-3.7-10.7-4.7C395.1,350.3,393.8,355.1,396.9,355.9L396.9,355.9z"/>
	</g>
</g>
<g id="XMLID_1459_">
	<g id="XMLID_73_">
		<path id="XMLID_77_" class="st0" d="M524.7,274.5c-9.5-0.1-17.1-6.1-25.4-10c-8-3.9-16.2-5.3-24.8-2.8
			c-9.1,2.7-16.7,8.7-23.8,14.8c-2.3,1.9-4.7,4-2.6,7.1c2.2,3.2,7.9,4,11.4,4.3c3.2,0.3,3.2-4.7,0-5c-1.3-0.1-6.8-0.9-7.3-2.6
			c-0.2,0.8-0.4,1.6-0.6,2.4c4.2-5.5,11.6-10.3,17.7-13.5c7.2-3.7,15.1-5.1,22.9-2.4c11.2,3.9,20.2,12.6,32.6,12.7
			C527.9,279.6,527.9,274.6,524.7,274.5L524.7,274.5z"/>
	</g>
</g>
<g id="XMLID_1466_">
	<g id="XMLID_67_">
		<path id="XMLID_71_" class="st0" d="M378.4,282.3c3.4-0.9,6.1-2.5,8.4-5.3c1.3-1.5,0.7-3.5-1.1-4.2c-13.6-5.4-22.5-21-38.8-18.7
			c-14.4,2.1-25.1,16.6-40.2,15.3c-3.2-0.3-3.2,4.7,0,5c14.7,1.3,24.8-11.1,38.1-14.8c15.9-4.3,26.3,12.6,39.5,18
			c-0.4-1.4-0.7-2.8-1.1-4.2c-1.7,2.1-3.6,3.3-6.2,4C374,278.2,375.3,283.1,378.4,282.3L378.4,282.3z"/>
	</g>
</g>
<g id="XMLID_1474_">
	<g id="XMLID_61_">
		<path id="XMLID_65_" class="st0" d="M325.5,278.6c8.6,6.1,18.8,8.8,29.2,7.8c3.2-0.3,3.2-5.3,0-5c-9.7,0.9-18.8-1.5-26.7-7.1
			C325.4,272.4,322.9,276.7,325.5,278.6L325.5,278.6z"/>
	</g>
</g>
<g id="XMLID_1480_">
	<g id="XMLID_55_">
		<path id="XMLID_59_" class="st0" d="M476.3,290.6c9.8,0.2,24.4,2,32-5.6c2.3-2.3-1.3-5.8-3.5-3.5c-3.5,3.5-8.4,3.6-13.1,3.9
			c-5.1,0.3-10.3,0.3-15.4,0.2C473.1,285.5,473.1,290.5,476.3,290.6L476.3,290.6z"/>
	</g>
</g>
<g id="XMLID_1487_">
	<g id="XMLID_49_">
		<path id="XMLID_53_" class="st0" d="M252.3,368c0.2,7.7,7.4,14.4,15.2,13.3c3.1-0.4,3.2-5.4,0-5c-5.1,0.7-10.1-3.1-10.2-8.3
			C257.2,364.8,252.2,364.8,252.3,368L252.3,368z"/>
	</g>
</g>
<g id="XMLID_455_">
	<g id="XMLID_43_">
		<path id="XMLID_47_" class="st0" d="M262.9,363c2.5,16.3,6.3,32.4,13.6,47.2c7.8,15.6,19.2,29,32,40.8
			c11.1,10.2,23.2,19.2,35.3,28.1c13.2,9.7,27.8,17.8,43.5,22.7c9.3,2.9,19.1,4.6,28.8,4.3c11-0.4,22.2-3,32.9-5.4
			c12.8-3,26.7-6.6,37.5-14.5c15.8-11.5,28.8-28.8,39-45.3c11.7-18.8,20.3-39.5,26.1-60.9c12.4-46,22.1-96.7,9.8-143.8
			c-0.8-3.1-5.6-1.8-4.8,1.3c10.8,41.2,3.8,85-6,125.7c-10.2,42.4-27.8,82.3-60,112.7c-8.6,8.2-18.3,12.8-29.6,16.3
			c-9.5,2.9-19.3,5-29.1,6.7c-10.9,1.9-21.3,2.9-32.2,0.8c-29.4-5.6-54.4-24.7-77-43.2c-15.5-12.7-30-27.2-39.7-44.9
			c-8.5-15.5-12.6-32.7-15.2-50C267.2,358.5,262.4,359.9,262.9,363L262.9,363z"/>
	</g>
</g>
<g id="XMLID_456_">
	<g id="XMLID_37_">
		<path id="XMLID_41_" class="st0" d="M381.3,402.7c5-0.4,9.4-2.1,14-4.1c6.1-2.6,11.1-4.1,17.7-2.6c6.3,1.4,12.1-1.5,18.3-0.1
			c6.5,1.5,13,4.5,19.3,6.8c3,1.1,4.3-3.7,1.3-4.8c-6.3-2.3-12.7-5.3-19.3-6.8c-2.8-0.7-5.5-0.8-8.3-0.4c-4.3,0.7-7.3,1-11.7,0.1
			c-11.7-2.5-20.2,6-31.4,6.9C378.1,397.9,378,402.9,381.3,402.7L381.3,402.7z"/>
	</g>
</g>
<g id="XMLID_457_">
	<g id="XMLID_31_">
		<path id="XMLID_35_" class="st0" d="M362.6,407.8c35.6,10.4,73.7,10.1,109.2-0.8c3.1-0.9,1.8-5.8-1.3-4.8
			c-34.7,10.7-71.7,11-106.5,0.8C360.8,402.1,359.5,406.9,362.6,407.8L362.6,407.8z"/>
	</g>
</g>
<g id="XMLID_458_">
	<g id="XMLID_25_">
		<path id="XMLID_29_" class="st0" d="M372.8,419.6c12.2,10.7,30.1,12.5,45.7,14c16.9,1.6,34.3-0.5,47.8-11.6
			c2.5-2.1-1.1-5.6-3.5-3.5c-12.3,10.3-28.8,11.6-44.2,10.2c-14-1.3-31.1-2.9-42.1-12.5C374,413.9,370.4,417.4,372.8,419.6
			L372.8,419.6z"/>
	</g>
</g>
<g id="XMLID_575_">
	<g id="XMLID_19_">
		<path id="XMLID_23_" class="st0" d="M399.3,68.2c1,13.3,2,26.8,3.9,40.1c0.6,4.1,2.2,7.2,6.6,7.9c6.2,0.9,13,0.1,19.2,0.1
			c3.1,0,6.3,0,9.4,0c2.1,0,4.8,0.5,6.6-0.7c3.5-2.1,2.5-8.3,2.5-11.7c-0.1-13.9-3.2-27.6-6.2-41.1c-0.2-1.1-1.3-1.8-2.4-1.8
			c-11.9,0-23.8,0-35.7-0.1c-3.2,0-3.2,5,0,5c11.9,0,23.8,0,35.7,0.1c-0.8-0.6-1.6-1.2-2.4-1.8c2.4,10.6,4.8,21.2,5.7,32
			c0.2,2.6,0.3,5.2,0.3,7.8c0,1.6,0.5,4.4-0.2,5.8c0.3,1.7-0.4,2.2-2.1,1.6c-1.3,0-2.5,0-3.8,0c-2.5,0-5,0-7.5,0
			c-4.8,0-10.3,0.7-15.1,0c-3.4-0.5-5.6-1.6-6.1-5.3c-0.3-2.5-0.6-5-0.8-7.6c-1.1-10.1-2-20.2-2.8-30.3C404,65,399,65,399.3,68.2
			L399.3,68.2z"/>
	</g>
</g>
<g id="XMLID_1032_">
	<g id="XMLID_17_">
		<path id="XMLID_145_" class="st0" d="M432.2,270.9c-5.1,14.6-5.6,30.1-1.6,45c0.8,3.1,5.7,1.8,4.8-1.3
			c-3.8-14.1-3.2-28.6,1.6-42.4C438.1,269.2,433.3,267.8,432.2,270.9L432.2,270.9z"/>
	</g>
</g>
</svg>
