<?xml version="1.0" encoding="utf-8"?>
<!-- Generator: Adobe Illustrator 19.0.0, SVG Export Plug-In . SVG Version: 6.00 Build 0)  -->
<svg version="1.1" id="Layer_1" xmlns="http://www.w3.org/2000/svg" xmlns:xlink="http://www.w3.org/1999/xlink" x="0px" y="0px"
	 viewBox="0 0 800 800" style="enable-background:new 0 0 800 800;" xml:space="preserve">
<style type="text/css">
	.st0{fill:#FFFFFF;}
</style>
<g id="XMLID_4_">
	<g id="XMLID_172_">
		<path id="XMLID_176_" class="st0" d="M530.5,775.6c3.2,0,3.2-5,0-5C527.3,770.6,527.3,775.6,530.5,775.6L530.5,775.6z"/>
	</g>
</g>
<g id="XMLID_39_">
	<g id="XMLID_159_">
		<path id="XMLID_163_" class="st0" d="M185.6,204.5c-7.8,14.1-15.8,28.6-19.3,44.5c-3.6,16.5-3.2,34.2-3.3,51
			c-0.1,17.2,0.9,34.5,4.9,51.3c4.1,16.7,10.2,33,9.5,50.4c-0.1,3.2,4.9,3.2,5,0c0.6-16-4.3-31.2-8.4-46.5
			c-4.5-16.9-6.1-34-6.1-51.4c0-17-0.5-35,2.8-51.7C174,235.9,182,221.4,190,207C191.5,204.2,187.2,201.7,185.6,204.5L185.6,204.5z"
			/>
	</g>
</g>
<g id="XMLID_1090_">
	<g id="XMLID_153_">
		<path id="XMLID_157_" class="st0" d="M170.4,362.7c-5.2,10.5-8.1,21.9-8.4,33.7c-0.1,5.9,0.7,11.6,1.6,17.4
			c1.3,7.9,1.1,14.4-1.4,22c-6.5,19.6-2.1,41,14.2,54.5c2.5,2,6-1.5,3.5-3.5c-7.6-6.3-12.8-14.7-15-24.4c-1.1-4.9-1.3-9.9-0.7-14.8
			c0.7-5.4,3-10.3,4.3-15.6c2.8-10.7-1.3-21.3-1.5-32.1c-0.3-12,2.4-23.9,7.7-34.6C176.1,362.4,171.8,359.8,170.4,362.7L170.4,362.7
			z"/>
	</g>
</g>
<g id="XMLID_1097_">
	<g id="XMLID_147_">
		<path id="XMLID_151_" class="st0" d="M181.2,474.3c-6.5,19.9-2.5,40.6,0.8,60.7c1.8,11.1,2.6,22.1,3.3,33.3
			c0.7,10.4,4.5,19.2,9.1,28.4c10.3,20.6,20.7,41.2,31,61.9c5,9.9,10,19.8,15.3,29.6c4.8,8.8,9.4,19.2,16.7,26.3
			c7.4,7.2,17.5,10.3,26,15.8c7.9,5.1,15.9,16.5,9,25.5c-1.9,2.6,2.4,5.1,4.3,2.5c10.5-13.8-4.7-29.2-16.3-35.5
			c-9.1-4.8-18.2-8.7-24.1-17.6c-6.3-9.4-11.5-19.7-16.7-29.7c-10.6-20.3-20.6-40.8-30.9-61.3c-5.3-10.5-11.4-21-15.6-32
			c-4-10.7-2.9-22.3-4.2-33.4c-2.9-24.2-10.9-49.1-3.1-73.2C187,472.5,182.2,471.2,181.2,474.3L181.2,474.3z"/>
	</g>
</g>
<g id="XMLID_1105_">
	<g id="XMLID_141_">
		<path id="XMLID_145_" class="st0" d="M296,762.8c8.6,3.3,17.8,0.2,23.2-7c-1.6-0.4-3.1-0.8-4.7-1.3c-0.3,3.1-0.6,6.2-0.9,9.3
			c-0.1,1,0.8,2.3,1.8,2.4c16.2,2.2,31.5,23.5,48.7,12.4c-1.3-0.7-2.5-1.4-3.8-2.2c0.2,4.2,1.3,7.8,3.8,11.2
			c0.8,1.1,2.2,1.7,3.4,0.9c2.6-1.7,5.5-3.8,8.6-4.4c3.7-0.7,9.9,1,8.2,6.1c-0.9,2.8,3.1,4.2,4.6,1.9c4.2-6.4,12.3-7,19.3-7.5
			c7.1-0.5,14-1.1,20.7-3.7c14.5-5.6,26-16.7,36.8-27.5c-1.4-0.6-2.8-1.2-4.3-1.8c-0.9,8.9,5.9,16.4,14.6,17.3
			c1.3,0.1,2.6-1.3,2.5-2.5c-0.5-7.3,1.3-14.5,5.4-20.6c4-5.9,10.4-9.1,14.8-14.5c4.1-5,5.8-11.3,8.8-16.9
			c2.8-5.2,10.6-12.7,16.7-7.5c1.8,1.5,4.9,0.1,4.2-2.4c-3.8-13.3,8.4-23.1,17-30.9c3.7-3.4,7.3-6.9,10.1-11.1
			c3.2-4.8,5.1-10.4,7.9-15.4c5.1-9.2,14.7-14.3,18.7-24.5c3.6-9.1,3.1-19.1-0.8-28c-1.3-2.9-5.6-0.4-4.3,2.5
			c4.6,10.4,3,23.2-4.5,31.9c-3.2,3.8-7.3,6.7-10.3,10.7c-3.6,4.6-5.6,10.1-8.2,15.2c-8.5,17.1-37.1,28.2-30.5,51
			c1.4-0.8,2.8-1.6,4.2-2.4c-4.9-4.2-11.1-3.7-16.4-0.5c-7.4,4.5-9.5,12.7-13.2,20c-4.2,8.4-12.8,12.3-18.1,19.8
			c-4.9,6.9-7,15.3-6.5,23.8c0.8-0.8,1.7-1.7,2.5-2.5c-6.2-0.6-10.2-6.3-9.6-12.3c0.2-2.2-2.8-3.2-4.3-1.8
			c-11.9,11.9-25,25-42.1,28.5c-12,2.5-27.6-0.7-35.4,11.2c1.5,0.6,3,1.3,4.6,1.9c1.6-5.1-1.5-10.1-6.3-12
			c-6.3-2.5-12.7,1.2-17.9,4.6c1.1,0.3,2.3,0.6,3.4,0.9c-1.9-2.7-2.9-5.3-3.1-8.6c-0.1-1.8-2.1-3.2-3.8-2.2
			c-7.9,5.1-17.1,0.8-24.2-3.6c-6.6-4-12.9-8.3-20.7-9.4c0.6,0.8,1.2,1.6,1.8,2.4c0.3-3.1,0.6-6.2,0.9-9.3c0.3-2.8-3.4-3-4.7-1.3
			c-4.2,5.5-11.3,7.1-17.6,4.7C294.3,756.8,293,761.6,296,762.8L296,762.8z"/>
	</g>
</g>
<g id="XMLID_1112_">
	<g id="XMLID_135_">
		<path id="XMLID_139_" class="st0" d="M579.8,598.2c2.8,5.9,9.1,8.6,15.3,7.1c1.4-0.4,2.5-2.4,1.5-3.7c-7.9-10.3,2.1-21.9,7.6-30.6
			c5-8,7.2-16.7,7-26.1c-0.2-10.1-2.7-20.1-4.1-30.1c-1.6-11.1-1.4-21.2,2.7-31.8c1.9-5,3.5-9.8,3.6-15.2c0.2-6.4-0.8-12.8-1.1-19.1
			c-0.7-12.6-0.9-25.2-0.1-37.8c0.7-12.4,3.1-24.5,4.6-36.8c0.7-5.8,0.4-11.4,0.1-17.2c-0.4-6.5,0.7-12.4,2.9-18.5
			c3.7-9.9,9.1-19.3,8.8-30.2c-0.3-8.4-3.6-16.9-11.7-20.6c-2.9-1.3-5.4,3-2.5,4.3c8.7,4,10.3,14.7,8.7,23.2
			c-1.9,10.1-7.9,19-10.2,29c-1.2,5.1-1.1,10.1-0.7,15.3c0.4,6.6,0,12.8-1,19.3c-1.8,11.6-3.5,23.2-4,34.9
			c-0.6,12.3-0.4,24.6,0.4,36.9c0.3,5.7,1.2,11.5,1,17.2c-0.2,6.5-2.9,11.8-4.9,17.8c-6.6,19.3,2,38.9,2.7,58.4
			c0.2,5.5-0.3,11.1-2.2,16.3c-2.2,6-6.3,11-9.7,16.4c-5.1,8.1-8.5,18.9-2.1,27.3c0.5-1.2,1-2.4,1.5-3.7c-4.2,1-7.8-0.9-9.7-4.8
			C582.7,592.8,578.4,595.3,579.8,598.2L579.8,598.2z"/>
	</g>
</g>
<g id="XMLID_1557_">
	<g id="XMLID_129_">
		<path id="XMLID_133_" class="st0" d="M260,166.6c-18.9,14.5-33.2,34.1-41,56.6c-4,11.4-6,23.2-6.5,35.2c-0.6,14,0.2,28.6-6.9,41.1
			c-1.6,2.8,2.5,5.1,4.3,2.5c1.2,1.9,1.1,3.7-0.1,5.4c-0.3,0.5-0.5,1.1-0.8,1.6c-0.7,1.6-1.5,3.2-2.2,4.9c-1.3,2.9-2.5,5.9-3.7,8.8
			c-2.5,6.3-4.9,12.8-6.9,19.3c-4.2,13.3-7.5,26.9-9.8,40.7c-4.5,27.2-5.1,55-1.7,82.4c0.4,3.2,5.4,3.2,5,0
			c-4.1-33.5-2.4-67.5,5.4-100.3c3.9-16.6,9.2-32.8,16.1-48.4c2-4.5,7.2-11.9,3.7-16.8c-2.4-3.4-7-3.3-9.3-0.1
			c1.4,0.8,2.9,1.7,4.3,2.5c6.2-10.8,7-23,7.4-35.1c0.4-12.4,1.2-24.5,4.7-36.5c6.8-23.5,21.2-44.7,40.6-59.6
			C265.1,169,262.6,164.7,260,166.6L260,166.6z"/>
	</g>
</g>
<g id="XMLID_1558_">
	<g id="XMLID_123_">
		<path id="XMLID_127_" class="st0" d="M196.4,494.7c12.4,10.6,5.8,30.9,12.1,44.6c8,17.2,33.1,16,40.5,33.5c2.4,5.7,3,14.7,11,15.1
			c4.7,0.3,8.3-3,13-0.9c3.4,1.5,6.1,3.2,9.9,1.8c7.1-2.5,10.2-11.8,14.1-17.5c5.9-8.4,13.4-15.7,21.2-22.2
			c9.2-7.7,19.1-14.7,28.8-21.8c9.6-7.1,22-18.8,34.9-14.3c3,1.1,4.4-3.8,1.3-4.8c-8.9-3.1-17.7,0.4-25.3,5.2
			c-9.2,5.8-17.9,12.8-26.7,19.3c-15,11.1-30.2,22.9-40.4,38.8c-2.3,3.5-4,7.8-7,10.7c-4.5,4.4-8-0.5-12.9-1.1
			c-3.7-0.5-8.2,2.9-11.7,1.6c-3.9-1.4-4.3-8.6-5.7-11.9c-3.1-7.3-9.6-12.2-16.3-16c-8.2-4.6-18.8-7.7-23.6-16.4
			c-8.1-14.7,0.3-35.3-13.7-47.3C197.5,489.1,193.9,492.6,196.4,494.7L196.4,494.7z"/>
	</g>
</g>
<g id="XMLID_1560_">
	<g id="XMLID_117_">
		<path id="XMLID_121_" class="st0" d="M386.7,512.9c11.4,12.2,26.5-6.9,38.5,1c6.1,4,10.8,9.1,17.5,12.4
			c6.9,3.4,14.3,5.9,20.7,10.3c12.5,8.5,20.1,22.5,26.1,36c2.2,4.9,4.2,11.2,10.6,11.6c6.4,0.4,12-4.9,16.6-8.5
			c10.2-7.9,20.6-17.6,23.4-30.7c1.4-6.5,0.8-13.2,1.1-19.8c0.2-3.6,0.6-7.2,2.1-10.4c2.1-4.6,6.3-7.1,10.3-9.9
			c22.2-15.3,38-39,43.9-65.3c7-31-3.6-59.7-10.9-89.5c-4.3-17.4-4.8-34.4-5.5-52.2c-0.6-16.7-3.1-33.4-7.6-49.5
			c-4.1-14.7-9.2-30.1-19.3-41.8c-9.1-10.5-21.8-16.9-34.5-21.8c-13.8-5.3-29.6-12.2-44.7-10c-7.4,1.1-14.1,4.3-20.8,7.4
			c-7.6,3.6-15.2,7-23.1,9.6c-15.6,5.2-32.6,7.2-47.4-1.2c-11.4-6.5-20.2-16.7-32-22.5c-13.9-6.9-27.4-2.7-42-1.3
			c-8.5,0.8-15.4-1.1-23.2-4.3c-6-2.4-12.1-4.3-18.5-2.4c-4.8,1.4-8.4,4.6-9.8,9.4c-0.9,3.1,3.9,4.4,4.8,1.3
			c2.2-7.8,12.2-7.2,18.2-5.1c6.4,2.2,12.3,5.4,19.2,6.1c14.6,1.5,29.2-6,43.7-1.5c11.8,3.7,20.8,13.2,30.6,20.3
			c10.7,7.7,22.8,11.6,36,10.7c14.2-1,27.7-6.3,40.6-12.2c7.1-3.2,14.2-7.2,21.9-8.9c8.2-1.8,16.2-0.2,24.1,2.2
			c13.3,4,27,8.6,39,15.8c13.5,8.2,21.6,20.4,27.1,35c5.6,15.1,9.4,31,11.4,47c1.9,16.1,0.9,32.3,2.7,48.4
			c3.4,30.3,18,58.7,17.6,89.5c-0.3,26.6-11.7,52.8-30.6,71.5c-5,5-10.5,9-16.2,13c-4.8,3.3-8.6,7.1-10.5,12.7
			c-4.3,12.6,0.8,26-6.3,38.1c-3.5,5.9-8.4,10.7-13.6,15.1c-4.3,3.7-15.1,14.6-20.6,9c-2.2-2.2-3.2-6.5-4.5-9.3
			c-1.4-3.1-3-6.2-4.6-9.2c-3-5.5-6.4-10.7-10.4-15.5c-9.2-10.9-21-15.3-33.3-21.5c-6.4-3.2-10.9-8.2-16.8-12.1
			c-5.3-3.5-11-3.3-16.9-1.4c-6.2,2-15,7.2-20.5,1.2C388,507,384.5,510.6,386.7,512.9L386.7,512.9z"/>
	</g>
</g>
<g id="XMLID_1562_">
	<g id="XMLID_111_">
		<path id="XMLID_115_" class="st0" d="M331.4,576.9c11-3.1,21.9-6.3,32.9-9.3c6.1-1.6,11.6-2,17.8-0.9c4.7,0.9,8.7,0.6,13.3-0.4
			c11.5-2.6,22.5-0.9,33.9,0.9c11,1.7,22,3.9,32.3,8c3,1.2,4.3-3.6,1.3-4.8c-10.7-4.3-21.9-6.4-33.3-8.2
			c-10.6-1.6-21.5-3.6-32.2-1.6c-3,0.6-6,1.7-9,1.8c-2.9,0.1-5.6-0.7-8.4-1.1c-4.9-0.8-9.6-0.3-14.4,0.8c-12,2.8-23.9,6.6-35.7,10
			C327,572.9,328.3,577.8,331.4,576.9L331.4,576.9z"/>
	</g>
</g>
<g id="XMLID_1569_">
	<g id="XMLID_105_">
		<path id="XMLID_109_" class="st0" d="M356.7,554.1c3.9-2.7,8-5.3,12.2-7.6c4.2-2.3,10.6-6.9,15.2-3.2c2.4,2,3.4,4.2,6.5,5.1
			c3.1,0.9,6.6,0.5,9.7-0.3c8.2-2.3,15.9-9.2,23.2-1.2c3.9,4.2,6.8,9.6,12.9,10.6c3.1,0.5,4.5-4.3,1.3-4.8
			c-6.7-1.1-9.2-9.4-14.6-12.8c-7.7-4.9-15.3,0.4-22.7,2.9c-5.5,1.9-8.8,1.1-12.7-3.1c-2.3-2.4-5.1-3.3-8.4-2.9
			c-4,0.5-7.8,2.7-11.3,4.5c-4.8,2.5-9.4,5.3-13.8,8.4C351.5,551.6,354,556,356.7,554.1L356.7,554.1z"/>
	</g>
</g>
<g id="XMLID_1576_">
	<g id="XMLID_99_">
		<path id="XMLID_103_" class="st0" d="M345.7,588.9c17,13,37.7,23.3,59.7,21.8c9.2-0.6,18.4-3.1,26.4-7.8c4.1-2.4,7.8-5.4,11-8.9
			c3.9-4.2,7.1-8.9,12.5-11.5c2.9-1.4,0.4-5.7-2.5-4.3c-8.4,4.1-12.8,13.1-20.3,18.4c-7.9,5.6-17.4,8.6-27,9.2
			c-21.1,1.4-40.8-8.7-57.1-21.2C345.6,582.7,343.1,587,345.7,588.9L345.7,588.9z"/>
	</g>
</g>
<g id="XMLID_1583_">
	<g id="XMLID_92_">
		<path id="XMLID_97_" class="st0" d="M341.3,342.4c3.8,3.9,6.5,8.4,8.2,13.5c1.4-0.8,2.8-1.6,4.2-2.4c-6.7-7.4-14.5-13.6-23.2-18.7
			c-2.2-1.3-4.7,1.3-3.4,3.4c2.1,3.7,4.9,6.6,8.4,9c0.6-1.5,1.3-3,1.9-4.6c-5.6-2.3-11.1-4.5-16.7-6.8c-2.9-1.2-3.9,3-1.9,4.6
			c5,3.8,9.3,8.3,12.8,13.5c1.1-1.1,2.3-2.3,3.4-3.4c-5.9-3.4-11.8-6.9-17.8-10.3c-1.8-1-4.4,0.7-3.7,2.8c0.8,2.4,2,3.7,4.5,4.1
			c2.7,0.4,4.5-3,1.9-4.6c-4.2-2.6-8.7-4.2-13.6-4.8c-1.7-0.2-3.8,1.1-3.1,3.1c1.9,5,5.3,8.4,10.3,10.3c2.3,0.8,4.4-2.6,2.4-4.2
			c-5.2-4.2-10.8-7-17.4-8.4c-2.1-0.4-4,1.7-2.8,3.7c1.9,3.3,4.2,6,7.1,8.5c1-1.3,2-2.6,3-3.9c-4.8-2.5-9.5-5-14.3-7.5
			c-1.6-0.8-3.9,0.2-3.8,2.2c0.3,4.2,2.3,7.6,6.2,9.3c2.3,1,4.6-1.1,3.4-3.4c-2.9-5.7-8.3-8.9-14.7-8.8c-1.7,0-2.8,1.6-2.4,3.2
			c0.8,3.6,2.8,6.1,5.9,8c0.8-1.4,1.7-2.9,2.5-4.3c-3.5-2-7.1-3.2-11.1-3.8c-2.2-0.3-4.5,2.3-2.4,4.2c1.9,1.8,3.8,3.5,5.7,5.3
			c0.8-1.4,1.6-2.8,2.4-4.2c-4.2-1.4-8.4-2.8-12.6-4.2c-2.8-0.9-4.2,3.1-1.9,4.6c1.7,1.1,3.3,2.1,5,3.2c0.4-1.6,0.8-3.1,1.3-4.7
			c-3.4,0-6.5-0.5-9.7-1.6c0,1.6,0,3.2,0,4.8c0.1,0,0.3-0.1,0.4-0.1c-0.9-0.4-1.9-0.8-2.8-1.1c0.1-0.5,0.2-1,0.4-1.5
			c0.8-0.2,1.6-0.4,2.4-0.6c-2.1-0.3-3.6-1.9-5.8-2c-1.9-0.1-3.5,0.6-5,1.5c-1.9,1.2-1.3,4.9,1.3,4.7c1.4-0.1,2.7-0.3,4.1-0.4
			c-0.6-1.4-1.2-2.8-1.8-4.3c-0.8,1-1.9,1.6-3.2,1.8c-3.1,0.8-1.8,5.7,1.3,4.8c2.1-0.6,3.8-1.5,5.4-3.1c1.4-1.4,0.4-4.5-1.8-4.3
			c-1.4,0.1-2.7,0.3-4.1,0.4c0.4,1.6,0.8,3.1,1.3,4.7c3.4-2.1,6.3,2.8,9.4,0.3c1.4-1.2,1.4-3.2,0.4-4.6c-0.6-0.9-1.7-1.5-2.8-1.1
			c-0.1,0-0.3,0.1-0.4,0.1c-2.4,0.8-2.4,4.1,0,4.8c3.7,1.2,7.2,1.7,11,1.7c2.5,0,3.3-3.3,1.3-4.7c-1.7-1.1-3.3-2.1-5-3.2
			c-0.6,1.5-1.3,3-1.9,4.6c4.2,1.4,8.4,2.8,12.6,4.2c2.4,0.8,4.2-2.5,2.4-4.2c-1.9-1.8-3.8-3.5-5.7-5.3c-0.8,1.4-1.6,2.8-2.4,4.2
			c3.6,0.5,6.8,1.5,10,3.3c2.8,1.6,5.3-2.6,2.5-4.3c-2-1.2-3.1-2.8-3.6-5.1c-0.8,1.1-1.6,2.1-2.4,3.2c4.7,0,8.2,2.2,10.4,6.4
			c1.1-1.1,2.3-2.3,3.4-3.4c-2.2-1-3.6-2.5-3.8-5c-1.3,0.7-2.5,1.4-3.8,2.2c4.8,2.5,9.5,5,14.3,7.5c2.4,1.3,5.3-2,3-3.9
			c-2.6-2.1-4.6-4.5-6.3-7.4c-0.9,1.2-1.9,2.4-2.8,3.7c5.6,1.2,10.7,3.5,15.2,7.1c0.8-1.4,1.6-2.8,2.4-4.2c-3.3-1.2-5.6-3.5-6.8-6.8
			c-1,1-2.1,2.1-3.1,3.1c4.5,0.6,8.5,2,12.4,4.3c0.6-1.5,1.3-3,1.9-4.6c-0.3-0.2-0.7-0.4-1-0.6c-1.2,0.9-2.4,1.9-3.7,2.8
			c5.9,3.4,11.8,6.9,17.8,10.3c2,1.2,4.9-1.3,3.4-3.4c-4.1-5.9-8.9-10.9-14.6-15.3c-0.6,1.5-1.3,3-1.9,4.6
			c5.6,2.3,11.1,4.5,16.7,6.8c2.8,1.1,4.1-3.1,1.9-4.6c-2.8-1.9-4.9-4.2-6.6-7.2c-1.1,1.1-2.3,2.3-3.4,3.4
			c8.3,4.8,15.7,10.8,22.2,17.9c1.7,1.8,4.9-0.1,4.2-2.4c-2-6-5.1-11.2-9.5-15.7C342.6,336.5,339.1,340.1,341.3,342.4L341.3,342.4z"
			/>
	</g>
</g>
<g id="XMLID_1590_">
	<g id="XMLID_86_">
		<path id="XMLID_90_" class="st0" d="M456.4,357.3c4-2.3,7.9-4.7,11.9-7c-0.8-1.4-1.7-2.9-2.5-4.3c-4.3,3.2-8.6,6.4-12.9,9.6
			c-2.5,1.9-0.3,6,2.5,4.3c5.7-3.3,11.6-6,17.8-8.1c-0.8-1.4-1.6-2.8-2.4-4.2c-3.2,2.9-6.5,5.8-9.8,8.6c-2.3,2,0.6,5,3,3.9
			c6.9-3.1,13.8-6.2,20.6-9.3c-0.8-1.4-1.7-2.9-2.5-4.3c-4.9,3.4-9.9,6.8-14.8,10.2c-2.2,1.5-0.9,5.6,1.9,4.6
			c6.3-2.2,12.7-4.5,19-6.7c-0.6-1.5-1.3-3-1.9-4.6c-2.5,1.9-5.1,3.8-7.6,5.7c-2.1,1.6-1,5.5,1.9,4.6c6.5-2.1,13-4.2,19.6-6.3
			c-0.9-1.2-1.9-2.4-2.8-3.7c-1.7,2.7-3.7,4.6-6.4,6.2c-2.4,1.4-0.8,5.7,1.9,4.6c5.1-2.1,10.3-4.2,15.4-6.3c-1-1-2.1-2.1-3.1-3.1
			c-0.1,1.2-0.6,2.3-1.4,3.2c-1.3,1.8,0.9,4.3,2.8,3.7c4.2-1.3,8.4-2.5,12.7-3.8c-0.9-1.2-1.9-2.4-2.8-3.7c-1.8,2.4-3.8,4.5-6.1,6.4
			c-2.5,2.1,1.1,5.5,3.5,3.5c8-6.3,22.3,4.5,29.3,8.2c2.8,1.5,5.4-2.8,2.5-4.3c-9.9-5.2-24.5-16.1-35.4-7.4c1.2,1.2,2.4,2.4,3.5,3.5
			c2.6-2.2,4.8-4.7,6.9-7.4c1.3-1.8-0.9-4.3-2.8-3.7c-4.2,1.3-8.4,2.5-12.7,3.8c0.9,1.2,1.9,2.4,2.8,3.7c1-1.4,1.6-2.7,1.9-4.4
			c0.3-1.7-1.2-3.9-3.1-3.1c-5.1,2.1-10.3,4.2-15.4,6.3c0.6,1.5,1.3,3,1.9,4.6c3.5-2,6.1-4.6,8.2-8c1.1-1.8-0.8-4.3-2.8-3.7
			c-6.5,2.1-13,4.2-19.6,6.3c0.6,1.5,1.3,3,1.9,4.6c2.5-1.9,5.1-3.8,7.6-5.7c2.1-1.5,1-5.6-1.9-4.6c-6.3,2.2-12.7,4.5-19,6.7
			c0.6,1.5,1.3,3,1.9,4.6c4.9-3.4,9.9-6.8,14.8-10.2c2.7-1.9,0.4-5.6-2.5-4.3c-6.9,3.1-13.8,6.2-20.6,9.3c1,1.3,2,2.6,3,3.9
			c3.3-2.8,6.6-5.7,9.8-8.6c1.8-1.7-0.1-5-2.4-4.2c-6.6,2.3-12.9,5.2-19,8.7c0.8,1.4,1.7,2.9,2.5,4.3c4.3-3.2,8.6-6.4,12.9-9.6
			c2.5-1.9,0.3-6-2.5-4.3c-4,2.3-7.9,4.7-11.9,7C451.1,354.6,453.6,358.9,456.4,357.3L456.4,357.3z"/>
	</g>
</g>
<g id="XMLID_1597_">
	<g id="XMLID_80_">
		<path id="XMLID_84_" class="st0" d="M349.9,392.1c4.3-0.7,9-2,10.7-6.5c1.4-3.9-0.6-6.7-3.6-9c-8.3-6.6-17.5-16-29-13.6
			c-5.8,1.2-11.2,4.2-17,5.6c-5.8,1.4-11.7,2-17.5,2.6c-10.9,1.1-21.8,2.5-31.3,8.4c-2.7,1.7-0.2,6,2.5,4.3
			c14.3-8.9,31.8-6.6,47.6-10.4c8.7-2.1,17.9-9,26.7-3.9c3.7,2.2,7.1,5.1,10.5,7.7c2,1.5,7.1,3.9,6.1,7.1c-0.7,2.3-5.2,2.7-7.1,3
			C345.4,387.7,346.7,392.5,349.9,392.1L349.9,392.1z"/>
	</g>
</g>
<g id="XMLID_1604_">
	<g id="XMLID_74_">
		<path id="XMLID_78_" class="st0" d="M278.9,393.1c14.7,8.1,31.5,10.3,47.8,6.3c3.1-0.8,1.8-5.6-1.3-4.8
			c-14.9,3.7-30.5,1.6-43.9-5.8C278.6,387.2,276.1,391.5,278.9,393.1L278.9,393.1z"/>
	</g>
</g>
<g id="XMLID_1611_">
	<g id="XMLID_68_">
		<path id="XMLID_72_" class="st0" d="M450.3,390.3c-2-0.4-4.6-0.7-6.3-2.1c-3.6-2.9-1.5-4.7,1.4-4.4c2.7,0.3,4.6,0.2,7.2-0.8
			c3.9-1.6,7-4.8,11.2-5.8c4.6-1.1,9.4,0.5,13.9,1.7c3.8,1,7.4,1.8,11.3,2c5.4,0.3,10.8-0.5,16.1,0.5c8.6,1.7,15.9,7,22.8,12
			c2.6,1.9,5.1-2.5,2.5-4.3c-9.1-6.5-18.5-12.6-30.1-13.2c-7.4-0.3-14.1,0.1-21.4-1.8c-5.1-1.3-10.4-2.9-15.7-1.8
			c-5.2,1-8.8,5.5-13.9,6.6c-3.9,0.9-7.2-2.1-10.4,1.5c-1.9,2.2-2.3,5.8-1,8.5c2,4.1,6.9,5.4,10.9,6.3
			C452.1,395.8,453.5,391,450.3,390.3L450.3,390.3z"/>
	</g>
</g>
<g id="XMLID_1618_">
	<g id="XMLID_62_">
		<path id="XMLID_66_" class="st0" d="M464.3,400.6c17.6,5.4,36.1,7,54.4,4.7c3.1-0.4,3.2-5.4,0-5c-17.9,2.3-35.8,0.8-53-4.5
			C462.6,394.8,461.2,399.6,464.3,400.6L464.3,400.6z"/>
	</g>
</g>
<g id="XMLID_1625_">
	<g id="XMLID_56_">
		<path id="XMLID_60_" class="st0" d="M420.2,370.6c-2.6,12.2-2.4,24.6,0.6,36.7c0.8,3.1,5.6,1.8,4.8-1.3c-2.8-11.3-3-22.7-0.6-34
			C425.7,368.8,420.9,367.4,420.2,370.6L420.2,370.6z"/>
	</g>
</g>
<g id="XMLID_1632_">
	<g id="XMLID_50_">
		<path id="XMLID_54_" class="st0" d="M446.9,464c2.1,3.4,4.4,7,4.7,11.1c0.3,3.9-1.6,8.5-6.2,8.6c-3.2,0-3.2,5,0,5
			c5.2-0.1,9.2-3.6,10.7-8.6c2-6.6-1.6-13.1-4.9-18.7C449.6,458.7,445.3,461.2,446.9,464L446.9,464z"/>
	</g>
</g>
<g id="XMLID_1639_">
	<g id="XMLID_44_">
		<path id="XMLID_48_" class="st0" d="M346,461.9c-11.1,8.7-11.7,26.5-1.5,36c2.3,2.2,5.9-1.3,3.5-3.5c-8.4-7.9-7.5-22,1.5-29
			C352,463.4,348.5,459.9,346,461.9L346,461.9z"/>
	</g>
</g>
<g id="XMLID_1646_">
	<g id="XMLID_37_">
		<path id="XMLID_42_" class="st0" d="M358.6,495.5c12.8,4.8,25.9,10.5,39.8,10.2c13.2-0.2,24.6-6.8,35.5-13.7
			c2.7-1.7,0.2-6-2.5-4.3c-10.7,6.7-21.7,13.2-34.7,13c-12.8-0.3-24.9-5.7-36.7-10.1C357,489.6,355.7,494.4,358.6,495.5L358.6,495.5
			z"/>
	</g>
</g>
<g id="XMLID_1653_">
	<g id="XMLID_31_">
		<path id="XMLID_35_" class="st0" d="M164.7,191.1c-6.9,16.8-8.4,35-4.7,52.7c0.7,3.1,5.5,1.8,4.8-1.3c-3.5-16.9-1.8-34.1,4.7-50
			C170.8,189.4,165.9,188.1,164.7,191.1L164.7,191.1z"/>
	</g>
</g>
<g id="XMLID_1660_">
	<g id="XMLID_25_">
		<path id="XMLID_29_" class="st0" d="M172.2,189.3c-7.8-9.4-14.1-19.9-18.5-31.3c-3.5-9-6.6-19.1-5.4-29c0.7-5.4,2.9-10.7,7.5-14
			c4.6-3.3,10.7-4.3,16.1-5.6c12.2-3,24.5-5.8,36.8-8.5c49.9-10.6,100.7-17.5,151.8-18.6c48.1-1,96.4,3.2,143.2,14.3
			c22.9,5.4,45.4,12.4,67.2,21.2c11.3,4.5,22.3,9.5,33.2,15c10.3,5.2,20.6,10.8,29.2,18.6c9.7,8.7,17.7,20.6,18.6,33.9
			c0.9,12.6-5.5,23.6-11,34.5c-5.5,10.9-8.4,21.1-8.9,33.3c-0.4,11.5-0.6,26.1-12.5,32.1c-2.9,1.4-0.3,5.8,2.5,4.3
			c8.6-4.3,12.8-13.5,14.1-22.7c0.8-5.8,0.7-11.6,1-17.4c0.4-7,1.8-13.5,4.6-19.9c4.4-10.1,10.6-19.4,13.5-30.1
			c2.9-10.5,1.5-21.3-3-31.2c-10.3-22.2-33.7-34.1-54.7-44.1c-22.8-10.8-46.5-19.7-70.7-26.6c-103.2-29.5-212.6-23.7-316.7-2
			c-15,3.1-30.1,6.5-44.9,10.4c-10.7,2.8-19.3,8.3-21.6,19.7c-2.2,11.1,0.9,22.6,4.8,32.9c4.7,12.5,11.5,24,20.1,34.3
			C170.7,195.3,174.2,191.8,172.2,189.3L172.2,189.3z"/>
	</g>
</g>
<g id="XMLID_1667_">
	<g id="XMLID_19_">
		<path id="XMLID_23_" class="st0" d="M182.2,210c48.5-35.2,104-62.2,165.2-60.5c33.1,0.9,66,6.4,98.5,12.5
			c16.3,3,32.5,6.3,48.7,9.6c15.5,3.2,31.1,6.3,46,11.8c30.2,11.1,55,33,72.9,59.4c1.8,2.7,6.1,0.2,4.3-2.5
			c-15.4-22.8-35.7-42.5-60.3-55c-14.2-7.2-29.6-11.6-45.1-15.1c-16.5-3.7-33.2-6.9-49.9-10.2c-33.3-6.5-66.8-12.4-100.7-14.8
			c-31.8-2.3-62.8,1.1-92.9,11.7c-32.2,11.3-61.8,28.8-89.3,48.8C177.1,207.5,179.6,211.9,182.2,210L182.2,210z"/>
	</g>
</g>
<g id="XMLID_1674_">
	<g id="XMLID_13_">
		<path id="XMLID_17_" class="st0" d="M221,97.5c9.9-23.8,33.4-37.6,55.2-49c25.9-13.5,52.5-27,81.2-33.4
			c58.7-13,117.1,14.4,166.9,43c23.5,13.5,47.8,31.2,54.8,58.8c0.8,3.1,5.6,1.8,4.8-1.3c-6.3-24.8-26-42.3-46.8-55.6
			c-24.7-15.7-51.9-29-79.2-39.3C429.1,9.8,398.2,3.7,367.4,8.2c-31.2,4.5-59.9,18.7-87.7,32.8c-25.2,12.8-52.2,27.7-63.6,55.1
			C214.9,99.1,219.8,100.4,221,97.5L221,97.5z"/>
	</g>
</g>
</svg>
