<?xml version="1.0" encoding="utf-8"?>
<!-- Generator: Adobe Illustrator 19.0.0, SVG Export Plug-In . SVG Version: 6.00 Build 0)  -->
<svg version="1.1" id="Layer_1" xmlns="http://www.w3.org/2000/svg" xmlns:xlink="http://www.w3.org/1999/xlink" x="0px" y="0px"
	 viewBox="0 0 800 800" style="enable-background:new 0 0 800 800;" xml:space="preserve">
<style type="text/css">
	.st0{fill:#FFFFFF;}
</style>
<path id="XMLID_276_" class="st0" d="M240.4,123.2c15.5-14.8,42.7-13.6,62.5-17.8c10.5-2.2,20.2-5.9,29.2-12
	c10.4-7,19.7-20.8,32.8-21.2c5.9-0.2,12.4,0.8,16.1-4.9c4.4-6.7,0.8-17.2-2.4-23.7c-8.5-17.7-28.9-34.2-47.2-18.7
	c-6.1,5.1,2.7,13.8,8.7,8.7c12.1-10.2,26.2,9.1,28.8,19c1.7,6.6,1.4,6.3-4.1,7.3c-3.1,0.5-6.3,0.1-9.4,1
	c-6.9,1.9-11.5,6.9-16.7,11.5c-7.9,7.1-16.4,13.9-26.4,17.7c-26,9.9-59.2,4-80.7,24.5C225.9,119.9,234.7,128.6,240.4,123.2
	L240.4,123.2z"/>
<path id="XMLID_275_" class="st0" d="M352.5,25.9c24-6.5,48.9-3.4,70.3,9.4c3.5,2.1,8,0.1,9.1-3.7c3-10.4,1.4-20.1-5.1-28.8
	c-2.8,2.8-5.6,5.6-8.4,8.4c13.1,6.2,22,16.3,24.8,30.7c1.1,5.6,8.5,5.5,11.3,1.5c3.2-4.6,7.5-7.1,12.7-8.5c-2-3.4-4-6.9-6-10.3
	c-10.3,8.1-7.3,22.9,1.9,30.7c12.9,10.9,46.7,3.3,51.9,21.6c0.7,2.4,3.3,4.7,6,4.5c5.4-0.4,10.7-0.9,16.1-1.3
	c3.3-0.3,6.2-2.6,6.2-6.2c-0.1-4.6-0.1-9.1-0.2-13.7c-4,0.5-8.1,1.1-12.1,1.6c3.2,15.9-10.3,19.6-15.2,31.8c-2,5-2,11.9,2.5,15.8
	c3.4,3,7.8,2.7,12,2.3c2.8-0.3,5.6-0.8,8.4-1.3c3.2-0.5,7.1,0.5,4.1-2.3c-0.5-2-1.1-4-1.6-6c-0.1,0.2-0.1,0.4-0.2,0.6
	c-1.7,5,3.4,8.2,7.6,7.6c3.3,2.8,6.5,5.7,9.8,8.5c-0.8,4.2,2.8,9.4,7.6,7.6c5.5-2,18.3-8.7,20-1.7c1,4.2-1.1,9.9-0.8,14.3
	c0.3,3.8,0.9,6.9,3.3,10.1c2.1,2.8,8.3,5,9.7,7.7c0-2.1,0-4.2,0-6.2c-0.1-0.2-0.2-0.4-0.2-0.6c-5.7,2.5-2.7,11.8,3.1,11.5
	c7.5-0.4,14.2,0.5,21.3,3c-1.2-3-2.5-6-3.7-9.1c-2.6,4-3.6,7.5-3.9,12.2c-0.2,2.7,2,5.3,4.5,6c8.8,2.4,16,1.6,24.2-2.1
	c-2.8-2.8-5.6-5.6-8.4-8.4c-10.6,14.8-14.3,41.9-8.4,59.1c1.6,4.6,4.8,7.7,7.2,11.8c3.5,5.7,1.9,11.4,4.1,17.5
	c2.4,6.7,9.2,11,11.4,17.7c2.2,6.6,1,14.7,2,21.6c1.2,7.8,13.1,4.5,11.9-3.3c-1.7-11.3,0.2-21.1-6.9-30.8
	c-4.6-6.3-6.6-10.9-7.7-18.7c-0.6-4.7-2.3-7.7-5-11.6c-10.7-15.5-9.1-41.5,2-57.1c4-5.6-3.5-10.7-8.4-8.4c-4.9,2.4-9.8,2.7-14.7,0.8
	c1.5,2,3,4,4.5,6c0.7-2,1.4-4,2.2-6c2.3-3.6-0.1-7.8-3.7-9.1c-8.2-2.9-16-3.9-24.6-3.5c1,3.8,2.1,7.7,3.1,11.5
	c2.2-1,3.3-1.9,4.7-3.9c1.3-1.8,1-4.4,0-6.2c-3-5.7-10.3-5.7-11.4-12.7c-1-6.3,2-12.9,0.5-19.4c-3.6-15.8-25.2-7.7-35.3-4
	c2.5,2.5,5.1,5.1,7.6,7.6c2.8-15.5-10.3-25.8-25-23.7c2.5,2.5,5.1,5.1,7.6,7.6c0.1-0.2,0.1-0.4,0.2-0.6c0.7-2-0.1-4.6-1.6-6
	c-2.5-2.4-5.1-2.2-8.4-2.1c-3.1,0.2-13.6,4-15.8,2.3c-1-0.8,11.8-14.7,13.7-18.7c3.5-7.3,3.6-14.6,2-22.4
	c-1.4-6.9-12.2-5.2-12.1,1.6c0.1,4.6,0.1,9.1,0.2,13.7c2.1-2.1,4.1-4.1,6.2-6.2c-5.4,0.4-10.7,0.9-16.1,1.3c2,1.5,4,3,6,4.5
	c-2.9-10.5-11.5-16.3-21.6-19.4c-6.6-2-13.5-2.2-20.2-3.4c-6.1-1.1-26.6-8.5-15.1-17.5c5.1-4-0.5-11.8-6-10.3
	c-8.7,2.3-15,6.8-20.1,14.2c3.8,0.5,7.5,1,11.3,1.5C451.7,21.4,440.3,8,424.6,0.6c-4.9-2.3-12.5,3-8.4,8.4c4.6,6.2,6,11.7,3.8,19.3
	c3-1.2,6-2.5,9.1-3.7c-24.2-14.4-52.7-18-79.8-10.6C341.5,16.1,344.8,28,352.5,25.9L352.5,25.9z"/>
<path id="XMLID_274_" class="st0" d="M649.5,287.6c2.7,8.9,0.8,17,0.2,26c-0.5,8.1,1.5,13.7,3.2,21.3c2,9-4.2,11.9-8.1,18.9
	c-3.1,5.5-3.6,11.9-4.8,18c-3.1,15.1-9.6,23.6-19.7,35c-7.4,8.3-14.3,17-16.5,28.2c-1.5,7.8,10.4,11.1,11.9,3.3
	c2.9-14.4,14.9-23.5,23.7-34.5c9.1-11.3,11-22.6,14.1-36.4c2.5-11.3,15-19.3,12.8-31.7c-0.9-5-3.9-8.9-4.4-14.1
	c-0.4-3.9,0.2-8.1,0.6-12c0.9-8.8,1.6-16.6-1.1-25.3C659.1,276.7,647.2,279.9,649.5,287.6L649.5,287.6z"/>
<path id="XMLID_273_" class="st0" d="M625.4,405.1c-1.2,8.5,0.4,15.9,0.8,24.4c0.5,10.3-5.1,17.3-7.2,26.8c-1.7,7.9-1,16-0.6,24
	c0.2,3.8,0.4,7.7,0.1,11.5c-0.1,1.2-5.5,22.7-9.7,17.6c-5.1-6.1-13.8,2.7-8.7,8.7c15.1,18.2,29.9-14.4,30.7-26.4
	c1.1-15.8-1.8-28.5,4.4-43.7c5.6-13.8,0.1-25.6,2.1-39.7C638.3,400.6,626.5,397.2,625.4,405.1L625.4,405.1z"/>
<path id="XMLID_272_" class="st0" d="M235.2,106.2c-11,7.3-22.8,14.5-31.7,24.4c-6.2,6.9-9.7,15.4-13.4,23.8
	c-4.3,9.6-7.1,17.4-14.8,24.7c-9.2,8.6-15.8,20.9-29.2,23.2c-4.8,0.8-5.7,7.2-2.7,10.3c3,3.1,6,6.2,9,9.2c4.5,4.6,6.1,4.3,3.8,9.3
	c-1.6,3.5-6.9,7.1-9.6,10c-3.7,4-7.4,7.9-11.3,11.7c-1.9,1.8-2.4,5.2-1,7.5c5.4,8.1,12.5,13,21.9,15.3c-1.2-3-2.5-6-3.7-9.1
	c-4.5,9.7-16.3,24.9-13.1,36.2c1.6,5.4,5.2,10.4,7.2,15.7c2,5.6,5.8,10.2,8,15.7c3.2,8,0.7,16.5,1.1,24.8c0.4,7,2.1,13.9,4,20.6
	c4.8,16.7,10.2,33.3,15.3,49.9c2.3,7.6,14.3,4.3,11.9-3.3c-4.5-14.6-9-29.1-13.5-43.7c-2.3-7.7-4.9-15.5-5.5-23.6
	c-0.5-6.8,1.1-13.5,0.4-20.2c-0.9-9.8-7.6-19.2-11.2-28.1c-1.9-4.6-5.1-8.3-5-13c0.2-7.3,7.8-18.5,10.8-25c1.6-3.4,0.5-8.1-3.7-9.1
	c-6.3-1.5-10.9-4.1-14.6-9.6c-0.3,2.5-0.6,5-1,7.5c6.1-5.9,11.6-12.3,17.6-18.4c3.5-3.6,9.2-7.5,10-13c1.4-10.2-13.3-20.1-19.4-26.3
	c-0.9,3.4-1.8,6.9-2.7,10.3c11.7-2,19.1-9.7,26.8-18.1c7-7.7,14.8-13.3,19-23c3.9-8.9,7.4-18.4,12.3-26.8
	c7.6-13.2,21.6-21.3,34-29.4C248.1,112.5,241.9,101.8,235.2,106.2L235.2,106.2z"/>
<path id="XMLID_271_" class="st0" d="M168.1,408.6c-1.4,9.9-3,20.1-1.4,30.1c1.9,11.7,10.4,20.9,12.3,32.4
	c1.6,10.1-1.8,20.2,0.5,30.4c2.1,9.4,7.2,17.4,13.7,24.3c5.5,5.8,14.2-2.9,8.7-8.7c-7.1-7.6-11.2-16.1-11.3-26.7
	c-0.1-8.1,2.2-15.7,0.2-23.9c-1.7-7.1-5.9-13.1-8.8-19.8c-5-11.4-3.7-22.9-2-34.9C181.1,404.1,169.2,400.8,168.1,408.6L168.1,408.6z
	"/>
<path id="XMLID_270_" class="st0" d="M546.2,268.4c-29.6,8.3-63.1,1.8-85.4-20.1c-17.5-17.3-29.1-41.1-53.5-50.2
	c-14.5-5.4-31-5.6-46.3-7.2c-17.1-1.8-34.1-4.1-51.3-4.8c-27.5-1-58,3.3-78.7,23.2c-9.8,9.4-14.2,21-18.5,33.5
	c-5.8,16.9-15.2,31.2-23.8,46.8c-14.6,26.5-17.8,53.9-13.8,83.7c2.3,17.4,7.1,33.8,8,51.3c1,18.5,2,36.9,3.1,55.4
	c2.1,35,3.2,70.5,10.5,104.9c5.2,24.2,12.5,48.4,23.7,70.5c10.7,21.1,28.1,36.3,40.3,56.3c11.6,19,20.5,40,36.1,56.2
	c17.2,17.9,40.5,24.6,64.4,28.5c42.7,6.9,99.3,7.1,129.3-29.6c13.1-16,27.7-30.7,40.3-47.1c18.5-24,34.1-50.9,45.9-78.8
	c26-61.5,32.8-129.3,39.4-195.1c0.8-7.9-11.6-7.8-12.3,0c-5.7,56.6-11.7,114.3-30.1,168.5c-15.2,44.6-40.3,85.4-71.7,120.4
	c-12.4,13.8-23.3,31.3-40,40.3c-21.2,11.4-47.1,13.2-70.7,12.2c-23.9-1-52.8-4.2-73.3-17.6c-18.5-12.1-28.6-32.3-39.1-51
	c-5.2-9.3-10.5-18.5-16.9-27c-6.6-8.7-14.7-16.1-20.9-25.2c-13.6-20-22-43.4-28.2-66.6c-8.8-33-11.1-66.3-13.2-100.2
	c-1.8-29.2-1.7-59-5-88.1c-3.1-27.6-12.5-53.3-7.8-81.6c5-29.5,26.3-52,36.2-79.7c6.6-18.2,12.2-32,30-41.6
	c15.9-8.6,34.3-10.6,52.1-10.3c18.7,0.3,37.3,2.9,55.8,4.9c17.3,1.9,37,1.6,52,11.6c22.5,15.1,33.1,42.1,57.1,56
	c23.9,13.9,52.9,16.9,79.3,9.4C557.1,278.1,553.9,266.2,546.2,268.4L546.2,268.4z"/>
<path id="XMLID_269_" class="st0" d="M546.8,270.7c-9.3-7.8-19.8-7.7-31.4-9.2c-8.7-1.1-15.8-4.4-22.4-10.2
	c-2.8-2.5-5.1-5.5-7.9-7.9c-4.6-4.1-1.9-1.9,1.8-0.2c20.7,9.3,53.9,4.1,60.3-20.6c1.3-5.1-4.4-9.8-9.1-7c-3,2.8-6.4,3-10.4,0.6
	c3,2.3,5.3,5.1,6.9,8.5c2.6,3.6,4.4,7.3,7.8,10.2c5.3,4.5,11.9,5.5,18.2,7.9c10.4,4,12.8,13.2,17.1,22.3c3.6,7.8,8.7,14,14.4,20.4
	c16.3,18.1,18.3,38.2,19.7,61.6c1.4,24.2,2.8,48.3,4.2,72.5c0.5,7.9,12.8,7.9,12.3,0c-1.1-19.3-2.2-38.7-3.4-58
	c-1-16.5-0.9-33.5-4.6-49.6c-3.4-14.8-11-25.4-20.7-36.6c-9.7-11.1-12.5-26.8-22.9-36.9c-4.1-4.1-9-6.2-14.4-8
	c-10.7-3.6-13.7-7.9-20-16.7c-5.5-7.7-15.9-14.2-25.2-8.9c-7.8,4.4-8.3,14.2-2.9,20.9c7.8,9.6,21.1,6.2,30.2,0.7c-3-2.3-6-4.6-9.1-7
	c-6.3,24.4-35.7,12.5-51.8,10.1c-7.7-1.2-17.6,1.9-15.3,11.7c2.4,10.1,17.4,21.6,26.1,26.6c5.7,3.3,11.9,5.1,18.4,6
	c8.4,1.1,18.3,0.1,25.1,5.9C544.1,284.5,552.9,275.8,546.8,270.7L546.8,270.7z"/>
<path id="XMLID_268_" class="st0" d="M313.9,364.9c0.4,0.8,0.8,1.5,1.3,2.3c1.5,2.8,5.7,4,8.4,2.2c2.9-1.9,3.9-5.4,2.2-8.4
	c-0.4-0.8-0.8-1.5-1.3-2.3c-1.5-2.8-5.7-4-8.4-2.2C313.2,358.3,312.2,361.9,313.9,364.9L313.9,364.9z"/>
<path id="XMLID_267_" class="st0" d="M339.6,371.9c-9.5-5.7-19-11.4-28.6-17c-6.9-4.1-12.9,6.4-6.2,10.7c6.1,3.9,12.2,7.7,18.4,11.6
	c1.6-3.8,3.2-7.5,4.8-11.3c-5.9-2-11.8-3.7-17.8-5.4c-5.5-1.5-9.3,4.4-7,9.1c1.8,3.6,2.1,4,5.1,6.7c2.9-2.9,5.8-5.8,8.7-8.7
	c-6.6-5.8-13.5-9.9-21.6-13.3c-4.2-1.7-9.3,3.5-7.6,7.6c1.9,4.6,3.8,7.3,8.4,9.5c1.6-3.8,3.2-7.5,4.8-11.3
	c-6.3-2.4-12.5-4.7-18.8-7.1c-5.4-2-9.3,4.7-7,9.1c2.1,4,4.6,6.5,8.2,9.2c1.6-3.8,3.2-7.5,4.8-11.3c-5.8-2.2-11.7-4.5-17.5-6.7
	c-5.6-2.1-9,4.7-7,9.1c1.8,3.8,4.1,6,7.5,8.4c2.1-3.6,4.2-7.1,6.2-10.7c-6.4-3.6-12.8-6-20.1-7.5c-4.4-0.9-9.1,2.8-7.6,7.6
	c1.8,5.7,4.5,9.1,9.5,12.4c6.6,4.5,12.5-6,6.2-10.7c-6.1-4.4-12-6.3-19.4-7c-6-0.6-7.3,6.9-4.4,10.5c2.9,3.7,5.8,5.3,10.3,6.4
	c6.5,1.7,11.3-8.1,4.8-11.3c-7.7-3.7-14.9-5.6-23.4-6c-5.9-0.3-8.7,8.9-3.1,11.5c3.3,1.1,6,3,8.2,5.7c0.9-3.4,1.8-6.9,2.7-10.3
	c-13.3,2.8-34.9-0.9-35.6,18.6c-0.3,7.9,12,7.9,12.3,0c0.3-7.1,21.4-5.6,26.6-6.7c4.7-1,5.7-7.1,2.7-10.3c-3.3-3.5-6.3-5.7-10.7-7.7
	c-1,3.8-2.1,7.7-3.1,11.5c6.6,0.3,11.2,1.4,17.2,4.3c1.6-3.8,3.2-7.5,4.8-11.3c-1.6-1.1-3.2-2.2-4.8-3.2c-1.5,3.5-2.9,7-4.4,10.5
	c5.3,0.5,9.1,2.3,13.2,5.3c2.1-3.6,4.2-7.1,6.2-10.7c-1.3-1.7-2.5-3.4-3.8-5c-2.5,2.5-5.1,5.1-7.6,7.6c6.2,1.3,11.6,3.2,17.1,6.3
	c7,3.9,12.8-6.2,6.2-10.7c-1-1.3-2.1-2.6-3.1-3.9c-2.3,3-4.6,6-7,9.1c5.8,2.2,11.7,4.5,17.5,6.7c7.1,2.7,9.8-7.4,4.8-11.3
	c-1.3-1.6-2.5-3.2-3.8-4.8c-2.3,3-4.6,6-7,9.1c6.3,2.4,12.5,4.7,18.8,7.1c6.5,2.5,11.1-8.3,4.8-11.3c-0.9-0.7-1.8-1.4-2.8-2.1
	c-2.5,2.5-5.1,5.1-7.6,7.6c6.1,2.5,11.2,5.7,16.2,10.1c5.9,5.2,14.6-3.4,8.7-8.7c-1.1-1.4-2.1-2.8-3.2-4.2c-2.3,3-4.6,6-7,9.1
	c6,1.6,11.9,3.4,17.8,5.4c6.8,2.3,10.5-7.7,4.8-11.3c-6.1-3.9-12.2-7.7-18.4-11.6c-2.1,3.6-4.2,7.1-6.2,10.7
	c9.5,5.7,19,11.4,28.6,17C340.2,386.6,346.4,376,339.6,371.9L339.6,371.9z"/>
<path id="XMLID_266_" class="st0" d="M449.9,377.7c5-2.3,10.1-4.5,15.1-6.8c-2.8-2.8-5.6-5.6-8.4-8.4c-1.7,2.2-3.3,4.4-5,6.6
	c-4,5.2,3.5,11.1,8.4,8.4c8.2-4.5,16.4-8.9,24.6-13.4c-2.5-3.2-5-6.5-7.5-9.7c-2.9,3.3-5.8,6.6-8.7,9.8c-4,4.5-0.2,12,6,10.3
	c6.1-1.6,12.2-3.2,18.3-4.8c-2-3.4-4-6.9-6-10.3c-0.9,1.1-1.8,2.2-2.7,3.3c-4.3,5.2,1,13.3,7.5,9.7c6.9-3.8,13.7-7.8,20.4-11.9
	c-2.8-2.8-5.6-5.6-8.4-8.4c-2.1,2.9-3.5,5.6-4.7,9c-1.5,4.2,3.3,9.3,7.6,7.6c7.3-2.9,14.6-5.9,21.9-8.8c-2-3.4-4-6.9-6-10.3
	c-3,3-6,6-9,8.9c-5.3,5.3,1.4,12.3,7.5,9.7c3.1-1.3,6.2-2.7,9.3-4c-2.5-3.2-5-6.5-7.5-9.7c-2.3,2.6-4.6,5.2-6.9,7.8
	c-4.5,5,1.3,13.6,7.5,9.7c5.1-3.2,10.1-5.8,15.7-8c-2.3-3-4.6-6-7-9.1c-0.9,1.9-1.7,3.9-2.6,5.8c-2,4.6,1.4,10.8,7,9.1
	c7.9-2.5,15.9-5,23.8-7.4c-2-3.4-4-6.9-6-10.3c-5.4,5-11,8.1-18,10.3c-6.3,2-5.6,12.7,1.6,12.1c4.4-0.3,8.4-1,12.7-2.1
	c-2.5-2.5-5.1-5.1-7.6-7.6c0.2,0,0.3,0,0.5,0.1c-3.9,2.9-4.2,10.1,1.5,11.3c7,1.5,21.8-2.2,23,8.6c0.9,7.8,13.2,7.9,12.3,0
	c-0.7-6.4-2.8-11.6-8-15.7c-7.8-6.1-15.2-3-24.1-4.9c0.5,3.8,1,7.5,1.5,11.3c3.1-2.3,4.5-3.5,5.2-7.4c0.8-4.5-2.7-8.9-7.6-7.6
	c-3,1-6.2,1.6-9.4,1.7c0.5,4,1.1,8.1,1.6,12.1c9-2.8,16.5-7.1,23.4-13.5c4.5-4.2-0.2-12.1-6-10.3c-7.9,2.5-15.9,5-23.8,7.4
	c2.3,3,4.6,6,7,9.1c0.9-1.9,1.7-3.9,2.6-5.8c1.9-4.3-1.4-11.2-7-9.1c-6.6,2.5-12.7,5.4-18.7,9.2c2.5,3.2,5,6.5,7.5,9.7
	c2.3-2.6,4.6-5.2,6.9-7.8c4.9-5.5-1.2-12.4-7.5-9.7c-3.1,1.3-6.2,2.7-9.3,4c2.5,3.2,5,6.5,7.5,9.7c3-3,6-6,9-8.9
	c4.1-4.1-0.1-12.7-6-10.3c-7.3,2.9-14.6,5.9-21.9,8.8c2.5,2.5,5.1,5.1,7.6,7.6c0.8-2.3,1.9-4.3,3.5-6c3.8-5.1-3.5-11.5-8.4-8.4
	c-6.7,4.1-13.5,8.1-20.4,11.9c2.5,3.2,5,6.5,7.5,9.7c0.9-1.1,1.8-2.2,2.7-3.3c3.8-4.6,0.3-12-6-10.3c-6.1,1.6-12.2,3.2-18.3,4.8
	c2,3.4,4,6.9,6,10.3c2.9-3.3,5.8-6.6,8.7-9.8c4.6-5.2-1.2-13.1-7.5-9.7c-8.2,4.5-16.4,8.9-24.6,13.4c2.8,2.8,5.6,5.6,8.4,8.4
	c1.7-2.2,3.3-4.4,5-6.6c4.2-5.5-3.6-10.6-8.4-8.4c-5,2.3-10.1,4.5-15.1,6.8C436.4,370.3,442.7,380.9,449.9,377.7L449.9,377.7z"/>
<path id="XMLID_265_" class="st0" d="M326.8,454.3c10.7-0.4,22.9-6.3,19.4-19.1c-3.5-12.8-23.6-24.7-35.3-27.7
	c-16.3-4.1-35.6,3-51.4,6.9c-13.2,3.3-27.5,8.1-33.6,21.3c-3.3,7.2,7.4,13.5,10.7,6.2c7-15.4,31.8-17,46.3-20.3
	c11.5-2.7,21.7-4.9,32.7,0.9c5,2.7,28.2,18.8,11.3,19.4C318.8,442.3,318.8,454.6,326.8,454.3L326.8,454.3z"/>
<path id="XMLID_264_" class="st0" d="M245.9,448.8c15.3,12.9,36,16.8,54.9,10.1c7.4-2.6,4.2-14.5-3.3-11.9
	c-14.6,5.1-30.9,3.2-42.9-6.9C248.6,435,239.8,443.7,245.9,448.8L245.9,448.8z"/>
<path id="XMLID_263_" class="st0" d="M463.2,442c-16.9-0.6,6.2-16.7,11.3-19.4c10.8-5.7,21.3-3.5,32.7-0.9
	c14.6,3.4,39.2,4.9,46.3,20.3c3.3,7.2,13.9,0.9,10.7-6.2c-5.8-12.7-19.2-17.6-32-20.9c-16-4.2-36.4-11.5-53-7.3
	c-11.9,3-30.8,14.5-35,26.9c-4.5,13.1,8.1,19.4,19.1,19.9C471.1,454.6,471.1,442.3,463.2,442L463.2,442z"/>
<path id="XMLID_262_" class="st0" d="M535.3,440.1c-12.1,10.1-28.3,12.1-42.9,6.9c-7.5-2.6-10.7,9.3-3.3,11.9
	c19,6.7,39.6,2.8,54.9-10.1C550.1,443.7,541.3,435,535.3,440.1L535.3,440.1z"/>
<path id="XMLID_261_" class="st0" d="M370.6,417.4c10.5,6.1,13.3,18.9,15.4,30c1.5,7.8,13.4,4.5,11.9-3.3
	c-2.8-14.5-7.6-29.5-21.1-37.3C369.9,402.7,363.7,413.4,370.6,417.4L370.6,417.4z"/>
<path id="XMLID_260_" class="st0" d="M350.2,521.2c-8,5.9-14,14.3-13.8,24.6c0.2,10.2,6.7,18.4,16,21.9c7.4,2.8,10.6-9.1,3.3-11.9
	c-11.4-4.4-6.6-18.5,0.8-24C362.8,527.2,356.6,516.5,350.2,521.2L350.2,521.2z"/>
<path id="XMLID_259_" class="st0" d="M448.4,531.8c7.4,5.4,12.3,19.6,0.8,24c-7.3,2.8-4.2,14.7,3.3,11.9c9.3-3.5,15.8-11.7,16-21.9
	c0.2-10.3-5.8-18.7-13.8-24.6C448.2,516.5,442,527.2,448.4,531.8L448.4,531.8z"/>
<path id="XMLID_258_" class="st0" d="M364.3,552.7c15.3-2.4,26.7,14.9,42.4,13.8c12.6-0.9,20.3-12.4,33.6-13.2
	c7.9-0.5,7.9-12.8,0-12.3c-5.8,0.4-11.3,1.2-16.6,3.5c-8.3,3.5-13.4,11-23.6,8.9c-7.8-1.6-14.6-8.3-22-11.1
	c-5.9-2.2-10.9-2.4-17.1-1.5C353.2,542,356.5,553.9,364.3,552.7L364.3,552.7z"/>
<path id="XMLID_257_" class="st0" d="M405.2,569.5c-13.1,1.3-27.6,1-40.3,4.7c-4.6,1.4-8.3,3.9-12.1,6.7c-6.3,4.7-11.9,6.9-19.2,9.6
	c-11.6,4.3-21.9,15-31.5,22.5c-6.8,5.3-14.3,10.9-14.5,20.3c-0.1,8,5.6,14.8,12.7,18c10.9,4.9,22.8,0.3,33.3-3.3
	c14.1-4.8,28.4-9.4,42.4-14.4c5.1-1.8,10.3-3.8,15.1-6.5c6.5-3.7,13.6-11.1,22-7.4c7.2,3.2,13.5-7.4,6.2-10.7
	c-17.9-8-30.7,6.8-46.5,12.6c-9.8,3.6-19.7,6.7-29.6,10.1c-9.6,3.3-22.2,9.9-32.4,9.3c-12.2-0.7-9.8-11.5-3-17
	c4.6-3.7,9.3-7.2,14-10.8c8.6-6.7,15.1-10,25.1-13.8c8.1-3.1,13.3-10.7,21.4-13.5c11.1-3.8,25.3-3.1,37-4.3
	C413,581.1,413.1,568.8,405.2,569.5L405.2,569.5z"/>
<path id="XMLID_256_" class="st0" d="M410.7,581.9c11,1.1,22.8,1.2,33.7,3.5c9.4,2,14.8,9.9,23.3,13.6c9.1,4,16.6,5,23,13.5
	c4.5,5.9,9.5,11.8,13.8,17.6c1.3,1,2.5,2,3.6,3.1c2.8,8.5,0.5,12.6-6.8,12.3c-3.7-0.2-8-3.7-11.2-5.4c-6.3-3.4-12.6-5.8-19.3-8.2
	c-7.2-2.7-14.4-5.6-21.7-8.1c-11-3.8-19.7-9.4-29.8-14.7c-7-3.7-13.3,7-6.2,10.7c6.2,3.2,11.5,7.7,18,10.5
	c6.6,2.8,13.4,4.9,20.2,7.4c10.4,3.8,21.4,7.2,31.2,12.4c8.3,4.4,16.9,10.4,26.6,6.9c7.8-2.8,14.3-10.1,14.2-18.6
	c-0.2-11.3-10.7-15.8-16.7-23.8c-6.6-8.9-10.8-17.4-21.3-22.5c-6.7-3.3-13.2-4-19.4-8.6c-3.8-2.9-7.3-6-11.8-7.9
	c-12.9-5.4-29.7-4.5-43.4-5.9C402.8,568.8,402.9,581.1,410.7,581.9L410.7,581.9z"/>
<path id="XMLID_255_" class="st0" d="M362.7,651.8c14.2-3,27.7,3.4,41.8,4.1c13.3,0.6,25.5-4.5,37.5-9.7c7.3-3.2,1-13.8-6.2-10.7
	c-15.9,6.9-28.6,9.1-45.6,5.7c-10.5-2.1-20.2-3.6-30.8-1.3C351.7,641.6,355,653.5,362.7,651.8L362.7,651.8z"/>
<path id="XMLID_254_" class="st0" d="M328.5,666.8c21.8,17.8,47,24.5,74.7,27.3c25.3,2.5,56.1-13.2,72-32.7c5-6.1-3.7-14.9-8.7-8.7
	c-14,17.2-41.1,31.3-63.3,29.1c-24-2.4-46.9-8.2-66-23.7C331.1,653,322.3,661.7,328.5,666.8L328.5,666.8z"/>
<path id="XMLID_253_" class="st0" d="M442.9,523.6c1.5-14.7-8.6-25.8-18.6-35.1c-5.8-5.4-14.6,3.3-8.7,8.7
	c7.7,7.2,16.2,14.9,15,26.4C429.7,531.5,442.1,531.5,442.9,523.6L442.9,523.6z"/>
<path id="XMLID_252_" class="st0" d="M365,417.4c6.2-6.7,11.2-10.6,21.1-10.3c5.3,0.2,10.7,2.3,16.1,2.7c4.9,0.4,8.9-0.4,13.6-1.2
	c9.4-1.6,15.1,1.4,23.6,5.2c-0.9-2.3-1.9-4.6-2.8-7c-7.2,33,3,61.7,22,88.4c22.3,31.4,65.8,36.4,101,26c37.5-11,49.5-44.1,54.3-79.5
	c2.3-16.5,2.8-34.8-7.9-48.7c-13-16.9-38.1-22.1-58-24.8c-28.8-4-57.9-0.3-83.8,13.3c-9.3,4.9-25.1,13.5-27.7,25.3
	c-1.7,7.7,10.2,11.1,11.9,3.3c1.3-6.1,12.8-12.7,18.5-16c19-10.8,40.2-15.6,62-15.1c19.7,0.4,46.8,3.7,62.5,16.7
	c12.3,10.2,12.4,26.6,10.7,41.2c-3.5,29.8-11.5,60.7-42.9,71.5c-29,10-69.8,7.8-89.3-18.5c-17.5-23.7-27.9-50.2-21.4-79.8
	c0.5-2.4-0.3-5.8-2.8-7c-6.8-3-15.1-8.2-22.8-8.4c-3.1-0.1-5.6,0.9-8.6,1.5c-6.6,1.4-12,1.4-18.7,0.2c-17.5-3.1-27-1.2-39.3,12.2
	C350.9,414.5,359.6,423.3,365,417.4L365,417.4z"/>
<path id="XMLID_251_" class="st0" d="M445.1,412.8c-12.4-13.5-21.7-15.3-39.3-12.2c-6.7,1.2-12.1,1.2-18.7-0.2
	c-2.9-0.6-5.5-1.6-8.6-1.5c-7.7,0.2-16,5.4-22.8,8.4c-2.6,1.1-3.4,4.5-2.8,7c2.2,9.9,2.5,20.6,1.4,30.7
	c-1.7,15.8-9.5,28.4-17.8,41.5c-6.8,10.8-14.6,20.1-26.6,25.2c-16.6,7.1-37.7,7.2-55.3,4.1c-33.1-5.9-47.4-29-53.1-60.1
	c-2.6-14.3-6.2-31.8,0.4-45.6c8.7-18.2,34.3-22.8,52.3-25.4c24.7-3.6,50.3-1.2,72.9,9.7c7.4,3.6,24.1,11.6,25.8,19.8
	c1.7,7.8,13.6,4.5,11.9-3.3c-2-9.5-13.5-16.9-21-21.5c-20.8-12.8-44.9-18.8-69.2-18.7c-23.2,0.1-52.8,4.1-71.6,18.9
	c-13.2,10.4-17.3,26.1-16.8,42.3c1.2,33.5,10.4,72.8,43.1,88.7c31.4,15.3,82.1,14.6,107-12.9c23.9-26.4,36.3-61.5,28.6-96.8
	c-0.9,2.3-1.9,4.6-2.8,7c7.4-3.3,13.6-7,21.9-5.7c5.4,0.9,9.7,2.1,15.3,1.7c4.8-0.4,9.3-1.8,14-2.3c10.9-1.1,16.3,2.4,23.2,9.8
	C441.8,427.4,450.5,418.6,445.1,412.8L445.1,412.8z"/>
<path id="XMLID_250_" class="st0" d="M610.4,408.8c7.1-5.5,18.5-4.6,27-6c7.8-1.3,4.5-13.2-3.3-11.9c-11.6,2-22.7,1.6-32.4,9.2
	C595.4,404.9,604.2,413.6,610.4,408.8L610.4,408.8z"/>
<path id="XMLID_51_" class="st0" d="M203.3,396.2c-9.7-7.6-20.8-7.2-32.4-9.2c-7.8-1.3-11.1,10.6-3.3,11.9c8.5,1.4,19.9,0.5,27,6
	C200.7,409.8,209.5,401.1,203.3,396.2L203.3,396.2z"/>
</svg>
