<?xml version="1.0" encoding="utf-8"?>
<!-- Generator: Adobe Illustrator 19.0.0, SVG Export Plug-In . SVG Version: 6.00 Build 0)  -->
<svg version="1.1" id="Layer_1" xmlns="http://www.w3.org/2000/svg" xmlns:xlink="http://www.w3.org/1999/xlink" x="0px" y="0px"
	 viewBox="0 0 800 800" style="enable-background:new 0 0 800 800;" xml:space="preserve">
<style type="text/css">
	.st0{fill:#FFFFFF;}
</style>
<g id="XMLID_4_">
	<g id="XMLID_172_">
		<path id="XMLID_176_" class="st0" d="M530.5,775.6c3.2,0,3.2-5,0-5C527.3,770.6,527.3,775.6,530.5,775.6L530.5,775.6z"/>
	</g>
</g>
<g id="XMLID_20_">
	<g id="XMLID_247_">
		<path id="XMLID_251_" class="st0" d="M282.1,99.5c1.6-2.3,7.1-3.3,9.6-4.2c4.8-1.8,9.6-3.7,14.5-5.2c8.5-2.7,17.7-3.5,26.6-2.9
			c4.4,0.3,7.7,2.3,11.8,3.5c3.7,1.1,7.6,0.9,11.5,1.2c8.7,0.7,17-0.1,25.7-0.3c9.9-0.2,19.2,1.1,29,2.8c9.1,1.5,18.2,2.9,27.3,5
			c4.2,1,8.3,2,12.4,3.3c4.4,1.4,7.6,4.1,11.6,6.1c7.7,3.9,14.2,6.8,19.7,13.8c2.1,2.8,4.2,5.6,6.6,8.1c3.6,3.6,7.9,6.1,9.4,11.3
			c2.2,7.9,5.7,15.4,8,23.3c2.4,8.1,3.8,17.3,3.9,25.7c0.1,8.5-0.6,16.7,1.8,25c2.7,9,5.1,18.8,4.1,28.2c-0.5,4.6-0.6,8.9-0.5,13.5
			c0.1,4.8-0.8,9.4-0.9,14.2c-0.1,4.9-1.6,8.6-2.5,13.3c-0.9,4.2-1,8.5-2.4,12.7c-2.5,7.7-2.8,15.7-5.8,23.3c-1.7,4.3-3.9,8-6,12
			c-1.7,3.5-2.2,7.1-3.4,10.7c-1.4,4.5-3.6,9.1-6.1,13.2c-1.5,2.6-2.8,4.5-5.2,6.3c-1.1,0.8-2.1,1.7-3,2.7
			c-10.7,12.2-23.4,23.2-36.5,32.9c-2.6,1.9-0.1,6.2,2.5,4.3c5.9-4.3,11.3-9.3,17-13.9c6.3-5,11.6-10.6,17.4-16.1
			c2.5-2.4,4.6-4.9,7.2-7.2c3-2.6,5-6.5,6.8-10c1.7-3.5,3.5-7.2,4.6-10.9c1.4-4.4,2.1-8.4,4.5-12.4c4.2-7.3,7.1-15,8.3-23.3
			c0.6-4.1,1.6-7.8,2.8-11.7c1.4-4.7,1.3-9.7,2.7-14.4c1.3-4.3,1.7-7.8,1.9-12.3c0.2-5.4,1-10.6,0.8-16.1c-0.1-4.7,0.7-9.2,0.9-13.9
			c0.2-5.1-0.7-9.9-1.8-14.8c-2.2-9.7-4.9-19.2-4.6-29.2c0.2-9-0.6-18.1-2.4-27c-1.8-9.3-6.7-17.4-8.8-26.5
			c-0.8-3.3-1.4-6.3-3.5-8.9c-2.9-3.7-7-6.3-10.1-9.9c-2.8-3.3-5.1-7-8.1-10.1c-2.8-2.8-6.2-4.9-9.7-6.8c-3.3-1.7-6.7-2.9-9.9-4.9
			c-4-2.5-7.4-4.3-12-5.6c-9.4-2.7-19-4.7-28.6-6.3c-9.9-1.6-19.9-3.9-29.9-4.5c-5.2-0.3-10.5-0.1-15.8,0.1
			c-5.2,0.2-10.3,1.2-15.6,0.7c-5.2-0.5-10.8-0.3-15.8-2.1c-4.5-1.7-8.4-3.1-13.2-3.2c-10.3-0.3-20.1,0.9-29.8,4.4
			c-5.4,1.9-10.7,3.9-16.1,5.8c-2.9,1-5.7,2-7.5,4.7C276,99.7,280.3,102.2,282.1,99.5L282.1,99.5z"/>
	</g>
</g>
<g id="XMLID_32_">
	<g id="XMLID_241_">
		<path id="XMLID_245_" class="st0" d="M455.9,429.6c-3.3,2.2-4.8,5.4-6,9.1c-1.8,6-3.3,10.3-8,14.9c-8.1,8-16.3,16-21.8,26.1
			c-2.4,4.3-4.2,9.1-4.6,14c-0.4,5.8,1.6,11.6,2.8,17.1c1.3,6.1,2.6,12.8,0.4,18.8c-2.4,6.6-7.9,11.6-12.9,16.2
			c-3.2,3-5.6,6-6.9,10.2c-2,6-1.7,12.7-7.4,16.6c-4.1,2.8-9.1,4.1-13.6,6.1c-5.1,2.1-9.5,5.2-13.7,8.7c-4.5,3.9-9,8.1-12.8,12.7
			c-3.9,4.9-5.6,9.8-7.3,15.8c-3.3,11.9-4.6,26.5-15.3,34.3c-4.5,3.3-9.4,6-13,10.3c-3.5,4.2-4.9,9.4-5.8,14.7
			c-2.1,13.6,1.6,26.2,6.3,38.9c1.1,3,5.9,1.7,4.8-1.3c-4.3-11.7-8.1-23.6-6.3-36.2c0.8-5.5,2.3-10.6,6.4-14.6
			c3.6-3.6,8.3-5.9,12.3-9.1c8.6-6.9,10.9-18,13.5-28.3c1.4-5.8,2.5-12.2,5.5-17.4c3.2-5.7,8.7-10.4,13.5-14.7
			c4.3-3.9,9-7.2,14.4-9.5c4.2-1.7,8.7-3.1,12.6-5.4c3.6-2.1,6.3-4.8,7.8-8.7c2-5.1,1.8-11.3,5.1-15.9c3.4-4.7,8.5-8,12.1-12.5
			c3.3-4.2,5.9-8.6,6.6-14c0.6-4.6,0.1-9.3-0.8-13.8c-1.1-6.1-3.7-12.7-3.2-18.9c1-12.2,11.9-24.4,20.4-32.4
			c4-3.8,8.6-7.5,11.1-12.7c2.2-4.5,1.9-11.7,6.3-14.7C461.1,432.2,458.6,427.9,455.9,429.6L455.9,429.6z"/>
	</g>
</g>
<g id="XMLID_33_">
	<g id="XMLID_235_">
		<path id="XMLID_239_" class="st0" d="M269.8,42.6c-13.3-1.3-27.7,6.8-37.9,14.8c-5.2,4.1-9.1,9.7-11.7,15.8
			c-3.1,7.3-1.7,14.3,0.7,21.7c1,3,5.8,1.7,4.8-1.3c-2.4-7.2-3.5-13.6,0.2-20.6c2.9-5.5,6.5-9.8,11.6-13.4
			c9.2-6.4,20.8-13.1,32.4-11.9C273,47.9,272.9,42.9,269.8,42.6L269.8,42.6z"/>
	</g>
</g>
<g id="XMLID_34_">
	<g id="XMLID_229_">
		<path id="XMLID_233_" class="st0" d="M272.4,53.2c8.2-6.2,17.2-11.9,23.2-20.4c1.2-1.7,2.2-3.6,3.4-5.3c2.3-3.1,5.1-3.6,8.6-4.8
			c1.6-0.6,3.1-1.6,4.7-2.1c3.8-1.2,6.9,0.7,10.5,1.8c4.6,1.4,9.1,3.8,14,4c5.6,0.3,11.2-1.4,16.7-2.3c4.7-0.7,9.2-1.5,13.4-3.7
			c4-2,7.4-4.8,11-7.4c3.3-2.4,6.9-4.9,11-5.8c6-1.4,11.6,1.6,16.6,4.6c4.6,2.7,8.7,6,13.3,8.7c5.1,3.1,10.4,5.9,15.4,9.3
			c9.2,6.3,18.8,13.1,29.7,16.1c4.9,1.4,9.8,2.5,14.6,4.1c6.3,2.1,10.9,4.9,16,9.1c4.8,3.9,8.9,7.9,13.2,12.3
			c2.6,2.7,5.4,5.2,7.5,8.4c1.4,2.2,2.4,4.5,3.6,6.7c2.7,4.6,6.8,6.9,10.4,10.6c4.2,4.3,4.3,11.6,5.5,17.2c0.6,3.1,5.5,1.8,4.8-1.3
			c-1-4.7-1.4-9.8-3.3-14.3c-2.1-4.9-6.3-6.9-9.9-10.5c-3.9-3.9-5.4-9.4-8.8-13.7c-3.2-4.1-7.2-7.8-10.8-11.6
			c-7.8-8-17-14.5-27.6-17.9c-5.4-1.7-10.9-2.8-16.3-4.5c-6.3-2-11.9-5.8-17.5-9.2c-4.9-3.1-9.6-6.6-14.6-9.6
			c-5.7-3.4-11.3-6.6-16.8-10.3c-7.8-5.3-17-11.5-26.9-8.8c-8.7,2.4-14.7,9.6-22.6,13.6c-5.4,2.7-11.6,2.9-17.5,4
			c-3.3,0.6-6.7,1.5-10.1,1.2c-3.5-0.2-6.4-1.9-9.6-3c-4.6-1.5-10.6-4.6-15.5-3c-2.9,1-5.7,2.4-8.6,3.3c-2.1,0.7-4.1,1.6-5.7,3.1
			c-4.1,3.8-6.3,9.3-10.3,13.3c-5.2,5.2-11.3,9.3-17.2,13.8C267.3,50.8,269.8,55.1,272.4,53.2L272.4,53.2z"/>
	</g>
</g>
<g id="XMLID_222_">
	<g id="XMLID_223_">
		<path id="XMLID_227_" class="st0" d="M562.3,210.3c1.9,6.6,1.9,13.4,3.1,20c1.2,6.5,4.1,12.6,4.6,19.2c0.4,6.5-1,12.9-0.6,19.4
			c0.4,6.2-0.1,12.5,0.8,18.7c1.5,10.9,7.6,20.3,15.5,27.7c5,4.7,10.1,9,14.1,14.7c3.5,5.1,6.2,10.8,8.6,16.5
			c1.3,2.9,5.6,0.4,4.3-2.5c-4.8-11.1-10.6-20.5-19.6-28.6c-9.7-8.8-17.7-18.3-18.3-32c-0.3-6.3-0.7-12.7-0.6-19
			c0.1-6,1.3-11.9,0.4-17.9c-0.9-5.9-3.3-11.5-4.4-17.4c-1.2-6.7-1.1-13.5-3.1-20C566.2,205.9,561.4,207.2,562.3,210.3L562.3,210.3z
			"/>
	</g>
</g>
<g id="XMLID_675_">
	<g id="XMLID_214_">
		<path id="XMLID_218_" class="st0" d="M599.6,370.9c3.7,11,2.4,26.1-1.7,36.9c-2,5.4-5.7,9.1-9,13.7c-3.2,4.4-6.2,9.8-12.3,10.2
			c-3.2,0.2-3.2,5.2,0,5c5.7-0.4,9.5-3.2,12.9-7.6c4.1-5.2,9-10.6,11.8-16.6c5.7-12.2,7.3-30.1,3-42.8
			C603.4,366.5,598.6,367.8,599.6,370.9L599.6,370.9z"/>
	</g>
</g>
<g id="XMLID_467_">
	<g id="XMLID_208_">
		<path id="XMLID_212_" class="st0" d="M568,456.1c-0.1,3,1,5.8,1.9,8.7c1.4,4.8,3,9.6,4.6,14.4c2.9,8.6,6.8,18.5,5.1,27.8
			c-0.9,4.8-3.6,9.6-7,13.1c-2.4,2.5-5.3,4.5-7.4,7.3c-5,6.4-7.8,14.6-10.2,22.2c-2.9,8.9-5.2,17.9-8.4,26.8
			c-3.1,8.6-4.9,17.6-6.7,26.6c-1.8,9.1-7.3,14.5-12.9,21.5c-5.5,6.7-10.1,14-14.2,21.6c-1.5,2.8,2.8,5.4,4.3,2.5
			c4.4-8.3,9.5-16.1,15.6-23.2c5.1-5.9,9.8-11.4,11.6-19.2c2.2-9.5,3.8-19.1,7.1-28.4c3.2-8.8,5.5-17.8,8.4-26.8
			c2.8-8.7,5.9-17.7,12.7-24c6.1-5.6,11-11.9,12.2-20.3c1.2-8.5-1.7-17.1-4.2-25.1c-1.5-4.8-3.3-9.5-4.7-14.3c-1-3.4-2.8-7.5-2.7-11
			C573.1,452.8,568.1,452.9,568,456.1L568,456.1z"/>
	</g>
</g>
<g id="XMLID_537_">
	<g id="XMLID_202_">
		<path id="XMLID_206_" class="st0" d="M228.7,124.5c-1.5,8.2-5.5,15.4-8.9,23c-3.6,8-8.8,14.7-13,22.3c-7.9,14.3-13.3,29.6-14.4,46
			c-0.3,4.3-1.1,8.4-1.6,12.7c-0.5,3.8,0.1,7.3,0.6,11.1c0.8,5.3,0.5,10.5,0.8,15.8c0.2,4.3,0.9,8.6,1.3,12.9
			c0.4,4.2,0.7,8.5,0.5,12.8c-0.2,5.2-2.7,9.2-4.5,13.9c-3,7.9-3.7,16.3-3.3,24.7c0.1,3.2,5.1,3.2,5,0c-0.4-9.8,1-18.6,5-27.5
			c3.2-7.2,3.1-14.1,2.5-22c-0.4-4.9-1.2-9.8-1.4-14.7c-0.2-4.3,0.1-8.6-0.4-12.9c-0.4-4.1-1.6-8.1-1.2-12.2
			c0.3-4.2,1.4-8.4,1.7-12.6c1.2-17.6,6.9-34.1,16-49c4.4-7.1,8.6-13.7,12-21.4c3.1-7,6.7-13.5,8-21.1
			C234.1,122.7,229.2,121.4,228.7,124.5L228.7,124.5z"/>
	</g>
</g>
<g id="XMLID_544_">
	<g id="XMLID_196_">
		<path id="XMLID_200_" class="st0" d="M200.1,310.6c-1.9,8.7,1.8,18.7,5.2,26.6c4.2,9.8,10.3,18.5,17.5,26.3
			c2.2,2.4,5.7-1.2,3.5-3.5c-6.2-6.7-11.4-14.1-15.4-22.3c-3.4-7.2-7.9-17.6-6.1-25.7C205.6,308.8,200.8,307.5,200.1,310.6
			L200.1,310.6z"/>
	</g>
</g>
<g id="XMLID_551_">
	<g id="XMLID_190_">
		<path id="XMLID_194_" class="st0" d="M283.3,120.8c-10.7,16.5-17.4,35.5-25,53.5c-7.4,17.6-12,36.5-12.5,55.7
			c-0.1,3.2,4.9,3.2,5,0c0.5-19.5,5.5-38.5,13.2-56.3c7.3-16.9,13.6-34.7,23.7-50.3C289.4,120.6,285.1,118.1,283.3,120.8
			L283.3,120.8z"/>
	</g>
</g>
<g id="XMLID_558_">
	<g id="XMLID_184_">
		<path id="XMLID_188_" class="st0" d="M233.5,204.5c-4.5-0.2-6.8-3.5-11.4-0.5c-3.8,2.5-5.3,7.2-6.3,11.5
			c-2.8,12.9-0.6,26,5.7,37.5c3.5,6.4,8.5,12.2,11,19.1c2.4,6.5,5.4,12.8,7.5,19.4c1.2,3.6,1.9,7.2,2.5,10.9
			c0.3,1.9,0.4,3.7,1.5,5.3c2.8,4.2,8.2,3.7,12.6,2.7c3.1-0.7,1.8-5.5-1.3-4.8c-3.6,0.8-7.2,0.4-7.8-3.8c-0.3-1.9-0.5-3.8-1-5.7
			c-1-4.8-2.7-9.3-4.7-13.8c-1.9-4.5-3.4-9.1-5.3-13.6c-2-4.8-5.2-9.1-7.9-13.5c-5.8-9.3-9.4-19.1-8.9-30.1
			c0.2-4.2,0.6-11.2,3.3-14.7c3.4-4.4,6.3-0.9,10.5-0.7C236.7,209.7,236.7,204.7,233.5,204.5L233.5,204.5z"/>
	</g>
</g>
<g id="XMLID_565_">
	<g id="XMLID_178_">
		<path id="XMLID_182_" class="st0" d="M252.7,289.5c0.1,5.6,1.3,11.1,2.4,16.6c1,5.2,1.2,10.5,2.6,15.6
			c2.9,10.5,6.9,20.9,11.9,30.6c4.4,8.3,9.2,17.3,15,24.7c6.2,7.9,15.4,11.7,23.6,17.1c2.7,1.8,5.2-2.5,2.5-4.3
			c-7.7-5.1-16.6-8.6-22.3-16.1c-5.6-7.2-10.2-15.9-14.4-23.9c-4.7-9-8.4-18.7-11.2-28.5c-1.3-4.5-1.6-9.1-2.3-13.7
			c-1-6-2.6-11.9-2.8-18C257.7,286.3,252.7,286.3,252.7,289.5L252.7,289.5z"/>
	</g>
</g>
<g id="XMLID_593_">
	<g id="XMLID_167_">
		<path id="XMLID_171_" class="st0" d="M478.9,206.7c-4.2-2.8-8.9-4.3-13.5-6.5c-3.6-1.7-7-4.4-11.1-4.3c-4.1,0.1-8.8,2.4-12.4,4.1
			c-4.1,1.9-8,4.5-11.4,7.4c-3.1,2.6-6,3.4-9.4,5.2c-2.3,1.2-3.8,3.1-3.9,5.7c-0.5,7.3,7.2,7.2,11.9,9.5c2.9,1.5,5.4-2.9,2.5-4.3
			c-1.7-0.9-3.5-1.3-5.3-1.9c-0.7-0.2-2.8-0.6-3.3-1.3c-1.5-1.9,0.4-3.3,1.9-3.9c5-2,8.1-5.1,12.5-8c5.5-3.5,14.8-9.5,21.2-6.3
			c5.9,3,12.3,5.2,17.8,8.8C479,212.8,481.5,208.5,478.9,206.7L478.9,206.7z"/>
	</g>
</g>
<g id="XMLID_600_">
	<g id="XMLID_161_">
		<path id="XMLID_165_" class="st0" d="M446.4,230.7c10.5,1.6,24.2,1.9,33-5.1c2.5-2-1.1-5.5-3.5-3.5c-7.2,5.8-19.6,5.1-28.1,3.9
			C444.6,225.4,443.2,230.2,446.4,230.7L446.4,230.7z"/>
	</g>
</g>
<g id="XMLID_553_">
	<g id="XMLID_155_">
		<path id="XMLID_159_" class="st0" d="M302.3,211c3.4-2.1,7.3-2.7,11.1-3.7c2.8-0.7,5.3-2,8-2.8c2.6-0.8,5.3-1.5,8-1.8
			c4-0.5,7,1.3,10.7,2.6c4.3,1.5,7.9,2.3,11.6,5.2c2.3,1.8,4.3,3.8,7,5c2.2,1,8.3,2.6,3.4,5.5c-2.2,1.3-5.1,1.3-7.4,2.5
			c-2.9,1.5-0.3,5.8,2.5,4.3c4.8-2.5,14.6-3.2,11.5-11.5c-1.1-2.9-3.8-3.8-6.4-4.8c-5-1.9-8.2-6.3-13-8.6c-2-0.9-4.1-1.4-6.2-2.1
			c-2.7-0.8-5.2-2.2-7.9-2.9c-3.5-1-6.9-0.2-10.4,0.5c-3.9,0.9-7.4,2.3-11.2,3.5c-4.7,1.5-9.5,2-13.8,4.6
			C297,208.4,299.6,212.7,302.3,211L302.3,211z"/>
	</g>
</g>
<g id="XMLID_45_">
	<g id="XMLID_149_">
		<path id="XMLID_153_" class="st0" d="M338.5,225.9c-8.4,1.3-20.9,1.9-28.1-3.9c-2.5-2-6,1.5-3.5,3.5c8.8,7.1,22.4,6.7,33,5.1
			C343,230.2,341.7,225.4,338.5,225.9L338.5,225.9z"/>
	</g>
</g>
<g id="XMLID_607_">
	<g id="XMLID_143_">
		<path id="XMLID_147_" class="st0" d="M406.7,235.6c-0.7,2.5-0.4,4.8,0.3,7.3c0.8,2.5,2.3,5.3,1.9,8c-0.4,3.1,4.4,4.5,4.8,1.3
			c0.4-2.6,0-4.9-0.8-7.4c-0.8-2.5-2.2-5.2-1.4-7.9C412.4,233.8,407.6,232.5,406.7,235.6L406.7,235.6z"/>
	</g>
</g>
<g id="XMLID_614_">
	<g id="XMLID_137_">
		<path id="XMLID_141_" class="st0" d="M365,261.8c-0.5,0.9-2.4,0.9-3.3,1.4c-1.3,0.6-2.4,1.4-3.4,2.5c-1.8,1.9-3.1,4.5-3.6,7.1
			c-1.2,6.1,2,12.1,5.8,16.6c2.1,2.5,5.6-1.1,3.5-3.5c-3.6-4.3-6.5-10.7-2.8-15.8c2.2-2.9,6.1-2.5,8-5.7
			C371,261.6,366.6,259.1,365,261.8L365,261.8z"/>
	</g>
</g>
<g id="XMLID_621_">
	<g id="XMLID_131_">
		<path id="XMLID_135_" class="st0" d="M423.4,273.1c3,0.4,3.5,1.8,4.1,4.4c0.4,1.6,1,3.7,0.5,5.3c-0.9,3-5.4,4.4-7.9,5.9
			c-2.7,1.7-0.2,6,2.5,4.3c5.3-3.4,11-5.4,10.4-12.8c-0.2-2.7-0.8-5.6-2-8c-1.6-3.2-4.2-3.7-7.6-4.2
			C420.2,267.7,420.2,272.7,423.4,273.1L423.4,273.1z"/>
	</g>
</g>
<g id="XMLID_628_">
	<g id="XMLID_125_">
		<path id="XMLID_129_" class="st0" d="M344.8,336.8c7.2,0.8,14.7-4,21.5-0.4c6.2,3.3,12.6,6.1,19.8,5.9c8-0.2,16.3-1,24.1-2.8
			c7.5-1.7,16.6-2.2,24,0.7c3,1.2,4.3-3.7,1.3-4.8c-3.5-1.4-7.1-1.5-10.8-1.9c-3.4-0.3-6.6-0.8-10-0.2c-9,1.6-17.6,3.3-26.8,3.9
			c-4.5,0.3-8.7-0.5-13-2c-3.3-1.2-6.1-3.6-9.4-4.7c-6.9-2.3-13.9,2-20.7,1.3C341.6,331.4,341.6,336.4,344.8,336.8L344.8,336.8z"/>
	</g>
</g>
<g id="XMLID_635_">
	<g id="XMLID_119_">
		<path id="XMLID_123_" class="st0" d="M366.4,326.3c4.5,0.8,7.7-1.7,12-2.3c4.1-0.6,7.3,3.4,11.5,3.3c3.9-0.1,7.9-1.9,11.5-3.5
			c6.2-2.7,10.9-0.4,16,3.2c2.6,1.8,5.1-2.5,2.5-4.3c-3.6-2.5-7.2-4.8-11.6-5.1c-5.1-0.4-8.6,2-13.3,3.4c-2.9,0.8-5.3,1.5-8.2,0.3
			c-1.6-0.7-3-1.8-4.8-2.3c-5.1-1.3-9.3,3.2-14.2,2.3C364.5,320.9,363.2,325.7,366.4,326.3L366.4,326.3z"/>
	</g>
</g>
<g id="XMLID_642_">
	<g id="XMLID_113_">
		<path id="XMLID_117_" class="st0" d="M353.2,344.9c3.4,1.2,6.5,3.1,9.9,4.4c3.2,1.2,6.5,2.2,9.7,3.4c5.9,2.3,10.6,3.7,17,3.6
			c12.1-0.3,25.4-1.7,34.5-10.7c2.3-2.3-1.2-5.8-3.5-3.5c-8.7,8.5-22.2,9.4-33.6,9.2c-5.6-0.1-10.1-2.4-15.3-4.3
			c-5.9-2.1-11.5-4.9-17.3-7C351.4,339.1,350.1,343.9,353.2,344.9L353.2,344.9z"/>
	</g>
</g>
<g id="XMLID_649_">
	<g id="XMLID_107_">
		<path id="XMLID_111_" class="st0" d="M311.5,169.5c0.3,0.9,0.6,1.9,1.3,2.6c0.9,0.9,2.1,1.2,3.3,0.9c1-0.2,1.7-1.2,1.8-2.1
			c0.1-1.1-0.4-1.9-1.2-2.5c-0.2-0.2-0.4-0.3-0.6-0.5c-0.5-0.4-1.4-0.4-1.9-0.3c-0.6,0.2-1.2,0.6-1.5,1.1c-0.3,0.6-0.5,1.3-0.3,1.9
			c0.2,0.7,0.6,1.1,1.1,1.5c0.2,0.2,0.4,0.3,0.6,0.5c0.2-1.5,0.4-3,0.6-4.6c0.6-0.1,1.2,0,1.7,0.5c-0.3-0.3,0.3,0.6,0.1,0.1
			c0-0.1-0.1-0.1-0.1-0.2c-0.1-0.2-0.1-0.2,0.1,0.2c0-0.2-0.2-0.5-0.2-0.6c-0.4-1.2-1.7-2.2-3.1-1.7
			C312,166.9,311,168.2,311.5,169.5L311.5,169.5z"/>
	</g>
</g>
<g id="XMLID_656_">
	<g id="XMLID_101_">
		<path id="XMLID_105_" class="st0" d="M280.5,223.7c-0.2,0.6-0.1,0.3,0,0.1c0-0.1,0.2-0.2,0.2-0.3
			C280.6,223.7,280.2,224.1,280.5,223.7c0.2-0.2,0.3,0-0.1,0.1c0.1,0,0.2-0.1,0.2-0.1C280.9,223.4,280.2,223.8,280.5,223.7
			c0.1,0,0.2,0,0.3-0.1c0.4-0.1-0.6,0-0.1,0c1.3-0.1,2.6-1.1,2.5-2.5c-0.1-1.3-1.1-2.6-2.5-2.5c-1,0.1-2.1,0.3-2.9,0.9
			c-1,0.7-1.6,1.6-2.1,2.8c-0.5,1.2,0.5,2.8,1.7,3.1C278.8,225.8,280,225,280.5,223.7L280.5,223.7z"/>
	</g>
</g>
<g id="XMLID_663_">
	<g id="XMLID_94_">
		<path id="XMLID_99_" class="st0" d="M272.5,280.4c-0.1,0.4-0.1,0.7-0.2,1.1c-0.1,0.7-0.1,1.3,0.3,1.9c0.3,0.5,0.9,1,1.5,1.1
			c1.2,0.3,2.9-0.4,3.1-1.7c0.1-0.4,0.1-0.7,0.2-1.1c0.1-0.7,0.1-1.3-0.3-1.9c-0.3-0.5-0.9-1-1.5-1.1
			C274.4,278.4,272.7,279,272.5,280.4L272.5,280.4z"/>
	</g>
</g>
<g id="XMLID_16_">
	<g id="XMLID_88_">
		<path id="XMLID_92_" class="st0" d="M428.7,183c3.6-4.2,6.9-8.6,10-13.1c1.7-2.5-1.9-4.7-3.9-3c-3.5,2.9-6.5,6.2-9.2,9.9
			c-1.7,2.4,1.9,4.8,3.9,3c4.4-3.8,8.8-7.7,13.2-11.5c-1.2-1.2-2.4-2.4-3.5-3.5c-3.1,3.6-6.2,7.3-9.3,10.9c-2.1,2.4,1.1,5.7,3.5,3.5
			c3.1-2.7,6.2-5.4,9.3-8.2c2.4-2.2-1.1-5.5-3.5-3.5c-2.3,1.9-4.4,3.9-6.3,6.2c-2.1,2.5,1,5.5,3.5,3.5c4.5-3.6,9.3-6.8,14.2-9.8
			c2.8-1.7,0.4-5.7-2.5-4.3c-3.5,1.7-6.5,3.8-9.2,6.7c-2,2.1,0.5,5.2,3,3.9c3.6-1.9,7.2-3.8,10.8-5.7c-1-1.3-2-2.6-3-3.9
			c-2.7,2.2-5.4,4.5-8.1,6.7c-2.2,1.8,0.6,5.3,3,3.9c4.9-2.8,9.9-5.2,15.2-7.2c-0.6-1.5-1.3-3-1.9-4.6c-2.8,1.6-5.7,3.2-8.5,4.7
			c-2.4,1.3-0.8,5.6,1.9,4.6c5.6-2.1,11.3-4,17-5.7c-0.6-1.5-1.3-3-1.9-4.6c-2.8,1.2-5.6,2.5-8.3,3.7c-2.6,1.2-0.7,5.3,1.9,4.6
			c4.5-1.2,8.7-2.7,13-4.5c2.6-1.1,0.7-5.3-1.9-4.6c-2.1,0.6-4.2,1.2-6.2,1.8c-3.1,0.9-1.8,5.7,1.3,4.8c2.1-0.6,4.3-1.2,6.4-1.8
			c2.6-0.7,2.2-5.2-0.7-4.9c-1,0.1-2,0.2-2.9,0.3c0,1.7,0,3.3,0,5c8.8-1,16.9,2.4,22.4,9.4c2,2.5,5.5-1,3.5-3.5
			c-6.2-7.9-15.9-12-25.9-10.9c-3.1,0.4-3.2,5.3,0,5c1-0.1,2-0.2,2.9-0.3c-0.2-1.6-0.4-3.3-0.7-4.9c-2.1,0.6-4.3,1.2-6.4,1.8
			c0.4,1.6,0.9,3.2,1.3,4.8c2.1-0.6,4.2-1.2,6.2-1.8c-0.6-1.5-1.3-3-1.9-4.6c-3.8,1.6-7.8,2.9-11.8,4c0.6,1.5,1.3,3,1.9,4.6
			c2.8-1.2,5.6-2.5,8.3-3.7c2.6-1.1,0.7-5.4-1.9-4.6c-5.7,1.7-11.4,3.6-17,5.7c0.6,1.5,1.3,3,1.9,4.6c2.8-1.6,5.7-3.2,8.5-4.7
			c2.4-1.3,0.8-5.6-1.9-4.6c-5.7,2.2-11.1,4.7-16.4,7.7c1,1.3,2,2.6,3,3.9c2.7-2.2,5.4-4.5,8.1-6.7c2.3-1.9-0.6-5.2-3-3.9
			c-3.6,1.9-7.2,3.8-10.8,5.7c1,1.3,2,2.6,3,3.9c2.4-2.5,5-4.4,8.2-5.9c-0.8-1.4-1.7-2.9-2.5-4.3c-5.3,3.2-10.3,6.7-15.2,10.6
			c1.2,1.2,2.4,2.4,3.5,3.5c1.9-2.3,4-4.3,6.3-6.2c-1.2-1.2-2.4-2.4-3.5-3.5c-3.1,2.7-6.2,5.4-9.3,8.2c1.2,1.2,2.4,2.4,3.5,3.5
			c3.1-3.6,6.2-7.3,9.3-10.9c2.1-2.4-1.1-5.7-3.5-3.5c-4.4,3.8-8.8,7.7-13.2,11.5c1.3,1,2.6,2,3.9,3c2.4-3.4,5.2-6.2,8.4-8.9
			c-1.3-1-2.6-2-3.9-3c-2.8,4.2-5.9,8.3-9.2,12.1C423.1,181.9,426.6,185.5,428.7,183L428.7,183z"/>
	</g>
</g>
<g id="XMLID_17_">
	<g id="XMLID_82_">
		<path id="XMLID_86_" class="st0" d="M363.1,175.6c0.5,0.8,1,1.6,1.5,2.4c1.5,2.5,5.1,0.8,4.6-1.9c-1.1-5.4-4.2-9.7-9.1-12.4
			c-2.3-1.3-4.5,1.2-3.4,3.4c1.3,2.9,3,5.3,5.1,7.6c2.2,2.4,5.5-1.1,3.5-3.5c-3.1-3.8-7-6.4-11.7-7.9c-2.1-0.7-3.9,1.9-2.8,3.7
			c2,3.3,4.5,5.7,7.9,7.5c2.1,1.1,4.9-1.2,3.4-3.4c-3.8-5.7-8.8-9.7-15.2-12.2c-1.9-0.8-4.1,2-2.8,3.7c2.7,3.6,5.8,5.9,10.1,7.3
			c2.9,0.9,4-3,1.9-4.6c-5.8-4.3-12.2-6.6-19.4-7.1c-2.7-0.2-3.2,3.4-1.3,4.7c3.4,2.3,7,3.5,11.1,4c2.4,0.3,3.5-3.7,1.3-4.7
			c-5.9-2.6-11.8-4.6-18.2-5.7c-2.6-0.5-4.7,3.3-1.9,4.6c3.5,1.6,6.9,2.7,10.7,3.3c3.2,0.6,4.3-3.7,1.3-4.8
			c-5.6-2.2-11.4-2.9-17.4-2.3c-2.3,0.2-3.6,3.4-1.3,4.7c2.4,1.3,4.7,2,7.5,2.1c3,0.2,3.1-3.9,0.7-4.9c-4.3-1.7-8.7-2.3-13.3-1.9
			c-2.6,0.2-3.7,4.4-0.7,4.9c1.9,0.3,2.5,0.4,4.4,0.3c2.7-0.1,3.6-4.4,0.7-4.9c-2.9-0.6-5.7-0.7-8.7-0.4c0.2,1.6,0.4,3.3,0.7,4.9
			c1.4-0.4,2.8-0.7,4.1-1.1c2.6-0.7,2.2-5.2-0.7-4.9c-9.6,1-18.6,4-26.9,9c-2.7,1.7-0.2,6,2.5,4.3c7.5-4.5,15.6-7.4,24.4-8.3
			c-0.2-1.6-0.4-3.3-0.7-4.9c-1.4,0.4-2.8,0.7-4.1,1.1c-2.6,0.7-2.2,5.2,0.7,4.9c2.5-0.3,4.8-0.2,7.4,0.3c0.2-1.6,0.4-3.3,0.7-4.9
			c-1,0-2.1-0.1-3.1-0.1c-0.2,1.6-0.4,3.3-0.7,4.9c4.3-0.4,8,0.1,12,1.7c0.2-1.6,0.4-3.3,0.7-4.9c-1.8,0-3.4-0.4-4.9-1.4
			c-0.4,1.6-0.8,3.1-1.3,4.7c5.6-0.6,10.8,0.1,16,2.1c0.4-1.6,0.9-3.2,1.3-4.8c-3.3-0.6-6.4-1.5-9.5-2.8c-0.6,1.5-1.3,3-1.9,4.6
			c5.9,1.1,11.5,2.8,17,5.2c0.4-1.6,0.8-3.1,1.3-4.7c-3.2-0.3-6-1.5-8.6-3.3c-0.4,1.6-0.8,3.1-1.3,4.7c6.3,0.4,11.8,2.6,16.9,6.4
			c0.6-1.5,1.3-3,1.9-4.6c-2.9-1-5.2-2.5-7.1-5c-0.9,1.2-1.9,2.4-2.8,3.7c5.1,2,9.2,5.4,12.2,9.9c1.1-1.1,2.3-2.3,3.4-3.4
			c-2.7-1.4-4.5-3.2-6.1-5.7c-0.9,1.2-1.9,2.4-2.8,3.7c3.9,1.3,6.9,3.5,9.5,6.7c1.2-1.2,2.4-2.4,3.5-3.5c-1.8-2-3.2-4.1-4.3-6.6
			c-1.1,1.1-2.3,2.3-3.4,3.4c3.8,2.1,5.9,5.1,6.8,9.4c1.5-0.6,3-1.3,4.6-1.9c-0.5-0.8-1-1.6-1.5-2.4
			C365.7,170.4,361.4,172.9,363.1,175.6L363.1,175.6z"/>
	</g>
</g>
<g id="XMLID_36_">
	<g id="XMLID_76_">
		<path id="XMLID_80_" class="st0" d="M533.3,119.8c1.6,17.6,12.1,31.8,18.5,47.9c2.9,7.3,3.3,15.5,8,21.9c3.3,4.4,3.3,8.3,3.7,13.6
			c0.3,3.4,0.9,6.5,3,9.2c1.9,2.5,6.2,0.1,4.3-2.5c-4.5-6-1.1-14.4-5.2-20.8c-2.3-3.7-4.3-6.2-5.3-10.6c-1-4.2-2.1-8.2-3.7-12.1
			c-6.2-15.4-16.8-29.6-18.3-46.5C538,116.6,533,116.6,533.3,119.8L533.3,119.8z"/>
	</g>
</g>
<g id="XMLID_37_">
	<g id="XMLID_70_">
		<path id="XMLID_74_" class="st0" d="M220.3,94.2c8.4,12.2,17.4,26.4,11.6,41.7c-1.1,3,3.7,4.3,4.8,1.3c6.2-16.5-3-32.3-12.1-45.5
			C222.8,89,218.5,91.5,220.3,94.2L220.3,94.2z"/>
	</g>
</g>
<g id="XMLID_220_">
	<g id="XMLID_64_">
		<path id="XMLID_68_" class="st0" d="M188.6,315.6c-0.9,6.9,1.3,13.5,6.7,18c1.5,1.3,4.4,0.6,4.3-1.8c-0.4-6.4,0.6-12.5,2.9-18.4
			c1.2-3-3.7-4.3-4.8-1.3c-2.4,6.4-3.4,13-3,19.8c1.4-0.6,2.8-1.2,4.3-1.8c-3.9-3.2-6.1-8-5.4-13.1
			C193.8,313.8,189,312.4,188.6,315.6L188.6,315.6z"/>
	</g>
</g>
<g id="XMLID_460_">
	<g id="XMLID_58_">
		<path id="XMLID_62_" class="st0" d="M221.2,362.8c7.1,2.9,13.4,7.6,18.2,13.6c3.7,4.7,5.7,11.7,10.8,15.1c1.6,1.1,3.4,1.7,5.4,1.5
			c2.7-0.3,2.8-1,5,0.8c1.2,1,2.2,2.3,3.2,3.5c5.2,6.2,8.9,13.5,11.2,21.2c0.5,1.6,3,2.7,4.2,1.1c3.9-5,5-11.8,1.5-17.4
			c-0.8-1.4-2-2.4-3-3.6c-2.2-2.4-2.6-4.2-1.8-7.5c1-4,2-6.8,0.6-10.8c-1.3-3.8-2.9-7.3-3.6-11.3c-0.7-4.2-1-8.4-1.4-12.7
			c-0.8-7.4-2.1-14.7-6.7-20.7c-1.9-2.5-6.3,0-4.3,2.5c8.6,11.3,4.8,26.5,9.5,39.3c1.5,4,2.7,6.7,1.6,10.9c-0.8,2.8-1.9,5.5-1,8.5
			c0.8,2.6,2.8,4.3,4.6,6.3c3.3,3.7,3.7,8.9,0.6,13c1.4,0.4,2.8,0.7,4.2,1.1c-2.2-7.4-5.5-14.3-10.1-20.4c-2.2-2.9-4.7-6.5-7.7-8.5
			c-3-2-5,0-8-0.8c-3.8-1-5.3-6.1-7.2-9.2c-1.8-3-4-5.8-6.4-8.3c-5-5.3-11.1-9.2-17.9-12C219.6,356.8,218.3,361.6,221.2,362.8
			L221.2,362.8z"/>
	</g>
</g>
<g id="XMLID_474_">
	<g id="XMLID_52_">
		<path id="XMLID_56_" class="st0" d="M477.6,369c-4.4,9.7-6.1,20.4-9.6,30.5c-1.8,5.3-4.9,10-5.7,15.6c-0.6,4.5-0.4,8.6-2.3,12.9
			c-1.5,3.4-3.7,6.4-5.9,9.4c-1.9,2.6,2.5,5.1,4.3,2.5c4-5.6,7.6-11.2,8.3-18.2c0.4-3.6,0.4-7.1,1.7-10.6c1-2.9,2.6-5.5,3.6-8.4
			c3.9-10.2,5.3-21.3,9.8-31.2C483.3,368.7,479,366.1,477.6,369L477.6,369z"/>
	</g>
</g>
<g id="XMLID_481_">
	<g id="XMLID_46_">
		<path id="XMLID_50_" class="st0" d="M574.5,432.9c-5.9,8.2-7.6,18.4-4.9,28.1c0.9,3.1,5.7,1.8,4.8-1.3c-2.4-8.6-0.8-17,4.4-24.2
			C580.7,432.8,576.4,430.3,574.5,432.9L574.5,432.9z"/>
	</g>
</g>
<g id="XMLID_482_">
	<g id="XMLID_39_">
		<path id="XMLID_43_" class="st0" d="M604.8,347.6c1.6,3.5,2.8,7,3.5,10.8c0.3,1.6,1.5,4.7-0.3,5.9c-0.6,0.4-2.2,0-3,0.2
			c-3.3,1-4.9,4.7-2.5,7.4c2.2,2.4,5.7-1.1,3.5-3.5c3.3,3.7,7.8-2,7.9-5.4c0.1-6.1-2.3-12.4-4.8-17.9
			C607.8,342.2,603.5,344.7,604.8,347.6L604.8,347.6z"/>
	</g>
</g>
<g id="XMLID_484_">
	<g id="XMLID_28_">
		<path id="XMLID_35_" class="st0" d="M318.4,719.4c10.5,9.8,22.1,18.5,34.6,25.6c6.1,3.5,12.4,6.6,18.9,9.3c2.9,1.2,6,2.8,9.2,3.4
			c3.2,0.7,5.9-0.4,9-0.9c16.3-2.5,24.1,18.1,33,27.8c8.3,9.1,20.9,15.2,33.3,13.3c12.3-1.9,22.4-11.9,23.4-24.4
			c0.1-1.8-2.3-3.3-3.8-2.2c-6.7,5-16.4,4.1-20.4-3.8c-3.2-6.3-0.8-12.6,3.7-17.4c7-7.4,17.3-12.3,21.4-22.2
			c2.2-5.5,1.8-11.4,1.1-17.1c-0.9-6.7-2.7-14.8,2-20.6c6.7-8.1,19.5-7.7,27.5-14.1c12.8-10.3,1.1-25.8,6.2-38.4
			c1.2-3-3.6-4.3-4.8-1.3c-5.3,13.1,7.5,30.5-8.7,38.5c-10,4.9-23.7,6.1-27.4,18.6c-2.1,7,0,14.4,0.6,21.4
			c0.7,7.9-1.4,13.8-7.1,19.3c-7.7,7.4-19.2,13.2-20.8,24.8c-2.2,16.2,16.5,26.4,29.3,16.8c-1.3-0.7-2.5-1.4-3.8-2.2
			c-0.6,8-6.2,14.6-13.4,17.8c-7.6,3.4-16.3,2.2-23.5-1.5c-14.6-7.4-19-24.2-31.9-33.3c-5.9-4.2-11.8-5.3-18.8-4.1
			c-4.8,0.8-7.9-0.4-12.4-2.2c-4-1.6-7.9-3.5-11.8-5.4c-15-7.6-28.8-17.3-41.1-28.8C319.6,713.7,316,717.2,318.4,719.4L318.4,719.4z
			"/>
	</g>
</g>
<g id="XMLID_1695_">
	<g id="XMLID_22_">
		<path id="XMLID_26_" class="st0" d="M308,392.9c30.9,8.9,60.1,29.7,93.4,27.1c34.8-2.6,60.9-28.5,83.9-52.2
			c2.2-2.3-1.3-5.8-3.5-3.5c-22.7,23.4-48.9,49.9-83.7,50.9c-31.6,0.9-59.3-18.7-88.7-27.1C306.2,387.2,304.9,392.1,308,392.9
			L308,392.9z"/>
	</g>
</g>
<g id="XMLID_221_">
	<g id="XMLID_19_">
		<path id="XMLID_246_" class="st0" d="M376.6,284.7c4.5-0.3,8.8,0.2,13,2.1c2.8,1.3,5.4,3.1,8.6,3.5c6.5,0.7,9.5-5,15-7.1
			c3-1.2,1.7-6-1.3-4.8c-2.1,0.8-3.8,1.9-5.6,3.3c-4.2,3.2-6.4,4.6-11.8,2.1c-5.8-2.8-11.2-4.4-17.8-3.9
			C373.4,280,373.4,285,376.6,284.7L376.6,284.7z"/>
	</g>
</g>
</svg>
