<svg xmlns="http://www.w3.org/2000/svg" id="Layer_1" viewBox="0 0 800 800">
  <style>
    .st0{fill:#fff}
  </style>
  <path d="M210.2 361.8c-4.9-.6-8.8-1.4-13.2-3.8-3.2-1.7-6.2-3.4-9.7-4.4-8.4-2.4-15.7-7.3-24.3-9.8-8.1-2.3-16.4-4.5-24.6-6.1-3.8-.7-7.6-.8-11.3-1.9-4.6-1.4-8.5-4.5-12.8-6.7-6.3-3.3-14.6-5.2-21.7-6-3.2-.4-6.4-.3-9.4.7-4.5 1.5-7.9 5.4-13 4.6-5.7-1-7.9-2.7-12.1 2.2-2.9 3.4-5.4 4.5-9.3 6.4-2.1 1-2.8 2.2-3.8 4.2-1.7 3.5-2.1 5.6-6.7 6.3-1.4.2-2.9-.3-4.3-.1-2 .2-3.6.9-5 2.4-2.3 2.5-3.6 7.1-.3 9.2.6.4 1.6.3 2.2.7.4.3 1.7.2 2 .6-.4.6-.8 1.2-1.2 1.9-.3 1.7-1.1 2.2-2.5 1.7-2.4.4-5-1.3-7.5-.2-3.1 1.4-2.6 4.3-2 7.1.9 3.8.9 5.7-3.4 6.6-2 .4-4 .3-5.7 1.6-1.7 1.4-1.9 2.9-2 4.9-.1 1.7.3 3.2 0 5-.2 1.1-1 2.3-1 3.4 0 2.1 1.7 3.4 2.6 5.3 2.8 6.1-1.5 9.8-5.6 13.5-3 2.6-4.7 7.9-2.7 11.7.9 1.6 2.1 2.2 3.7 2.9 4.2 2 7.3 4.5 10.4 8 2.3 2.7 2.8 5.1 2.1 8.5-.3 1.3-.9 2.2-.7 3.6.3 3.5 1.2 7.2 1.6 10.7.6 4.9 5.6 5.9 9.7 6.3 4.6.4 14.3 1.6 11.6 8.7-1 2.6-2.6 2.1-1.6 4.9 2.5 7.5 14.7 3 19.9 1.9 1.8-.4-1.3-.1-1.8 0-1 .2-2.1.3-2.9.8-1.4.9-2.1 1.7-1.8 3.4.6 3.4 5.1 3.9 7.8 4.2 4 .4 6.3.7 9.8 3.2 3 2.1 5.5 3.5 9.1 4.1 7.7 1.3 14.2-1.5 21.4-3.6 4.4-1.3 8.6.5 13-.1 4.2-.6 8.1-3.1 12-4.5 8.6-3.2 15.2-7.4 22.5-13 3-2.3 5.9-4.9 9-7 3.8-2.6 7.6-3.4 11.9-4.8 2.6-.8 4.9-1.9 6.9-3.7 2.2-1.9 4.2-3.7 7-4.7 1.8-.6 3.7-.9 5.5-1.7 5.7-2.4 12.4-2.2 16.7-7 .6-.7 1.5-2.6 2.4-2.9.7-.2 1.7 1.4 1.2 2.6-.2.6-1.9 1.4-2.5 1.7-2.9 1.7-6.4 2.4-9.4 4.1-6.6 3.6-5.8 8.3-7.6 14.8-2.3 8.6-9.2 11.7-14.7 17.6-1.6 1.7-2.8 3.7-3.2 6-.7 3.6 1.6 6.8 1 10.4-.6 3.6-4 8.5 1.1 10.5 1.9.7 4.3.1 6.1-.4 4.4-1.1 7.9-.5 12.4.2 3.5.5 7 1.1 10.5.5 3.7-.6 6.3-2.9 9.4-4.7 3.3-1.9 6.9-2.4 10.3-3.9 3.4-1.5 5.6-3.9 8.3-6.3 3.8-3.4 8.1-5 12.8-6.8 4-1.5 7.8-3.7 11.9-4.6 5-1.1 9.9-.1 14.6 1.6 3.5 1.3 8.2 2.2 10.8 5 1.6 1.8 4.2-.9 2.6-2.6-3.5-3.9-10.4-5.6-15.3-7-7.4-2.1-13.6-1-20.6 1.9-6.5 2.7-13.4 4.6-18.9 9.3-3.7 3.2-6.4 5.7-11.2 7.3-4.1 1.4-6.9 3.1-10.6 5.2-8.5 4.7-15.9-.8-24.5.4-1.9.3-6.7 3.1-7.9-.2-.6-1.6 2.2-5.8 1.9-8.2-.7-5.4-2.1-8.4 2.6-12.5 2.3-2.1 5.1-3.6 7.3-5.9 2.2-2.3 3.9-5.3 5.2-8.2 1.8-3.9 1.2-9.2 3.2-12.7 3.2-5.4 11.1-5.2 15.6-9 2.7-2.2 5.5-7.8 2-10.6-2.8-2.3-6 .3-7.9 2.4-2.2 2.5-3.6 4.7-7.1 5.5-4.4 1-7.9 2.4-12.2 3.9-3.1 1.1-6 1.2-8.7 3.3-3.7 2.9-6.2 5.3-11 6.5-7.3 1.9-12.4 6.1-18.3 10.7-3.5 2.8-7.1 6-11 8.3-4.3 2.6-9.1 4-13.7 5.8-3.7 1.5-7.3 3.8-11.5 3.9-4.7.1-7.8-1.1-12.4.4-4.3 1.4-8.6 3.1-13.2 3.5-6.1.5-9.8-1.4-14.6-4.7-1.7-1.2-3.3-2.1-5.4-2.5-1.9-.4-6.9.5-8.2-.9-.7-.7 3.6-.8 4.7-1.6s1.6-1.5 1.5-2.8c-.2-3.1-3.9-3.7-6.2-3.5-3.7.3-7.3 2.4-11 2.2-3.6-.1-3.4-1-2.4-3.5 1-2.4 1.1-4.1.3-6.5-1.7-5.3-5.8-6.9-11-7.4-1.4-.1-2.7-.1-4.1-.3-4.5-.5-5.2-.4-5.6-6-.3-3.9-1-7.7-.9-11.6.1-6.1-1.8-8.8-6-13.1-1.9-2-3.8-3.7-6.3-5 0 0-1.6-.6-2-.9-2-.3-3-1.5-3-3.6-.1-2.3.8-4.2 2.9-5.6 4.1-3.7 7.2-6.5 7-12.6-.1-2.8-1.4-4-2.3-6.5-1.1-3.1-.7-.4-.4-3.6.1-1.3.4-2.9.6-4.2.4-2.6-2.6-3.3 3.1-5.1 1.1-.4 2.5 0 3.7-.2 1.5-.3 2.6-.7 3.6-1.9 2.6-3.1-1.3-10.8 1.4-11.9 2-.8 5.6 1.1 7.9.5 1.4-.4 2.7-1 3.6-2.1 3.2-3.9.5-6.8-2.6-8.9-.3-.1-.7-.2-1-.3-2.4-.2-2.1-1.9.9-5 1.6-.9 4.8.2 6.6-.1 2.7-.4 5.3-1.8 6.9-4 .5-.7.9-1.4 1.1-2.2 1.1-3 1.5-3.6 4.7-5.2 2.9-1.5 4.9-2.7 7.1-5.3 4.2-4.9 6.2-2.5 11.4-2.1 3.2.2 5.5-1.1 8.3-2.5 5-2.6 9.1-3.7 14.8-2.6 4.6.9 9.7 1.9 14.1 3.4 8.5 2.9 14.5 8.7 23.6 10.1 9.7 1.5 19.5 3.9 29 6.6 9.2 2.6 17.2 7.5 26.3 10.3 4.2 1.3 7.6 4 11.6 5.7 3.7 1.6 7.5 1.9 11.5 2.4 2.9-.2 2.8-4 .5-4.3" class="st0"/>
  <path d="M207.5 442.1c-.3.3-.6.9-.8 1.2-.1.1-.2.3-.3.4.5-.3 1.1-.6 1.3-.8 0-.2-.1-.5-.2-.8m-23 64.3c2.4 0 4.7.3 7.2.7l1.2.2c3.1.5 6.3.9 9.3.4 2.6-.4 4.6-1.8 6.7-3.1.7-.5 1.5-1 2.3-1.4 2-1.2 4.2-1.9 6.3-2.5 1.5-.4 2.8-.9 4.2-1.4 2.5-1.1 4.5-2.9 6.5-4.7.5-.5 1-.9 1.5-1.4 4-3.5 8.4-5.2 13.2-7 1.4-.5 2.7-1.1 4.1-1.7 2.5-1.1 5.2-2.3 8-2.9 4.6-1 9.4-.5 15.2 1.6.8.3 1.7.6 2.6.9 3 1 6.5 2 8.6 4.4.1.1.4.4.9 0 .1-.1.6-.6.1-1.2-3-3.3-8.8-5-13.4-6.3l-1.3-.4c-6.4-1.9-12.1-1.3-19.8 1.9-1.4.6-2.9 1.1-4.3 1.7-5 1.9-10.2 3.9-14.3 7.4l-.8.7c-3.4 2.9-6.1 5.2-10.8 6.8-3.3 1.1-5.8 2.5-8.7 4.1l-1.7 1c-5.5 3-10.5 2.1-15.4 1.2-3.1-.6-6.2-1.1-9.5-.7-.4.1-1 .3-1.7.5-2.3.8-6.2 2.1-7.4-1.4-.4-1.2.2-2.8.8-4.6.5-1.4 1.1-2.9 1-3.8-.1-.8-.2-1.6-.3-2.3-.6-4.1-1.1-7.3 3.3-11.2 1-.9 2.1-1.7 3.2-2.5 1.5-1.1 2.8-2.1 4-3.3 1.8-1.9 3.4-4.4 5-7.9.8-1.7 1.1-3.8 1.4-5.8.4-2.4.7-5 1.9-7 2.1-3.5 5.8-4.9 9.4-6.2 2.4-.9 4.7-1.7 6.5-3.1 1.6-1.3 3.2-4 3.2-6.3 0-1.1-.4-1.9-1.2-2.6-2.1-1.7-4.6.3-6.4 2.3-.4.4-.7.8-1.1 1.2-1.7 2-3.4 3.9-6.7 4.6-3.2.7-5.9 1.7-8.8 2.7-1 .4-2.1.7-3.2 1.1-.9.3-1.9.6-2.8.8-2.1.5-3.9 1-5.6 2.3l-1.3 1.1c-3 2.4-5.7 4.5-10.1 5.6-6.7 1.7-11.4 5.4-16.8 9.6l-1.1.8c-1 .8-2.1 1.7-3.1 2.5-2.5 2.1-5.2 4.2-7.9 5.9-3.2 2-6.8 3.3-10.2 4.5-1.2.5-2.5.9-3.7 1.4-1 .4-1.9.8-2.9 1.3-2.8 1.3-5.7 2.6-9 2.7-1.6 0-3.1-.1-4.4-.2-2.6-.2-4.8-.4-7.7.5-.7.2-1.4.5-2.2.7-3.6 1.2-7.3 2.5-11.3 2.8-6.7.6-10.9-1.9-15.4-4.9-1.7-1.2-3.2-2-5-2.3-.5-.1-1.6-.1-2.6-.1-2.4 0-5 .1-6.2-1.1l-.5-.5.1-.8c.3-.9 1.3-1.1 2.9-1.4.7-.1 2-.4 2.3-.6.9-.7 1.1-1.1 1-1.8 0-.6-.3-1.1-.7-1.5-1-.9-2.9-1.1-4.3-1-1.5.1-3.1.6-4.7 1.1-2.1.6-4.2 1.3-6.4 1.2-1.8-.1-3.2-.3-3.8-1.3-.7-1.1-.1-2.5.4-3.8.9-2.2 1-3.6.3-5.8-1.3-4.2-4.2-6.1-10.1-6.7-.6-.1-1.2-.1-1.8-.1-.8 0-1.5-.1-2.3-.2l-.5-.1c-4.7-.5-5.6-1.2-6.1-6.9-.1-1.3-.2-2.6-.4-3.9-.3-2.5-.6-5.1-.5-7.8.1-5.8-1.7-8.2-5.7-12.3-2-2-3.7-3.6-5.9-4.8-.7-.2-1.5-.6-1.9-.8-2.4-.4-3.7-2.1-3.7-4.7-.1-2.7 1-4.9 3.3-6.6l.1-.1c4-3.7 6.6-6.1 6.4-11.6 0-1.6-.5-2.6-1.2-3.8-.4-.7-.7-1.4-1.1-2.4-.3-.9-.5-1.3-.6-1.5-.2-.3-.3-.7-.1-1.2.1-.3.2-.9.3-1.4.1-1.3.4-2.9.6-4.2.1-.5 0-.9-.2-1.4-.2-.6-.5-1.4 0-2.2.5-.9 1.6-1.6 4.1-2.4.8-.3 1.7-.2 2.4-.2h1.4c1.3-.3 2.1-.6 2.9-1.6 1-1.2.7-3.7.4-5.9-.3-2.7-.7-5.5 1.5-6.3 1.3-.5 3-.2 4.6.2 1.3.3 2.6.5 3.5.3 1.3-.3 2.3-.9 3-1.8.9-1.1 1.3-2.2 1.2-3.2-.2-1.3-1.3-2.6-3.4-4.1l-.8-.2c-1.1-.1-2-.6-2.3-1.5-.5-1.3.3-2.9 2.8-5.3l.3-.2c1.3-.7 3-.5 4.6-.3.9.1 1.8.2 2.4.1 2.5-.4 4.8-1.7 6.1-3.6.4-.6.7-1.2 1-1.9 1.2-3.2 1.8-4 5.2-5.8 2.8-1.5 4.7-2.6 6.8-5 3.5-4.1 5.9-3.6 9-3 1 .2 2.1.4 3.3.5 2.8.2 4.8-.9 7.3-2.2l.4-.2c4.8-2.5 9.2-3.9 15.5-2.7 4.5.9 9.7 1.9 14.2 3.4 3.6 1.2 6.7 2.9 9.8 4.6 4.4 2.4 8.5 4.6 13.6 5.4 8.7 1.4 17.9 3.4 29.1 6.6 5 1.4 9.6 3.5 14.1 5.5 3.9 1.7 8 3.5 12.2 4.9 2.5.8 4.8 2.1 7 3.3 1.5.9 3.1 1.8 4.7 2.4 3.1 1.3 6.4 1.7 9.8 2.1l1.3.2c.2 0 .5.1.5-.4 0-.4-.1-1-.8-1.1-5.3-.7-9.2-1.5-13.6-3.9l-.5-.3c-2.9-1.6-5.7-3.1-8.9-4-4.3-1.2-8.4-3.1-12.3-4.9-3.8-1.8-7.8-3.7-12-4.8-7.2-2.1-15.8-4.4-24.5-6.1-1.4-.3-2.9-.5-4.4-.6-2.3-.3-4.7-.6-7.1-1.3-3.2-1-6.1-2.7-8.8-4.4-1.3-.8-2.7-1.7-4.1-2.4-7.3-3.8-16.5-5.3-21.3-5.9-3.5-.4-6.4-.2-9 .6-1.5.5-2.9 1.3-4.3 2.1-2.8 1.6-5.6 3.2-9.3 2.5-1-.2-1.9-.4-2.7-.5-3.8-.8-5.4-1.2-8.4 2.4-2.9 3.4-5.5 4.7-9.1 6.4l-.5.3c-1.8.9-2.4 1.8-3.3 3.7l-.5 1.1c-1.3 3-2.3 5.1-7 5.8-.9.1-1.7 0-2.5 0-.6-.1-1.3-.1-1.8-.1-1.9.2-3.2.8-4.3 2-1.2 1.3-2.2 3.5-2 5.3.1.9.6 1.7 1.4 2.2.2.1.5.2.8.2.4.1.9.2 1.4.5.1 0 .2 0 .4.1.7.1 1.5.2 1.9.9l.4.6-1.5 2.3c-.2 1.1-.7 1.9-1.4 2.3-.6.4-1.4.4-2.2.1-1.1.1-2.2-.1-3.2-.3-1.4-.3-2.5-.5-3.7 0-2.1.9-2.1 2.6-1.3 5.8.5 2.1.9 4.1-.1 5.6-.7 1.1-2 1.9-4.2 2.3-.6.1-1.1.2-1.7.3-1.4.2-2.6.3-3.5 1.1-1.3 1-1.5 2-1.6 4.1v1.9c.1 1 .1 2.1-.1 3.3-.1.5-.3 1-.5 1.6-.2.6-.5 1.2-.5 1.6 0 1 .5 1.8 1.2 2.8.4.6.9 1.3 1.2 2 3.1 6.8-1.6 11-5.7 14.6-2.4 2.4-4 7.1-2.2 10.4.7 1.2 1.6 1.7 3.1 2.4 4.3 2.1 7.5 4.6 10.8 8.3 2.5 2.9 3.2 5.6 2.4 9.5-.1.5-.2.9-.4 1.3-.2.7-.4 1.3-.4 2 .2 1.9.5 3.9.9 5.8.3 1.6.6 3.3.8 4.9.4 3.2 3 4.8 8.7 5.3 4.6.4 10.2 1.4 12.3 4.7 1 1.5 1 3.4.2 5.5-.4 1.1-1 1.8-1.4 2.3-.5.6-.6.7-.2 1.9 1.5 4.3 6.9 3.9 12.9 2.5.2-.1.4-.3.6-.4.9-.5 1.8-.7 2.7-.9l.6-.1c3.4-.7 3.6.1 3.7.7.2 1.1-1 1.4-1.4 1.5-.7.2-1.6.4-2.5.6-.8.2-1.7.5-2.7.7-.5.5-.6.9-.4 1.6.4 2.4 3.7 2.9 6.8 3.2 4 .4 6.6.7 10.3 3.4 2.8 2 5.2 3.3 8.7 3.9 6.1 1 11.6-.7 17.3-2.4 1.2-.4 2.4-.8 3.7-1.1 2.7-.8 5.2-.5 7.6-.3 1.9.2 3.7.4 5.6.1 2.6-.4 5.2-1.6 7.8-2.7 1.3-.6 2.7-1.2 4.1-1.7 7.6-2.8 14.1-6.6 22.2-12.8 1-.8 2.1-1.6 3.1-2.5 1.9-1.6 3.9-3.2 6-4.6 3.3-2.2 6.5-3.2 10-4.2.7-.2 1.5-.4 2.2-.7 2.7-.8 4.7-1.9 6.5-3.5 2.3-2 4.4-3.8 7.4-4.9.8-.3 1.7-.5 2.5-.7 1-.3 2-.5 3-.9 2-.8 4.1-1.4 6.1-1.9 3.9-1 7.6-1.9 10.2-4.9.2-.2.4-.5.6-.9.6-1 1.3-2 2.2-2.3.6-.2 1.4 0 1.9.6.7.8 1.2 2.2.7 3.5-.3.8-1.3 1.4-2.6 2.1l-.4.2c-1.6.9-3.3 1.6-5 2.2-1.5.6-3 1.1-4.4 1.9-4.7 2.6-5.3 5.5-6.1 9.9-.3 1.3-.5 2.7-.9 4.2-1.7 6.4-5.7 9.8-9.9 13.4-1.7 1.5-3.4 3-5 4.7-1.6 1.8-2.6 3.6-3 5.5-.3 1.6.1 3.2.5 4.8.4 1.8.9 3.6.5 5.6-.2.9-.5 1.9-.8 2.9-1.2 3.6-1.4 5.3 1.2 6.3 1.4.6 3.5 0 5.1-.4l.3-.1c1.8-.4 3.6-.6 5.2-.6m14.9 3.8c-2.3 0-4.6-.3-6.8-.7l-1.2-.2c-4.2-.6-7.6-1.1-11.6-.1l-.3.1c-2 .5-4.4 1.1-6.5.3-4.9-1.9-3.6-6.1-2.6-9.1.3-.9.6-1.8.7-2.6.3-1.5-.1-3.1-.5-4.7-.4-1.8-.9-3.7-.5-5.8.5-2.4 1.6-4.5 3.5-6.6 1.7-1.8 3.5-3.4 5.2-4.9 3.9-3.4 7.7-6.6 9.2-12.3.4-1.4.6-2.8.9-4 .7-3.5 1.3-6.7 4.2-9.3-1.5.4-3.1.9-4.6 1.5-1.1.5-2.2.7-3.3 1-.8.2-1.6.4-2.3.7-2.6.9-4.5 2.6-6.7 4.4-2 1.8-4.4 3-7.3 3.9-.8.2-1.5.5-2.3.7-3.4 1-6.4 1.9-9.4 3.9-2 1.4-4 3-5.8 4.5-1 .9-2.1 1.7-3.2 2.5-8.3 6.4-14.9 10.2-22.8 13.2-1.3.5-2.6 1.1-3.9 1.7-2.7 1.2-5.4 2.5-8.4 2.9-2.1.3-4.2.1-6.1-.1-2.3-.2-4.5-.5-6.8.2-1.2.4-2.4.7-3.6 1.1-6 1.9-11.7 3.6-18.3 2.5-3.9-.7-6.6-2.1-9.6-4.3-3.3-2.3-5.4-2.6-9.2-2.9-2.8-.3-8.1-.8-8.8-5.1-.1-.5-.1-1 0-1.4-5.4 1-11.4 1-13.3-4.5-.8-2.2-.2-3.1.6-4.1.3-.4.7-.8 1-1.6.5-1.4.5-2.6-.1-3.5-1.8-2.9-8.4-3.5-10.6-3.7-2.7-.3-10-.9-10.7-7.3-.2-1.6-.5-3.2-.8-4.8-.4-2-.7-4-.9-6-.1-1.1.2-2 .5-2.8.1-.4.2-.7.3-1.1.7-3.2.1-5.2-1.9-7.6-3.1-3.5-6.1-5.9-10.1-7.8-1.2-.8-2.7-1.5-3.7-3.4-2.3-4.3-.3-10.1 2.9-13 4-3.6 7.7-6.9 5.3-12.2-.3-.6-.6-1.1-1-1.7-.8-1.1-1.6-2.3-1.6-4 0-.9.3-1.7.6-2.5.2-.4.3-.8.4-1.2.2-.9.1-1.8.1-2.7 0-.7-.1-1.4-.1-2.1.1-1.8.2-3.9 2.4-5.7 1.5-1.2 3.1-1.4 4.7-1.6.5-.1 1-.1 1.5-.2 1.5-.3 2.4-.7 2.8-1.3.5-.7.3-2-.2-3.9-.5-2.3-1.6-6.5 2.6-8.3 1.8-.8 3.5-.4 5-.1 1 .2 1.9.4 2.8.3h.3l.3.1c.3.1.5.1.6.1.1 0 .3-.3.4-1l.2-.4.4-.6c-.3-.1-.6-.1-.8-.3-.1-.1-.4-.1-.7-.2-.4-.1-1-.2-1.5-.5-1.4-.9-2.2-2.2-2.5-3.7-.4-2.7 1.1-5.5 2.5-7.1 1.5-1.6 3.2-2.5 5.7-2.8.8-.1 1.5 0 2.3.1.7.1 1.4.1 1.9.1 3.5-.6 4.1-1.8 5.3-4.6l.5-1.2c1.1-2.3 2-3.6 4.3-4.7l.5-.3c3.5-1.7 5.8-2.8 8.4-5.9 3.9-4.6 6.5-4 10.6-3.1.8.2 1.6.4 2.6.5 2.9.5 5.3-.8 7.8-2.3 1.5-.8 3-1.7 4.7-2.2 2.9-.9 6.1-1.2 9.9-.7 5 .6 14.5 2.2 22.1 6.1 1.4.8 2.9 1.6 4.2 2.4 2.7 1.6 5.4 3.3 8.3 4.2 2.1.7 4.3.9 6.7 1.2 1.5.2 3 .4 4.5.7 8.8 1.7 17.4 4.1 24.7 6.2 4.4 1.2 8.4 3.1 12.3 5 3.8 1.8 7.8 3.7 12 4.8 3.5 1 6.3 2.5 9.4 4.2l.5.3c4.1 2.2 7.7 3 12.8 3.7 2 .2 2.9 2 2.7 3.6-.2 1.6-1.4 2.5-3 2.3l-1.3-.2c-3.5-.4-7-.8-10.4-2.3-1.7-.7-3.4-1.7-4.9-2.6-2.2-1.2-4.2-2.4-6.5-3.1-4.3-1.4-8.4-3.2-12.4-4.9-4.4-2-9-4-13.8-5.4-11.1-3.1-20.2-5.2-28.8-6.5-5.6-.9-10-3.3-14.4-5.7-3-1.6-6-3.3-9.4-4.5-4.3-1.5-9.5-2.5-13.9-3.3-5.6-1.1-9.6.2-14 2.5l-.4.2c-2.6 1.4-5.1 2.7-8.5 2.5-1.4-.1-2.6-.3-3.6-.5-2.8-.6-4.2-.8-6.9 2.3-2.3 2.7-4.6 4-7.4 5.5-2.9 1.5-3.1 1.9-4.2 4.6-.3.9-.8 1.7-1.3 2.4-1.7 2.4-4.5 4-7.6 4.5-.9.1-1.9 0-2.9-.1-1.2-.1-2.5-.3-3.2 0-1.8 1.8-2 2.6-2.1 2.8 0-.1.2.1.6.1l1.5.5c1.8 1.2 4.1 3.1 4.5 5.7.2 1.6-.3 3.2-1.6 4.9-1 1.2-2.4 2.1-4.2 2.5-1.4.3-3 0-4.5-.3-1.2-.3-2.6-.5-3.3-.3-.5.2-.3 2.6-.1 4 .3 2.7.7 5.7-.9 7.6-1.2 1.5-2.6 2-4.2 2.3-.7.1-1.3.1-1.9.1-.6 0-1.2 0-1.6.1-2.4.8-2.8 1.2-2.8 1.3 0 0 .1.3.2.5.2.6.5 1.4.3 2.5-.2 1.3-.4 2.8-.6 4.1-.1.8-.2 1.3-.3 1.7.1.3.3.7.6 1.4.3.8.6 1.5 1 2.1.7 1.3 1.4 2.7 1.4 4.8.2 6.6-3.2 9.7-7.2 13.3l-.2.2c-1.8 1.3-2.6 2.8-2.5 4.8 0 1.6.6 2.4 2 2.6h.3l.2.2c.1.1.4.2.8.4v-.1l1.1.6c2.6 1.4 4.7 3.3 6.5 5.2 4.5 4.6 6.4 7.5 6.3 13.9 0 2.5.2 5 .5 7.5.1 1.3.3 2.6.4 4 .3 4.5.3 4.5 4.1 4.9l.5.1c.7.1 1.4.1 2.1.2.6 0 1.3.1 1.9.1 4.8.5 10 1.8 12 8.2.9 2.7.8 4.7-.4 7.3-.2.4-.6 1.4-.6 1.7 0-.1.3.2 1.9.2 1.9 0 3.7-.5 5.7-1.1 1.7-.5 3.4-1 5.2-1.1 1.2-.1 4.1-.1 6 1.5.9.8 1.4 1.8 1.4 3 .1 2-.9 3-1.9 3.7-.2.1-.4.3-.7.4h.6c1.2 0 2.3 0 3.1.1 2.2.4 3.8 1.3 5.8 2.7 4.9 3.4 8.4 5 13.9 4.5 3.7-.3 7.3-1.5 10.7-2.7.7-.2 1.5-.5 2.2-.7 3.3-1.1 5.8-.9 8.6-.6 1.3.1 2.7.2 4.2.2 2.8-.1 5.4-1.2 8.1-2.5 1-.5 2-.9 3-1.3 1.2-.5 2.5-.9 3.7-1.4 3.3-1.2 6.7-2.5 9.8-4.3 2.6-1.6 5.2-3.7 7.7-5.7 1.1-.9 2.1-1.7 3.2-2.5l1.1-.8c5.4-4.2 10.5-8.2 17.6-10 3.9-1 6.3-2.9 9.2-5.2l1.4-1.1c2.1-1.6 4.3-2.2 6.4-2.7.9-.2 1.7-.5 2.6-.8 1.1-.4 2.2-.7 3.2-1.1 3-1 5.7-2 9.1-2.8 2.6-.6 3.8-2 5.5-3.9.4-.4.7-.8 1.1-1.2 4.6-5.1 7.9-3.7 9.4-2.5 1.3 1.1 2 2.6 2.1 4.3 0 3-2 6.3-4 8-2 1.7-4.6 2.6-7.1 3.5-3.4 1.2-6.6 2.4-8.2 5.2-1 1.7-1.3 3.9-1.6 6.2-.3 2.2-.7 4.4-1.6 6.4-1.7 3.7-3.4 6.4-5.4 8.5-1.3 1.4-2.8 2.5-4.3 3.6-1.1.8-2.1 1.5-3 2.4-3.5 3.1-3.2 5.3-2.6 9.2.1.7.2 1.5.3 2.4.2 1.4-.5 3.2-1.1 4.9-.4 1-1 2.6-.8 3.1.4 1.2 1.8 1 4.6 0 .8-.3 1.5-.5 2.1-.6 3.6-.5 6.9.1 10.2.7 4.7.9 9.2 1.7 13.9-1l1.7-.9c3-1.7 5.5-3.1 9.1-4.3 4.3-1.4 6.7-3.5 10-6.3l.8-.7c4.4-3.8 9.7-5.8 14.9-7.8 1.4-.5 2.9-1.1 4.3-1.7 8.2-3.4 14.4-3.9 21.3-1.9l1.3.4c4.9 1.4 11.1 3.2 14.5 6.9 1.3 1.5.8 3.3-.3 4.3-1.2 1.1-2.9 1-4-.2-1.8-2-4.8-2.9-7.6-3.8-.9-.3-1.9-.6-2.7-.9-5.3-2-9.8-2.5-13.9-1.6-2.6.6-5.1 1.7-7.6 2.8-1.4.6-2.8 1.3-4.2 1.8-4.5 1.7-8.8 3.3-12.5 6.6-.5.5-1 .9-1.5 1.3-2.2 2-4.2 3.9-7.1 5.1-1.5.6-3 1.1-4.4 1.5-2.1.6-4 1.2-5.8 2.3-.8.5-1.5.9-2.2 1.4-2.2 1.5-4.6 3-7.6 3.5-1.4-.5-2.4-.4-3.5-.4" class="st0"/>
  <path d="M53.2 361.8c3.7.4 7.6.6 11.1 1.6 3.5 1.1 6 3.5 9.3 5.1 5.1 2.5 11.6 2.4 17.1 3.1 2.4.3 2.3-3.4 0-3.7-4.1-.5-8.6-.6-12.6-1.6-3.4-.8-5.7-3.2-8.8-4.8-4.9-2.6-10.8-2.8-16.2-3.4-2.3-.3-2.3 3.4.1 3.7" class="st0"/>
  <path d="M53.3 360.7c.9.1 1.8.2 2.6.3 2.9.3 5.9.6 8.7 1.4 2.3.7 4.2 1.9 6 3.1 1.1.7 2.2 1.4 3.4 2 3.6 1.8 8.1 2.2 12.4 2.5 1.5.1 3 .3 4.4.4.3 0 .4 0 .4-.1.1-.2.2-.5 0-.9-.1-.3-.4-.5-.7-.5-1.3-.2-2.7-.3-4.1-.4-2.9-.3-5.8-.5-8.6-1.2-2.4-.6-4.3-1.8-6.1-3.1-.9-.6-1.9-1.3-2.9-1.8-3.9-2.1-8.6-2.5-13-3-.9-.1-1.8-.2-2.8-.3-.2 0-.5-.1-.5.4 0 .4.1 1.1.8 1.2m37.7 12h-.4c-1.4-.2-2.8-.3-4.3-.4-4.5-.4-9.2-.8-13.2-2.8-1.3-.6-2.5-1.4-3.6-2.2-1.8-1.1-3.4-2.2-5.4-2.8-2.6-.8-5.5-1.1-8.3-1.3l-2.7-.3c-1.9-.2-2.9-2-2.7-3.6.2-1.6 1.4-2.6 3-2.4l2.7.3c4.7.5 9.5.9 13.9 3.2 1.1.6 2.1 1.3 3.1 1.9 1.7 1.2 3.4 2.3 5.4 2.7 2.6.7 5.5.9 8.3 1.2 1.4.1 2.8.3 4.2.4 1.1.1 2 .8 2.5 1.9.4 1.1.3 2.3-.3 3.1-.7.8-1.4 1.1-2.2 1.1M106.6 374.2c4.9-4.2 13.3-1.6 18.9-.7 6.5 1.1 13.1 1.7 19.6 2.6 2.4.3 2.3-3.4 0-3.7-8.5-1.1-16.9-2.4-25.3-3.6-5.6-.7-11.3-1-15.8 2.8-1.8 1.5.8 4.1 2.6 2.6" class="st0"/>
  <path d="M114.2 370.7c3 0 6.1.6 8.8 1.1.9.2 1.9.4 2.7.5 4.6.8 9.3 1.3 13.9 1.9 1.9.2 3.8.5 5.7.7.3 0 .4-.1.4-.1.1-.2.2-.5 0-.9-.1-.3-.4-.5-.7-.5-4.8-.6-9.6-1.3-14.3-2-3.7-.5-7.3-1.1-11-1.6-5-.7-10.7-1.1-15 2.5-.1.1-.4.3 0 .8 0 0 .6.7 1.2.2 2.3-2 5.2-2.6 8.3-2.6m31.2 6.5h-.4c-1.9-.2-3.8-.5-5.6-.7-4.6-.5-9.3-1.1-14-1.9-.9-.1-1.8-.3-2.8-.5-5.1-1-11.5-2.2-15.2 1-1.5 1.2-3.4.8-4.4-.4-1-1.2-.9-2.9.3-3.9 5-4.2 11.2-3.8 16.7-3 3.7.5 7.3 1 11 1.6 4.8.7 9.5 1.4 14.3 2 1.1.1 2 .8 2.5 1.9.4 1.1.3 2.3-.3 3.1-.5.4-1.3.8-2.1.8M161 379.3c1.6.2 3.3.4 4.9.6 1 .1 1.9-.9 1.9-1.9 0-1.1-.9-1.7-1.9-1.9-1.6-.2-3.3-.4-4.9-.6-1-.1-1.9.9-1.9 1.9 0 1.1.9 1.8 1.9 1.9" class="st0"/>
  <path d="M160.8 376.7c-.1 0-.2.1-.3.1-.2.2-.3.5-.3.6 0 .5.5.7.9.8l4.9.6c.1 0 .2-.1.3-.1.2-.2.3-.5.3-.6 0-.5-.5-.7-.9-.8l-4.9-.6m5.2 4.3h-.3l-4.9-.6c-1.7-.2-2.8-1.4-2.8-3 0-.8.4-1.7 1.1-2.3.6-.5 1.3-.8 2-.7l4.9.6c1.7.2 2.8 1.4 2.8 3 0 .8-.4 1.7-1.1 2.3-.4.5-1 .7-1.7.7M90.6 397.8c3.4.7 6.6.1 10-.6 5.7-1.2 10.5-.6 16.3.2 2.3.3 3.3-3.2 1-3.6-4.5-.6-8.9-1.7-13.4-1.1-4.3.5-8.5 2.4-12.9 1.5-2.4-.4-3.3 3.1-1 3.6" class="st0"/>
  <path d="M91.2 395.3c-.2 0-.4.1-.5.2-.2.2-.3.6-.2.9 0 .1.1.2.4.3 3.1.6 6.1.1 9.6-.6 5.8-1.2 10.6-.7 16.7.2.4.1.6-.1.8-.3.2-.3.3-.7.2-.8 0 0-.1-.2-.4-.2-.9-.1-1.8-.3-2.7-.4-3.5-.5-7-1.1-10.5-.7-1.4.2-2.8.5-4.2.8-2.9.7-5.8 1.4-9 .7-.1-.1-.2-.1-.2-.1m2.6 4c-1.1 0-2.3-.1-3.4-.3-1-.2-1.8-.9-2.1-1.8-.3-1-.1-2.2.7-3.1.7-.8 1.8-1.2 2.8-.9 2.6.5 5.3 0 8-.7 1.4-.3 3-.7 4.5-.9 3.8-.4 7.5.2 11.1.7.9.1 1.8.3 2.6.4 1 .1 1.8.7 2.1 1.6.4 1 .2 2.2-.5 3.1-.7.9-1.8 1.3-2.9 1.2-5.9-.8-10.5-1.3-15.9-.2-2.5.4-4.7.9-7 .9M50.3 423.9c13.6 1.5 26.7-2.5 40.3-2.4 2.4 0 2.4-3.7 0-3.7-13.6-.1-26.7 3.8-40.3 2.4-2.4-.2-2.4 3.5 0 3.7" class="st0"/>
  <path d="M50.1 421.3c-.2 0-.3.1-.3.1-.1.2-.2.5 0 .9.1.3.4.5.7.5 7.6.8 15.3-.1 22.7-1 5.7-.7 11.6-1.4 17.5-1.4.3-.1.5-.1.5-.3.2-.3.2-.7 0-.9-.1-.2-.3-.3-.6-.3-5.8 0-11.6.7-17.2 1.3-7.5.9-15.3 1.9-23.2 1l-.1.1m6.5 4.1c-2.1 0-4.3-.1-6.5-.3-1.1-.1-2-.8-2.5-1.8s-.4-2.3.3-3.1c.6-.8 1.5-1.1 2.5-1 7.6.8 15.3-.1 22.7-1 5.7-.7 11.6-1.4 17.5-1.4 1.1 0 2 .5 2.5 1.4.5 1 .5 2.2 0 3.2-.5.9-1.4 1.4-2.5 1.4h-.7c-5.6 0-11.1.7-16.5 1.3-5.5.6-11.1 1.3-16.8 1.3M132.2 435.3c2.7-1.8 5.7-1.9 8.7-2.9 3-1 5.4-3.2 8.5-3.7 4.5-.7 8 .9 11.8-2.5 1.8-1.6-.8-4.2-2.6-2.6-2.4 2.1-5.9 1-8.7 1.2-1.9.1-3.6.8-5.3 1.6-4.6 2.3-10 2.9-14.3 5.7-1.9 1.3-.1 4.5 1.9 3.2" class="st0"/>
  <path d="M150.8 425.8h-.8c-1.5.1-3 .6-4.8 1.5-2.1 1.1-4.3 1.8-6.5 2.4-2.8.9-5.4 1.7-7.7 3.2-.3.2-.4.4-.3.7 0 .3.2.7.5.8.1 0 .2.1.5-.1 2-1.3 4-1.8 6.1-2.3 1-.2 2-.5 2.9-.8 1.2-.4 2.2-1 3.4-1.6 1.6-.9 3.3-1.8 5.3-2.2 1.6-.3 3-.2 4.3-.2 2.6 0 4.7 0 6.9-1.9.3-.2.2-.4.2-.5-.1-.3-.3-.5-.6-.6-.3-.1-.5 0-.7.2-2 1.8-4.6 1.7-7 1.6-.7-.2-1.2-.2-1.7-.2m-19.5 10.9c-.4 0-.8-.1-1.2-.3-1-.5-1.6-1.5-1.7-2.6-.1-1.1.4-2 1.4-2.7 2.5-1.7 5.4-2.6 8.3-3.5 2.1-.6 4.2-1.3 6.1-2.3 2.1-1.1 3.8-1.6 5.7-1.7.9-.1 1.8 0 2.7 0 2.1.1 4 .2 5.4-1 .8-.7 1.9-1 2.9-.6 1.1.4 1.9 1.3 2.1 2.3.2 1-.1 1.9-.9 2.6-2.9 2.5-5.7 2.5-8.4 2.5-1.3 0-2.6 0-3.9.2-1.6.3-3 1.1-4.6 1.9-1.2.7-2.4 1.3-3.7 1.8-1 .4-2.1.6-3.1.9-1.9.5-3.7.9-5.4 2-.7.3-1.2.5-1.7.5M176.8 438.4c1.9-1.3 3.8-2.3 6.2-2.7 2.3-.4 1.4-4-1-3.6-2.6.5-4.9 1.6-7.1 3.1-1.9 1.4-.1 4.6 1.9 3.2" class="st0"/>
  <path d="M182.4 433.2h-.2c-2.3.4-4.4 1.3-6.6 2.9-.7.5-.2 1.2-.2 1.2.3.5.6.3.8.2 2.3-1.6 4.3-2.5 6.6-2.9.3-.1.4-.2.4-.3.1-.2 0-.6-.2-.9-.2-.1-.4-.2-.6-.2m-6.6 6.7c-.9 0-1.7-.4-2.3-1.3-.9-1.3-.8-3.2.7-4.3 2.5-1.8 4.9-2.8 7.5-3.3 1.1-.2 2.1.2 2.9 1 .7.9 1 2.1.6 3.1-.3.9-1.1 1.5-2.1 1.7-2 .4-3.7 1.1-5.7 2.5-.5.4-1 .6-1.6.6M191.5 394.4c.8.1 1.6.2 2.5.3 1 .1 1.9-.9 1.9-1.9-.1-1.1-.8-1.7-1.9-1.9-.8-.1-1.6-.2-2.5-.3-1-.1-1.9.9-1.9 1.9.1 1.2.9 1.8 1.9 1.9" class="st0"/>
  <path d="M191.4 391.8c-.1 0-.2 0-.3.2-.2.2-.3.4-.3.5 0 .2 0 .7.9.8l2.5.3c.1 0 .2 0 .3-.2.2-.2.3-.4.3-.5 0-.2 0-.7-.9-.8l-2.5-.3m2.7 4.1h-.3l-2.5-.3c-1.7-.2-2.8-1.3-2.8-2.9 0-.8.3-1.7 1-2.3.6-.6 1.4-.8 2.1-.7l2.5.3c1.7.2 2.8 1.3 2.8 2.9 0 .8-.3 1.7-1 2.3-.5.4-1.1.7-1.8.7M202.8 387.5c-1.4 4.7-1.9 7.6-.4 12.4 2.1 6.9 1.1 13.1.1 20.1-.4 2.3 3.2 3.3 3.6 1 .8-5.2 2-10.2 1.4-15.5-.3-2.3-.8-4.4-1.4-6.6-1.1-4-.7-6.5.4-10.4.6-2.3-3-3.3-3.7-1" class="st0"/>
  <path d="M204.5 387.3h-.2c-.2.1-.4.2-.4.5-1.3 4.6-1.8 7.3-.4 11.7 2.1 7 1.2 13 .2 20l-.1.5c0 .3.1.6.3.8.3.2.7.3.9.2 0 0 .2-.1.2-.4.2-1.1.3-2.1.5-3.1.7-4.1 1.4-8 .9-12-.3-2.3-.8-4.4-1.4-6.4-1.3-4.4-.6-7.2.4-11 .1-.3 0-.5-.1-.6-.3-.1-.5-.2-.8-.2m0 36.1c-.7 0-1.4-.3-2-.7-.9-.7-1.3-1.8-1.1-2.9l.1-.5c1-6.7 1.9-12.5-.1-19.1-1.6-5.2-.9-8.4.4-13 .3-1 1-1.8 2-2 1.1-.3 2.3.1 3 .9.7.7.9 1.7.7 2.8-1.1 3.8-1.5 6-.4 9.8.6 2.1 1.2 4.3 1.5 6.8.5 4.4-.2 8.6-.9 12.7-.2 1-.4 2.1-.5 3.1-.2 1-.7 1.8-1.6 2.1-.4-.1-.7 0-1.1 0M207.3 361.9c0-6.2-4.7-10.1-9.7-13.1-6.9-4.2-1.2-11.1-3.8-17.3-1.3-3-2.1-4.6 1.9-6.5 1-.5 2.2-.5 3.2-.9 2.2-1.1 3.1-2.7 4.2-4.8 1.7-3.2 2.6-5.6 6.8-6.2 2.6-.4 6.1 1 8.7 1.4 3.7.5 7.1-.4 10.8-.2 10.9.7 19.1 6.4 28.5 11.2 8.4 4.3 17.7 8.4 26.6 11.4 7.6 2.6 14.8 4.1 22.8 4.8 4.1.3 7.6.3 11.7-.4 6.1-1.1 11.3-.5 17.5.4 2.3.3 3.3-3.3 1-3.6-4.9-.7-10-1.9-14.9-1.3-4.5.5-8.6 1.8-13.1 1.4-11-.7-21.2-3.8-31.3-8.1-10.3-4.4-20.1-9.1-30-14.3-4.8-2.5-9.3-3.9-14.6-4.7-4.1-.6-7.4-.1-11.5-.1-6.6.1-15.1-4.8-20.1 1.8-.9 1.2-1.3 2.6-1.9 3.9-1.5 3.3-3.5 4-6.6 4.9-2.1.6-4 1.3-4.9 3.5-1.3 2.9.4 4.4 1.3 6.9 1.9 4.9-1 8.6-.7 13.3.2 2.8 1.9 3.9 4.1 5.2 4.4 2.6 10.4 5.4 10.4 11.3-.1 2.4 3.6 2.4 3.6.1" class="st0"/>
  <path d="M209.4 310.5c-2.5 0-4.8.7-6.5 3.1-.6.8-.9 1.6-1.3 2.5-.2.4-.3.8-.5 1.2-1.7 3.7-4 4.5-7.3 5.5-2.2.6-3.5 1.3-4.2 2.9-.8 1.7-.3 2.7.5 4.3.3.6.6 1.2.8 1.8 1.3 3.3.6 6 0 8.6-.4 1.7-.8 3.2-.7 5 .1 2.1 1.4 3 3.5 4.3l1.5.9c4.2 2.4 9.5 5.5 9.5 11.4 0 .3.1.5.3.6.3.2.7.2.9 0 .1-.1.3-.2.3-.6 0-5.9-4.7-9.4-9.2-12.2-4.7-2.9-4.3-7.1-3.9-10.8.3-2.4.5-4.8-.4-7l-.1-.3c-1.2-2.8-2.3-5.4 2.6-7.6.6-.3 1.2-.4 1.8-.5.5-.1 1-.2 1.4-.4 1.9-.9 2.7-2.3 3.8-4.4l.3-.6c1.5-3 2.9-5.5 7.4-6.2 1.9-.3 4.1.3 6.3.8 1 .2 1.9.5 2.7.6 2 .3 3.8.1 5.8 0 1.6-.1 3.2-.3 4.9-.2 9 .5 16 4.4 23.4 8.4 1.8 1 3.6 2 5.5 2.9 9 4.6 18.2 8.5 26.4 11.4 7.5 2.6 14.7 4.1 22.5 4.7 4.2.4 7.6.2 11.4-.4 6.3-1.1 11.6-.5 17.9.4.7.1 1-.5 1.1-.9.1-.4-.1-.5-.4-.5-1.1-.1-2.1-.3-3.2-.5-3.8-.6-7.7-1.3-11.5-.8l-4.2.6c-2.9.5-5.9 1-9.1.8-10.2-.7-20.2-3.3-31.7-8.2-10.3-4.4-20.2-9.1-30-14.3-4.5-2.4-8.8-3.8-14.3-4.6-2.8-.4-5.1-.3-7.7-.2-1.2.1-2.4.1-3.6.1-2.1 0-4.3-.4-6.5-.8s-4.3-.8-6.2-.8m-4 54.3c-.5 0-1.1-.1-1.6-.4-.9-.5-1.4-1.4-1.4-2.5 0-4.7-4.3-7.1-8.4-9.5l-1.5-.9c-2.1-1.2-4.4-2.6-4.6-6.1-.1-2 .3-3.8.7-5.6.6-2.4 1.1-4.7.1-7.3-.2-.6-.5-1.1-.7-1.6-.9-1.7-1.7-3.5-.6-6.1 1.2-2.7 3.5-3.6 5.6-4.2 3-.8 4.6-1.4 5.9-4.3.2-.4.3-.8.5-1.1.4-1 .8-2 1.5-3 3.9-5.3 9.8-4.1 14.9-3.1 2.1.4 4.1.8 6 .8 1.2 0 2.4-.1 3.5-.1 2.7-.1 5.2-.3 8.1.2 5.7.9 10.2 2.3 15 4.9 9.8 5.2 19.6 9.8 29.9 14.3 11.2 4.8 21 7.4 30.9 8 3 .2 5.7-.3 8.6-.8 1.4-.2 2.8-.5 4.3-.7 4.1-.5 8.2.2 12.1.8 1 .2 2.1.3 3.1.5 1.6.2 2.5 1.5 2.3 3-.2 1.6-1.6 3.1-3.6 2.8-6.3-.9-11.2-1.4-17.2-.4-4 .7-7.6.8-12 .4-8-.7-15.4-2.2-23.1-4.9-8.4-2.9-17.6-6.8-26.7-11.5-1.9-1-3.7-2-5.6-3-7.2-3.9-14-7.6-22.5-8.1-1.5-.1-3 0-4.6.2-2 .2-4.1.3-6.3 0-.9-.1-1.9-.4-2.9-.6-1.9-.5-3.9-1-5.4-.8-3.4.5-4.3 2.2-5.7 5l-.3.6c-1.2 2.3-2.3 4.1-4.7 5.3-.6.3-1.3.5-1.9.6-.5.1-.9.2-1.3.4-2.9 1.4-2.6 1.9-1.4 4.8l.1.3c1.1 2.7.8 5.6.6 8.1-.4 3.6-.7 6.5 2.8 8.6 4.8 2.9 10.2 7.1 10.3 14.1 0 1.1-.5 2-1.4 2.5-.2.2-.8.4-1.4.4" class="st0"/>
  <path d="M210.6 333.1c4.8.6 9.7.5 13.9 3.2 2.8 1.8 5.1 3.7 8.4 4.6 2.3.6 3.3-2.9 1-3.6-4-1.1-6.6-4.3-10.3-5.9-3.9-1.7-8.7-1.6-12.9-2.1-2.5-.2-2.5 3.5-.1 3.8" class="st0"/>
  <path d="M210.3 330.5c-.2 0-.3.1-.3.1-.1.2-.2.5 0 .9.1.3.4.5.7.5.9.1 1.8.2 2.6.3 4 .4 8.1.8 11.7 3.1.6.4 1.3.8 1.9 1.3 2 1.3 3.8 2.6 6.2 3.2.3.1.5 0 .6-.1.2-.2.3-.6.2-.9-.1-.2-.2-.4-.5-.4-2.4-.7-4.3-2-6.2-3.3-1.4-1-2.7-1.9-4.2-2.6-2.8-1.2-6.1-1.4-9.3-1.7-1.1-.1-2.3-.2-3.3-.3 0-.1 0-.1-.1-.1m23.1 11.6c-.3 0-.6 0-.8-.1-2.7-.7-4.7-2.1-6.8-3.6l-1.8-1.2c-3.2-2-6.9-2.4-10.7-2.8l-2.7-.3c-1.1-.1-2-.8-2.5-1.9-.5-1-.3-2.3.3-3.1.6-.7 1.5-1.1 2.5-1 1 .1 2.1.2 3.2.3 3.4.3 6.9.6 10 1.9 1.7.7 3.2 1.8 4.6 2.8 1.8 1.3 3.5 2.4 5.5 3 1 .3 1.8 1 2 2 .3 1.1-.1 2.3-.8 3-.6.8-1.3 1-2 1M223.8 349.7c2.6 1.7 5.1 3.2 7.9 4.5 2.3 1 4 3 6.5 3.7 2.3.7 3.3-2.9 1-3.6-1.2-.4-2.1-1.3-3.1-2-1.1-.8-2.1-1.2-3.3-1.7-2.5-1.2-4.8-2.6-7.1-4.1-2.1-1.4-3.9 1.8-1.9 3.2" class="st0"/>
  <path d="M224.7 347.2c-.1 0-.3.1-.5.3 0 0-.5.7.2 1.2 2.8 1.9 5.3 3.3 7.8 4.4 1.1.5 2 1.1 2.9 1.8 1.1.8 2.2 1.5 3.4 1.9.5.2.7-.2.8-.5 0-.1.2-.8-.5-1-1.1-.3-2-1-2.7-1.6-.2-.2-.5-.4-.7-.5-.8-.5-1.6-.9-2.5-1.3l-.7-.3c-2.7-1.2-5.2-2.8-7.3-4.2 0-.1-.1-.2-.2-.2m14.1 11.9c-.3 0-.6 0-.9-.1-1.5-.5-2.8-1.3-4-2.2-.9-.6-1.7-1.2-2.6-1.6-2.6-1.2-5.2-2.6-8.1-4.6-1.6-1.1-1.6-3-.8-4.3.9-1.4 2.6-1.7 3.9-.8 2 1.3 4.4 2.9 6.9 4.1l.7.3c1 .4 1.9.8 2.8 1.5.3.2.5.4.8.6.7.5 1.3 1 2 1.2 1.8.6 2.4 2.3 2 3.8-.4 1.1-1.4 2.1-2.7 2.1M251.6 334.6c3.2.2 6 1.7 8.6 3.5 2 1.3 3.9-1.9 1.9-3.2-3.2-2.1-6.6-3.7-10.5-4-2.4-.2-2.3 3.6 0 3.7" class="st0"/>
  <path d="M251.5 332c-.3 0-.4.1-.4.2-.2.2-.2.6 0 .9.1.2.3.4.6.4 3.6.2 6.6 2 9.1 3.6.1.1.5.3.8-.2 0 0 .5-.7-.2-1.2-3.5-2.3-6.7-3.5-9.9-3.7.1 0 0 0 0 0m9.7 7.5c-.5 0-1.1-.2-1.6-.5-2.3-1.5-5-3.1-8-3.3-1.1-.1-2-.7-2.5-1.6-.5-1-.5-2.2.1-3.1.5-.8 1.4-1.3 2.5-1.2 3.5.2 7.1 1.6 11 4.2 1.6 1.1 1.6 3 .8 4.3-.6.7-1.4 1.2-2.3 1.2M338.3 341.2c2.3-2.2 6.4-2.5 9.4-3.5 3.7-1.3 7.2-2.7 11-3.5 5.9-1.2 12.5-1.2 17.9-4.1 6.1-3.2 11.5-6.6 18.2-8.8 7.1-2.3 14.8-3.8 22.2-4.6 6.1-.7 12.2-1.4 18.3-1.8 4.5-.3 8.9-.9 12.2-4.2 1-1 1.9-2.3 2.6-3.5.7-1.2 1-4.4 3.4-1.9.3.3.5 2.7.5 2.8.7 3.5 2 5.8 5.7 6.8 5 1.3 9.9-1.6 14.7-2.6 7.5-1.6 15.2-.7 22.8-1.8 5.5-.8 9.1-5.4 14.7-5.3 5.2.1 10.1 2.4 15.3.4 3.9-1.5 5.9-4.7 8-8.2 2.8-4.5 5.6-8.6 6.5-13.9.2-1 .1-5.2 1-6 2.1-1.8 2.3 3.9 2.5 4.9.9 5.1 3.1 8.4 7.1 11.7 4.4 3.6 7.8 8.6 13.2 10.9 6.3 2.7 13.9 2.6 20.6 3.4 8.9 1.1 17 1.9 25.1 6.1 6.5 3.4 12.5 4.9 19.7 5.8 2.4.3 2.3-3.4 0-3.7-8.6-1.1-14.6-4.1-22.4-7.6-5.7-2.6-11.7-3-17.9-3.8-6.7-.9-13.9-1-20.4-2.7-6.7-1.7-11.4-7.6-16.5-12.1-4.6-4.1-3.8-9-6.1-14.1-1.1-2.4-3.2-4.7-6.1-3.5-2.3 1-2.6 4-3 6.2-1 5.8-2.8 10-5.9 15-1.6 2.6-3 6-5.9 7.5-3.7 1.9-8 .7-11.8.1-5.6-.8-8.2.4-13 2.9-6.4 3.4-14.1 2.4-21.2 3-2.5.2-5 .5-7.4 1-3.2.7-9.3 4-12.7 2.6-4.8-2-2.1-8.2-6.2-10.8-2.5-1.5-4.8-.4-6.3 1.8-1.4 2-1.6 4-3.4 5.7-2.8 2.8-6.7 2.9-10.4 3.2-6.6.4-13.1 1.2-19.7 2-7 .8-14.2 2.3-21 4.5-7 2.3-12.6 5.9-19.1 9.2-6.8 3.4-15.3 2.8-22.5 5.1-5 1.6-12.6 2.8-16.6 6.4-1.5 2 1.1 4.6 2.9 3" class="st0"/>
  <path d="M452.3 301.1c-1.5 0-2.6 1.3-3.1 2s-.8 1.5-1.2 2.2c-.6 1.2-1.1 2.5-2.4 3.7-3.1 3-7.1 3.2-10.9 3.5-6.2.3-12.4 1.1-18.3 1.8l-1.6.2c-7.3.9-14.3 2.4-20.8 4.5-5 1.6-9.1 3.9-13.6 6.3-1.7.9-3.5 1.9-5.3 2.8-4 2-8.7 2.7-13.2 3.3-3.2.4-6.5.9-9.5 1.9-1.3.4-2.8.8-4.3 1.2-4.3 1.1-9.1 2.4-11.8 5-.2.2-.2.4-.2.5.1.3.3.6.6.7.2.1.5 0 .7-.2 1.8-1.7 4.6-2.4 7-3 1-.2 1.9-.5 2.8-.8.8-.3 1.6-.6 2.5-.9 2.8-1 5.7-2 8.7-2.6 1.8-.4 3.7-.6 5.5-.9 4.2-.6 8.6-1.2 12.2-3.1 1.4-.8 2.8-1.5 4.2-2.3 4.6-2.5 8.9-4.9 14.1-6.6 6.7-2.2 14.2-3.8 22.4-4.7l2.2-.3c5.3-.6 10.7-1.2 16.1-1.5 4.1-.2 8.3-.7 11.5-3.9.9-.9 1.7-2 2.4-3.3.1-.2.2-.5.3-.8.4-1 .9-2.3 2.1-2.6 1.3-.3 2.4.9 2.8 1.3.4.4.6 1.1.8 3.2.8 3.8 2.1 5.4 4.9 6.1 3.2.8 6.3-.2 9.6-1.3 1.5-.5 3-1 4.5-1.3 4.3-.9 8.7-1 12.9-1.2 3.3-.1 6.7-.2 10-.7 2.3-.3 4.2-1.4 6.3-2.5 2.6-1.4 5.3-2.9 8.6-2.8 1.9 0 3.7.3 5.5.6 3.2.5 6.3 1.1 9.4-.1 3.6-1.4 5.4-4.4 7.4-7.7l1-1.6c2.4-3.8 4.6-7.4 5.4-11.9 0-.2.1-.7.1-1.3.2-2.6.4-4.6 1.3-5.4.9-.8 1.7-.7 2.1-.5 1.5.6 1.9 2.9 2.1 5.4 0 .3 0 .5.1.6.8 4.6 2.7 7.8 6.7 11 1.5 1.3 2.9 2.7 4.3 4 2.7 2.7 5.2 5.2 8.6 6.7 4.5 1.9 9.7 2.4 14.8 2.8 1.9.2 3.7.3 5.5.5l1.8.2c8.2 1 16 2 23.6 6 5.9 3.1 11.5 4.7 19.3 5.7.3 0 .4-.1.4-.1.1-.2.2-.5 0-.9-.1-.3-.4-.5-.7-.5-8.1-1-14.1-3.7-21-6.9l-1.7-.8c-4.7-2.1-9.6-2.7-14.9-3.3l-2.7-.3c-2.1-.3-4.3-.5-6.5-.7-4.7-.4-9.5-.9-14-2-5.6-1.4-9.7-5.4-13.8-9.3-1.1-1-2.1-2-3.2-3-3.2-2.9-4-6.2-4.8-9.3-.4-1.7-.8-3.4-1.6-5.1-.5-1.2-1.2-2.1-2-2.6-.8-.6-1.7-.7-2.6-.3-1.5.7-1.9 2.9-2.2 4.8l-.1.6c-1 5.7-2.7 10.1-6 15.4-.3.5-.6 1.1-1 1.6-1.3 2.3-2.8 4.9-5.4 6.2-3.4 1.8-7.2 1.1-10.6.6-.6-.1-1.3-.2-1.9-.3-5.2-.8-7.5.3-12.3 2.8-4.9 2.6-10.5 2.7-15.9 2.9-1.9 0-3.9.1-5.8.3-2 .2-4.6.4-7.3 1-.9.2-2.1.6-3.4 1.1-3.4 1.2-7.2 2.6-9.9 1.5-3.1-1.3-3.6-4-4.1-6.4-.4-1.9-.7-3.6-2.2-4.5-.2-.3-.7-.4-1.3-.4m-115.2 41.7c-.3 0-.6 0-.9-.1-1.1-.3-1.9-1.2-2.2-2.3-.2-1 .1-1.9.9-2.7 3.1-2.9 8.3-4.3 12.8-5.5 1.5-.4 2.9-.8 4.2-1.2 3.1-1 6.6-1.5 9.9-2 4.3-.6 8.8-1.2 12.5-3.1 1.8-.9 3.6-1.9 5.3-2.8 4.5-2.4 8.8-4.8 13.9-6.4 6.6-2.1 13.7-3.7 21.2-4.6l1.6-.2c6-.7 12.1-1.4 18.2-1.8 3.8-.2 7.2-.4 9.7-2.8.9-.9 1.4-1.9 1.9-3 .4-.8.8-1.7 1.4-2.5 2-3 5.1-3.8 7.8-2.1 2.3 1.5 2.8 3.9 3.2 6 .5 2.4.9 3.9 2.8 4.7 2 .8 5.5-.5 8.3-1.5 1.4-.5 2.7-1 3.7-1.2 2.7-.6 5.5-.9 7.5-1 2-.2 4-.2 5.9-.3 5.4-.1 10.4-.3 14.9-2.6 4.9-2.6 7.8-3.9 13.7-3 .6.1 1.3.2 1.9.3 3.2.5 6.4 1.1 9.2-.3 2-1.1 3.3-3.2 4.5-5.4.3-.6.7-1.2 1-1.7 3.2-5.1 4.8-9.2 5.7-14.6l.1-.6c.4-2.2.9-5.3 3.5-6.5 1.7-.7 3.3-.6 4.8.5 1.1.8 2 2 2.7 3.5.9 1.9 1.3 3.7 1.7 5.5.7 3.1 1.4 5.8 4.1 8.2 1.1 1 2.2 2 3.2 3.1 3.8 3.7 7.8 7.5 12.8 8.8 4.3 1.1 9.1 1.5 13.7 2 2.2.2 4.4.4 6.6.7l2.7.3c5.2.6 10.5 1.2 15.5 3.5l1.7.8c7 3.2 12.6 5.8 20.3 6.7 1.1.1 2 .8 2.5 1.9.4 1 .3 2.3-.3 3.1-.6.7-1.5 1.1-2.5 1-8.2-1-14-2.7-20.1-5.9-7.3-3.8-14.9-4.8-22.9-5.8l-1.8-.2c-1.7-.2-3.5-.4-5.4-.5-5.3-.5-10.7-.9-15.5-3-3.8-1.6-6.6-4.4-9.3-7.1-1.3-1.3-2.7-2.7-4.1-3.9-4.3-3.6-6.6-7.2-7.5-12.3 0-.2-.1-.4-.1-.7-.2-1.8-.4-2.8-.6-3.3-.3.9-.5 2.8-.5 3.6 0 .7-.1 1.2-.1 1.5-.9 4.9-3.2 8.7-5.7 12.7l-1 1.6c-2.1 3.4-4.3 7-8.5 8.6-3.7 1.4-7.2.8-10.6.3-1.7-.3-3.4-.6-5.1-.6-2.8-.1-5.1 1.2-7.5 2.5-2.1 1.2-4.4 2.4-7.1 2.8-3.4.5-6.9.6-10.2.7-4.1.1-8.4.3-12.5 1.1-1.4.3-2.8.8-4.3 1.3-3.5 1.1-7.1 2.3-10.9 1.3-4.5-1.2-5.8-4.4-6.5-7.7v-.4c-.1-1.3-.2-1.8-.3-2-.5-.5-.7-.5-.7-.5 0 .1-.3.8-.4 1.2-.2.4-.3.8-.5 1.1-.8 1.4-1.8 2.7-2.8 3.7-3.7 3.7-8.6 4.3-12.9 4.5-5.3.3-10.8.9-16 1.5l-2.2.3c-8 .9-15.4 2.4-22 4.6-5 1.6-9.3 4-13.8 6.4-1.4.8-2.8 1.5-4.2 2.3-3.9 2.1-8.5 2.7-12.9 3.3-1.9.3-3.6.5-5.3.9-2.9.6-5.6 1.5-8.4 2.5-.8.3-1.7.6-2.5.9-.9.3-1.9.6-3 .8-2.3.5-4.6 1.1-6 2.4-.5.4-1.2.7-1.9.7M382.9 497.6c-6.7-.8-14.5-3.2-21.1-2.2-2.6.4-4.8 1.7-7 3-3.4 2-7 3-10.6 4.5-6.2 2.5-12.2 5.4-18.4 8-2.6 1.1-5.4 2-7.9 3.3-3.1 1.7-5.6 4.2-9.3 4.8l2.1.9c-1.5-2.7.6-5.9-1.3-8.6-1.5-2.2-3.3-1.5-5.3-2.3-3.7-1.5-2.8-4.8-5.4-7.2-2.3-2.1-5-3.1-5.9-6.7-.3-1.4.4-2.9.1-4.4-.6-2.6-2.4-3.7-4.4-5.1-5.8-4.2-5.5-7.5-5.2-13.9.3-5.6 0-10.3 1.7-15.8 1.6-5.2.8-9.8 5.2-13.9 2.3-2.2 4.1-3.2 5.2-6.4 1.3-4 .4-7.9 3.2-11.2 2.5-2.9 3.9-4.9 5.6-8.3 2.5-5 5.4-5.1 10.3-6.6 2.4-.7 3.9-1.9 5.3-3.9 1.2-1.7 1.9-4.1 3.5-5.4 2-1.6 4.9-1.5 7.2-2.6 3.8-1.7 6.3-5.1 10.7-5.3 5.4-.3 11.5 1.3 14.5 5.9 2.2 3.5 4.1 6.6 7.2 9.4 4.4 4.1 9.1 8.1 12.1 13.4 1.9 3.4 2 7.1 4.6 10.1 2.6 3.1 6 4.9 9.8 6.1 2.3.7 3.3-2.9 1-3.6-2.9-.9-5.6-2.3-7.7-4.5-2.1-2.4-2.3-5.3-3.4-8-1.5-3.7-5.3-7.9-8-10.8-3.6-3.9-7.9-6.7-10.8-11.3-1.8-2.8-3.1-5.9-6.1-7.7-6.4-3.9-15.6-3.7-21.7.4-3.2 2.2-6.9 1.9-10 3.9-3.7 2.3-4.6 7-8.1 9.3-3.1 2-6.9 1.6-9.9 3.9-3.4 2.5-3.9 6.9-6.3 10.2-1.6 2.2-4.2 3.7-5.2 6.3-.6 1.5-.6 3.4-.8 5-.5 4.6-2.8 7.1-6.2 10-2.5 2.1-3.2 4.3-3.7 7.4-.7 5-2.6 9.9-3 14.9-.2 3.1.1 6.1 0 9.2-.1 2.5-.7 4.8-.3 7.3.4 2.8 1.7 5.2 3.8 7.2 1.8 1.7 4 2.5 5.3 4.7 1.3 2.3.5 3.7.8 6.1.8 5.1 6.2 5.2 8.1 9.4 1.3 2.9.7 5.1 4.3 6.1 2.8.7 4.4.8 4.9 4.1.4 2.4-.2 3 1 5.2.4.8 1.3 1 2.1.9 5.5-.8 10.5-5.3 15.6-7.4 5.6-2.3 11.1-4.5 16.5-7.1 5.5-2.6 10.9-4.5 16.3-7.3 7-3.5 17.4-.5 24.9.5 2.5.1 2.4-3.6.1-3.9" class="st0"/>
  <path d="M343.8 389.5c-3.8 0-7.5 1-10.4 3-1.8 1.2-3.7 1.7-5.6 2.2-1.6.4-3.1.8-4.5 1.7-1.7 1-2.7 2.7-3.9 4.4-1.1 1.8-2.3 3.6-4.3 4.9-1.6 1-3.3 1.5-5 1.9-1.8.5-3.4.9-4.9 1.9-1.8 1.4-2.8 3.4-3.8 5.6-.6 1.4-1.3 2.9-2.3 4.3-.7 1-1.5 1.8-2.3 2.5-1.1 1.1-2.2 2.2-2.8 3.5-.4 1-.5 2.2-.6 3.4 0 .4-.1.9-.1 1.3-.6 5.3-3.5 8.1-6.6 10.7-2.2 1.9-2.9 3.8-3.3 6.7-.3 2.2-.9 4.4-1.4 6.5-.7 2.7-1.4 5.6-1.6 8.3-.1 1.6-.1 3.2 0 4.8 0 1.4.1 2.9 0 4.3 0 .8-.1 1.6-.2 2.4-.2 1.6-.3 3.1-.1 4.7.4 2.6 1.5 4.7 3.4 6.6.6.6 1.3 1 2 1.5 1.3.9 2.6 1.8 3.5 3.4 1 1.7.9 3 .9 4.3 0 .7 0 1.4.1 2.1.4 2.4 1.9 3.4 3.7 4.7 1.5 1.1 3.3 2.3 4.2 4.4.4.8.6 1.6.8 2.3.5 1.7.7 2.6 2.8 3.1l.8.2c2.3.6 4.3 1.1 5 4.8.1.7.2 1.2.2 1.7l.7-.1c.2 0 .4-.1.6-.1v-2.1c.1-1.4.2-2.7-.6-3.8-.7-1.1-1.4-1.2-2.6-1.4-.7-.1-1.4-.2-2.2-.6-2.6-1.1-3.3-2.9-4-4.5-.4-1-.8-2-1.8-2.9-.6-.5-1.2-1-1.8-1.4-1.8-1.4-3.7-2.8-4.4-5.8-.2-.9-.1-1.7 0-2.5.1-.7.2-1.3 0-1.9-.5-2-1.8-2.9-3.6-4.2l-.3-.3c-6.2-4.5-6-8.3-5.7-14.6v-.3c.1-1.2.1-2.4.1-3.5.1-4.2.3-8.1 1.6-12.6.4-1.5.7-2.9.9-4.4.6-3.4 1.2-6.9 4.5-10 .5-.5.9-.9 1.4-1.2 1.7-1.4 2.8-2.4 3.5-4.7.4-1.3.6-2.7.8-4.1.3-2.5.6-5.2 2.7-7.5 2.5-2.9 3.9-4.9 5.4-8.1 2.4-4.7 5.2-5.5 9.1-6.6.6-.2 1.2-.3 1.9-.5 2.1-.6 3.4-1.6 4.7-3.4.4-.6.7-1.2 1.1-1.9.7-1.3 1.4-2.7 2.6-3.7 1.4-1.1 3.1-1.5 4.6-1.9 1-.2 2-.5 2.8-.9 1.3-.6 2.4-1.4 3.5-2.2 2.2-1.5 4.4-3.1 7.6-3.2 6.9-.4 12.7 2.1 15.5 6.5l.3.5c2.1 3.3 3.9 6.1 6.7 8.7l1.5 1.4c4 3.7 8.1 7.4 10.8 12.3.9 1.5 1.4 3 1.8 4.5.6 2 1.3 3.8 2.6 5.4 2.1 2.6 5.2 4.5 9.3 5.8.5.2.7-.2.8-.5 0-.1.2-.8-.5-1-3.5-1.1-6.2-2.7-8.2-4.8-1.6-1.8-2.2-3.8-2.8-5.8-.3-.9-.5-1.8-.8-2.6-1.5-3.7-5.6-8.1-7.8-10.5-1.3-1.4-2.6-2.6-4-3.8-2.5-2.2-5-4.6-6.9-7.6-.4-.6-.7-1.2-1-1.7-1.3-2.2-2.5-4.3-4.6-5.6-2.4-1.5-6-2.4-9.5-2.4m-32.2 129.8l.8 1.4c2.1-.8 4.3-2.1 6.3-3.3 2-1.2 4-2.4 6-3.2 5.4-2.2 11-4.5 16.5-7.1 2.3-1.1 4.6-2.1 6.9-3 3.1-1.3 6.2-2.6 9.3-4.2 5.8-2.9 13.6-1.6 20.4-.4 1.8.3 3.5.6 5.1.8.3 0 .5 0 .5-.4s-.1-1-.8-1.1c-2-.2-4-.6-6.1-1-5-.9-10.2-1.9-14.7-1.2-2.5.4-4.6 1.7-6.6 2.9-2.5 1.5-5.1 2.4-7.6 3.4-1 .4-2.1.8-3.2 1.2-3.1 1.3-6.3 2.7-9.4 4.1-2.9 1.3-6 2.7-9 3.9-.7.3-1.5.6-2.2.9-1.9.7-3.8 1.5-5.6 2.4-.9.5-1.8 1.1-2.7 1.7-1.1.6-2.4 1.5-3.9 2.2m-3.7.6c.1.4.3.8.5 1.3.1.3.5.4 1 .3l1.5-.3-3-1.3zm1.2 3.8c-1.2 0-2.1-.5-2.6-1.5-.8-1.5-.9-2.4-1-3.3l-1.1-.5 1.1-.2c0-.5 0-1-.2-1.7-.4-2.3-1.1-2.4-3.3-3l-.8-.2c-3.3-.9-3.8-2.8-4.4-4.7-.2-.6-.4-1.3-.7-2-.7-1.6-2-2.5-3.5-3.5-1.9-1.4-4.1-2.9-4.7-6.2-.2-1-.1-1.8-.1-2.6 0-1.2.1-2-.6-3.2-.7-1.2-1.7-1.9-2.8-2.7-.7-.5-1.5-1.1-2.2-1.8-2.3-2.2-3.6-4.8-4.1-7.8-.3-1.8-.1-3.6.1-5.2.1-.8.2-1.5.2-2.3.1-1.4 0-2.8 0-4.2 0-1.7-.1-3.4 0-5.1.2-3 .9-5.9 1.7-8.7.5-2.1 1.1-4.2 1.4-6.3.5-3.3 1.3-5.8 4.1-8.1 3.5-2.9 5.3-5.2 5.8-9.2 0-.4.1-.8.1-1.2.1-1.3.2-2.8.7-4 .7-1.8 2-3.1 3.3-4.3.8-.7 1.5-1.4 2-2.2.8-1.2 1.4-2.5 2.1-3.9 1.1-2.4 2.2-4.8 4.5-6.5 1.8-1.3 3.7-1.8 5.6-2.3 1.6-.4 3.1-.8 4.4-1.6 1.5-1 2.5-2.5 3.6-4.2 1.2-1.9 2.5-3.8 4.6-5.1 1.6-1 3.4-1.5 5.1-1.9 1.8-.5 3.4-.9 4.9-1.9 6.4-4.4 16-4.6 22.9-.4 2.6 1.6 4 4 5.4 6.4.3.6.7 1.1 1 1.7 1.8 2.8 4.1 4.9 6.5 7.2 1.4 1.2 2.8 2.5 4.1 3.9 2.3 2.5 6.6 7.1 8.3 11.2.4 1 .7 1.9.9 2.8.5 1.8 1 3.5 2.3 4.9 1.7 1.9 4 3.2 7.2 4.2 1.8.6 2.4 2.4 1.9 3.8-.4 1.4-1.8 2.5-3.6 1.9-4.5-1.4-7.9-3.5-10.3-6.5-1.6-2-2.3-4.1-3-6.2-.5-1.4-.9-2.8-1.7-4.1-2.6-4.5-6.5-8.2-10.4-11.7l-1.5-1.4c-3-2.8-4.9-5.7-7-9.1l-.3-.5c-2.4-3.7-7.4-5.7-13.5-5.4-2.6.1-4.4 1.4-6.4 2.8-1.2.8-2.4 1.7-3.9 2.3-1 .5-2.1.7-3.2 1-1.4.3-2.8.7-3.8 1.5-.9.7-1.4 1.8-2.1 3-.4.7-.8 1.5-1.3 2.2-1.6 2.2-3.4 3.5-5.9 4.3-.7.2-1.3.4-1.9.6-3.7 1.1-5.8 1.6-7.7 5.5-1.7 3.4-3.1 5.4-5.7 8.5-1.6 1.8-1.8 3.9-2.1 6.3-.2 1.5-.4 3-.9 4.5-.9 2.9-2.4 4.2-4.2 5.7-.4.4-.9.8-1.3 1.2-2.8 2.6-3.3 5.5-3.8 8.8-.3 1.5-.5 3-1 4.6-1.3 4.2-1.4 7.8-1.5 12 0 1.1-.1 2.3-.1 3.5v.3c-.3 6.2-.5 9 4.7 12.7l.3.2c1.9 1.4 3.8 2.7 4.5 5.5.2 1 .1 1.9 0 2.7-.1.6-.2 1.2-.1 1.7.5 2.2 1.8 3.2 3.5 4.5.7.5 1.3 1 2 1.6 1.3 1.2 1.8 2.5 2.3 3.7.6 1.5 1.1 2.6 2.8 3.3.6.2 1.1.3 1.8.4 1.3.2 2.8.5 4.1 2.3 1.2 1.8 1.1 3.6 1 5.2 0 .4 0 .8-.1 1.2 1.1-.5 2.2-1.3 3.3-2 .9-.6 1.8-1.2 2.8-1.8 1.9-1 3.9-1.8 5.8-2.5.7-.3 1.5-.6 2.2-.9 3-1.2 6-2.6 8.9-3.9 3.1-1.4 6.3-2.8 9.4-4.1 1.1-.4 2.2-.8 3.2-1.2 2.5-.9 4.9-1.8 7.2-3.2 2.1-1.3 4.5-2.7 7.4-3.2 4.9-.8 10.3.2 15.5 1.2 2.1.4 4.1.7 6 1 2 .3 2.9 2 2.7 3.6-.2 1.6-1.4 2.5-3 2.3-1.6-.2-3.4-.5-5.2-.8-6.5-1.1-13.9-2.4-19.1.2-3.2 1.6-6.4 3-9.5 4.3-2.3 1-4.6 1.9-6.9 3-5.6 2.6-11.2 4.9-16.6 7.1-1.9.8-3.8 1.9-5.7 3.1-3.2 1.9-6.5 3.9-10.1 4.4-.3.2-.5.2-.7.2" class="st0"/>
  <path d="M332.8 406c5.6 3.7 9.8 7.8 13.9 13.1 1.5 2 3.1 3.9 5.1 5.4 2.1 1.6 4.5 2.6 6.4 4.5 1.7 1.7 4.3-1 2.6-2.6-2.1-2.1-4.8-3.1-7.1-5-2.5-2-4.2-4.7-6.1-7.2-3.6-4.6-8.1-8.1-13-11.3-1.9-1.4-3.8 1.8-1.8 3.1" class="st0"/>
  <path d="M333.7 403.6h-.2c-.2.1-.4.5-.5.8 0 .3.1.5.3.7 5.6 3.7 10 7.8 14.2 13.3 1.4 1.8 3 3.7 4.9 5.2.8.7 1.7 1.2 2.6 1.8 1.3.8 2.7 1.6 3.8 2.8.5.5.9.1 1-.1.2-.2.4-.6 0-1-1.1-1.1-2.4-1.9-3.7-2.7-1.1-.7-2.2-1.4-3.3-2.2-1.9-1.6-3.4-3.6-4.8-5.5-.5-.6-.9-1.3-1.4-1.9-3.9-4.9-8.8-8.5-12.7-11.1 0 0-.1-.1-.2-.1m25.7 27.1c-.7 0-1.4-.3-2-.9-1-1-2.2-1.7-3.5-2.5-1-.6-1.9-1.2-2.9-1.9-2.1-1.7-3.8-3.7-5.3-5.6-4.1-5.3-8.3-9.3-13.6-12.8-.9-.6-1.4-1.6-1.3-2.7.1-1.1.7-2.2 1.7-2.6.9-.4 1.9-.4 2.8.2 4 2.7 9.2 6.4 13.2 11.6.5.6 1 1.3 1.5 2 1.4 1.9 2.7 3.7 4.5 5.1.9.8 2 1.4 3 2.1 1.4.9 2.8 1.8 4.1 3 1.4 1.3 1 3.1 0 4.1-.5.5-1.3.9-2.2.9M333.7 436.3c11.2 1.1 19.9 10.3 31 11.5 2.4.3 2.4-3.5 0-3.7-5.9-.6-10.3-4.2-15.8-6.2-5.3-1.9-9.5-4.7-15.2-5.3-2.4-.3-2.4 3.4 0 3.7" class="st0"/>
  <path d="M333.8 435.2c5.8.6 11 3.3 16 5.9 5 2.6 9.7 5 15 5.6.2 0 .5.1.5-.4 0-.3-.1-1-.8-1.1-3.9-.4-7.3-2.1-10.5-3.7-1.8-.9-3.7-1.8-5.6-2.5-1.8-.6-3.4-1.4-5-2.1-3.2-1.4-6.3-2.8-10-3.2-.2 0-.5 0-.5.5.1.2.2.9.9 1m31.1 13.7h-.3c-5.8-.6-10.9-3.3-15.8-5.8-5-2.6-9.8-5.1-15.2-5.6-1.9-.2-2.9-1.9-2.8-3.5.2-1.6 1.4-2.6 3-2.5 4.1.4 7.3 1.8 10.7 3.4 1.5.7 3.1 1.4 4.8 2 2.1.7 4 1.7 5.9 2.6 3.2 1.6 6.1 3.1 9.7 3.5 1.9.2 2.9 1.9 2.8 3.5-.3 1.4-1.4 2.4-2.8 2.4M340.7 459.7c2.9.4 5.7.7 8.6 1.1 2.4.3 2.3-3.4 0-3.7-2.9-.4-5.7-.7-8.6-1.1-2.4-.3-2.3 3.4 0 3.7" class="st0"/>
  <path d="M340.4 457.1c-.2 0-.3.1-.4.4-.1.4.1 1 .8 1.1l8.6 1.1c.3 0 .4-.1.4-.1.1-.2.2-.5 0-.9-.1-.3-.4-.5-.7-.5l-8.6-1.1h-.1m9.2 4.8h-.4l-8.6-1.1c-2-.2-2.9-2-2.7-3.6.2-1.6 1.4-2.5 3-2.3l8.6 1.1c1.1.1 2 .8 2.5 1.9.4 1.1.3 2.3-.3 3.1-.6.6-1.3.9-2.1.9M339.7 486.2c-4 2.6-8.4 3.5-12.8 5.3-3.9 1.5-7.1 4.7-11.4 5-2.4.2-2.4 3.9 0 3.7 4.9-.4 8-3.4 12.4-5.2 4.7-1.9 9.4-2.9 13.7-5.6 2-1.3.1-4.5-1.9-3.2" class="st0"/>
  <path d="M340.6 487c-.1 0-.2 0-.4.1-2.9 1.9-6 2.9-8.9 3.9-1.3.5-2.7.9-4 1.4-1.4.5-2.6 1.3-4 2.1-2.3 1.4-4.8 2.8-7.7 3.1-.8.1-.8 1-.8 1 0 .5.4.5.6.5 2.9-.2 5.2-1.5 7.7-2.9 1.4-.8 2.8-1.6 4.4-2.2 1.6-.6 3.1-1.2 4.7-1.7 3.1-1.1 6-2.1 8.8-3.8.3-.2.4-.4.3-.6 0-.3-.2-.7-.5-.8 0-.1-.1-.1-.2-.1m-25.2 14.3c-1.5 0-2.6-1-2.7-2.5-.1-1.5.9-3.2 2.8-3.4 2.4-.2 4.5-1.4 6.8-2.8 1.4-.8 2.8-1.6 4.3-2.2 1.4-.5 2.8-1 4.1-1.5 3-1 5.8-2 8.5-3.7.9-.6 1.9-.6 2.8-.2 1 .5 1.6 1.5 1.7 2.7 0 1.1-.5 2-1.4 2.6-3 1.9-6.2 3-9.3 4.1-1.5.5-3 1-4.6 1.7-1.4.6-2.8 1.4-4.1 2.1-2.5 1.4-5.2 2.9-8.6 3.2-.2-.1-.3-.1-.3-.1M291.3 470.9c2.1.3 3.7 1.5 5.7 2 1.9.5 3.9.5 5.8.7 5.3.6 10.6 1.3 15.9 2 2.4.3 2.3-3.4 0-3.7-4.7-.6-9.4-1.3-14.1-1.8-2.1-.2-4.6-.2-6.6-.8-2.1-.6-3.5-1.7-5.7-2-2.4-.4-3.4 3.2-1 3.6" class="st0"/>
  <path d="M291.9 468.4c-.6 0-.8.6-.9.8-.1.5.2.5.4.6 1.3.2 2.4.7 3.5 1.2.8.3 1.5.7 2.3.9 1.3.3 2.6.5 4 .6.5 0 1.1.1 1.6.1 3.9.4 7.8.9 11.5 1.4l4.4.6c.3 0 .4-.1.4-.1.1-.2.2-.5 0-.9-.1-.3-.4-.5-.7-.5-1.6-.2-3.2-.4-4.7-.6l-9.3-1.2c-.6-.1-1.3-.1-2-.2-1.6-.1-3.3-.2-4.8-.7-.9-.3-1.7-.6-2.5-1-1-.4-1.9-.9-3.1-1h-.1m27 8.4h-.4l-4.4-.6c-3.8-.5-7.6-1-11.5-1.4-.5 0-1-.1-1.6-.1-1.5-.1-3-.2-4.5-.6-1-.3-1.8-.6-2.6-1-1-.4-1.9-.9-2.9-1-1.6-.3-2.5-1.6-2.2-3.1.3-1.5 1.7-3 3.6-2.6 1.4.2 2.5.7 3.6 1.2.7.3 1.4.6 2.2.9 1.3.4 2.8.5 4.3.6.7 0 1.4.1 2.1.2 3.1.3 6.3.8 9.4 1.2 1.6.2 3.2.4 4.7.6 1.1.1 2 .8 2.5 1.9.4 1.1.3 2.3-.3 3.1-.4.3-1.1.7-2 .7M311 522.7c6.9 9 11.4 19.4 17.1 29.2 2.2 3.8 4.6 7.6 7.7 10.7 3.2 3.2 5.3 7.5 9.1 10 2.1 1.3 4.3 2.1 6.1 3.9 1.8 1.7 3.4 3.8 5.3 5.6 4.2 4.1 8.7 7.9 13.3 11.6 3.9 3.1 7.8 5.7 12.2 8.1 5.5 2.9 10.3 6.9 15.8 9.9 9.8 5.5 19.8 10.2 30.6 13.4 2.5.8 5.1 1 7.7 1.6 3.2.7 5.5 2.2 8.5 3.4 4.8 2.1 10.2 2.9 15.3 3.6 12.1 1.7 24 2.3 36.1 3.4 5.8.5 11.4 1.8 17.3 1.7 6.5-.1 13.2 1.2 19.8.5 10.2-1.1 20.2-4 30.5-4.3 12-.4 24 .5 36.1.2 5.9-.2 11.8-.1 17.6-.5 5.3-.3 10.1-2.5 15.2-3.8 5.1-1.3 10-2.9 15.1-4.1 3.5-.9 7-2.3 10.7-2.5 2.7-.2 5.4.3 8.1.1 5.3-.4 10.5-.9 15.7-2.1 4.8-1 8.4-1.1 12.5-4 8.2-6 11.6-13.6 15.6-22.5 2.4-5.2 5.9-8.3 9.7-12.4 3.6-3.8 6.2-8.8 8.7-13.4 5.1-9.3 5.5-20.8 13.3-28.6 4-4.1 9.5-7 13.9-10.7 5.1-4.4 10.2-8.1 16.3-11 4.3-2.1 9.6-3.1 13.5-5.9 4.2-3 8.3-7.1 10.6-11.7 2.1-4.2 3.2-9.1 2.7-13.7-.7-7-5.7-12.3-6.3-19.4-.7-8.7-1.6-16.2-11.6-17.8-2.3-.4-3.4 3.2-1 3.6 12 1.8 7.1 15.8 11.3 24.1 3.4 6.8 5.2 12.2 2.3 19.6-2 5.1-6.6 10.5-11.5 13.2-7.7 4.2-16 6-23.2 11.6-4.3 3.3-8.3 7.1-12.7 10.3-3.2 2.3-6.5 4.3-8.9 7.5-5.6 7.3-7 15.8-10.4 24.1-1.9 4.6-4.9 9.6-7.9 13.6-3 4.1-7.3 6.7-9.9 11.1-5 8.3-6.7 17.1-14.4 23.7-7.9 6.7-22.3 7.3-32.3 7.3-10 0-19.2 3.6-28.8 6.1-4.8 1.2-9.5 3.3-14.4 4-6 .8-12.2.5-18.3.7-10.8.3-21.5.6-32.3 0-4.3-.2-8.2 0-12.4.7-4.9.8-9.9.6-14.8 1.7-10.9 2.3-22.6 2-33.8 1-11.4-1-22.8-1.8-34.2-3.2-5.6-.7-11.3-1.3-16.8-2.2-5.7-1-10.2-3.2-15.5-5.3-4.3-1.7-9.3-1.8-13.7-3.3-5.5-1.8-11-3.8-16.2-6.3-10.8-5.3-20.9-11.9-31.2-18-5.4-3.3-10.4-7.6-15.1-11.7-4.3-3.8-7.9-8.4-12.2-12-1.5-1.2-3.2-1.8-4.8-2.9-2.6-1.7-4-4.1-5.9-6.4-3.4-4.2-7-7.7-9.8-12.5-5.9-10-10.5-20.8-17.6-30.1-1.7-2.3-4.9-.4-3.4 1.5" class="st0"/>
  <path d="M513.5 637.5c2.5 0 5.1.2 7.6.4 3.8.3 7.7.6 11.5.2 4.1-.4 8.3-1.2 12.4-1.9 5.9-1.1 12-2.2 18.2-2.3 6-.2 12.2 0 18.1.1 5.9.1 11.9.3 17.9.1 1.9-.1 3.8-.1 5.7-.1 3.9-.1 7.9-.1 11.9-.4 3.5-.2 6.7-1.3 10.1-2.3l4.8-1.5c2.2-.6 4.3-1.2 6.5-1.8 2.9-.8 5.8-1.6 8.7-2.3 1.1-.3 2.1-.6 3.2-.9 2.5-.7 5-1.5 7.7-1.7 1.4-.1 2.7 0 4 0 1.4.1 2.7.1 4.1 0 4.6-.3 10-.8 15.6-2 1-.2 2-.4 2.9-.6 3.4-.6 6.1-1.1 9.1-3.3 7.8-5.7 11.2-13.1 15.1-21.7l.2-.3c2-4.5 4.9-7.5 8-10.7.6-.7 1.3-1.3 1.9-2 3.3-3.5 5.8-8.1 8.2-12.5l.4-.7c1.9-3.5 3.2-7.4 4.4-11.2 2-6.2 4.1-12.7 9.1-17.7 2.4-2.4 5.3-4.4 8-6.4 2-1.4 4.1-2.8 5.9-4.4 6-5.1 11.1-8.6 16.6-11.2 1.7-.8 3.5-1.4 5.3-2.1 2.8-1 5.7-2.1 8.1-3.7 4.6-3.3 8.2-7.3 10.2-11.3 2.1-4.2 3-8.9 2.6-13.1-.3-3.3-1.6-6.1-3-9.2-1.5-3.2-3-6.5-3.3-10.3-.8-9.5-1.9-15.4-10.6-16.7-.3 0-.6.1-.8.3-.2.3-.3.7-.2.9 0 0 .1.2.4.2 8.7 1.3 9.4 8.7 10.1 15.1.3 3.4.7 6.9 2.1 9.6 3.1 6.1 5.6 12.3 2.4 20.5-2.1 5.5-6.9 11-12 13.8-3 1.6-6.1 2.9-9.2 4.2-4.9 2-9.6 4-13.9 7.3l-5.1 4.2c-2.4 2.1-5 4.2-7.6 6.1l-1.3.9c-2.8 1.9-5.4 3.8-7.4 6.4-3.8 4.9-5.6 10.4-7.5 16.1-.8 2.5-1.7 5.1-2.8 7.7-1.7 4.2-4.6 9.2-8 13.8-1.4 1.9-3 3.5-4.6 5-2 1.9-3.9 3.7-5.2 6.1-1.6 2.7-2.9 5.5-4.2 8.2-2.6 5.8-5.1 11.2-10.5 15.8-7.9 6.7-21.8 7.6-33 7.6h-.1c-7.4 0-14.3 2-21.6 4.2-2.3.7-4.6 1.4-6.9 2-1.7.4-3.4 1-5.1 1.5-3 1-6.2 2-9.4 2.4-4.3.6-8.8.6-13.1.6-1.8 0-3.6 0-5.3.1-11.5.3-21.9.6-32.4 0-4.2-.2-8 0-12.1.7-2.3.4-4.6.6-6.8.7-2.6.2-5.3.4-7.9.9-12 2.6-24.5 1.9-34.1 1-3.7-.3-7.4-.6-11-.9-7.6-.6-15.5-1.3-23.2-2.3l-4.8-.6c-4-.5-8.1-1-12.1-1.7-4.6-.8-8.5-2.4-12.6-4.1-1-.4-2.1-.9-3.1-1.3-2.3-.9-4.7-1.3-7.2-1.8-2.1-.4-4.3-.8-6.4-1.4-4.6-1.5-10.6-3.6-16.3-6.4-8.2-4.1-16.2-8.9-23.9-13.6-2.5-1.5-4.9-3-7.4-4.5-5.6-3.4-10.8-7.9-15.3-11.9-2-1.8-3.9-3.7-5.7-5.6-2.1-2.2-4.2-4.5-6.5-6.3-.8-.7-1.7-1.2-2.7-1.7-.7-.4-1.3-.7-2-1.1-2.2-1.4-3.5-3.2-4.9-5-.4-.6-.8-1.1-1.3-1.7l-3-3.6c-2.5-2.9-4.8-5.6-6.9-9-2-3.5-3.9-7-5.8-10.5-3.5-6.6-7.1-13.4-11.8-19.5-.2-.3-.5-.4-.8-.3-.4 0-.7.3-.7.5 0 0-.1.2.1.4 4.7 6.2 8.4 13.1 11.9 19.8 1.7 3.2 3.4 6.4 5.2 9.6 2 3.4 4.3 7.3 7.5 10.5 1.2 1.2 2.3 2.6 3.3 4 1.7 2.3 3.4 4.4 5.6 5.8l2.1 1.2c1.4.8 2.9 1.6 4.2 2.8 1 1 1.9 2 2.9 3 .8.9 1.6 1.8 2.4 2.6 3.7 3.6 7.9 7.3 13.2 11.5 4 3.2 7.9 5.8 12 7.9 3 1.6 5.8 3.5 8.5 5.3 2.3 1.6 4.8 3.2 7.3 4.6 11 6.2 20.7 10.4 30.4 13.3 1.5.4 3 .7 4.6 1 1 .2 2 .3 3.1.6 2.4.5 4.3 1.4 6.3 2.4.8.4 1.6.7 2.4 1.1 4.8 2.1 10.2 2.8 15 3.5 8.4 1.2 16.9 1.8 25.1 2.5 3.7.3 7.3.6 11 .9 2.1.2 4.2.5 6.2.8 3.6.5 7.2 1 10.9.9-.2-.1 0-.1.2-.1m15 3c-2.5 0-5.1-.2-7.6-.4-2.6-.2-5.3-.4-8-.4-3.8.1-7.6-.5-11.2-1-2-.3-4.1-.6-6.1-.7-3.7-.3-7.3-.6-11-.9-8.2-.7-16.8-1.3-25.2-2.5-4.7-.6-10.6-1.5-15.6-3.7-.9-.4-1.7-.8-2.5-1.1-1.9-.9-3.7-1.8-5.8-2.2-1-.2-2-.4-2.9-.5-1.6-.3-3.2-.5-4.8-1-9.9-3-19.7-7.3-30.8-13.5-2.6-1.4-5-3.1-7.4-4.7-2.7-1.8-5.4-3.7-8.3-5.2-4.2-2.2-8.2-4.9-12.3-8.2-5.4-4.3-9.6-8-13.3-11.6-.9-.9-1.7-1.8-2.5-2.7-.9-1-1.8-2-2.7-2.9-1.1-1-2.4-1.7-3.7-2.5-.7-.4-1.5-.8-2.2-1.3-2.6-1.7-4.4-4-6.2-6.3-1-1.4-2-2.6-3.2-3.8-3.3-3.4-5.8-7.4-7.8-10.9-1.8-3.2-3.6-6.5-5.3-9.6-3.5-6.6-7.1-13.4-11.7-19.5-.6-.8-.8-1.8-.4-2.6.4-1 1.4-1.7 2.5-1.8 1.2-.1 2.2.3 2.9 1.2 4.7 6.2 8.4 13.1 12 19.8 1.8 3.4 3.7 7 5.7 10.4 1.9 3.3 4.2 5.9 6.6 8.7 1 1.2 2.1 2.4 3.1 3.6.5.6.9 1.2 1.3 1.7 1.3 1.7 2.5 3.3 4.3 4.4.6.4 1.2.7 1.8 1 1 .5 2.1 1.1 3.1 1.9 2.4 2 4.6 4.3 6.7 6.5 1.8 1.9 3.6 3.8 5.5 5.5 4.5 3.9 9.5 8.3 15 11.6 2.5 1.5 4.9 3 7.4 4.5 7.6 4.7 15.5 9.5 23.7 13.5 5.6 2.8 11.5 4.8 16 6.3 2 .6 4.1 1 6.1 1.4 2.6.5 5.2.9 7.7 1.9 1.1.4 2.1.9 3.2 1.3 4 1.6 7.7 3.2 12.1 4 4 .7 8 1.2 12 1.6l4.8.6c7.6 1 15.5 1.6 23.1 2.2l11.1.9c9.4.9 21.8 1.6 33.4-.9 2.8-.6 5.5-.8 8.2-1 2.2-.2 4.4-.3 6.6-.7 4.3-.7 8.3-1 12.6-.7 10.4.5 20.7.3 32.2 0 1.8 0 3.6-.1 5.3-.1 4.3 0 8.7-.1 12.8-.6 3-.4 6.1-1.4 9-2.4 1.7-.5 3.5-1.1 5.2-1.6 2.3-.6 4.6-1.3 6.9-1.9 7.1-2.1 14.5-4.2 22.2-4.2h.1c10.9 0 24.3-.8 31.6-7 5-4.3 7.4-9.5 9.9-15 1.3-2.8 2.6-5.6 4.3-8.4 1.5-2.6 3.6-4.6 5.6-6.5 1.6-1.5 3.1-3 4.4-4.7 3.3-4.4 6.1-9.3 7.7-13.3 1-2.5 1.9-5.1 2.7-7.6 1.9-5.7 3.8-11.6 7.9-16.8 2.2-2.9 5.1-4.9 7.9-6.8l1.3-.9c2.6-1.9 5.1-3.9 7.5-6 1.7-1.4 3.4-2.9 5.2-4.3 4.5-3.5 9.6-5.6 14.4-7.6 3-1.2 6-2.5 8.9-4.1 4.7-2.5 9.1-7.6 11-12.6 2.6-6.8 1.2-11.8-2.3-18.7-1.5-3.1-1.9-6.8-2.3-10.4-.7-6.5-1.2-12.1-8.2-13.2-1-.2-1.8-.7-2.1-1.6-.4-1-.2-2.2.5-3.1.7-.9 1.8-1.3 2.9-1.1 11.1 1.7 11.9 10.8 12.5 18.8.3 3.4 1.6 6.4 3.1 9.6 1.4 3.1 2.9 6.2 3.2 9.9.5 4.6-.5 9.7-2.8 14.4-2.1 4.3-6 8.7-10.9 12.1-2.6 1.8-5.6 2.9-8.6 4-1.8.6-3.5 1.2-5.1 2-5.3 2.5-10.2 5.9-16.1 10.8-1.9 1.6-4 3.1-6.1 4.5-2.7 1.9-5.5 3.8-7.7 6.1-4.6 4.7-6.5 10.6-8.6 16.8-1.3 3.9-2.5 7.9-4.6 11.6l-.4.7c-2.5 4.5-5 9.2-8.5 13-.7.7-1.3 1.4-2 2.1-3 3.2-5.7 5.9-7.6 10.1l-.2.3c-4 8.9-7.5 16.6-15.8 22.6-3.4 2.5-6.5 3-10 3.7-.9.2-1.9.3-2.9.5-5.7 1.2-11.3 1.7-15.9 2.1-1.5.1-2.9 0-4.3 0-1.3-.1-2.5-.1-3.8 0-2.4.1-4.8.9-7.2 1.6-1.1.3-2.2.7-3.3.9-2.9.7-5.7 1.5-8.6 2.3-2.2.6-4.3 1.2-6.5 1.8-1.6.4-3.2.9-4.7 1.4-3.4 1.1-6.9 2.2-10.6 2.4-4 .3-8 .3-12 .4-1.9 0-3.8.1-5.7.1-6 .2-12.1 0-18-.1s-12-.3-18-.1c-6 .2-12 1.3-17.8 2.3-4.1.7-8.4 1.5-12.6 1.9-1.5.1-3 .2-4.4.2M575 402.1c-2.9-.2-3.9-3.4-4.3-5.8-.8-4.6 1.5-9.7 6.1-11.4 3.6-1.4 8.9-1.3 12.7-1.2 4.2 0 10 .3 12.3 4.3 2.1 3.5 2.7 10.3-1.3 12.7-2 1.2-.2 4.5 1.9 3.2 5.4-3.3 5.6-10.9 3.4-16.3-3-7.3-11.5-8-18.6-7.6-8.4.4-17.4 1.2-19.9 10.8-1.6 5.9.8 14.5 7.7 15 2.4.2 2.4-3.5 0-3.7" class="st0"/>
  <path d="M590.2 381c-1 0-1.9 0-2.9.1-9.3.5-16.7 1.5-18.9 9.9-.9 3.5-.3 7.9 1.7 10.6 1.3 1.8 3 2.8 5.1 3 .2 0 .5 0 .6-.5 0 0 .1-.9-.8-1-2.8-.2-4.6-2.5-5.3-6.7-.9-5.4 2-10.8 6.8-12.6 3.6-1.4 8.6-1.3 12.5-1.3h.6c3.7 0 10.5 0 13.3 4.9 2.4 4.1 2.9 11.5-1.7 14.2-.6.3-.3.9-.2 1 .1.2.4.6.9.3 4.7-2.9 5-9.8 2.9-14.9-2.5-5.8-8.7-7-14.6-7m-15 25.9h-.3c-2.7-.2-5.1-1.6-6.7-4-2.3-3.3-3.1-8.3-2-12.5 2.8-10.7 13.3-11.2 20.9-11.6 6.8-.4 16.3.1 19.7 8.3 2.5 6.1 2 14.1-3.8 17.6-1.6 1-3.2.2-4-1-.8-1.3-.7-3.1 1-4.1 3.3-2 2.8-8.1.9-11.2-1.9-3.3-6.6-3.7-11.4-3.8h-.6c-3.6 0-8.5 0-11.7 1.2-3.8 1.4-6.1 5.8-5.4 10.1.8 4.7 2.7 4.8 3.3 4.9 1.9.2 2.9 1.9 2.8 3.4-.1 1.7-1.2 2.7-2.7 2.7" class="st0"/>
  <path d="M586.1 407.2c1.2.2 2.5.3 3.7.5 1 .1 1.9-.9 1.9-1.9 0-1.1-.9-1.7-1.9-1.9-1.2-.2-2.5-.3-3.7-.5-1-.1-1.9.9-1.9 1.9 0 1.2.9 1.8 1.9 1.9" class="st0"/>
  <path d="M586.2 406.1l3.7.5c.1 0 .2-.1.3-.1.2-.2.3-.5.3-.6 0-.5-.5-.7-.9-.8l-3.7-.5c-.1 0-.2.1-.3.1-.2.2-.3.5-.3.6.1.6.5.7.9.8m3.8 2.7h-.3l-3.7-.5c-1.7-.2-2.8-1.4-2.8-3 0-.8.4-1.7 1.1-2.3.6-.5 1.3-.8 2-.7l3.7.5c1.7.2 2.8 1.4 2.8 3 0 .8-.4 1.7-1.1 2.3-.5.5-1.1.7-1.7.7M631.6 389.2c-.2-.1 0 0 .1.1.1 0 .2.1.3.2.2.1-.2-.2 0 0 0 0 .3.3.2.1-.1-.2 0 .1.1.1.1.2.1.3 0 0 0 .1.1.2.1.3.1.4 0-.3 0 .1.1 1 .8 1.9 1.9 1.9 1 0 1.9-.8 1.9-1.9-.1-2.3-1.4-3.8-3.5-4.6-.9-.3-2.1.4-2.3 1.3-.3 1.2.3 2.1 1.2 2.4" class="st0"/>
  <path d="M633.7 390.6c.1.2.3.4.6.4.2 0 .5-.1.6-.3.2-.2.1-.3.1-.4-.1-1.7-1-2.9-2.8-3.6-.1 0-.3 0-.4.1-.2.1-.4.3-.4.4-.1.4 0 .7.3.9l.1-.2.3.3.2-.1.7.8h.2v.2l.1.1-.1.2.3.4-.2.2.4.6zm.5 2.6c-1.5 0-2.8-1.3-2.9-2.9v-.1h-.1c-1.5-.6-2.2-2-1.9-3.5.2-.8.7-1.5 1.5-1.9.7-.4 1.6-.5 2.3-.2 2.6 1 4.1 3 4.2 5.5 0 .7-.2 1.4-.7 2-.5.6-1.4 1-2.2 1-.1.1-.2.1-.2.1M647.7 437.2c-.1.4-.1.8-.2 1.2-.1 1 .9 1.9 1.9 1.9 1.1 0 1.7-.8 1.9-1.9 0-.4.1-.8.2-1.2.1-1-.9-1.9-1.9-1.9-1.2.1-1.8.8-1.9 1.9" class="st0"/>
  <path d="M648.8 437.3l-.2 1.2c0 .1 0 .2.2.3.2.2.3.3.5.3s.7 0 .8-.9l.2-1.2c0-.1 0-.2-.2-.3-.2-.2-.4-.3-.5-.3-.2 0-.7.1-.8.9m.5 4.1c-.8 0-1.6-.4-2.2-1-.6-.6-.8-1.4-.7-2.1l.2-1.2c.2-1.7 1.3-2.8 2.9-2.8.8 0 1.7.3 2.3 1 .6.6.8 1.4.7 2.1l-.2 1.2c-.2 1.7-1.3 2.8-2.9 2.8h-.1M635.7 473.4c-.5.8-1 1.5-1.5 2.3-.6.8-.2 2.1.7 2.5.9.5 2 .2 2.5-.7.5-.8 1-1.5 1.5-2.3.6-.8.2-2.1-.7-2.5-.9-.5-1.9-.1-2.5.7" class="st0"/>
  <path d="M637.3 473.6c-.3 0-.5.2-.7.4l-1.5 2.3c-.1.1-.1.3 0 .4.1.2.2.4.4.5.4.2.8 0 1.1-.3l1.5-2.3c.1-.1.1-.3 0-.4 0-.2-.2-.4-.4-.5-.1-.1-.3-.1-.4-.1m-1.6 6c-.5 0-1-.1-1.5-.4-.7-.4-1.2-1.1-1.4-2-.2-.8 0-1.6.4-2.2l1.5-2.3c.9-1.4 2.7-1.8 4-1 .7.4 1.2 1.1 1.4 1.9.2.8 0 1.6-.4 2.2l-1.5 2.3c-.5 1-1.5 1.5-2.5 1.5M596.4 489.8c-.4 0-.8-.1-1.2-.2-1-.1-1.9.9-1.9 1.9 0 1.1.8 1.7 1.9 1.9.4 0 .8.1 1.2.2 1 .1 1.9-.9 1.9-1.9-.1-1.2-.9-1.8-1.9-1.9" class="st0"/>
  <path d="M595 490.7c-.1 0-.2 0-.3.2-.2.2-.3.4-.3.5 0 .2 0 .7.9.8l1.2.2c.1 0 .2 0 .3-.2.2-.2.3-.4.3-.5 0-.2 0-.7-.9-.8l-1.2-.2m1.5 3.9h-.3l-1.2-.2c-1.7-.2-2.8-1.3-2.8-2.9 0-.8.3-1.7 1-2.3.6-.6 1.4-.8 2.1-.7l1.2.2c1.7.2 2.8 1.3 2.8 2.9 0 .8-.3 1.7-1 2.3-.5.5-1.1.7-1.8.7M566.1 491.6c-.5.4-.9.7-1.4 1.1-.8.6-.6 2 0 2.6.8.8 1.8.6 2.6 0 .5-.4.9-.7 1.4-1.1.8-.6.6-2 0-2.6-.7-.7-1.8-.6-2.6 0" class="st0"/>
  <path d="M566.8 492.5l-1.4 1.1c-.1.1-.1.2-.1.3 0 .3.1.6.2.7.4.4.9.1 1.2-.1l1.4-1.1c.1-.1.1-.2.1-.3 0-.3-.1-.6-.2-.7-.4-.3-.9-.1-1.2.1m-.8 4.5c-.7 0-1.5-.3-2-.9-.6-.6-.9-1.5-.9-2.4 0-.8.4-1.5 1-1.9l1.4-1.1c1.4-1 3-1 4.1.1.6.6.9 1.5.9 2.4 0 .8-.4 1.5-1 1.9l-1.4 1.1c-.7.5-1.4.8-2.1.8M549.4 495.1c-1.5-.2-2.9.4-3.9 1.5-.7.7-.7 1.9 0 2.6.7.7 1.9.7 2.6 0 0 0 .5-.3.2-.2.1-.1.2-.1.3-.2-.2.1-.2.1 0 0 .1 0 .2-.1.3-.1h-.1.6c1 .1 1.9-.9 1.9-1.9 0-1-.8-1.6-1.9-1.7" class="st0"/>
  <path d="M549 496.1c-.9 0-1.9.4-2.7 1.2-.2.2-.2.4-.2.5 0 .2.1.4.2.5.2.2.6.3.9.1l-.1-.3.4-.2v-.3l.8-.1.4-.2.2.2h.8c.1 0 .2 0 .4-.2s.3-.4.3-.5c0-.2 0-.7-.9-.8-.3.1-.4.1-.5.1m-2.2 4.7c-.8 0-1.5-.3-2.1-.9-.6-.6-.9-1.3-.9-2.1s.3-1.5.9-2.1c1.4-1.3 3.1-2 4.8-1.8 1.7.2 2.8 1.3 2.9 2.9 0 .8-.3 1.7-1 2.3-.6.6-1.4.8-2.1.8h-.3s-.1 0-.1.1c-.6.5-1.3.8-2.1.8M536.6 497.9c-.5.4-.9.7-1.4 1.1-.8.6-.6 2 0 2.6.8.8 1.8.6 2.6 0 .5-.4.9-.7 1.4-1.1.8-.6.6-2 0-2.6-.8-.8-1.8-.6-2.6 0" class="st0"/>
  <path d="M537.3 498.8l-1.4 1.1c-.1.1-.1.2-.1.3 0 .3.1.6.2.7.4.4.9.1 1.2-.1l1.4-1.1c.1-.1.1-.2.1-.3 0-.3-.1-.5-.2-.7-.5-.4-1-.1-1.2.1m-.9 4.4c-.7 0-1.5-.3-2-.9-.6-.6-.9-1.5-.9-2.4 0-.8.4-1.5 1-1.9l1.4-1.1c1.4-1 3-1 4.1.1.6.6.9 1.5.9 2.4 0 .8-.4 1.5-1 1.9l-1.4 1.1c-.6.6-1.4.8-2.1.8M526.8 502.3c-.9.3-1.7.6-2.6.9-.9.3-1.6 1.3-1.3 2.3.3.9 1.3 1.6 2.3 1.3.9-.3 1.7-.6 2.6-.9.9-.3 1.6-1.3 1.3-2.3-.3-.9-1.4-1.6-2.3-1.3" class="st0"/>
  <path d="M527.3 503.3h-.1l-2.6.9c-.4.1-.7.5-.6.9.1.2.2.4.4.5.1 0 .3.1.4.1l2.6-.9c.4-.1.7-.5.6-.9 0-.2-.2-.4-.4-.5-.1 0-.2-.1-.3-.1m-2.6 4.7c-.5 0-.9-.1-1.3-.3-.7-.4-1.3-1.1-1.5-1.9-.4-1.5.4-3.1 2-3.6l2.6-.9c.7-.2 1.5-.2 2.2.2.7.4 1.3 1.1 1.5 1.9.4 1.5-.4 3.1-2 3.6l-2.6.9c-.4 0-.6.1-.9.1M518.5 502.4c-3.5-.4-5.7-2.6-8.4-4.7-1.9-1.4-3.8 1.8-1.9 3.2 1.5 1.2 2.9 2.5 4.6 3.5 1.8 1 3.7 1.4 5.7 1.7 2.4.2 2.4-3.5 0-3.7" class="st0"/>
  <path d="M509.1 498.4c-.1 0-.2.1-.3.2-.2.3-.4.9.1 1.3s1.1.9 1.6 1.3c1 .8 1.9 1.6 2.9 2.2 1.7 1 3.6 1.3 5.2 1.5.2 0 .5.1.5-.4 0-.3-.1-1-.8-1.1-3.2-.4-5.5-2.1-7.6-3.8-.4-.4-.9-.7-1.4-1.1 0 0-.1-.1-.2-.1m9.6 8.8h-.3c-1.8-.2-4-.6-6.1-1.8-1.2-.7-2.2-1.5-3.2-2.4l-1.5-1.2c-1.6-1.2-1.5-3.2-.6-4.5 1-1.3 2.5-1.5 3.8-.5.5.4.9.7 1.4 1.1 2.1 1.7 3.9 3.1 6.5 3.4 1.9.2 2.9 2 2.8 3.5-.3 1.4-1.4 2.4-2.8 2.4M464.6 437.6c.7.9 1.4 1.9 2.1 2.8.6.8 2 .6 2.6 0 .8-.8.6-1.8 0-2.6-.7-.9-1.4-1.8-2.1-2.8-.6-.8-2-.6-2.6 0-.8.7-.6 1.8 0 2.6" class="st0"/>
  <path d="M465.5 436.9l2.1 2.8c.1.1.2.1.3.1.2 0 .6-.1.7-.2.4-.4.1-.9-.1-1.2l-2.2-2.8c-.1-.1-.2-.1-.3-.1-.3 0-.6.1-.7.2-.3.4 0 .9.2 1.2m2.5 5.1h-.2c-.8 0-1.5-.4-1.9-1l-2.1-2.8c-1-1.4-1-3 .1-4.1.6-.6 1.5-.9 2.4-.9.8 0 1.5.4 1.9 1l2.1 2.8c1 1.4 1 3-.1 4.1-.6.6-1.4.9-2.2.9M465.6 454.5c.5 1.6 1.2 3.1 2.2 4.4.6.8 1.6 1.2 2.5.7.8-.5 1.3-1.7.7-2.5-.8-1.1-1.4-2.3-1.8-3.6-.6-2.3-4.2-1.3-3.6 1" class="st0"/>
  <path d="M466.7 454.2c.4 1.5 1.1 2.9 2 4.1.1.2.6.7 1.1.4.1-.1.3-.3.4-.6v-.3c-.9-1.2-1.6-2.5-2-3.9-.2-.6-.8-.5-.9-.5-.4 0-.8.2-.6.8m2.8 6.7c-.9 0-1.9-.5-2.5-1.4-1-1.4-1.8-3-2.4-4.8-.5-1.8.6-3.2 2-3.6 1.4-.4 3.2.2 3.7 2 .3 1.1.9 2.2 1.6 3.2.4.6.6 1.3.4 2.1-.2.9-.7 1.7-1.4 2.1-.4.3-.9.4-1.4.4M466.5 471.6l1.1 1.4c.6.8 2 .6 2.6 0 .8-.8.6-1.8 0-2.6-.4-.5-.7-.9-1.1-1.4-.6-.8-2-.6-2.6 0-.8.7-.6 1.8 0 2.6" class="st0"/>
  <path d="M467.9 469.5c-.3 0-.5.1-.6.2-.4.4-.2.8.1 1.2l1.1 1.4c.1.1.2.1.3.1.3 0 .6-.1.7-.2.4-.4.1-.9-.1-1.2l-1.1-1.4c-.1-.1-.3-.1-.4-.1.1 0 0 0 0 0m.9 5.1h-.2c-.8 0-1.5-.4-1.9-1l-1.1-1.4c-1-1.4-1-3 .1-4.1.6-.6 1.5-.9 2.4-.9.8 0 1.5.4 1.9 1l1.1 1.4c1 1.4 1 3-.1 4.1-.5.6-1.3.9-2.2.9M465.5 484c-.1.8-.2 1.6-.3 2.5-.1 1 .9 1.9 1.9 1.9 1.1-.1 1.7-.8 1.9-1.9.1-.8.2-1.6.3-2.5.1-1-.9-1.9-1.9-1.9-1.2 0-1.8.8-1.9 1.9" class="st0"/>
  <path d="M467.4 483.2c-.2 0-.7 0-.8.9l-.3 2.5c0 .1 0 .2.2.3.2.2.4.3.5.3.2 0 .7 0 .8-.9l.3-2.5c0-.1 0-.2-.2-.3-.1-.2-.4-.3-.5-.3m-.4 6.2c-.8 0-1.6-.4-2.2-1-.6-.6-.8-1.4-.7-2.1l.3-2.5c.2-1.7 1.3-2.8 2.9-2.8.8 0 1.7.3 2.3 1 .6.6.8 1.4.7 2.1l-.3 2.5c-.2 1.7-1.3 2.8-2.9 2.8h-.1M461.3 517.2c-.1.8-.2 1.6-.3 2.5-.1 1 .9 1.9 1.9 1.9 1.1 0 1.7-.8 1.9-1.9.1-.8.2-1.6.3-2.5.1-1-.9-1.9-1.9-1.9-1.2 0-1.8.8-1.9 1.9" class="st0"/>
  <path d="M462.4 517.3l-.3 2.5c0 .1 0 .2.2.3.2.2.4.3.5.3.2 0 .7 0 .8-.9l.3-2.5c0-.1 0-.2-.2-.3-.2-.2-.4-.3-.5-.3-.2 0-.7.1-.8.9m.3 5.3c-.8 0-1.6-.4-2.2-1-.6-.6-.8-1.4-.7-2.1l.3-2.5c.2-1.7 1.3-2.8 2.9-2.8.8 0 1.7.3 2.3 1 .6.6.8 1.4.7 2.1l-.3 2.5c-.2 1.7-1.3 2.8-2.9 2.8h-.1M463.9 536.7c.3.9.6 1.7.9 2.6.3.9 1.3 1.6 2.3 1.3.9-.3 1.6-1.3 1.3-2.3-.3-.9-.6-1.7-.9-2.6-.3-.9-1.3-1.6-2.3-1.3-.9.3-1.6 1.4-1.3 2.3" class="st0"/>
  <path d="M465.7 535.5h-.2c-.2 0-.4.2-.5.4 0 .1-.1.3-.1.4l.9 2.6c.1.4.5.7.9.6.2 0 .4-.2.5-.4 0-.1.1-.3.1-.4l-.9-2.6c-.1-.3-.4-.6-.7-.6m.9 6.3c-1.3 0-2.4-.8-2.9-2.1l-.9-2.6c-.3-.7-.2-1.5.2-2.2.4-.8 1.1-1.3 1.9-1.5 1.5-.4 3.1.4 3.6 2l.9 2.6c.2.7.2 1.5-.2 2.2-.4.7-1.1 1.3-1.9 1.5-.2.1-.4.1-.7.1M466 549c0 .4-.1.8-.2 1.2-.1 1 .9 1.9 1.9 1.9 1.1 0 1.7-.8 1.9-1.9 0-.4.1-.8.2-1.2.1-1-.9-1.9-1.9-1.9-1.2.1-1.8.9-1.9 1.9" class="st0"/>
  <path d="M467.9 548.3c-.2 0-.7 0-.8.9l-.2 1.2c0 .1 0 .2.2.3.2.2.3.2.5.3.2 0 .7 0 .8-.9l.2-1.2c0-.1 0-.2-.2-.3-.2-.2-.4-.3-.5-.3m-.3 4.9c-.8 0-1.6-.4-2.2-1-.6-.6-.8-1.4-.7-2.1l.2-1.2c.2-1.7 1.3-2.8 2.9-2.8.8-.1 1.7.3 2.3 1 .6.6.8 1.4.7 2.1l-.2 1.2c-.2 1.7-1.3 2.8-2.9 2.8h-.1M466.6 582.8c0 .4-.1.8-.2 1.2-.1 1 .9 1.9 1.9 1.9 1.1 0 1.7-.8 1.9-1.9 0-.4.1-.8.2-1.2.1-1-.9-1.9-1.9-1.9-1.1.1-1.7.9-1.9 1.9" class="st0"/>
  <path d="M467.8 583l-.2 1.2c0 .1 0 .2.2.3.2.2.4.3.5.3.2 0 .7 0 .8-.9l.2-1.2c0-.1 0-.2-.2-.3-.2-.2-.4-.3-.5-.3-.3 0-.7 0-.8.9m.5 4c-.8 0-1.6-.4-2.2-1-.6-.6-.8-1.4-.7-2.1l.2-1.2c.2-1.7 1.3-2.8 2.9-2.8.8 0 1.7.3 2.3 1 .6.6.8 1.4.7 2.1l-.2 1.2c-.2 1.7-1.3 2.8-2.9 2.8h-.1M484.4 348c5.7 1.2 6.4-4.4 10.7-6.9 6-3.6 7.9-7 10.6-13.6 1.3-3.1 2.2-5.8 3-8.9 1.1-4.2.5-.7 1.9 1.8 3.5 6 11.5 6.7 16.2 11.5 1.7 1.7 4.3-.9 2.6-2.6-3.7-3.9-8.3-5-12.7-7.9-3.8-2.5-3.2-7.1-6.8-9.5-.5-.3-1.3-.3-1.9 0-2 1.2-2.4 3.6-3 5.7-1 4-2.4 7.7-4.1 11.5-.9 2-1.8 4.4-3.3 6-1.7 1.8-3.9 2.3-5.9 3.6-1.8 1.1-4.7 6.2-6.4 5.8-2.2-.6-3.2 3-.9 3.5" class="st0"/>
  <path d="M484.6 346.9c2.9.6 4.1-.8 5.9-3 1-1.3 2.2-2.8 4-3.8 5.8-3.4 7.5-6.6 10.2-13.1 1.4-3.4 2.2-6 3-8.8.5-1.9.7-2.8 1.7-2.8s1.2.9 1.4 1.7c.2.7.4 1.7.9 2.5 1.8 3.1 5 4.7 8.3 6.3 2.7 1.3 5.5 2.7 7.7 5 .4.4.7.2.9 0 .1-.1.5-.6.1-1.1-2.2-2.3-4.8-3.6-7.5-4.9-1.6-.8-3.3-1.7-5-2.8-2.2-1.4-3.1-3.5-3.9-5.3-.8-1.7-1.4-3.2-2.9-4.2-.2-.1-.5-.1-.7 0-1.5.9-1.9 2.7-2.4 4.6l-.1.4c-.9 3.7-2.3 7.4-4.1 11.6l-.4.9c-.8 1.8-1.7 3.9-3.1 5.4-1.2 1.3-2.7 2-4 2.6-.7.4-1.4.7-2.1 1.1-.5.3-1.4 1.4-2.2 2.3-1.7 2.1-3.3 4-5.1 3.7-.7-.1-.9.6-.9.7-.2.9.2 1 .3 1m1.3 2.4c-.5 0-1.1-.1-1.7-.2-1.6-.3-2.5-1.8-2.1-3.4.3-1.5 1.7-2.8 3.6-2.4.5-.1 2.1-1.9 2.9-2.9 1-1.2 1.9-2.3 2.7-2.8.8-.5 1.6-.9 2.3-1.2 1.3-.6 2.4-1.1 3.4-2.1 1.1-1.2 1.9-3.1 2.7-4.8l.4-1c1.8-4.1 3.1-7.7 4-11.3l.1-.4c.5-2.1 1.1-4.5 3.3-5.9.9-.6 2.2-.6 3.1 0 2.1 1.3 2.9 3.3 3.8 5.1.7 1.7 1.4 3.3 3.1 4.4 1.6 1 3.2 1.9 4.8 2.7 2.8 1.4 5.6 2.8 8.1 5.4 1.3 1.4.9 3.2-.1 4.2-1.1 1-2.8 1.3-4.1 0-1.9-2-4.4-3.2-7.1-4.6-3.5-1.7-7.2-3.5-9.3-7.2l-.3-.6c-.7 2.4-1.5 4.7-2.7 7.6-2.9 7-5 10.6-11.1 14.2-1.4.8-2.4 2.1-3.4 3.3-1.6 1.8-3.3 3.9-6.4 3.9M529.3 365.4c0-.4.1-.8.2-1.2.1-1-.9-1.9-1.9-1.9-1.1 0-1.7.8-1.9 1.9 0 .4-.1.8-.2 1.2-.1 1 .9 1.9 1.9 1.9 1.2-.1 1.8-.9 1.9-1.9" class="st0"/>
  <path d="M527.7 363.4c-.2 0-.7 0-.8.9l-.2 1.2c0 .1 0 .2.2.3.2.2.4.3.5.3.2 0 .7 0 .8-.9l.2-1.2c0-.1 0-.2-.2-.3-.2-.2-.4-.3-.5-.3m-.3 4.9c-.8 0-1.6-.4-2.2-1-.6-.6-.8-1.4-.7-2.1l.2-1.2c.2-1.7 1.3-2.8 2.9-2.8.8 0 1.7.3 2.3 1 .6.6.8 1.4.7 2.1l-.2 1.2c-.2 1.7-1.3 2.8-2.9 2.8h-.1M535.4 353.8c.5-.4.9-.7 1.4-1.1.8-.6.6-2 0-2.6-.8-.8-1.8-.6-2.6 0-.5.4-.9.7-1.4 1.1-.8.6-.6 2 0 2.6.8.8 1.8.6 2.6 0" class="st0"/>
  <path d="M535.6 350.7c-.3 0-.5.2-.7.3l-1.4 1.1c-.1.1-.1.2-.1.3 0 .3.1.6.2.7.4.4.9.1 1.2-.1l1.4-1.1c.1-.1.1-.2.1-.3 0-.3-.1-.6-.2-.7-.2-.2-.4-.2-.5-.2m-1.6 4.7c-.7 0-1.5-.3-2-.9-.6-.6-.9-1.5-.9-2.4 0-.8.4-1.5 1-1.9l1.4-1.1c1.4-1 3-1 4.1.1.6.6.9 1.5.9 2.4 0 .8-.4 1.5-1 1.9l-1.4 1.1c-.7.6-1.4.8-2.1.8M545.1 346.3s.5-.4.2-.2c.1-.1.2-.1.3-.2-.2.1-.2.1 0 0 .1 0 .2 0 .3-.1h-.1.6c1 .1 1.9-.9 1.9-1.9 0-1.1-.8-1.7-1.9-1.9-1.5-.2-2.9.4-3.9 1.5-.7.7-.7 1.9 0 2.6.7.9 1.9.9 2.6.2" class="st0"/>
  <path d="M545.9 343.3c-1 0-1.9.4-2.7 1.2-.2.2-.2.4-.2.5 0 .2.1.4.2.5.2.2.6.3.9.1l-.1-.3.4-.2v-.3l.8-.1.3-.2.2.2h.8c.1 0 .2 0 .3-.2.2-.2.3-.4.3-.5 0-.2 0-.7-.9-.8 0 .1-.1.1-.3.1m-2.1 4.6c-.8 0-1.5-.3-2.1-.9-.6-.6-.9-1.3-.9-2.1s.3-1.5.9-2.1c1.4-1.3 3.1-2 4.8-1.8 1.7.2 2.8 1.3 2.9 2.9 0 .8-.3 1.7-1 2.3-.6.6-1.4.8-2.1.8h-.3s-.1 0-.1.1l.1.1c-.7.4-1.4.7-2.2.7M641.7 363c.4 0 .8.1 1.2.2 1 .1 1.9-.9 1.9-1.9 0-1.1-.8-1.7-1.9-1.9-.4 0-.8-.1-1.2-.2-1-.1-1.9.9-1.9 1.9.1 1.2.9 1.8 1.9 1.9" class="st0"/>
  <path d="M641.6 360.4c-.1 0-.2 0-.3.2-.2.2-.3.4-.3.5 0 .2 0 .7.9.8l1.2.2c.1 0 .2 0 .3-.2.2-.2.3-.4.3-.5 0-.2 0-.7-.9-.8l-1.2-.2m1.5 3.9h-.3l-1.2-.2c-1.7-.2-2.8-1.3-2.8-2.9 0-.8.3-1.7 1-2.3.6-.6 1.4-.8 2.1-.7l1.2.2c1.7.2 2.8 1.3 2.8 2.9 0 .8-.3 1.7-1 2.3-.5.5-1.2.7-1.8.7M650.7 370.1l1.1 1.4c.6.8 2 .6 2.6 0 .8-.8.6-1.8 0-2.6l-1.1-1.4c-.6-.8-2-.6-2.6 0-.8.7-.6 1.8 0 2.6" class="st0"/>
  <path d="M652.1 368c-.3 0-.5.1-.6.2-.4.4-.1.9.1 1.2l1.1 1.4c.1.1.2.1.3.1.3 0 .5-.1.7-.2.4-.4.2-.8-.1-1.2l-1.1-1.4c-.1-.1-.3-.1-.4-.1m.9 5.1h-.2c-.8 0-1.5-.4-1.9-1l-1.1-1.4c-1-1.4-1-3 .1-4.1.6-.6 1.5-.9 2.4-.9.8 0 1.5.4 1.9 1l1.1 1.4c1 1.4 1 3-.1 4.1-.6.6-1.4.9-2.2.9M661.8 388.1c-.4 0-.8-.1-1.2-.2-1-.1-1.9.9-1.9 1.9 0 1.1.8 1.7 1.9 1.9.4 0 .8.1 1.2.2 1 .1 1.9-.9 1.9-1.9-.1-1.1-.9-1.7-1.9-1.9" class="st0"/>
  <path d="M660.4 389.1c-.1 0-.2 0-.3.2-.2.2-.3.4-.3.5 0 .2 0 .7.9.8l1.2.2c.1 0 .2 0 .3-.2.2-.2.3-.4.3-.5 0-.2 0-.7-.9-.8l-1.2-.2m1.6 3.9h-.3l-1.2-.2c-1.7-.2-2.8-1.3-2.8-2.9 0-.8.3-1.7 1-2.3.6-.6 1.4-.8 2.1-.7l1.2.2c1.7.2 2.8 1.3 2.8 2.9 0 .8-.3 1.7-1 2.3-.6.4-1.2.7-1.8.7M676.9 364.7c-.1.8-.2 1.6-.3 2.5-.1 1 .9 1.9 1.9 1.9 1.1 0 1.7-.8 1.9-1.9.1-.8.2-1.6.3-2.5.1-1-.9-1.9-1.9-1.9-1.1 0-1.8.8-1.9 1.9" class="st0"/>
  <path d="M678.8 363.9c-.2 0-.7 0-.8.9l-.3 2.5c0 .1 0 .2.2.3.2.2.4.3.5.3.2 0 .7 0 .8-.9l.3-2.5c0-.1 0-.2-.2-.3-.1-.2-.3-.3-.5-.3m-.4 6.2c-.8 0-1.6-.4-2.2-1-.6-.6-.8-1.4-.7-2.1l.3-2.5c.2-1.7 1.3-2.8 2.9-2.8.8 0 1.7.3 2.3 1 .6.6.8 1.4.7 2.1l-.3 2.5c-.2 1.7-1.3 2.8-2.9 2.8h-.1M674.6 373.1c0 .4-.1.8-.2 1.2-.1 1 .9 1.9 1.9 1.9 1.1 0 1.7-.8 1.9-1.9 0-.4.1-.8.2-1.2.1-1-.9-1.9-1.9-1.9-1.2.1-1.8.9-1.9 1.9" class="st0"/>
  <path d="M675.7 373.2l-.2 1.2c0 .1 0 .2.2.3.2.2.5.3.5.3.2 0 .7 0 .8-.9l.2-1.2c0-.1 0-.2-.2-.3-.2-.2-.5-.3-.5-.3-.2.1-.7.1-.8.9m.5 4.1c-.8 0-1.6-.4-2.2-1-.6-.6-.8-1.4-.7-2.1l.2-1.2c.2-1.7 1.3-2.8 2.9-2.8.8 0 1.7.3 2.3 1 .6.6.8 1.4.7 2.1l-.2 1.2c-.2 1.7-1.3 2.8-2.9 2.8h-.1M691.7 379.4c-9.3 1.1-13 16.5-14.2 23.7-1.1 6.2-3.2 11.9-4 18.3-1 7.6-3.4 14.9-4.3 22.6-.8 7-2.3 14.3-1 21.3.7 3.6 2.4 7 3.2 10.6 1.1 4.6.8 8.9.9 13.6 0 3.2.4 6.1.2 9.4-.2 2.7.4 4 1.2 6.4.7 2.2 1.4 4.6 2 7 .2.7.1 1.3.4 2 1.2 3.3 4.4 5.4 6.2 8.2 1.3 2 4.5.1 3.2-1.9-1.3-2.1-3.2-3.6-4.6-5.6-1.9-2.7-1-5.4-2-8.3-.2-.7-.8-1.2-1-1.9-.9-2.5-1.4-4.3-1.4-7.2 0-3-.4-6.2-.2-9.1.4-5.2-.2-10.4-1.7-15.4-.9-3.2-2.3-6.1-2.8-9.5-.5-3.6-.1-7 .2-10.6 1.4-12.5 3.8-24.8 6-37.2 1-5.6 2.8-11.9 4.6-17.4 1.3-3.9 3.6-14.5 9.1-15.2 2.3-.3 2.3-4.1 0-3.8" class="st0"/>
  <path d="M691.9 380.5h-.1c-8.3 1-11.8 14.7-13.3 22.8-.5 2.8-1.2 5.6-1.9 8.3-.8 3.2-1.7 6.5-2.1 10-.5 3.6-1.3 7.2-2.1 10.6-.9 3.9-1.8 7.9-2.2 11.9-.2 1.4-.3 2.9-.5 4.3-.7 5.5-1.5 11.3-.5 16.6.4 1.9 1 3.7 1.7 5.6.6 1.6 1.2 3.2 1.5 5 .9 3.9.9 7.5.9 11.3v2.5c0 1.1.1 2.2.1 3.3.1 2 .2 4 0 6.2s.2 3.2.9 5.2l.2.7c.8 2.4 1.5 4.9 2.1 7.1.1.4.1.7.2 1 0 .3.1.6.2.8.6 1.8 2 3.2 3.4 4.7 1 1 2 2.1 2.8 3.3.4.6 1.1.2 1.1.2.5-.3.3-.7.2-.9-.6-1-1.4-1.9-2.3-2.8-.8-.9-1.6-1.7-2.3-2.8-1.3-1.9-1.4-3.7-1.6-5.4-.1-1.1-.2-2.2-.6-3.2-.1-.2-.2-.5-.4-.7-.2-.3-.5-.7-.6-1.2-.9-2.5-1.4-4.5-1.5-7.5 0-1.1-.1-2.2-.1-3.3-.1-2-.2-4-.1-5.9.4-5-.2-10.1-1.6-15.1-.3-1.1-.7-2.2-1-3.2-.7-2-1.4-4.1-1.8-6.5-.5-3.6-.2-6.9.2-10.8 1.3-11.3 3.4-22.7 5.4-33.6l.7-3.7c.9-5.1 2.6-11.3 4.6-17.6.2-.5.4-1.1.6-1.8 1.5-5 4-13.4 9.5-14.1.7-.1.8-.7.8-1.1-.1-.1-.3-.2-.5-.2m-8.2 143.9c-.9 0-1.8-.4-2.5-1.4-.7-1-1.6-2-2.5-3-1.5-1.6-3.1-3.2-3.8-5.4-.2-.5-.2-.9-.3-1.3 0-.2-.1-.5-.1-.7-.6-2.2-1.3-4.7-2-7l-.2-.7c-.7-2-1.2-3.5-1-6.1.2-2 .1-3.9 0-5.9-.1-1.1-.1-2.2-.1-3.4V487c0-3.7 0-7.2-.8-10.8-.4-1.6-.9-3.1-1.5-4.7-.7-1.9-1.4-3.8-1.7-5.9-1.1-5.7-.3-11.6.5-17.3.2-1.4.4-2.9.5-4.3.5-4.2 1.4-8.3 2.3-12.2.8-3.4 1.6-6.9 2-10.4.5-3.5 1.3-6.9 2.2-10.2.7-2.6 1.4-5.3 1.8-8.1 1.5-8.7 5.5-23.5 15.2-24.6 1.6-.2 2.8.8 3 2.3.2 1.6-.8 3.3-2.7 3.6-4.1.5-6.4 8.3-7.6 12.5-.2.7-.4 1.4-.6 1.9-2 6.2-3.6 12.3-4.6 17.3l-.7 3.7c-2 10.9-4.1 22.2-5.4 33.4-.4 3.8-.7 7-.2 10.3.3 2.1 1 4 1.7 6 .4 1.1.8 2.2 1.1 3.3 1.5 5.3 2.1 10.6 1.7 15.8-.1 1.8 0 3.8.1 5.7.1 1.1.1 2.3.1 3.4 0 2.7.5 4.4 1.3 6.8.1.2.2.5.4.7.2.3.5.7.6 1.2.5 1.3.6 2.6.7 3.8.1 1.6.3 2.9 1.2 4.3.6.9 1.3 1.7 2.1 2.5.9.9 1.8 1.9 2.5 3.1.9 1.4.5 3-.9 3.9-.5.2-1.2.4-1.8.4" class="st0"/>
  <path d="M682.9 510.8c5-.2 10.2-2.3 14.9-3.7 5.3-1.6 10.7-3.4 15.7-5.9 5.9-2.9 11.2-6 17.6-7.8 5.3-1.4 9.2-3.6 13.8-6.6 2.6-1.7 5.3-2.1 7.9-3.5 1.7-.9 2.8-2.4 4.4-3.5 4.5-3 9.9-4.7 14-8.4 3.5-3.1 6.6-7.8 9.4-11.5 2.1-2.9 2.2-4.5 1.2-7.9-.7-2.3-4.3-1.3-3.6 1 1.5 4.8-3.6 7.6-6.2 11.2-3.2 4.4-6.9 7.2-11.5 9.9-7 4-13.7 7.3-20.6 11.7-4.7 3-9.9 3.8-15.1 5.6-4 1.4-7.7 3.7-11.4 5.7-4.9 2.6-10.2 4.4-15.5 6.1-4.6 1.4-10.2 3.7-15 3.9-2.4.1-2.4 3.8 0 3.7" class="st0"/>
  <path d="M780.1 451.9h-.3c-.3.1-.6.3-.5.8 1.3 4.1-1.5 7-3.9 9.5-.9.9-1.7 1.8-2.4 2.7-3 4.1-6.5 7.1-11.9 10.2-2.3 1.3-4.6 2.5-6.8 3.8-4.7 2.6-9.1 5-13.7 7.9-3.4 2.2-7 3.2-10.5 4.2-1.6.5-3.2.9-4.8 1.5-2.9 1-5.7 2.6-8.4 4.1-1 .5-1.9 1.1-2.9 1.6-5.2 2.8-10.9 4.6-15.7 6.1-1 .3-2 .7-3.1 1-3.9 1.3-8.3 2.8-12.2 2.9-.7 0-.7.8-.7.9 0 .6.5.6.6.6 3.8-.2 7.8-1.5 11.6-2.7 1-.3 2.1-.7 3-1 5.1-1.5 10.5-3.3 15.5-5.8 1.2-.6 2.3-1.2 3.4-1.7 4.7-2.4 9.1-4.7 14.4-6.1 5.3-1.5 9.2-3.6 13.5-6.4 1.6-1 3.2-1.6 4.7-2.2 1.1-.4 2.2-.8 3.3-1.4.8-.4 1.5-1.1 2.3-1.8.6-.6 1.3-1.2 2-1.7 1.8-1.2 3.8-2.2 5.7-3.2 2.8-1.5 5.8-3 8.1-5.1 2.8-2.6 5.5-6.2 7.9-9.5l1.4-1.9c1.9-2.6 2-3.9 1-6.9 0-.3-.3-.4-.6-.4m-97.3 60c-1.6 0-2.7-1.1-2.8-2.8-.1-1.5.9-3.1 2.9-3.2 3.6-.2 7.8-1.6 11.6-2.8 1.1-.4 2.1-.7 3.2-1 4.7-1.5 10.3-3.3 15.3-6 1-.5 1.9-1 2.8-1.5 2.8-1.5 5.6-3.1 8.7-4.2 1.7-.6 3.3-1.1 4.9-1.5 3.5-1 6.8-2 10-4 4.6-2.9 9.1-5.4 13.8-8 2.2-1.2 4.5-2.5 6.8-3.7 5.1-2.9 8.4-5.7 11.2-9.5.8-1 1.7-2 2.6-2.9 2.3-2.4 4.3-4.4 3.4-7.3-.5-1.8.6-3.2 1.9-3.6 1.4-.4 3.2.1 3.8 1.9 1 3.4 1.1 5.5-1.4 8.9l-1.4 1.9c-2.4 3.3-5.2 7.1-8.2 9.8-2.6 2.3-5.6 3.9-8.6 5.4-1.9 1-3.8 1.9-5.5 3.1-.6.4-1.2.9-1.8 1.5-.8.8-1.7 1.5-2.7 2.1-1.2.6-2.4 1.1-3.6 1.5-1.5.5-2.9 1.1-4.3 2-4.4 2.9-8.5 5.2-14.1 6.7-5.1 1.4-9.4 3.6-14 6-1.1.6-2.3 1.2-3.4 1.7-5.2 2.6-10.7 4.4-15.9 5.9l-3 .9c-4 1.3-8.1 2.6-12.2 2.8.1-.1.1-.1 0-.1" class="st0"/>
  <path d="M779 455.9c0-4.5-5.5-7.6-8.6-10-2.6-2-6.8-7.1-10.4-4.2-1.6 1.3-1.4 3-3 4-1.7 1.1-3.3.9-4.3 3.1-.5 1.2-.1 1.8-.3 2.9.1.6.2 1.2.4 1.8-.8 2.4-2.2 3.1-4.3 2.1-2.5.1-5.7-1.1-8 .5-2.1 1.4-2.2 2.7-4.7 4-2.3 1.2-4.8 2.1-7 3.4-2.3 1.3-5.8 4-7 6.2-.3.6-.4 1.4-.7 2-2.4 4.7-3.1 4-7.4 4-3.5 0-4.7 2.1-8.1 2.8-3.6.7-3.8.2-5.4 3.9-1 2.3-1.3 4.2-4.1 4.8-1.4.3-2.9-.4-4.3-.1-2 .4-2.8 1.3-3.3 3.4-.6 2.3 3 3.3 3.6 1 .2-1 5.8-.6 6.8-1 1.6-.6 2.6-1.7 3.5-3.2.3-.5 1.8-4.6 1.7-4.5 1.4-1.3 2.9-.2 4.4-.5 3.1-.7 3-2.5 6.7-2.5 3.8-.1 7.2.1 9-4 1.2-2.8.8-4.6 3.6-6.8 2.3-1.8 5.5-3.3 8-4.8 2-1.1 4-1.7 5.8-3.1.8-.6 1.2-1.6 2.2-2 1.9-.8 3.8.2 5.6.2 4.9.2 6.2-.8 7.3-5.2.6-2.3-2.6-1.5 1.4-4.4.3-.2 1 .1 1.4-.2 1.2-.9 1.8-2.5 2.7-3.2 2.1-1.7 4 1 5.9 2.4 1.6 1.2 7.2 4.6 7.2 7.1s3.7 2.5 3.7.1" class="st0"/>
  <path d="M692.4 488.3h-.5c-1.5.3-2 .8-2.4 2.5-.2.7.5.9.6.9.4.1.7 0 .8-.4.3-1.4 2.4-1.5 5.2-1.6.9 0 2-.1 2.3-.2 1.2-.5 2-1.3 2.9-2.7.2-.4 1.4-3.6 1.5-4.1l1.1.3v-.1l-.8-.8.7-.7.1.1c1-.5 2-.4 2.8-.2.5.1.9.1 1.3 0 1.1-.2 1.7-.6 2.4-1.1 1-.7 2.1-1.4 4.5-1.4h.6c3.8 0 6.1-.2 7.4-3.3.3-.8.5-1.4.7-2.1.5-1.7 1-3.4 3.3-5.1 1.8-1.4 4-2.6 6.2-3.7.7-.4 1.4-.7 2-1.1.8-.4 1.6-.8 2.3-1.2 1.2-.6 2.3-1.1 3.4-1.9.2-.2.4-.4.6-.7.4-.5.9-1.1 1.8-1.5 1.6-.7 3.1-.4 4.4-.1.6.1 1.1.2 1.7.3 4.3.2 5.1-.4 6.2-4.4.1-.4 0-.4-.2-.7-.2-.3-.6-.8-.5-1.5.1-.8.8-1.5 2.5-2.8.5-.3 1-.3 1.3-.3h.3c.3-.3.7-.9 1.1-1.5.4-.6.8-1.2 1.4-1.6 2.4-2 4.6 0 6.1 1.4.4.3.7.7 1.1.9.3.2.6.5 1.1.8 3.3 2.3 6.6 4.7 6.6 7.2 0 .6.5.8.8.7.3 0 .7-.1.7-.7 0-3.2-3.7-5.8-6.6-7.9-.5-.4-1.1-.8-1.6-1.1-.5-.4-1.1-.9-1.7-1.4-2.9-2.6-5.4-4.4-7.4-2.8-.6.5-.8 1-1.1 1.6-.4.8-.9 1.7-2 2.5-.6.4-1.2.6-1.8.8-1 .4-1.6.7-2.1 1.7-.2.5-.2.7-.2 1.2v1.2c.1.5.2 1 .3 1.4l.1.3-.1.3c-.5 1.5-1.3 2.6-2.3 3-.9.4-2 .4-3.3-.1-.8 0-1.6-.1-2.4-.2-1.8-.2-3.5-.4-4.8.5-.8.5-1.2 1.1-1.7 1.6-.7.8-1.5 1.6-3.1 2.5-.9.5-1.9.9-2.9 1.4-1.4.6-2.8 1.3-4.1 2-2.4 1.4-5.6 3.9-6.6 5.8-.1.2-.2.5-.3.8-.1.4-.2.8-.4 1.2-2.3 4.5-3.5 4.7-7 4.7h-1.4c-1.7 0-2.7.5-3.9 1.2-1.1.6-2.2 1.2-3.9 1.5-.5.1-1 .2-1.4.3-2.1.4-2.1.4-3.3 3-.1.3-.2.6-.4.9-.8 1.9-1.6 3.9-4.6 4.5-.9.2-1.8.1-2.6 0h-.8m-2.1 5.7c-.2 0-.5 0-.7-.1-1.4-.3-2.7-1.7-2.3-3.6.6-2.5 1.8-3.7 4.2-4.2.9-.2 1.7-.1 2.4 0 .6.1 1.3.2 1.8 0 1.8-.4 2.2-1.4 3-3.2.1-.3.3-.6.4-.9 1.5-3.5 2.1-3.8 4.9-4.3.4-.1.8-.1 1.3-.2 1.3-.3 2.3-.8 3.3-1.3 1.4-.7 2.8-1.5 5-1.5h1.4c2.9.1 3.2.1 5-3.5.1-.2.2-.4.2-.7.1-.4.2-.9.5-1.3 1.5-2.7 5.5-5.5 7.4-6.6 1.4-.8 2.9-1.5 4.3-2.1.9-.4 1.9-.9 2.8-1.3 1.2-.6 1.8-1.2 2.4-1.9.5-.6 1.1-1.3 2.1-2 1.9-1.3 4.2-1.1 6.3-.9.8.1 1.6.2 2.3.1h.3l.2.1c.7.3 1.3.4 1.7.2.5-.2.8-.8 1-1.4-.1-.5-.2-1.1-.3-1.6v-.4c.1-.3 0-.6 0-.9 0-.6-.1-1.3.4-2.2.9-1.9 2.2-2.4 3.3-2.9.5-.2.9-.4 1.4-.7.6-.4.8-.9 1.2-1.5.4-.7.8-1.6 1.8-2.4 3.6-2.9 7.6.6 10.2 2.9.6.5 1.1 1 1.6 1.3.5.4 1 .7 1.5 1.1 3.2 2.3 7.5 5.4 7.5 9.7 0 1.7-1.3 2.9-3 2.9s-3-1.2-3-2.9c0-1.5-4.1-4.3-5.6-5.4-.5-.3-.9-.6-1.2-.8-.4-.3-.8-.7-1.3-1.1-1.9-1.7-2.5-1.9-3.2-1.3-.3.2-.6.7-1 1.2-.5.7-1 1.5-1.8 2-.6.5-1.2.4-1.7.4-.8.6-1.1.9-1.3 1.1.4.5.8 1.3.5 2.5-1.3 5-3.1 6.3-8.4 6.1-.7 0-1.4-.2-2-.3-1.2-.2-2.2-.4-3.1 0-.4.2-.7.5-1 .9-.3.3-.6.7-1 1-1.2.9-2.5 1.5-3.7 2.1-.7.3-1.5.7-2.2 1.1-.6.4-1.3.7-2.1 1.1-2.1 1.1-4.2 2.3-5.9 3.5-1.7 1.3-2 2.4-2.5 4-.2.7-.4 1.5-.8 2.3-1.9 4.6-5.7 4.6-9.4 4.7h-.6c-1.8 0-2.5.5-3.3 1.1-.8.5-1.6 1.1-3.2 1.4-.8.2-1.5.1-2.1 0-.8-.1-1.2-.1-1.6.1-.3 1.8-1.7 4.4-1.7 4.4-.8 1.2-1.9 2.8-4 3.6-.6.2-1.5.3-3 .3-.9 0-2.6.1-3.2.3-.2 1.4-1.3 1.9-2.4 1.9M693.2 367.6c1.8 3.2.2 7-.1 10.4-.3 2.6 0 4.7.3 7.2.6 5.9-1.5 11.7 1.1 17.4 2.7 5.9 5.8 10.2 6.8 16.9 1 6.6-1 12.9 1.2 19.4 2.5 7.3 5.9 17.1 15.3 13.1 3.6-1.5 6-3.6 10.1-4.2 2.5-.4 2.3.1 4.4-1.3 2.7-1.7 2.8-2 6.4-2.4 1.1-.1 2.2-.1 3.3-.5 3.7-1.2 6.1-3.5 10.5-2.8 2.3.4 3.4-3.2 1-3.6-5.3-.8-7.8.6-12.5 2.3-2.9 1-5.7.9-8.5 2.1-2.4 1.1-4 1.8-6.5 2.3-5.7 1.1-12.7 9.1-16.7 1.7-2.9-5.5-4.7-11.4-4.2-17.6.5-5.8-.1-11.7-2-17.3-1.7-4.9-6-8.7-6.3-14-.2-3.2.7-6.4.6-9.7-.1-3.3-1-6.3-.5-9.7.6-4.1 1.6-7.9-.5-11.7-1.2-2-4.4-.1-3.2 2" class="st0"/>
  <path d="M694.1 367.1c1.5 2.8.9 5.8.4 8.5-.2.9-.3 1.7-.4 2.5-.2 2.1 0 3.9.2 5.9l.1 1.1c.2 2.3.1 4.6 0 6.7-.2 3.6-.5 7 1 10.3.7 1.6 1.5 3.1 2.2 4.5 2 3.9 3.9 7.6 4.7 12.6.5 2.9.3 5.7.2 8.4-.1 3.7-.3 7.2.9 10.8 1.6 4.6 3.7 11 7.7 12.8 1.8.8 3.7.7 6.1-.3 1.2-.5 2.2-1 3.2-1.6 2.1-1.1 4.2-2.3 7.2-2.7.7-.1 1.1-.1 1.5-.2.9-.1 1.1-.1 2.5-.9l.8-.5c2.1-1.3 2.7-1.6 6.1-2l.9-.1c.8-.1 1.5-.1 2.2-.4 1.1-.3 2-.8 3-1.2 2.3-1 4.6-2.1 8.1-1.6.6.1 1-.5 1-.8.1-.5-.2-.5-.4-.5-4.2-.7-6.5.2-10 1.5-.6.2-1.3.5-2 .7-1.4.5-2.8.7-4.1.9-1.5.3-3 .5-4.4 1.1l-.4.2c-2.2 1-3.8 1.7-6.4 2.2-1.6.3-3.4 1.3-5.2 2.3-4.2 2.2-9.4 5-12.7-1.1-3.4-6.4-4.8-12.3-4.3-18.2.5-5.8-.2-11.7-1.9-16.8-.6-1.9-1.7-3.6-2.8-5.3-1.7-2.7-3.4-5.5-3.6-9-.1-1.8.1-3.6.3-5.3.2-1.5.3-3 .3-4.4 0-1.2-.2-2.3-.3-3.5-.2-2-.5-4.2-.2-6.5.1-.6.2-1.1.3-1.7.5-3.4 1-6.4-.6-9.3-.2-.3-.3-.3-.5-.3s-.6.2-.8.5c0 .2 0 .4.1.7m19.6 87c-1.2 0-2.3-.2-3.4-.7-4.9-2.2-7.3-9.1-8.9-14.1-1.3-3.9-1.2-7.8-1-11.6.1-2.6.2-5.3-.2-8-.7-4.6-2.5-8.2-4.4-11.9-.8-1.5-1.5-3-2.3-4.6-1.7-3.8-1.5-7.6-1.2-11.3.1-2.1.3-4.2.1-6.4l-.1-1c-.2-2.1-.5-4.1-.2-6.4.1-.9.3-1.8.5-2.7.5-2.5 1-5-.2-7-.5-1-.5-2 0-2.9.6-1 1.6-1.6 2.7-1.5 1 0 1.9.6 2.4 1.5 2 3.6 1.4 7.2.9 10.7-.1.5-.2 1.1-.3 1.7-.3 2-.1 3.9.2 5.9.1 1.2.3 2.4.3 3.7 0 1.6-.1 3.2-.3 4.8-.2 1.7-.4 3.3-.3 4.9.2 2.9 1.7 5.3 3.3 7.9 1.1 1.8 2.3 3.7 3 5.8 1.9 5.5 2.6 11.6 2 17.7-.5 5.4.9 11 4.1 17 2.1 4 4.9 2.7 9.7.2 1.9-1 3.9-2.1 5.8-2.5 2.3-.5 3.7-1.1 5.9-2.1l.4-.2c1.7-.7 3.3-1 4.9-1.3 1.3-.2 2.5-.4 3.7-.9.7-.2 1.4-.5 2-.7 3.6-1.4 6.3-2.3 11.1-1.6 1.5.2 2.5 1.5 2.3 3.1-.2 1.6-1.7 3-3.6 2.7-2.8-.4-4.6.4-6.8 1.4-1 .5-2 .9-3.2 1.3-.9.3-1.8.4-2.7.5l-.8.1c-3 .4-3.2.5-5.1 1.7l-.8.5c-1.7 1.1-2.2 1.1-3.5 1.3-.4 0-.8.1-1.4.2-2.5.4-4.4 1.4-6.4 2.4-1.1.6-2.2 1.2-3.4 1.7-1.9.3-3.4.7-4.8.7" class="st0"/>
  <path d="M695.7 364.1c.6-5.4.3-11.4-3.1-16.1-3-4.1-7.2-4.2-11.1-6.7-2.9-1.8-3.3-4.8-5.3-7.4-1.2-1.5-2.8-2.7-4.4-3.7-1.7-1.1-3.4-2-5.5-2.4-2.6-.6-5.8 0-7.7-2.1-1.6-1.8-4.2.9-2.6 2.6 1.9 2.1 4.3 2.4 7.1 2.8 6.5.9 9.3 4 12.4 9.6 1.8 3.2 4.3 4.2 7.5 5.4 8.1 3 9.9 10.1 9 18.1-.3 2.2 3.5 2.2 3.7-.1" class="st0"/>
  <path d="M657.4 326.1c-.1 0-.3.1-.5.2-.1.1-.6.6-.1 1.1 1.6 1.8 3.6 2.1 6.2 2.4 7.1 1 10.2 4.3 13.4 10.1 1.5 2.8 3.6 3.7 6.9 4.9 7.6 2.8 10.8 9.2 9.7 19.3 0 .3.1.4.1.4.2.1.5.2.9 0 .3-.1.5-.4.5-.7.7-6.5-.2-11.6-2.9-15.3-1.7-2.4-3.9-3.3-6.4-4.3-1.5-.6-3-1.2-4.5-2.2-2.1-1.3-3-3.1-3.9-4.8-.5-.9-1-1.9-1.7-2.8-1.1-1.4-2.7-2.6-4.1-3.5-1.8-1.2-3.4-1.9-5.1-2.3-.7-.2-1.5-.2-2.3-.3-2-.2-4.4-.4-6-2.2.2.2 0 0-.2 0m36.3 40.9c-.6 0-1.3-.2-1.8-.5-.8-.6-1.1-1.5-1-2.5 1-9-1.7-14.5-8.3-16.9-3.5-1.3-6.2-2.5-8.1-5.9-3-5.3-5.6-8.1-11.6-9-3-.4-5.6-.8-7.7-3.2-1.3-1.4-.9-3.3.3-4.3 1.2-1.1 2.9-1 4 .2s2.8 1.3 4.6 1.5c.9.1 1.7.1 2.6.3 2 .4 3.8 1.2 5.8 2.6 1.6 1 3.3 2.3 4.7 4 .8 1 1.4 2.1 1.9 3.1.8 1.6 1.5 3 3.1 4 1.3.9 2.7 1.4 4.1 2 2.6 1 5.2 2.1 7.3 5 2.9 4.1 4 9.8 3.3 16.8-.1 1.1-.8 2-1.8 2.5-.5.2-1 .3-1.4.3M622.3 332.9c6.3-2.6 13.7-5.5 18.1-11.1.8-1 1.2-2.1 1.9-3.1 1.5-2.3 3.5-3.2 5.4-4.9 2.6-2.4 4.1-5.7 6.7-8.2 3.3-3 7.4-5.3 11-8.1 4.1-3.2 8.3-6.4 12.5-9.6 7.5-5.7 15-11.4 22.4-17.3 6.8-5.4 12.2-11.8 18.4-18 5.5-5.6 11.3-9.9 15.6-16.7 4.1-6.6 7-13.3 8-21 .5-3.5.9-6.8.4-10.3-.5-4-1.6-7.8-1.1-11.9-1.2.3-2.3.6-3.5.9 2.7 3.9 5 17.7 13 9.8 3-3 2.8-8.7 3.1-12.6.6-9.1-.8-17.6 6.5-24.7 1.7-1.7-.9-4.3-2.6-2.6-7.9 7.6-6.9 16.3-7.5 26.3-.2 2.8-.6 15.6-5.8 10.3-1.9-1.9-1.7-6.1-3.3-8.4-1.1-1.6-3.3-.9-3.5.9-.7 6.4 1.9 12.6 1.1 19-1 8.8-4 16.6-9 23.9-4.6 6.8-11.2 11.3-16.7 17.2-5.5 6-11 11.4-17.4 16.5-13.7 10.8-27.8 21.1-41.7 31.6-2.5 1.9-4.4 4.1-6.3 6.5-2.4 3-5.3 4.8-7.6 7.6-2.5 3.1-3.9 5.9-7.3 8.3-3.6 2.6-7.5 4.2-11.6 5.9-2.4 1.1-1.4 4.8.8 3.8" class="st0"/>
  <path d="M739.6 192h-.2c-.1 0-.2.1-.3.1l.6-.2c0 .1 0 .1-.1.1m.1 2.4l.6 1.2v-1.3l-.6.1zm3.6 7.8c.8 1.3 1.8 2.3 2.8 2.5 1.1.2 2.5-.5 4-2 2.3-2.3 2.5-6.6 2.6-10.1 0-.6.1-1.2.1-1.8.1-1.7.2-3.3.2-4.9.2-7.4.4-14.4 6.7-20.5.2-.2.2-.4.2-.6-.1-.3-.3-.6-.6-.6-.2-.1-.4 0-.6.2-6.4 6.2-6.7 13.2-7 21.3 0 1.4-.1 2.8-.2 4.2v.5c-.3 5.3-1 10.9-3.7 12-1.2.5-2.6 0-4-1.4-.3-.3-.6-.7-.8-1l.3 1.5v.7m-4.4-4.1c.1 1.3.3 2.6.5 4 .5 3.2 1 6.5.6 9.8-1 8.8-4 16.8-9.2 24.4-2.9 4.3-6.7 7.8-10.4 11.1-2.2 2-4.4 4-6.4 6.2-4.7 5.1-10.5 11.1-17.5 16.6-9.3 7.4-19 14.6-28.3 21.6-4.4 3.3-8.9 6.7-13.3 10-2.3 1.8-4.1 3.8-6.1 6.3-1.3 1.6-2.6 2.8-4 4-1.3 1.2-2.5 2.3-3.6 3.6-.7.8-1.3 1.6-1.8 2.4-1.6 2.2-3.1 4.2-5.7 6.1-3.7 2.6-7.7 4.4-11.8 6.1-.6.3-.6.9-.5 1.3.2.4.4.3.6.2l.7-.3c6.1-2.5 12.9-5.3 17-10.5.4-.5.7-1.1 1.1-1.7.2-.4.5-.9.8-1.3 1.1-1.6 2.3-2.6 3.6-3.6.6-.5 1.3-1 1.9-1.6 1.2-1.1 2.1-2.4 3.1-3.8 1.1-1.5 2.2-3 3.6-4.4 2-1.9 4.4-3.5 6.6-5 1.5-1 3-2 4.4-3.1 4.1-3.2 8.3-6.4 12.5-9.6l3.2-2.4c6.3-4.8 12.8-9.8 19.1-14.8 4.8-3.8 8.9-8.1 13.1-12.6 1.7-1.8 3.4-3.6 5.1-5.3 1.5-1.5 3.1-3 4.6-4.4 4-3.7 7.8-7.3 10.8-12 4.4-7.1 6.9-13.6 7.9-20.6.5-3.6.8-6.7.4-9.9-.1-.6-.2-1.2-.3-1.9-.9-1.5-1.6-3.2-2.3-4.9M621.6 334.2c-1 0-1.9-.6-2.4-1.7-.6-1.5-.1-3.4 1.7-4.2 4.1-1.7 7.9-3.3 11.4-5.8 2.3-1.6 3.6-3.4 5.2-5.6.6-.8 1.2-1.6 1.9-2.5 1.2-1.5 2.5-2.7 3.8-3.9 1.3-1.2 2.6-2.3 3.7-3.8 2.1-2.6 4-4.8 6.5-6.7 4.4-3.4 8.9-6.7 13.3-10 9.3-7 19-14.2 28.3-21.6 6.9-5.5 12.6-11.4 17.3-16.4 2.1-2.3 4.4-4.3 6.6-6.4 3.7-3.4 7.3-6.6 10-10.7 4.9-7.3 7.8-15 8.8-23.4.4-3.1-.1-6.1-.6-9.2-.4-2.9-.9-5.8-.7-8.8l-.4-.5.4-.1v-.3c.2-1.3 1.1-2.4 2.3-2.7 1.2-.3 2.4.2 3.2 1.3 0 .1.1.1.1.2l.5-.1-.1.9c.5 1.1.8 2.3 1.1 3.4.4 1.6.8 3.1 1.6 3.9.7.7 1.3 1 1.6.9.5-.2 1.8-1.6 2.3-10v-.5c.1-1.4.1-2.8.2-4.1.3-8.3.6-16 7.7-22.9.8-.8 1.8-1 2.8-.7 1.1.3 1.9 1.2 2.2 2.3.2 1-.1 2-.8 2.7-5.6 5.4-5.8 11.7-6 18.9 0 1.6-.1 3.3-.2 5 0 .5-.1 1.1-.1 1.7-.2 3.9-.4 8.7-3.3 11.6-2.2 2.1-4.1 3-6 2.6-.7-.1-1.3-.4-1.8-.8.2 3-.1 5.8-.5 9-1 7.3-3.6 14.1-8.2 21.5-3.1 5-7 8.6-11.2 12.5-1.5 1.4-3.1 2.8-4.6 4.4-1.8 1.8-3.4 3.5-5.1 5.3-4.1 4.4-8.4 8.8-13.4 12.8-6.3 5-12.9 10-19.2 14.8l-3.2 2.5c-4.2 3.2-8.3 6.4-12.5 9.6-1.5 1.1-3 2.2-4.5 3.2-2.2 1.5-4.5 3-6.4 4.8-1.3 1.2-2.3 2.6-3.3 4s-2.1 2.9-3.4 4.2c-.7.7-1.4 1.2-2.1 1.7-1.2.9-2.2 1.7-3.1 3-.3.4-.5.8-.7 1.2-.4.7-.8 1.4-1.3 2-4.4 5.6-11.6 8.6-17.9 11.2l-.7.3c-.1-.1-.4 0-.8 0" class="st0"/>
  <path d="M757.7 162c-.8 5.1-3.4 13.1 3.5 15.3 3.1 1 6-.7 8.5-2.4 1.6-1.1 3-2.3 4.7-3.2 3.5-1.9 5.7-1.2 7.5 2.3 1.5 2.9 2.2 3.1 4.8 4.8 4.3 2.7 4.9 2.9 5.3 7.1.1 1.5.1 3 .4 4.5 1.3 7 5 12.1-.5 18.7-3.6 4.3-9.1 5.9-13.2 9.6-3.4 3.1-5.4 7.2-8.4 10.5-4 4.2-10.3 6.4-15.7 7.8-3.8 1-7.3 2-10.2 4.7-3.3 3-5.1 7.3-8.2 10.5-7.9 8.2-17.5 14.5-24.7 23.5-3.3 4.1-6.1 7.8-10.5 10.8-4.6 3.1-8.3 6.1-12.2 10-4.1 4-8.6 7.6-12.8 11.5-4.4 4.1-9.6 6.9-14.4 10.6-7.1 5.5-12.6 12.2-13.8 21.3-.3 2.4 3.4 2.3 3.7 0 1.5-11.4 11.5-17.9 20.3-23.8 8.1-5.4 15.5-13 22.4-19.8 3.7-3.7 8.4-5.9 12.4-9.2 4-3.3 6.6-7.9 10.1-11.7 3.5-3.8 7.3-7.6 11.2-11.1 4.4-4 9.5-7.3 13.2-12 2.6-3.3 4.5-7.4 8.3-9.6 4.7-2.6 10.7-3.1 15.7-5.4 9.1-4.1 12.2-13.6 20.5-18.7 6.8-4.2 14.5-9.6 13.4-18.8-.5-4.3-2.7-8.1-3.1-12.4-.3-3.1-.1-6.5-2.1-9.1-.9-1.2-1.9-1.7-3.1-2.5-2.4-1.6-3.2-.9-5.4-4.8-1.5-2.5-1.5-4.3-5-4.7-3.4-.3-7.2 1.9-9.9 3.7-.6.4-1.1.8-1.6 1.2-1.9 1.3-6.2 2.8-8.2.6-1.2-1.3.7-7.1 1-8.7.1-2.5-3.5-3.5-3.9-1.1" class="st0"/>
  <path d="M777.7 169.6c.5 0 1 .1 1.4.2 1.5.5 2.7 1.7 3.7 3.7 1.2 2.3 1.7 2.6 3.6 3.8l1.4.9c4.1 2.6 4.8 3.2 5.2 7.6 0 .5.1 1 .1 1.5 0 1 .1 2 .3 2.9.3 1.6.7 3.1 1.1 4.6 1.4 4.9 2.7 9.6-1.8 15-2.2 2.6-4.9 4.2-7.6 5.8-2 1.2-4 2.4-5.7 3.9-1.8 1.6-3.2 3.6-4.6 5.6-1.2 1.6-2.3 3.3-3.8 4.8-4.3 4.6-10.9 6.7-16.3 8.1-3.9 1-7.1 2-9.8 4.4-1.7 1.5-2.9 3.4-4.3 5.4-1.2 1.7-2.4 3.5-3.9 5-3.3 3.5-7 6.7-10.6 9.7-4.9 4.2-9.9 8.6-14.1 13.7l-.8 1c-3 3.7-5.8 7.2-10 10-4.5 3.1-8.2 6-12.1 9.8-2.3 2.3-4.9 4.5-7.3 6.6-1.9 1.6-3.7 3.2-5.5 4.9-2.7 2.5-5.8 4.6-8.7 6.6-1.9 1.3-3.9 2.6-5.7 4.1-8.1 6.3-12.3 12.8-13.3 20.5 0 .2 0 .4.4.5.3 0 1-.1 1.1-.8 1.6-11.8 11.6-18.5 20.5-24.4l.3-.2c7.6-5.1 14.6-12.1 21.3-18.8l.8-.8c2.2-2.2 4.8-3.9 7.2-5.5 1.8-1.2 3.6-2.4 5.3-3.8 2.4-2 4.2-4.4 6.2-7 1.2-1.5 2.4-3.1 3.7-4.6 3.2-3.5 7-7.3 11.2-11.1 1.5-1.3 3-2.6 4.6-3.8 3-2.4 6.1-5 8.5-8.1.7-.9 1.4-1.9 2-2.8 1.8-2.6 3.6-5.4 6.6-7 2.7-1.5 5.8-2.4 8.8-3.2 2.4-.6 4.8-1.3 7-2.3 4.7-2.1 7.7-5.8 10.9-9.6 2.7-3.2 5.5-6.6 9.5-9.1 7.1-4.4 13.9-9.3 12.9-17.7-.2-2-.8-3.8-1.5-5.8-.7-2.1-1.4-4.3-1.6-6.6-.1-.6-.1-1.2-.1-1.8-.2-2.5-.3-4.9-1.7-6.7-.6-.8-1.3-1.3-2.3-1.9l-.5-.3c-.6-.4-1.1-.7-1.6-.9-1.5-.7-2.5-1.3-4.2-4.3-.3-.5-.5-1-.8-1.5-.9-1.7-1.2-2.4-3.4-2.6-3-.3-6.7 1.9-9.2 3.5l-.9.6c-.2.2-.5.4-.7.5-2.5 1.7-7.3 3.1-9.7.5-1.2-1.3-.6-4.3.3-8.1.2-.7.3-1.3.4-1.6.1-.3 0-.6-.3-.8-.3-.2-.7-.3-.9-.2-.1 0-.2.1-.2.4-.1.6-.2 1.3-.4 2-1.1 5.9-1.6 10.5 3.1 12 2.7.9 5.3-.7 7.5-2.2.5-.3.9-.7 1.4-1 1.1-.8 2.1-1.6 3.4-2.2 1.8-.7 3.1-1 4.2-1m-128.5 173h-.4c-1.6-.2-2.5-1.4-2.3-3 1.1-8.3 5.6-15.3 14.2-22 1.9-1.5 3.9-2.8 5.9-4.2 2.9-1.9 5.8-4 8.4-6.4 1.8-1.7 3.7-3.3 5.6-5 2.4-2.1 4.9-4.3 7.2-6.5 4-3.9 7.7-7 12.4-10.1 3.9-2.7 6.5-5.9 9.5-9.6l.8-1c4.3-5.3 9.4-9.7 14.4-14 3.5-3 7.2-6.2 10.4-9.6 1.4-1.4 2.5-3 3.6-4.8 1.4-2 2.8-4.1 4.6-5.8 3-2.8 6.5-3.8 10.7-4.9 5-1.3 11.3-3.3 15.2-7.4 1.3-1.4 2.4-2.9 3.6-4.6 1.4-2.1 3-4.2 4.9-6 1.9-1.7 4-3 6-4.2 2.6-1.6 5.1-3 7-5.3 3.8-4.5 2.7-8.2 1.4-13-.4-1.5-.9-3.1-1.2-4.8-.2-1.1-.2-2.1-.3-3.2 0-.5 0-1-.1-1.4-.3-3.5-.4-3.5-4.2-5.9l-1.4-.9c-2.1-1.3-3-1.8-4.4-4.7-.8-1.5-1.6-2.3-2.4-2.6-.9-.3-2 0-3.6.8-1.1.6-2.1 1.3-3.1 2-.5.4-1 .7-1.5 1-2.9 2-6 3.6-9.4 2.5-7-2.2-5.5-9.7-4.6-14.6.1-.7.3-1.3.4-1.9.2-1 .8-1.8 1.6-2.1 1-.4 2.2-.1 3.1.6.9.7 1.3 1.8 1.1 2.9-.1.4-.2 1-.4 1.8-.3 1.3-1.3 5.3-.8 6 1.5 1.6 5.1.4 6.8-.8.2-.2.5-.3.7-.5.3-.2.6-.5 1-.7 2.8-1.8 6.9-4.2 10.6-3.9 3.4.3 4.3 2.1 5.2 3.9.2.4.4.9.7 1.4 1.5 2.5 2.1 2.8 3.3 3.4.5.3 1.1.5 1.8 1l.5.3c1 .7 2 1.3 2.8 2.4 1.8 2.4 2 5.2 2.1 7.9 0 .6.1 1.2.1 1.7.2 2.1.8 4.1 1.5 6.2.6 2 1.3 4 1.5 6.2 1.1 9.7-6.6 15.3-13.9 19.8-3.6 2.3-6.2 5.3-8.9 8.6-3.2 3.9-6.5 7.8-11.7 10.2-2.3 1-4.8 1.7-7.3 2.4-3 .8-5.8 1.6-8.3 3-2.5 1.4-4.2 3.8-5.9 6.3-.7 1-1.4 2-2.1 2.9-2.6 3.3-5.8 5.9-8.9 8.4-1.5 1.2-3 2.5-4.5 3.7-4.2 3.8-8 7.5-11.1 11-1.3 1.4-2.5 3-3.6 4.5-2 2.5-4 5.2-6.6 7.3-1.8 1.5-3.7 2.7-5.5 3.9-2.5 1.6-4.8 3.2-6.9 5.2l-.8.8c-6.5 6.5-13.9 13.9-21.7 19.1l-.3.2c-8.5 5.6-18.1 12-19.5 22.8 0 2.3-1.5 3.3-3 3.3M583.1 519.3c.4 0 .8.1 1.2.2 1 .1 1.9-.9 1.9-1.9 0-1.1-.8-1.7-1.9-1.9-.4 0-.8-.1-1.2-.2-1-.1-1.9.9-1.9 1.9.1 1.2.8 1.8 1.9 1.9" class="st0"/>
  <path d="M583.2 518.2l1.2.2c.1 0 .2 0 .3-.2.2-.2.3-.4.3-.5 0-.2 0-.7-.9-.8l-1.2-.2c-.1 0-.2 0-.3.2-.2.2-.3.4-.3.5 0 .2.1.7.9.8m1.3 2.4h-.3l-1.2-.2c-1.7-.2-2.8-1.3-2.8-2.9 0-.8.3-1.7 1-2.3.6-.6 1.4-.8 2.1-.7l1.2.2c1.7.2 2.8 1.3 2.8 2.9 0 .8-.3 1.7-1 2.3-.6.4-1.2.7-1.8.7M583.4 529.7c-.5 1.8-.2 3.7.9 5.3.6.8 1.6 1.2 2.5.7.8-.5 1.3-1.7.7-2.5-.6-.8-.8-1.5-.6-2.4.7-2.4-2.9-3.4-3.5-1.1" class="st0"/>
  <path d="M584.5 530c-.3 1.1-.4 2.8.8 4.3.1.2.6.7 1.1.4.1-.1.3-.3.4-.6v-.3c-.9-1.1-1.1-2.1-.8-3.3.2-.7-.5-.9-.6-.9-.4-.1-.8-.1-.9.4m1.5 7c-.9 0-1.9-.5-2.5-1.4-1.3-1.7-1.7-3.9-1.1-6.2.4-1.8 2.1-2.4 3.5-2.1 1.4.4 2.7 1.7 2.2 3.6-.1.5-.1.8.4 1.5.4.6.6 1.3.4 2.1-.2.9-.7 1.7-1.4 2.1-.5.3-1 .4-1.5.4M583.4 545.2s.4.5.2.2c.1.1.1.2.2.3-.1-.2-.1-.2 0 0 0 .1 0 .2.1.3v-.1.6c-.1 1 .9 1.9 1.9 1.9 1.1 0 1.7-.8 1.9-1.9.2-1.5-.4-2.9-1.5-3.9-.7-.7-1.9-.7-2.6 0-.9.7-.9 1.9-.2 2.6" class="st0"/>
  <path d="M584.9 545.9v.8c0 .1 0 .2.2.4s.4.3.5.3c.2 0 .7 0 .8-.9.1-1.1-.3-2.1-1.2-3-.2-.2-.3-.2-.5-.2s-.4.1-.5.2c-.2.2-.3.6-.1.9l.3-.1.2.4h.3l.1.8.2.4h-.3zm.7 3.6c-.8 0-1.6-.4-2.1-1-.6-.6-.8-1.4-.8-2.1v-.3s0-.1-.1-.1c-1.1-1.2-1.1-3.1 0-4.2.6-.6 1.4-.8 2.1-.9.8 0 1.5.3 2.1.9 1.3 1.4 2 3.1 1.8 4.8-.2 1.7-1.3 2.8-2.9 2.9h-.1M582.4 557.6c-.1.8-.2 1.6-.3 2.5-.1 1 .9 1.9 1.9 1.9 1.1 0 1.7-.8 1.9-1.9.1-.8.2-1.6.3-2.5.1-1-.9-1.9-1.9-1.9-1.2.1-1.8.8-1.9 1.9" class="st0"/>
  <path d="M583.5 557.7l-.3 2.5c0 .1 0 .2.2.3.2.2.3.3.5.3s.7 0 .8-.9l.3-2.5c0-.1 0-.2-.2-.3-.2-.2-.5-.4-.5-.3-.2 0-.7.1-.8.9m.3 5.3c-.8 0-1.6-.4-2.2-1-.6-.6-.8-1.4-.7-2.1l.3-2.5c.2-1.7 1.3-2.8 2.9-2.8.8-.1 1.7.3 2.3 1 .6.6.8 1.4.7 2.1l-.3 2.5c-.2 1.7-1.3 2.8-2.9 2.8h-.1M581.9 571.3c-.1.4-.1.8-.2 1.2-.1 1 .9 1.9 1.9 1.9 1.1 0 1.7-.8 1.9-1.9 0-.4.1-.8.2-1.2.1-1-.9-1.9-1.9-1.9-1.2.1-1.8.8-1.9 1.9" class="st0"/>
  <path d="M583 571.4l-.2 1.2c0 .1 0 .2.2.3.2.2.3.3.5.3s.7 0 .8-.9l.2-1.2c0-.1 0-.2-.2-.3-.2-.2-.5-.4-.5-.3-.2 0-.7.1-.8.9m.5 4.1c-.8 0-1.6-.4-2.2-1-.6-.6-.8-1.4-.7-2.1l.2-1.2c.2-1.7 1.3-2.8 2.9-2.8.8-.1 1.7.3 2.3 1 .6.6.8 1.4.7 2.1l-.2 1.2c-.2 1.7-1.3 2.8-2.9 2.8h-.1M411.9 336.1c8.6-1.7 17.9 3.9 26.1.8 2.2-.8 1.3-4.4-1-3.6-4.5 1.7-9.4 0-14-.7-4.1-.6-8-1-12.2-.2-2.2.6-1.2 4.2 1.1 3.7" class="st0"/>
  <path d="M415.4 334.7c2.9 0 5.9.5 8.7 1.1 4.8.9 9.3 1.7 13.5.1.3-.1.5-.3.5-.6.1-.4-.1-.7-.3-.9 0 0-.2-.1-.5 0-3.7 1.4-7.6.6-11.4-.1-1.1-.2-2.1-.4-3.1-.5-3.7-.5-7.6-1-11.8-.2-.2 0-.5.1-.4.7 0 0 .2.9 1 .7 1.3-.2 2.6-.3 3.8-.3m17 4.3c-2.9 0-5.8-.5-8.6-1.1-4.1-.8-7.9-1.5-11.6-.7-1.9.4-3.3-1-3.6-2.5-.3-1.6.6-3 2.2-3.3 4.5-.9 8.6-.4 12.5.1 1.1.1 2.1.4 3.2.6 3.5.7 7.1 1.4 10.2.2 1-.4 1.9-.2 2.7.4.8.7 1.2 1.8 1 2.9-.2 1.1-.9 2-1.9 2.3-2 .9-4.1 1.1-6.1 1.1M455.2 335.5c1.2.2 2.5.3 3.7.5 1 .1 1.9-.9 1.9-1.9 0-1.1-.9-1.7-1.9-1.9-1.2-.2-2.5-.3-3.7-.5-1-.1-1.9.9-1.9 1.9.1 1.2.9 1.8 1.9 1.9" class="st0"/>
  <path d="M455.4 334.4l3.7.5c.1 0 .2-.1.3-.1.2-.2.3-.5.3-.6 0-.5-.5-.7-.9-.8l-3.7-.5c-.1 0-.2.1-.3.1-.2.2-.3.5-.3.6 0 .6.5.8.9.8m3.7 2.7h-.3l-3.7-.5c-1.7-.2-2.8-1.4-2.8-3 0-.8.4-1.7 1.1-2.3.6-.5 1.3-.8 2-.7l3.7.5c1.7.2 2.8 1.4 2.8 3 0 .8-.4 1.7-1.1 2.3-.5.5-1.1.7-1.7.7M553 329.2c5.2.8 10.4 2.1 15.7 2.4 2.3.1 4.3 0 6.5-.6 4.7-1.2 7.8-1.8 12.7-1.1 2.3.3 3.3-3.2 1-3.6-5.6-.8-9.3-.1-14.7 1.1-6.6 1.5-13.7-.9-20.2-1.8-2.3-.3-3.3 3.3-1 3.6" class="st0"/>
  <path d="M553.7 326.7c-.6 0-.9.5-.9.9-.1.4.1.5.4.5 1.9.3 3.7.6 5.6.9 3.3.6 6.7 1.2 10 1.4 2.3.1 4.2 0 6.1-.5 4.7-1.2 8-1.9 13.2-1.1.3.1.6-.1.8-.3.2-.3.3-.7.2-.8 0 0-.1-.2-.4-.2-5.5-.8-9-.1-14.3 1.1-5.1 1.2-10.4.1-15.5-.9-1.7-.3-3.4-.7-5.1-.9 0 0 0-.1-.1-.1m16.6 6.1h-1.6c-3.5-.2-6.9-.8-10.3-1.4-1.9-.3-3.7-.7-5.5-.9-1.6-.2-2.5-1.5-2.3-3 .2-1.6 1.6-3 3.6-2.8 1.7.3 3.5.6 5.2.9 4.9 1 9.9 1.9 14.6.9 5.5-1.3 9.3-2 15.1-1.1 1 .1 1.8.7 2.1 1.6.4 1 .2 2.2-.5 3.1-.7.9-1.8 1.3-2.9 1.2-4.6-.7-7.4-.2-12.3 1.1-1.7.2-3.4.4-5.2.4M319.3 378.3c-2.8-.3-5.4 0-8.2 0-2.3 0-3.9-.2-5.7 1.4-1.8 1.5.8 4.2 2.6 2.6 1-.8 4.2-.4 5.5-.5 2-.1 3.9-.1 5.8.1 2.4.4 2.4-3.4 0-3.6" class="st0"/>
  <path d="M310.2 379.4c-1.7 0-2.8.1-4.1 1.1-.1.1-.4.3-.1.7.2.2.7.6 1.3.2 1-.9 3-.8 4.7-.7h1.4c2.1-.1 4-.1 6 .1.2 0 .5 0 .5-.4s-.1-1-.8-1.1c-1.8-.2-3.4-.1-5.2 0-.9 0-1.9.1-2.8.1H310.2zm-3.4 4.5c-1 0-1.9-.5-2.5-1.2-1-1.2-.9-2.9.3-3.9 2-1.7 3.8-1.7 5.8-1.7h.6c.9 0 1.8 0 2.7-.1 1.8-.1 3.7-.2 5.6.1 2 .2 2.9 2 2.7 3.6-.2 1.6-1.4 2.6-3 2.3-1.9-.2-3.7-.3-5.6-.1h-1.6c-.9 0-2.8-.1-3.2.2-.4.6-1.1.8-1.8.8M285.9 395.9l-2.8 2.1c-.8.6-.6 2 0 2.6.8.8 1.8.6 2.6 0l2.8-2.1c.8-.6.6-2 0-2.6-.8-.7-1.9-.6-2.6 0" class="st0"/>
  <path d="M286.5 396.8l-2.8 2.1c-.1.1-.1.2-.1.3 0 .3.1.6.2.7.4.4.8.2 1.2-.1l2.8-2.1c.1-.1.1-.2.1-.3 0-.3-.1-.6-.2-.7-.4-.4-.9-.1-1.2.1m-2.2 5.6c-.7 0-1.5-.3-2-.9-.6-.6-.9-1.5-.9-2.4 0-.8.4-1.5 1-1.9l2.8-2.1c1.4-1 3-1 4.1.1.6.6.9 1.5.9 2.4 0 .8-.4 1.5-1 1.9l-2.8 2.1c-.7.5-1.4.8-2.1.8M471.3 575c1.3-1.3 2.1-3 2.1-4.9 0-.9-.2-1.8-.5-2.7-.3-.9-.2-1.7-.1-2.7.1-2.6-4-2.6-4.1 0 0 1.3-.1 2.5.3 3.8.4 1.4.5 2.5-.6 3.6-1.8 1.9 1.1 4.8 2.9 2.9" class="st0"/>
  <path d="M470.9 563.9c-.2 0-1 0-1 .9v.2c0 1.2-.1 2.1.2 3.2.5 1.5.7 3.2-.9 4.7-.6.6-.1 1.1 0 1.3.2.2.7.6 1.3.1 1.1-1.1 1.8-2.6 1.8-4.1 0-.8-.2-1.5-.4-2.3-.3-.9-.2-1.7-.2-2.5v-.5c.1-.9-.5-1-.8-1zm-.9 12.8c-.9 0-1.7-.4-2.3-1-1.1-1.1-1.5-3 0-4.4.6-.6.7-1.2.3-2.5-.4-1.4-.4-2.6-.3-3.9v-.2c.1-2.1 1.7-3.2 3.3-3.1 1.5 0 3.1 1.1 3 3.1v.5c0 .7-.1 1.2.1 1.8.3 1 .6 1.9.5 3 0 2.2-.9 4.1-2.5 5.7-.6.8-1.4 1-2.1 1M480.2 390.6c2.9 0 5.7-.1 7.8-2.4 1.8-2-1.1-4.9-2.9-2.9-1.3 1.5-3.1 1.2-4.9 1.2-2.6 0-2.6 4.1 0 4.1" class="st0"/>
  <path d="M480.2 389.5c2.8 0 5.2-.1 7-2.1.3-.3.3-.6.2-.9-.1-.4-.5-.7-.8-.8-.1 0-.4 0-.7.3-1.5 1.7-3.5 1.6-5.2 1.6h-.6c-.4 0-.6.1-.7.4-.2.3-.2.8 0 1.1.3.3.5.4.8.4zm.7 2.3h-.7c-1.1 0-2.1-.6-2.7-1.5-.6-1-.6-2.3 0-3.4.5-.9 1.5-1.5 2.7-1.4h.6c1.6 0 2.7 0 3.5-.9.7-.8 1.8-1.2 2.8-1 1.1.2 2.1 1.1 2.5 2.3.4 1.1.1 2.2-.7 3.1-2.2 2.4-5.1 2.8-8 2.8M498.6 386.7c1.9-1.1 4-2.4 6.3-2.5 2.6-.1 2.6-4.2 0-4.1-3.1.1-5.7 1.5-8.3 3-2.4 1.4-.3 5 2 3.6" class="st0"/>
  <path d="M498.6 386.7l-.6-1 .6 1zm0 0l-.4-1.1c1.9-1.1 4.1-2.4 6.6-2.5.4 0 .6-.2.8-.5.2-.3.2-.8 0-1.1-.1-.1-.3-.3-.7-.3-2.9.1-5.4 1.5-7.8 2.9-.7.4-.4 1.1-.3 1.3.1.2.5.8 1.2.4l.6.9zm-1.1 1.4c-1.1 0-2.1-.7-2.7-1.6-.8-1.3-.7-3.3 1.1-4.3 2.5-1.5 5.4-3 8.9-3.2 1.1-.1 2.1.5 2.6 1.3.6 1 .7 2.3.1 3.3-.5 1-1.5 1.6-2.7 1.6-2 .1-3.8 1.2-5.6 2.2l-.2.1c-.4.5-.9.6-1.5.6M511.3 379.4l1.8-.9c1-.5 1.3-1.9.7-2.8-.6-1-1.8-1.2-2.8-.7l-1.8.9c-1 .5-1.3 1.9-.7 2.8.6 1 1.8 1.2 2.8.7" class="st0"/>
  <path d="M512.1 375.8c-.2 0-.4.1-.6.1l-1.8.9c-.2.1-.3.3-.3.5-.1.3-.1.6.1.8.3.5.9.5 1.3.3l1.8-.9c.2-.1.3-.3.3-.5.1-.3.1-.6-.1-.8-.1-.2-.3-.4-.7-.4m-1.8 5c-1.1 0-2.1-.5-2.7-1.5-.4-.7-.5-1.7-.3-2.6.2-.8.8-1.5 1.5-1.8l1.8-.9c1.6-.8 3.4-.3 4.3 1.2.4.7.5 1.7.3 2.6-.2.8-.8 1.5-1.5 1.8l-1.8.9c-.6.2-1.1.3-1.6.3M519.7 374.5c.4-.5-.4-.1.1-.1 1.1.1 2-1 2-2.1 0-1.2-.9-2-2-2-1.2-.1-2.3.4-3 1.3-1.8 2 1.1 4.9 2.9 2.9" class="st0"/>
  <path d="M519.6 371.5c-.9 0-1.6.6-1.9.9-.2.3-.3.5-.2.9.1.4.5.7.8.8h.3l-.1-.4 1.7-.7.2.3.1-.1c.2-.2.4-.5.4-.7 0-.6-.6-.9-1-.9-.2-.1-.3-.1-.3-.1m-1.2 4.8c-.2 0-.4 0-.7-.1-1.1-.3-2.1-1.2-2.4-2.3-.3-1.1-.1-2.2.7-3 1.1-1.2 2.5-1.8 4-1.6 1.8.2 3.1 1.5 3.1 3.2 0 .9-.4 1.8-1.1 2.4-.5.5-1.1.7-1.7.8-.6.4-1.3.6-1.9.6" class="st0"/>
</svg>