<?xml version="1.0" encoding="utf-8"?>
<!-- Generator: Adobe Illustrator 19.0.0, SVG Export Plug-In . SVG Version: 6.00 Build 0)  -->
<svg version="1.1" id="Layer_1" xmlns="http://www.w3.org/2000/svg" xmlns:xlink="http://www.w3.org/1999/xlink" x="0px" y="0px"
	 viewBox="0 0 800 800" style="enable-background:new 0 0 800 800;" xml:space="preserve">
<style type="text/css">
	.st0{fill:#FFFFFF;}
</style>
<g id="XMLID_4_">
	<g id="XMLID_172_">
		<path id="XMLID_176_" class="st0" d="M530.5,775.6c3.2,0,3.2-5,0-5C527.3,770.6,527.3,775.6,530.5,775.6L530.5,775.6z"/>
	</g>
</g>
<path id="XMLID_2_" class="st0" d="M147.6,352.6c2.9,32-10,62.2-12.1,93.9c-2.2,33.8,4.1,68.7,7.5,102.2
	c3.1,30.6,4.3,62.4,16.2,91.2c12.4,30,31,57.9,47.1,86c13.9,24.2,25.8,49.4,53.4,59.8c28.5,10.7,62.8,16.8,93.1,13.3
	c58.7-6.8,109.6-44.6,156.4-77.7c51.3-36.3,101.9-82.6,106.5-149.4c0.6-9-13.3-8.9-13.9,0c-4.1,58.4-48.8,100.8-93.6,133
	c-43.3,31.2-90.3,66.8-143.5,78c-30.4,6.4-60.6,1-90.1-7.1c-15.6-4.3-27.8-11.2-37.2-24.6c-8.2-11.7-14.8-24.7-21.8-37.1
	c-14.3-24.9-30.5-49.6-42.1-75.9c-12.8-28.9-13.8-61.2-16.9-92.2c-3.3-32.7-9.3-66.6-7.2-99.5c2-31.8,14.9-61.7,12.1-93.9
	C160.7,343.8,146.8,343.7,147.6,352.6L147.6,352.6z"/>
<path id="XMLID_1_" class="st0" d="M660.4,444.5c5.1-6.9,13.5-18.3,21.7-21.7c12.7-5.3,16.1,9.5,17.8,19.3c3.9,22.3,0.6,45.4-8.4,66
	c-7.7,17.8-19.1,33.9-30.9,49.2c-13.3,17.3-30.6,39.1-55.3,32.9c-8.7-2.2-12.4,11.3-3.7,13.4c29.4,7.3,50.8-13.4,67.5-34.8
	c19.3-24.8,37.8-51.7,43.8-83.1c4.1-21.1,6.4-58.9-11.8-75c-19-16.7-42.7,12.8-52.8,26.6C643.1,444.7,655.2,451.7,660.4,444.5
	L660.4,444.5z"/>
<path id="XMLID_249_" class="st0" d="M554.3,187.6c-51-15.9-103.9-32.1-158-27.5c-28.9,2.5-56.9,8.3-86,9
	c-24.3,0.6-49.2,0.6-72.6,7.9c-18.4,5.7-36,15.5-48.2,30.8c-13.3,16.7-14.2,37.7-23.7,56.2c-9.1,17.8-31.9,23.1-34.2,45
	c-1.3,12,3.9,23.4,3.4,35.4c-0.6,14.1-9.8,25.9-22.9,30.7c-8.4,3.1-4.7,16.5,3.7,13.4c15.7-5.8,28.1-18,32-34.7
	c2.3-9.8,0.3-19.4-1.2-29.2c-1.4-9.3-2.5-17.3,3.9-25.2c3-3.6,7.2-6.2,10.9-9.1c15.4-12.2,20.6-27.9,26.2-46.2
	c7.4-24.3,21.3-40.8,45.1-50.5c23.8-9.7,49.7-10,75-10.5c26.7-0.6,52.3-4.6,78.7-8c56.4-7.2,110.9,9.3,164.2,25.8
	C559.1,203.7,562.8,190.2,554.3,187.6L554.3,187.6z"/>
<path id="XMLID_248_" class="st0" d="M557.5,198.7c-9.1,53.1-0.3,103.4,21.9,152.1c7,15.4,7.4,27.4,4.9,44
	c-1.7,11.6-2,22.2,2.1,33.3c4.7,12.8,11.5,24.1,12.7,38.1c1.3,15.3-2.3,30.1-9.8,43.4c-4.4,7.8,7.6,14.9,12,7
	c11.5-20.6,15.2-44.7,8.6-67.6c-3.7-12.9-12.6-24.5-13.2-38.1c-0.7-14.4,5.2-28,3.1-42.5c-1.6-10.9-6.7-20.8-11.3-30.8
	c-6.2-13.5-11.1-27.5-14.7-41.9c-7.5-30.6-8.3-62.4-3-93.3C572.4,193.7,559,189.9,557.5,198.7L557.5,198.7z"/>
<path id="XMLID_247_" class="st0" d="M630.2,477.8c13.1-15.4,20.6-33.2,22.9-53.3c1-8.9-12.9-8.8-13.9,0c-1.8,16.1-8.4,31-18.8,43.4
	C614.5,474.7,624.4,484.6,630.2,477.8L630.2,477.8z"/>
<path id="XMLID_246_" class="st0" d="M621.6,138.5c-17.9-22.6-36.1-45.4-59-63.3c-22.8-17.9-50.3-28.4-72.4-47.3
	C472,12.3,454.8-1.2,429.5,0.1c-26.9,1.4-51.5,15.6-73.7,29.6c2.3,0,4.7,0,7,0c-50.4-35-102.2,17.9-147.3,35.4
	c-9,3.5-18.8,6.5-26.2,13.1c-10.6,9.4-9.2,23-16.8,33.9c-9.3,13.4-27.4,22.8-40.5,32.2c-14.7,10.7-29.6,21.2-44.4,31.7
	c-2.4,1.7-4.3,4.8-3.2,7.9c3.8,10.3,13,11.3,18.8,19.4c9.6,13.7-10.4,29.8-15.8,41.9c-7,15.6-0.6,35.6,17.9,37.4
	c-1.2-4.3-2.3-8.7-3.5-13c-14.2,6.9-17.1,23.6-12.8,37.6c3,9.6,9,18.1,11.4,27.9c3.5,13.8,0.8,27.4-6.4,39.5c-4.6,7.7,7.5,14.8,12,7
	c8.2-13.9,11.8-30,8.7-46.1c-2.7-14.3-25.7-44.3-6-53.9c6.8-3.3,2.7-12.4-3.5-13c-16.7-1.6-0.6-25.4,3.5-31.2
	c5.2-7.3,9.8-14.6,11-23.6c0.9-6.8-0.3-13.7-4.7-19.2c-4.2-5.3-15-8.1-17.2-14.4c-1.1,2.6-2.1,5.2-3.2,7.9
	c25-17.6,50.1-35,74.4-53.5c8.2-6.2,15.8-13,19.8-22.7c2.4-5.9,2.7-12.2,5.9-17.7c3.9-6.9,10.3-9.9,17.5-12.8
	c22.7-9.2,42.7-21,64-32.9c24.1-13.6,54.6-23.9,79.6-6.5c2,1.4,5.1,1.2,7,0c21.6-13.6,46.7-29.2,73.2-27.8
	c25.5,1.4,40.8,22.8,60.3,36.2c20.9,14.4,44.4,24.2,63.9,40.9c19.6,16.8,35.6,37.1,51.5,57.2C617.3,155.4,627.1,145.4,621.6,138.5
	L621.6,138.5z"/>
<path id="XMLID_245_" class="st0" d="M617.1,160.4c14.3-3.2,26.9,6.1,29.6,20.1c1.1-2.6,2.1-5.2,3.2-7.9c-3,2-6,4-9,6
	c-4,2.7-4.3,7.3-1.4,10.9c22,27,44.9,56.3,45.2,92.8c0.1,15.6,1.7,26.7,6.9,41.5c6.3,17.9,4.5,35.5-5.5,51.7c4.3,1.2,8.7,2.3,13,3.5
	c-1.1-10.3-12-16.5-21.2-9.7c-12.3,9-8.7,37.1-9.6,49.9c-0.6,9,13.3,8.9,13.9,0c0.9-12.7,4.3-27.6,2.9-40.2c0.7,6.6,9.1,9.8,13,3.5
	c9-14.5,12.9-31.1,10.5-48.1c-1.2-8.8-4.8-16.4-7.6-24.7c-3.5-10.7-2.1-21-2.5-31.9c-1.6-38.4-25.9-69.5-49.2-98.1
	c-0.5,3.6-0.9,7.3-1.4,10.9c3-2,6-4,9-6c2.8-1.8,3.8-4.7,3.2-7.9c-4.3-21.7-25.5-34.6-46.8-29.9
	C604.6,148.9,608.3,162.4,617.1,160.4L617.1,160.4z"/>
<path id="XMLID_244_" class="st0" d="M258.9,486.7c-10.6,8.7-18.1,21.2-17.4,35.3c0.7,15.5,10.9,24.9,23.3,32.6
	c7.6,4.8,14.6-7.3,7-12c-9.1-5.7-17.1-12.1-16.4-23.8c0.6-9.3,6.4-16.5,13.3-22.2C275.7,490.8,265.8,481,258.9,486.7L258.9,486.7z"
	/>
<path id="XMLID_243_" class="st0" d="M366.2,501.8c14,6.6,13.2,35.2-2.2,39.7c-8.6,2.5-4.9,15.9,3.7,13.4c26.6-7.6,31-53.1,5.6-65.1
	C365.1,486,358,498,366.2,501.8L366.2,501.8z"/>
<path id="XMLID_242_" class="st0" d="M271.5,526.2c4.1-4.5,15.5,3,19.9,4.5c4.7,1.6,9.1,1.9,14,1.1c5.8-0.9,10.8-3.7,16.4-5.4
	c8.8-2.6,16.4-0.9,24.9,1.7c8.6,2.6,12.3-10.9,3.7-13.4c-7.9-2.4-15.9-4.6-24.2-3.6c-9.9,1.1-17.7,7.5-27.8,6
	c-13.1-1.9-24.9-13.6-36.7-0.8C255.6,522.9,265.4,532.8,271.5,526.2L271.5,526.2z"/>
<path id="XMLID_241_" class="st0" d="M246.7,627.7c14.4-5.6,28.8-7,44-4c11.5,2.3,20.1,2.9,31.5-0.7c28.6-9,61.2-2,90.8,0.1
	c9,0.6,8.9-13.3,0-13.9c-16.6-1.2-33.2-2.4-49.8-3.5c-14-1-26.6-2-40.1,2.3c-7.7,2.4-14.6,5-22.8,3.6c-5.6-1-11-2.5-16.6-3.1
	c-13.9-1.5-27.7,0.7-40.7,5.7C234.7,617.5,238.3,630.9,246.7,627.7L246.7,627.7z"/>
<path id="XMLID_240_" class="st0" d="M255.2,604.9c14-7,25.4-10.8,40.9-9c9.2,1.1,15.6,0.6,24.1-2.9c5.8-2.4,11.3-5.7,17.7-5.9
	c7.1-0.1,14.9,2.7,21.8,4.4c11.6,2.8,23.1,5.5,34.7,8.3c8.7,2.1,12.4-11.3,3.7-13.4c-14-3.4-28-6.8-42.1-10.1
	c-11.6-2.8-21.6-4.3-33,0.2c-6.6,2.6-12.5,6.2-20,6.3c-6.8,0-13.3-2.1-20.2-1.7c-12.4,0.7-23.8,6.4-34.8,11.8
	C240.1,596.8,247.2,608.9,255.2,604.9L255.2,604.9z"/>
<path id="XMLID_239_" class="st0" d="M251.2,641c22.9,23.8,55.8,24.6,86.7,21.3c26.3-2.8,55.3-5.8,73.7-27c5.8-6.8-4-16.7-9.9-9.9
	c-15.8,18.3-41.2,20.5-63.9,22.9c-27,2.9-56.5,3.8-76.8-17.2C254.8,624.6,245,634.5,251.2,641L251.2,641z"/>
<path id="XMLID_238_" class="st0" d="M204.2,416.7c12-11.8,27-23.3,44.8-21.7c8.8,0.8,15.5,6.4,23.2,9.9c1.3,0.6,6.2,1.7,7,2.7
	c6.2,8.2-9.2,11.3-14.4,11.6c-8.9,0.6-9,14.5,0,13.9c11.8-0.8,27-6,31-18.7c4.5-14.3-8.7-17.9-18.7-22.6c-15-7.1-25.8-13.5-43.1-9.7
	c-15.7,3.4-28.6,13.6-39.8,24.6C188,413.1,197.8,423,204.2,416.7L204.2,416.7z"/>
<path id="XMLID_237_" class="st0" d="M243.7,426c-14.4,0.1-28.8,0.2-43.2,0.2c-9,0-9,14,0,13.9c14.4-0.1,28.8-0.2,43.2-0.2
	C252.7,439.9,252.7,425.9,243.7,426L243.7,426z"/>
<path id="XMLID_236_" class="st0" d="M495.3,405.1c-17.9-5.7-31.3-17.4-48.2-24.6c-16.5-7-34.3,0.3-50.6,4.6
	c-12.6,3.3-29.9,5.4-32,21.4c-1.6,12.3,7.7,19.8,18.8,21.2c8.9,1.1,8.8-12.9,0-13.9c-1.2-7.7,0.9-11.8,6.3-12.4
	c2.6-0.7,5.3-1.4,7.9-2.1c5.3-1.4,10.5-2.7,15.8-4.1c12.2-3.2,22.1-5.8,33.7,1.1c14.7,8.7,28.1,17.1,44.5,22.3
	C500.2,421.3,503.8,407.9,495.3,405.1L495.3,405.1z"/>
<path id="XMLID_235_" class="st0" d="M409.5,433.9c19.3,3.9,38.8,5.8,58.5,5.3c9-0.2,9-14.2,0-13.9c-18.5,0.4-36.7-1.1-54.8-4.8
	C404.5,418.7,400.7,432.1,409.5,433.9L409.5,433.9z"/>
<path id="XMLID_234_" class="st0" d="M279.7,354.4c-2.5-7.4-5.9-13.2-11.4-18.8c-5.4-5.5-15.5,1.8-10.9,8.4c1.8,2.7,3.7,5.4,5.5,8.1
	c3.6-2.8,7.3-5.6,10.9-8.4c-4.9-4.6-9.9-8.4-15.8-11.8c-6-3.5-13.1,3.5-9.5,9.5c3.1,5.2,6.5,9.5,10.9,13.6c2.8-3.6,5.6-7.3,8.4-10.9
	c-6.7-4.2-13.2-8.5-19.7-13c-5.5-3.8-13.8,4-9.5,9.5c4.9,6.4,10.1,11.9,16.5,16.9c6.9,5.3,16.7-3.8,9.9-9.9
	c-8.9-7.9-18.5-13.1-30.1-15.7c-6.2-1.4-12.6,7-6.8,11.7c5.7,4.6,11.5,8.4,18.2,11.6c5.6,2.6,14.1-3.3,9.5-9.5
	c-8.8-12.1-21-14.2-35.3-14.3c-6.1,0-9.1,7.6-4.9,11.9c5,5,10.1,8.2,16.7,10.7c7.6,2.8,12-8.8,5.4-12.7c-9-5.3-18-7.7-28.5-7.3
	c-7.2,0.3-9,9-3.5,13c4,2.9,7.6,4.9,12.1,7c1.8-4.2,3.6-8.5,5.4-12.7c-8.7-2.6-17-3.8-26.1-3.8c-5.6,0-9.8,8-4.9,11.9
	c4.3,3.4,8,5.6,13.3,7.2c0.6-4.6,1.2-9.1,1.9-13.7c-8.1,1.1-16.2,2.1-24.3,3.2c-8.6,1.1-9.3,13.8,0,13.9c5.6,0.1,11.2,0.1,16.8,0.2
	c-0.6-4.6-1.2-9.1-1.9-13.7c-7.8,1.5-15,4-22.2,7.3c-4.1,1.9-4.4,8-1.4,10.9c1,1,2.1,2,3.1,3c1-3.9,2.1-7.8,3.1-11.7
	c-5.1,2-9.8,4.1-14.5,6.8c-5.2,3-4.1,11.1,1.7,12.7c2.4,0.7,4.8,1.3,7.2,2c8.7,2.4,12.4-11,3.7-13.4c-2.4-0.7-4.8-1.3-7.2-2
	c0.6,4.2,1.1,8.5,1.7,12.7c3.5-2.2,7.3-4,11.2-5.4c4.7-1.8,7.2-7.7,3.1-11.7c-1-1-2.1-2-3.1-3c-0.5,3.6-0.9,7.3-1.4,10.9
	c6.2-2.9,12.2-4.7,18.8-5.9c7.9-1.5,5.8-13.6-1.9-13.7c-5.6-0.1-11.2-0.1-16.8-0.2c0,4.6,0,9.3,0,13.9c8.1-1.1,16.2-2.1,24.3-3.2
	c7.4-1,9.9-11.2,1.9-13.7c-2.4-1.2-4.8-2.4-7.1-3.6c-1.6,4-3.3,7.9-4.9,11.9c7.8,0,14.9,1.1,22.4,3.3c7.4,2.2,12.7-9.4,5.4-12.7
	c-4.5-2-8.1-4.1-12.1-7c-1.2,4.3-2.3,8.7-3.5,13c8-0.3,14.5,1.3,21.5,5.4c1.8-4.2,3.6-8.5,5.4-12.7c-4.2-1.3-7.8-3.6-10.6-7.1
	c-1.6,4-3.3,7.9-4.9,11.9c8.3,0.1,17.6-0.4,23.3,7.4c3.2-3.2,6.4-6.4,9.5-9.5c-5.6-2.6-10.6-5.6-15.4-9.4c-2.3,3.9-4.5,7.8-6.8,11.7
	c9.3,2.1,16.8,5.8,24,12.1c3.3-3.3,6.6-6.6,9.9-9.9c-5.4-4.2-10.1-8.6-14.3-14.1c-3.2,3.2-6.4,6.4-9.5,9.5c6.5,4.5,13.1,8.8,19.7,13
	c6.6,4.2,14.3-5.6,8.4-10.9c-3.6-3.3-6.3-6.6-8.8-10.8c-3.2,3.2-6.4,6.4-9.5,9.5c4.8,2.8,8.9,5.8,12.9,9.6
	c5.5,5.2,15.6-1.7,10.9-8.4c-1.8-2.7-3.7-5.4-5.5-8.1c-3.6,2.8-7.3,5.6-10.9,8.4c3.7,3.8,6.1,7.5,7.8,12.6
	C269.1,366.6,282.6,362.9,279.7,354.4L279.7,354.4z"/>
<path id="XMLID_233_" class="st0" d="M379.2,364.9c7-6.3,14.5-11.1,23.1-15.1c-2.8-3.6-5.6-7.3-8.4-10.9
	c-5.4,4.6-10.7,9.2-16.1,13.8c-6.1,5.2,1.7,14.9,8.4,10.9c9.5-5.6,19.1-11.1,28.6-16.7c-2.8-3.6-5.6-7.3-8.4-10.9
	c-5.1,5.2-10.2,10.4-15.3,15.7c-5.5,5.7,1.5,14.9,8.4,10.9c9.2-5.2,18.4-10.4,27.6-15.5c-2.8-3.6-5.6-7.3-8.4-10.9
	c-3.4,3.7-6.9,7.4-10.3,11.2c-5.5,6,1.4,14.3,8.4,10.9c9.9-4.7,19.8-9.3,29.7-14c-2.8-3.6-5.6-7.3-8.4-10.9
	c-5.3,4.4-10.7,8.9-16,13.3c-6.5,5.4,1.8,14.1,8.4,10.9c8.6-4,17.4-7.1,26.6-9.5c-2.3-3.9-4.5-7.8-6.8-11.7c-3.6,3.8-7.3,6.4-12,8.8
	c-7.1,3.5-2.1,15.1,5.4,12.7c7.5-2.4,15.1-4.4,22.8-6.1c-2.3-3.9-4.5-7.8-6.8-11.7c-2.9,3.6-5.7,6-9.8,8.2c-5.9,3.2-3.4,13.5,3.5,13
	c8.4-0.6,16.8-1.2,25.2-1.8c-0.6-4.6-1.2-9.1-1.9-13.7c-5.3,1.8-10.7,3.6-16,5.3c-7.3,2.4-6.3,13.6,1.9,13.7
	c8.8,0.1,17.5,0.1,26.3,0.2c-1.2-4.3-2.3-8.7-3.5-13c-3.4,2.2-4.4,2.9-7.1,6c-3.6,4.1-2,9.8,3.1,11.7c9.5,3.4,18.2,7.7,26.7,13
	c7.6,4.8,14.6-7.3,7-12c-9.5-6-19.4-10.7-30-14.4c1,3.9,2.1,7.8,3.1,11.7c1.4-1.3,2.8-2.6,4.3-3.8c5.7-3.7,3.6-12.9-3.5-13
	c-8.8-0.1-17.5-0.1-26.3-0.2c0.6,4.6,1.2,9.1,1.9,13.7c5.3-1.8,10.7-3.6,16-5.3c7.1-2.4,6.4-14.3-1.9-13.7
	c-8.4,0.6-16.8,1.2-25.2,1.8c1.2,4.3,2.3,8.7,3.5,13c5.1-2.7,9-5.9,12.6-10.4c4.3-5.3,0.4-13.2-6.8-11.7c-7.7,1.7-15.3,3.7-22.8,6.1
	c1.8,4.2,3.6,8.5,5.4,12.7c5.8-2.9,10.3-6.3,14.8-11c4.8-5,0-13.4-6.8-11.7c-10.4,2.7-20.2,6.3-29.9,10.9c2.8,3.6,5.6,7.3,8.4,10.9
	c5.3-4.4,10.7-8.9,16-13.3c6.5-5.4-1.8-14.1-8.4-10.9c-9.9,4.7-19.8,9.3-29.7,14c2.8,3.6,5.6,7.3,8.4,10.9
	c3.4-3.7,6.9-7.4,10.3-11.2c5.3-5.8-1.4-14.9-8.4-10.9c-9.2,5.2-18.4,10.4-27.6,15.5c2.8,3.6,5.6,7.3,8.4,10.9
	c5.1-5.2,10.2-10.4,15.3-15.7c5.5-5.6-1.5-15-8.4-10.9c-9.5,5.6-19.1,11.1-28.6,16.7c2.8,3.6,5.6,7.3,8.4,10.9
	c5.4-4.6,10.7-9.2,16.1-13.8c6.4-5.5-1.8-14.1-8.4-10.9c-9.6,4.5-18,10.2-25.9,17.2C362.6,361.1,372.5,370.9,379.2,364.9
	L379.2,364.9z"/>
<path id="XMLID_231_" class="st0" d="M294.7,397.1c2.1,13.3,4,37.3-8.8,46.3c-7.3,5.1-0.3,17.2,7,12c19-13.5,18.5-41.4,15.2-62.1
	C306.8,384.6,293.4,388.3,294.7,397.1L294.7,397.1z"/>
</svg>
