<?xml version="1.0" encoding="utf-8"?>
<!-- Generator: Adobe Illustrator 19.0.0, SVG Export Plug-In . SVG Version: 6.00 Build 0)  -->
<svg version="1.1" id="Layer_1" xmlns="http://www.w3.org/2000/svg" xmlns:xlink="http://www.w3.org/1999/xlink" x="0px" y="0px"
	 viewBox="0 0 800 800" style="enable-background:new 0 0 800 800;" xml:space="preserve">
<style type="text/css">
	.st0{fill:#FFFFFF;}
</style>
<g id="XMLID_6_">
	<g id="XMLID_244_">
		<path id="XMLID_248_" class="st0" d="M348.3,395.7c-3,3.3-6,5.6-7.5,10c-1.5,4.3-1.7,8.9-0.5,13.2c2.4,8.9,8.7,14.8,18.1,13.7
			c3.2-0.4,3.2-5.4,0-5c-3.3,0.4-6.3,0.4-8.9-2c-2.7-2.5-4.3-6.5-4.8-10.1c-0.5-3.3,0-6.6,1.4-9.6c1.3-2.9,3.6-4.4,5.7-6.7
			C354,396.9,350.5,393.4,348.3,395.7L348.3,395.7z"/>
	</g>
</g>
<g id="XMLID_7_">
	<g id="XMLID_238_">
		<path id="XMLID_242_" class="st0" d="M435.3,390.7c1.1,5.2,4.8,8.8,7.4,13.3c2,3.5,3.7,8.3,0.8,11.7c-1.8,2.2-4.3,3.9-6.5,5.6
			c-2.5,2,1,5.5,3.5,3.5c5.1-4,11-8.4,9.5-15.7c-1.6-7.6-8.3-12.5-9.9-19.9C439.4,386.2,434.6,387.6,435.3,390.7L435.3,390.7z"/>
	</g>
</g>
<g id="XMLID_8_">
	<g id="XMLID_232_">
		<path id="XMLID_236_" class="st0" d="M266.5,295.5c3.7-0.8,6.6-3,9.6-5.3c3.7-2.8,7.9-5.2,12-7.2c5.2-2.5,11.2-4.1,17-4.1
			c4.8,0,9.6,1.1,14.4,1.7c5.2,0.7,8.4,2.5,11.6,6.7c2.4,3.1,4.6,5.9,7.5,8.4c3.1,2.7,6.4,5.4,9.3,8.3c1.7,1.8,4.2,4,3.8,6.7
			c-0.5,3-3.7,3.4-6,5c-2.6,1.8-0.1,6.2,2.5,4.3c3.7-2.6,8.1-3.1,8.8-8.6c0.5-4.1-2.4-7.6-5.1-10.4c-4-4.2-8.8-7.4-12.8-11.6
			c-3.2-3.3-5.3-7.6-9.1-10.5c-4.3-3.2-9.6-3.2-14.7-3.9c-5.8-0.8-11.3-1.5-17.2-0.4c-6.3,1.1-11.9,3.6-17.4,6.7
			c-5,2.9-10,8.1-15.6,9.4C262.1,291.4,263.4,296.2,266.5,295.5L266.5,295.5z"/>
	</g>
</g>
<g id="XMLID_9_">
	<g id="XMLID_226_">
		<path id="XMLID_230_" class="st0" d="M525.2,301.6c-6.6-0.4-11.2-7.4-16.5-10.7c-5.2-3.3-9.4-6.4-15.4-8
			c-6.1-1.7-11.2-1.7-17.1,0.7c-5.6,2.3-12,4.1-16.8,7.9c-2.4,1.9-4.8,3.6-7.2,5.5c-1.9,1.5-2.8,3.6-4.6,5.1
			c-3.6,3.1-9.3,0-11.8,5.4c-2.1,4.5,2.7,8.5,5.9,10.8c4.8,3.5,10,4.9,15.8,3.8c3.2-0.6,1.8-5.4-1.3-4.8c-3.5,0.7-6.6,0-9.7-1.8
			c-1.2-0.7-3.1-1.6-3.9-2.9c-0.6-0.9-2-3-0.4-4.1c0.9-0.6,3.5-0.1,4.8-0.4c1.4-0.4,2.8-1,3.9-2c1.3-1.1,2-2.7,3.2-4
			c1.3-1.5,3.1-2.4,4.6-3.6c2.7-2.1,5-4.5,8.2-5.8c2-0.8,4.1-1.4,6.1-2.3c5.6-2.4,10.3-4.8,16.6-3.4c2.6,0.6,5.6,1.2,7.9,2.4
			c1.8,0.9,3.3,2.5,5,3.6c4.5,2.9,8.4,5.9,12.5,9.2c3.2,2.6,6.2,4.1,10.2,4.4C528.4,306.8,528.4,301.8,525.2,301.6L525.2,301.6z"/>
	</g>
</g>
<g id="XMLID_10_">
	<g id="XMLID_220_">
		<path id="XMLID_224_" class="st0" d="M271.2,309.9c5.4,0.2,9.9,4.1,14.5,6.6c4.4,2.4,9.2,4.9,14.2,5.9c4.4,0.9,9.1,1.3,13.6,1.7
			c5,0.4,9.9-1.2,14.8-1.9c3.2-0.4,1.8-5.3-1.3-4.8c-5.3,0.7-10.1,2.1-15.5,1.4c-5.3-0.7-10.5-0.8-15.4-2.8
			c-8.2-3.4-15.8-10.6-24.9-11C268,304.8,268,309.8,271.2,309.9L271.2,309.9z"/>
	</g>
</g>
<g id="XMLID_12_">
	<g id="XMLID_214_">
		<path id="XMLID_218_" class="st0" d="M476.1,328.5c10.2,0,20.7,0.5,30.8-1.5c4.7-0.9,9.1-2.6,13.7-3.9c4.4-1.2,8.5-2.3,12.2-5
			c2.6-1.9,0.1-6.2-2.5-4.3c-3.9,2.8-8.2,3.7-12.7,5c-4,1.2-7.9,2.6-12,3.4c-9.6,1.9-19.7,1.4-29.5,1.4
			C472.9,323.5,472.9,328.5,476.1,328.5L476.1,328.5z"/>
	</g>
</g>
<g id="XMLID_21_">
	<g id="XMLID_208_">
		<path id="XMLID_212_" class="st0" d="M577.1,246.3c-5.8-6.8-11.4-14.3-18.5-19.9c-3.6-2.8-7.5-5.4-11.2-8.1c-4-3-7.5-6.7-11.4-9.8
			c-3.7-2.9-7.5-5.6-11-8.7c-3.2-2.9-6.3-5.9-10-8.1c-3.4-2.1-7.3-3.1-11-4.7c-4.4-1.9-8.7-4.8-12.9-7.1c-4.1-2.2-7.4-5.4-11.1-8.1
			c-3.9-3-8.2-4.9-13-6.3c-4.3-1.2-8.7-2-13.2-2.5c-5.6-0.6-11.4-0.1-17-0.8c-4.9-0.6-9.5-2.7-14.3-3.7c-4.5-1-9-1.3-13.6-1.7
			c-10.5-0.9-20.8-1.9-31.4-2c-9.3-0.1-18.1,1.4-26.7,5.2c-4.2,1.9-7.8,4.8-12.1,6.3c-4.7,1.6-9.6,2.3-14.2,4.2
			c-3.8,1.6-7.4,3.7-11.1,5.5c-4.5,2-8.9,3.8-13.1,6.4c-7.5,4.8-15.8,8.3-22.7,13.8c-3.7,3-7.5,6.2-10.8,9.8
			c-3.3,3.6-5.6,8.1-9,11.5c-2.9,2.9-6.5,4.9-9.8,7.4c-4,3.1-7.7,6.8-11.5,10.2c-7.2,6.7-12.2,14.4-17.6,22.4
			c-2.6,3.8-5.3,7.7-7.3,11.8c-2.1,4.4-3.1,9.1-4.5,13.8c-3.4,10.9-7.5,20.5-14.9,29.3c-3.2,3.8-5,8.5-7.9,12.5
			c-2.8,3.9-6.5,7.3-8.5,11.7c-4.3,9.7-3.5,19.4-1.8,29.5c0.6,3.5,1,7.3,0.1,10.8c-0.7,2.5-2,4.7-2.8,7.2c-1.7,5-2,10.3-2.2,15.5
			c-0.1,3.2,4.9,3.2,5,0c0.2-4.8,0.5-9.6,2-14.1c1.4-4.2,3.3-7.7,3.5-12.2c0.2-4.4-0.9-8.8-1.6-13.1c-1-5.8-0.3-10.9,1-16.6
			c2-8.8,9.5-15.1,13.7-22.9c2-3.6,4.8-6.5,7.3-9.8c2.7-3.5,4.7-7.3,6.4-11.3c3.5-8.2,5.4-16.8,8.4-25.1c3.1-8.7,9.7-17,15-24.5
			c5.7-8,13.6-15.4,21.4-21.3c2.9-2.2,6.1-4.2,8.9-6.6c3.4-2.9,5.5-6.7,8.2-10.2c6.2-7.8,14.7-14.3,23.5-18.7
			c7.7-3.8,14.5-8.8,22.4-12.2c4.4-1.9,8.5-4.5,13-6.2c4.1-1.6,8.5-2.2,12.7-3.6c3.9-1.3,7-3.5,10.6-5.4c4-2.1,8.5-3.4,12.9-4.6
			c9.6-2.6,20.8-1.6,30.6-0.7c9.8,0.8,20,1.1,29.6,3.5c4.1,1,8.1,2.7,12.4,3.2c4.9,0.7,10,0.2,14.9,0.6c11.1,0.9,20.6,3.7,29.3,10.7
			c3.7,3,7.5,5.4,11.7,7.6c4,2,7.4,4.7,11.6,6.3c5.2,2,9.4,3.8,13.6,7.5c3.4,2.9,6.6,5.9,10.1,8.6c8.1,6.2,15.6,13.1,23.9,19
			c8.7,6.2,15.2,14.4,22.1,22.5C575.7,252.3,579.2,248.8,577.1,246.3L577.1,246.3z"/>
	</g>
</g>
<g id="XMLID_28_">
	<g id="XMLID_202_">
		<path id="XMLID_206_" class="st0" d="M247.7,256.4c-5.4,12.3-8.6,26.8-10.4,40.1c-1.9,14.5,0.7,29,1.5,43.5
			c0.4,7.3,0.4,14.6-1.1,21.7c-1.5,7.2-3,14.2-3.7,21.5c-1.1,12-2.1,23.2-0.5,35.3c0.8,5.6,1.9,11.1,3.4,16.5
			c1.6,5.7,4.6,11,5.7,16.8c1.8,9.7-2.4,19.3,0.4,29c0.8,2.7,2.2,5.1,3.1,7.8c1,2.9,1.4,5.9,1.8,8.9c1,7,3.3,13,5.5,19.7
			c1.9,5.8,4.6,11.4,6.4,17.3c0.9,3,1.2,6.1,2.4,9c1.2,2.9,3.1,5.3,4.7,7.9c8.6,13.3,15.7,27.3,23.2,41.2
			c8,14.8,12.3,31.2,19.5,46.3c1.4,2.9,5.7,0.4,4.3-2.5c-6.2-13-10.2-26.8-16.2-39.8c-5.7-12.3-12.4-24.2-19.4-35.7
			c-3.2-5.3-6.3-10.6-9.6-15.8c-3.5-5.5-4.1-12.7-6.7-18.7c-2.6-6-4.7-12.5-6.8-18.7c-2.1-6.1-2-12.7-3.8-18.9
			c-1.4-5.1-4.2-9.4-4.4-14.9c-0.2-4.5,0.8-9,1.1-13.4c0.8-11.1-4.8-20.5-7.4-31c-2.7-11.1-4-22.8-3.1-34.2
			c0.5-6.6,1.3-13.4,2.3-19.9c1.1-6.7,3.2-13.1,3.9-19.9c1.5-16.1-2.2-32-2.1-48.1c0-8.2,1.5-16.2,3.4-24.1c2-8.1,3.6-16.6,7-24.2
			C253.3,256.1,249,253.5,247.7,256.4L247.7,256.4z"/>
	</g>
</g>
<g id="XMLID_35_">
	<g id="XMLID_196_">
		<path id="XMLID_200_" class="st0" d="M171.6,397.5c0.4,9.1-1.8,18.9-3.4,27.8c-1.6,8.8-3.3,17.5-4.5,26.3
			c-1.2,8.6-2.7,17.6-2.2,26.3c0.5,8.6,2.6,17.2,4.4,25.6c1.8,8.7,4.9,17.1,6.5,25.8c1.8,9.7,1.5,18.7-0.5,28.3
			c-1.8,8.8-1.3,17.3-0.8,26.2c0.6,8.7-1.9,16.6-2.7,25.2c-2,20.7,4.3,41.2,5.2,61.8c0.1,3.2,5.1,3.2,5,0
			c-0.8-18.2-5.8-36.1-5.6-54.4c0.1-8.7,2.7-16.9,3.3-25.5c0.6-9.5-1.9-19-0.3-28.5c1.4-8.5,3.2-16.1,2.5-24.8
			c-0.7-8.4-2.7-16.6-5.1-24.7c-2.6-8.9-4.3-18-6-27.2c-1.7-9.1-0.8-18,0.3-27.2c1.3-10.7,3.3-21.3,5.2-31.9
			c1.7-9.4,4-19.6,3.5-29.2C176.5,394.3,171.5,394.3,171.6,397.5L171.6,397.5z"/>
	</g>
</g>
<g id="XMLID_77_">
	<g id="XMLID_190_">
		<path id="XMLID_194_" class="st0" d="M559.1,238.5c1.7,0.9,1.9,4.5,2.3,6.1c0.6,2.5,1.2,5,1.6,7.6c1.1,6.4,1.4,12.8,1.4,19.3
			c0,10.8-1.5,21.3-3.7,31.8c-2.2,10.4-7.3,19.8-10.2,30.1c-2.8,9.8-5.6,19.7-6.8,29.8c-0.6,5.5-0.6,11.1-1.5,16.6
			c-0.8,5.3-1.4,10.3-1.4,15.7c0.1,11.2,0,22.4,0.6,33.6c0.6,11,0.4,22,0.5,33.1c0.1,11.1-1.8,22.1-3.1,33.1
			c-1.3,10.8-4.2,21.7-8.3,31.8c-4.1,10.1-10.7,18.7-15.6,28.3c-4.8,9.4-7.7,19.7-12.9,28.9c-5.3,9.5-11.7,18.3-16,28.3
			c-14,32.3-14.7,70-4.3,103.4c2.6,8.4,5.9,17.7,11,25c4.4,6.2,12.5,2.6,13-4.5c0.3-5.4-2.3-11.1-3.2-16.3c-1.1-6.5-1.4-13.1-1-19.6
			c0.4-7.5,1.8-30.4,13.1-30c-0.8-1.1-1.6-2.1-2.4-3.2c-5.8,22.3,2.1,44.3,7.1,66c1.4,6.1,2.5,12.2,3.1,18.4
			c0.3,3.4,0.3,7.2,3.5,9.1c3,1.8,6.4,0.2,8.6-2.2c3.3-3.6,2.4-9.5,6.1-12.5c-1,0.1-2,0.3-3,0.4c6.1,3.8,4.8,16.6,5.3,22.8
			c0.7,8.5,1.4,17.1,2.1,25.6c0.1,1.6,1.5,2.8,3.2,2.4c17.6-4.3,26.3-21.8,32.9-37.1c9.1-21.3,16.9-43.2,23.4-65.5
			c0.9-3.1-3.9-4.4-4.8-1.3c-5.8,20.3-12.8,40.2-20.9,59.7c-6.4,15.2-14,35-31.9,39.4c1.1,0.8,2.1,1.6,3.2,2.4
			c-0.9-11.1-1.8-22.1-2.7-33.2c-0.6-7-0.5-15.3-7.2-19.5c-1-0.6-2.2-0.3-3,0.4c-2.6,2.1-3.4,4.8-4.3,8c-0.3,1.2-2.2,8.3-5,4.9
			c-0.9-1.1-0.6-5.7-0.7-7.2c-1-8.4-2.9-16.6-5-24.8c-4.5-17.9-9.8-36.3-5-54.8c0.4-1.6-0.8-3.1-2.4-3.2
			c-17-0.5-18.3,29.2-18.3,40.6c0,4.5,0.4,9.1,1,13.6c0.4,2.7,0.9,5.5,1.6,8.2c0.3,1.2,0.6,2.3,0.9,3.5c0.6,2.5,2.5,6.9-1.5,6.6
			c-2.6-0.2-3-2.1-4.2-4.3c-1-1.9-1.9-3.8-2.8-5.7c-1.9-4.3-3.5-8.7-4.9-13.1c-10.9-35-9.6-75.8,8-108.4
			c5.1-9.4,11.6-17.8,15.8-27.7c4.1-9.4,7.4-18.9,12.7-27.7c5.2-8.6,10.3-17.1,13.7-26.7c3.4-9.7,6-19.7,7.1-29.9
			c1.2-11.1,3-21.9,3-33.1c-0.1-11,0-22-0.5-33.1c-0.6-10.9-0.5-21.8-0.5-32.7c0-5.9,0.8-11.4,1.6-17.2c0.7-5.2,0.6-10.4,1.3-15.6
			c1.5-11.8,4.9-23.8,8.6-35.1c1.8-5.5,4.7-10.5,6.4-16c1.7-5.4,2.7-11.2,3.7-16.8c2-11.4,2.5-23.2,1.6-34.7c-0.5-6-1.7-11.9-3-17.8
			c-0.7-3.1-1.2-6.5-4.3-8.1C558.8,232.7,556.3,237,559.1,238.5L559.1,238.5z"/>
	</g>
</g>
<g id="XMLID_84_">
	<g id="XMLID_184_">
		<path id="XMLID_188_" class="st0" d="M603.9,325.6c0.9,3,2.7,5.3,4.5,7.8c2.7,3.8,4.6,8,6.3,12.3c3.1,7.8,6.6,15.9,8,24.2
			c1.5,8.8,2.9,18,3.7,26.9c0.8,8.4,3.2,16.2,5.4,24.3c4.9,17.7,0.4,37.4-2.3,55.2c-1.4,9-2.8,18.1-3.2,27.2
			c-0.4,8.8,1.5,17.6-0.1,26.3c-3.7,20.5-12.4,40.8-20.1,60.2c-1.2,3,3.6,4.3,4.8,1.3c7-17.7,13.7-35.5,18.6-53.9
			c2.4-8.9,2.1-16.7,1.7-25.8c-0.4-9.8,0.9-19.6,2.4-29.2c2.6-17.4,7-36,4.9-53.6c-1-8.6-4.7-16.6-6.2-25.1
			c-0.7-4.2-0.9-8.5-1.5-12.7c-0.7-5.1-1.8-10.1-2.4-15.2c-1.1-9.7-4-18.1-7.3-27.2c-1.6-4.3-3.3-8.6-5.3-12.7c-2-4-5.7-7.3-7-11.6
			C607.8,321.2,602.9,322.5,603.9,325.6L603.9,325.6z"/>
	</g>
</g>
<g id="XMLID_91_">
	<g id="XMLID_178_">
		<path id="XMLID_182_" class="st0" d="M608.6,583.3c-1.3,3.1-3.5,6.7-3.5,10.1c0,2.6,1.5,4.5,3,6.6c3.3,4.7,6.4,9.6,8.5,15
			c2.4,6.2,2.7,12.6,2.4,19.2c-0.3,6.5-1.9,12.4-3.4,18.7c-1.4,5.8-2.3,11.7-3.6,17.6c-2.7,12-7.6,23.3-13.2,34.2
			c-1.4,2.9,2.9,5.4,4.3,2.5c5.1-10,9.7-20.3,12.6-31.2c1.5-5.7,2.5-11.6,3.7-17.4c1.2-5.8,3.3-11.6,4-17.5
			c1.4-10.7,0.9-21.6-3.8-31.4c-2.3-4.9-5.5-9.2-8.4-13.7c-2.2-3.4,0.1-6.6,1.6-10.1C614.2,582.9,609.9,580.4,608.6,583.3
			L608.6,583.3z"/>
	</g>
</g>
<g id="XMLID_4_">
	<g id="XMLID_172_">
		<path id="XMLID_176_" class="st0" d="M530.5,775.6c3.2,0,3.2-5,0-5C527.3,770.6,527.3,775.6,530.5,775.6L530.5,775.6z"/>
	</g>
</g>
<g id="XMLID_147_">
	<g id="XMLID_166_">
		<path id="XMLID_170_" class="st0" d="M315.8,481.8c2.3,1.4,4.8,1.4,7.2,2.4c2.7,1.1,5.5,1.8,8.1,3.2c2.5,1.3,4.7,3.1,7.4,3.8
			c2.8,0.8,5.8,0.6,8.6,0.8c3.7,0.3,6.5,1.8,10,2.9c3.1,1,6.1,1.2,9.3,1.3c7.1,0.4,14.1,1.5,21.3,1.2c7.1-0.4,14.1-1.2,21.2-1.4
			c6.5-0.1,13.1-1.1,19.5-2.3c7.2-1.3,14.1-3.3,21.1-5.2c2.9-0.8,5.4-2.3,8.2-3.3c2.4-0.9,4.2-1.2,6.2-2.8c2.5-2-1-5.5-3.5-3.5
			c-1.8,1.5-4.9,1.7-7,2.8c-3.1,1.5-6.3,2.3-9.7,3.3c-6.3,1.9-12.7,3.4-19.2,4.4c-6.5,1-12.8,1.6-19.4,1.7c-6.4,0-12.7,1.2-19.1,1.4
			c-6,0.2-11.8-0.8-17.7-1.2c-3.6-0.2-7.1-0.3-10.6-1.5c-2.8-1-5.3-2.2-8.3-2.6c-2.4-0.3-4.8-0.1-7.1-0.4c-4-0.4-6.6-2.8-10.1-4.5
			c-2.2-1.1-4.6-1.4-6.7-2.4c-0.9-0.4-1.5-1.1-2.5-1.4c-1.6-0.5-3.2-0.1-4.7-1C315.6,475.8,313.1,480.2,315.8,481.8L315.8,481.8z"/>
	</g>
</g>
<g id="XMLID_154_">
	<g id="XMLID_159_">
		<path id="XMLID_164_" class="st0" d="M345.5,479.3c3.1-3.3,6.9-2.8,10.9-4.2c2.9-1,5.4-2.9,8.2-4.3c8.4-4.1,17.3,4.7,24.6,8.1
			c2.6,1.2,5.5,1.5,8.3,1.1c3.9-0.6,6.3-2.8,9.7-4.5c6.8-3.4,13.8,0.7,19.7,4.2c2.8,1.7,5.3-2.7,2.5-4.3c-2.7-1.6-5.3-3.4-8.3-4.4
			c-3.5-1.2-6.3-2.9-10.1-2.1c-3.8,0.8-6.6,2.6-9.8,4.5c-6.1,3.6-11.3,0.1-16.9-2.7c-6.9-3.6-12.8-8.4-20.9-4.8
			c-4.3,1.9-7.5,4.3-12.2,5.3c-3.7,0.7-6.5,1.8-9.1,4.6C339.8,478.1,343.4,481.7,345.5,479.3L345.5,479.3z"/>
	</g>
</g>
<g id="XMLID_161_">
	<g id="XMLID_152_">
		<path id="XMLID_157_" class="st0" d="M336.3,504.6c3.5,0.4,6.8,3.7,9.6,5.6c4.2,2.8,8.7,4.8,13.1,7.1c3.4,1.8,6.3,3.8,10.2,4.5
			c5.3,0.9,10.6,2.5,16,2.7c10.6,0.5,21.2-2.6,31.6-4.1c4.5-0.6,8.9-1.7,12.9-4c2.1-1.2,3.7-2.8,6-3.6c2.7-0.9,5.5-1.7,8.3-1.9
			c3.2-0.2,3.2-5.2,0-5c-3.9,0.2-8,1.1-11.5,2.7c-2,0.9-3.5,2.3-5.3,3.4c-2.4,1.3-5.1,2.2-7.7,2.8c-5.1,1.2-10.4,1.6-15.6,2.6
			c-6,1.2-12.6,2.3-18.7,2c-5.2-0.3-10.6-1.6-15.7-2.7c-4.6-1-9.2-4.4-13.5-6.6c-3.8-2-7.3-4.2-10.9-6.6c-2.8-1.9-5.5-3.6-8.9-4
			C333.1,499.2,333.1,504.2,336.3,504.6L336.3,504.6z"/>
	</g>
</g>
<g id="XMLID_14_">
	<g id="XMLID_145_">
		<path id="XMLID_150_" class="st0" d="M169.5,400c-6.4-6-16.7-11.2-18.6-20.3c-0.9-4.4,1.4-7.6,1.3-12c-0.1-3.9-2.1-7-3.8-10.3
			c-3.7-7.2-9.7-14.8-4.1-22.8c4.7-6.8,5.1-15.3,4.1-23.2c-0.5-4.2-1.5-8.4-2.1-12.6c-0.8-4.8-2.1-11.7,0.3-16.2
			c1.6-3.1,4.6-5.3,6.1-8.5c1.5-3.1,2.4-6.7,2.6-10.1c0.7-9-5.4-17.5-0.5-26.1c2.1-3.7,4.8-7.2,7.4-10.7c3.2-4.4,5.3-8.8,7.7-13.7
			c1.6-3.3,3.3-6.4,4.1-10.1c1.1-4.7,0.2-9.3,1.8-13.9c1.6-4.3,3.4-8.6,4.7-13c0.6-2.2,0.9-4.3,2.2-6.2c1.4-2.2,3.6-3.4,5.3-5.3
			c5.7-6.3,8.8-13.4,10.2-21.7c0.7-4.3,0.2-8.1-0.2-12.4c-0.5-5.8,1.1-10.5,4.1-15.3c2.9-4.6,5.6-8.1,10.2-11
			c4.1-2.5,7.8-5.7,11.6-8.7c3.7-2.9,7.5-5.9,10.6-9.5c2.4-2.9,3.1-6.3,4.6-9.7c3.6-8.2,8.6-15.7,16.7-20.1c3.9-2.1,8.1-3.3,12-5.6
			c4.4-2.5,8.9-4.7,13-7.7c7.3-5.2,14.4-11,22.2-15.4c4.4-2.4,8.2-5.7,13.4-6.2c5.4-0.5,10.7,1.5,16,2.2c8.4,1.1,17.2-1.8,24.8-5.1
			c4.3-1.8,8.3-4.2,12.8-5.4c5.3-1.4,11.6-1.5,17.1-0.9c5.1,0.5,9.9,2.4,15,3c4.4,0.5,8.9,0.6,13.3,0.4c3.9-0.2,7.2-1.6,10.7-3.3
			c2.4-1.2,4.6-2.2,7.1-2.9c1.9-0.5,4-1.7,5.8-2c4.6-0.8,7.7,4,10.7,6.6c3.2,2.7,6.5,5.4,10.1,7.5c7.6,4.6,15.2,5.1,23.9,4.9
			c9.8-0.2,21.7-1.4,28.6,6.9c5,6,11.8,8.4,19.6,8.9c5,0.3,10.3-1,15.2,0.4c4.8,1.3,8.8,5.1,12,8.8c3,3.5,4.8,7.9,5.9,12.4
			c0.7,3,2.1,4.8,5,6.2c3.2,1.5,7,1.5,9.7,3.9c3.5,3.1,6.5,8.5,7.7,12.9c1.2,4.2,3.9,7.7,4.2,12.1c0.2,3.7-0.1,7.3,2.3,10.3
			c1.5,1.9,2.7,3.4,3.8,5.6c0.7,1.4,1.3,2.5,2.3,3.6c1.7,1.7,3.4,2.9,4.5,5.1c1.1,2.4,1.5,5.2,1.9,7.8c0.6,4,1.2,7.6,2.8,11.3
			c1.8,4.1,1.6,8.6,4.3,12.3c2,2.8,5,4.7,7.2,7.4c2.7,3.4,5.3,8.4,6.2,12.5c0.9,4.2,1.2,8.4,2.3,12.6c1.3,5,2.4,10,2.2,15.2
			c-0.2,4.1-0.5,7.6,1.1,11.5c1.7,3.9,4.1,7.5,6.8,10.8c6.4,7.8,9.2,17.5,12.5,26.7c1.8,4.9,3,9.3,2,14.5c-0.8,4.1-2.2,8.2-2.1,12.5
			c0.1,3.8,1.7,6.8,3.4,10.1c1.3,2.5,2.9,5.3,2.9,8.2c0,2.4-0.7,5.2-1,7.6c-0.6,4.7-1.1,9.7-3.1,14c-1.9,4.1-5.8,6.7-7.6,10.8
			c-3.5,8.4-0.8,17.1-2.2,25.7c-0.9,5.3-4.3,9.4-7.7,13.5c-2.5,3-3.9,6.7-5.8,10.1c-1.6,2.8,2.8,5.3,4.3,2.5
			c2.3-4.2,4.1-7.9,7.2-11.6c2.7-3.3,5.2-7,6.4-11.1c2.6-9.1-2-20,3-28.5c2.3-3.8,5.7-6.2,7.3-10.5c1.7-4.2,2.3-8.8,2.9-13.3
			c0.6-4.3,1.9-8.9,0.7-13.2c-1.4-5-5.5-9.1-5.7-14.4c-0.2-4.3,1.5-8.5,2.2-12.7c0.7-4.3,0.2-8.3-1.1-12.4
			c-3-9.4-6.2-18.6-11.3-27.1c-2.2-3.8-5.3-6.8-7.5-10.6c-1.5-2.5-2.9-5-3-8c-0.2-2.9,0.5-5.9,0.3-8.8c-0.2-4.4-1.2-8.7-2.4-13
			c-1.2-4.6-1.3-9.5-2.6-14.1c-1.1-3.9-3.4-7.5-5.5-10.9c-1.9-3.2-5.2-5.3-7.6-8.1c-2.9-3.4-2.7-7.7-4.3-11.6
			c-2-4.9-2.4-9.6-3.5-14.8c-1-4.8-2.6-7.3-5.9-10.8c-1.7-1.7-2.5-3.6-3.6-5.7c-1.1-2-3.4-3.4-4.2-5.5c-1.4-3.7,0-8-1.5-11.8
			c-0.8-2.1-2.3-3.8-2.9-6c-0.7-2.1-0.9-4.1-1.9-6c-1.8-3.5-4.4-7.8-7.3-10.6c-2.5-2.5-5.8-3-9.1-4c-3.4-1.1-3.7-2-4.6-5.1
			c-0.5-1.6-1.1-3.1-1.8-4.7c-1.8-4.2-4.1-7.6-7.4-10.8c-6.9-6.8-13.5-8.8-23.1-8.4c-5,0.2-9.9-0.2-14.6-2
			c-4.8-1.8-6.4-5.9-10.1-8.9c-6.8-5.4-17.2-5.3-25.5-5.1c-4.9,0.1-10,0.5-14.8-0.2c-5.5-0.8-10.3-3.8-14.7-7.1
			C452.6,10.5,447,2.2,440,2.5c-1.3,0-2.3,0.5-3.4,1c-2.6,1-5.3,1.5-7.9,2.5c-5.1,2-9.2,5-14.9,5.1c-5.2,0.1-10.4,0-15.5-1.1
			c-5-1.1-9.6-2.4-14.8-2.4c-4.3,0-8.8-0.1-13.1,0.8c-4.8,1-9,3.4-13.4,5.4c-5.1,2.3-10.5,4.1-16,5.1c-6.1,1.1-11.4-0.5-17.3-1.5
			c-3.7-0.6-7.5-0.8-11.1,0.2c-4.5,1.1-8,4-12,6.2c-8.4,4.7-15.6,11-23.6,16.3c-4.2,2.8-8.8,5.1-13.2,7.6c-4.2,2.4-8.9,3.4-12.8,6.3
			c-7.1,5.2-11.1,10.7-15,18.3c-2.1,4-2.9,8.6-6,12c-3.9,4.2-8.6,7.5-13.1,11c-3.3,2.6-6.9,4.6-10.2,7c-3.7,2.7-6.3,7-8.7,10.8
			c-2.3,3.6-4.1,7.3-4.7,11.6c-0.7,4.9,0.8,9.7,0.6,14.6c-0.2,5.1-1.6,11-4.2,15.3c-2.6,4.4-5.9,7.4-9.5,10.9
			c-2.7,2.7-3.2,6.2-4.3,9.8c-1.5,5-3.8,9.7-5.3,14.7c-1.4,4.5-0.4,9.1-1.6,13.6c-1.3,4.7-3.9,9.7-6.1,14
			c-4,7.8-11.8,14.1-14.3,22.7c-2.7,9,3.5,17.8,1.4,26.9c-1.7,7.7-8.8,11.8-9.4,20c-0.6,9.8,2.8,19.2,3.4,28.8
			c0.3,5.1-0.2,10.8-3,15.2c-0.9,1.5-2.2,2.6-2.9,4.3c-0.7,1.9-0.7,4.1-0.9,6.1c-0.8,7.4,4.5,13.8,7.8,19.9c1.2,2.3,2.4,4.3,2.3,7
			c-0.1,2.4-1.6,4.4-1.8,6.7c-0.3,3.2,0.8,7.4,2,10.3c1.6,3.6,4.4,5.5,7.3,8.1c3.7,3.4,7.6,6.4,11.3,9.8
			C168.3,405.7,171.8,402.2,169.5,400L169.5,400z"/>
	</g>
</g>
<g id="XMLID_57_">
	<g id="XMLID_139_">
		<path id="XMLID_143_" class="st0" d="M581,265.9c2,2.2,2.9,5.1,4.3,7.7c1.7,3.1,3.4,6.2,4.8,9.5c2.3,5.3,4.8,10.6,7.3,15.8
			c5.3,11.3,13.2,20.7,20.6,30.6c1.9,2.5,6.3,0,4.3-2.5c-7.9-10.4-15.8-20.3-21.4-32.2c-2.7-5.8-5.2-11.8-8.1-17.6
			c-2.3-4.8-4.7-10.7-8.3-14.7C582.4,259.9,578.9,263.5,581,265.9L581,265.9z"/>
	</g>
</g>
<g id="XMLID_5_">
	<g id="XMLID_133_">
		<path id="XMLID_137_" class="st0" d="M176.1,671c12.4,14.8,18.4,33.3,24.7,51.2c5.6,15.8,11.8,35.3,24.8,46.8
			c5.5,4.8,12.6,7.5,19.8,5.1c6.6-2.2,10.9-7.9,9.9-15c-0.6-4.5-2.6-8.7-3.4-13.2c-0.9-4.9-0.9-10-0.6-14.9
			c0.7-10,2.9-19.8,4.5-29.6c1.6-9.8,2.6-19.8,0.9-29.7c-0.5-2.8-2.1-6-2.2-8.7c-0.1-0.3-0.2-0.6-0.2-0.9c1.1-3.8,2.2-4.6,3.3-2.5
			c1.4,0.9,2.5,3.3,3.4,4.7c3.7,5.2,7.1,10.6,10.3,16c0.6,1.1,2.3,1.7,3.4,0.9c5.6-3.8,8.9-9.9,8.1-16.8c-0.3-2.3-2.2-6.7,0.3-8.5
			c1.5-1.1,4.2-0.5,5.8,0c3.4,1.1,6.2,3.6,9.6,4.8c6,2.1,11.7-0.4,14.4-6.1c3.4-7.2-0.1-14.7-3.4-21.2c-1.5-2.9-5.8-0.3-4.3,2.5
			c2.1,4,4.6,8.5,4.1,13.2c-0.5,4.6-3.8,8.4-8.7,7c-5.3-1.6-9.1-5.9-15-5.8c-4.1,0-7.8,2.3-8.6,6.6c-0.5,3,0.9,5.9,1,8.9
			c0.2,4.5-2.1,8.5-5.7,11c1.1,0.3,2.3,0.6,3.4,0.9c-2.7-4.7-5.6-9.3-8.7-13.8c-2.1-3.1-4.6-8-7.9-10.1c-2.6-1.6-5.7-1.1-7.8,1.1
			c-2.7,2.9-2.2,6.7-1.3,10.2c2.5,9.9,3.1,19,1.9,29.1c-1.2,9.6-3.4,19.1-4.7,28.7c-1.2,9.1-1.6,18.3,0.6,27.3
			c1.1,4.7,4.6,10.6,1.6,15.2c-2.5,3.8-8.2,5.2-12.4,4.2c-9.5-2.3-15.3-12.9-19.5-20.8c-4.5-8.5-7.9-17.5-11.1-26.5
			c-6.9-19.3-13.2-39-26.5-54.9C177.6,665,174.1,668.6,176.1,671L176.1,671z"/>
	</g>
</g>
<g id="XMLID_19_">
	<g id="XMLID_127_">
		<path id="XMLID_131_" class="st0" d="M359.9,255.6c-3.7-6.7-10.2-11.4-17.7-12.7c-3.1-0.6-4.5,4.3-1.3,4.8
			c6.4,1.1,11.6,4.8,14.7,10.4C357.2,260.9,361.5,258.4,359.9,255.6L359.9,255.6z"/>
	</g>
</g>
<g id="XMLID_22_">
	<g id="XMLID_121_">
		<path id="XMLID_125_" class="st0" d="M352.2,255.2c-3.4-6.3-9.5-10.7-16.5-12c-3.1-0.6-4.5,4.2-1.3,4.8c5.8,1.1,10.6,4.5,13.5,9.7
			C349.4,260.6,353.7,258.1,352.2,255.2L352.2,255.2z"/>
	</g>
</g>
<g id="XMLID_23_">
	<g id="XMLID_115_">
		<path id="XMLID_119_" class="st0" d="M342.8,252.7c-4.6-5.6-11.5-8.7-18.8-8.7c-3.2,0-3.2,5,0,5c6.1,0,11.4,2.5,15.3,7.2
			C341.3,258.7,344.8,255.2,342.8,252.7L342.8,252.7z"/>
	</g>
</g>
<g id="XMLID_25_">
	<g id="XMLID_109_">
		<path id="XMLID_113_" class="st0" d="M335.4,250.3c-7.2-6.3-16.1-9.4-25.7-8.8c-3.2,0.2-3.2,5.2,0,5c8.2-0.5,15.9,1.9,22.2,7.4
			C334.3,256,337.9,252.4,335.4,250.3L335.4,250.3z"/>
	</g>
</g>
<g id="XMLID_42_">
	<g id="XMLID_103_">
		<path id="XMLID_107_" class="st0" d="M332.3,246.2c-11.6-2.5-23.3-5.1-34.9-7.6c-3.1-0.7-4.5,4.1-1.3,4.8
			c11.6,2.5,23.3,5.1,34.9,7.6C334.2,251.7,335.5,246.8,332.3,246.2L332.3,246.2z"/>
	</g>
</g>
<g id="XMLID_44_">
	<g id="XMLID_97_">
		<path id="XMLID_101_" class="st0" d="M309.1,244c-15.8-4.2-32.2-2.4-46.7,5c-2.9,1.5-0.3,5.8,2.5,4.3c13.3-6.8,28.4-8.4,42.8-4.5
			C310.8,249.7,312.2,244.8,309.1,244L309.1,244z"/>
	</g>
</g>
<g id="XMLID_46_">
	<g id="XMLID_90_">
		<path id="XMLID_95_" class="st0" d="M464.2,263.3c5.9-4.6,12.6-8,19.8-10c3.1-0.9,1.8-5.7-1.3-4.8c-8.1,2.3-15.4,6.1-22,11.3
			C458.2,261.7,461.7,265.2,464.2,263.3L464.2,263.3z"/>
	</g>
</g>
<g id="XMLID_1030_">
	<g id="XMLID_83_">
		<path id="XMLID_88_" class="st0" d="M468.9,264.9c9-6.4,18.8-11.1,29.4-14.2c3.1-0.9,1.8-5.7-1.3-4.8c-11,3.2-21.3,8.1-30.6,14.7
			C463.8,262.5,466.3,266.8,468.9,264.9L468.9,264.9z"/>
	</g>
</g>
<g id="XMLID_1037_">
	<g id="XMLID_76_">
		<path id="XMLID_81_" class="st0" d="M478.8,258.9c7.5-3,15.2-5,23.3-5.6c3.2-0.3,3.2-5.3,0-5c-8.5,0.7-16.7,2.6-24.7,5.8
			C474.6,255.3,475.9,260.1,478.8,258.9L478.8,258.9z"/>
	</g>
</g>
<g id="XMLID_1044_">
	<g id="XMLID_70_">
		<path id="XMLID_74_" class="st0" d="M490.6,259c15.4-8.3,32.1-1.7,46.9,4.7c2.9,1.3,5.5-3,2.5-4.3c-16.6-7.2-34.8-14-52-4.7
			C485.3,256.3,487.8,260.6,490.6,259L490.6,259z"/>
	</g>
</g>
<g id="XMLID_1051_">
	<g id="XMLID_64_">
		<path id="XMLID_68_" class="st0" d="M463.4,251.4c-4,3.6-8,7.2-12,10.7c-2.4,2.2,1.1,5.7,3.5,3.5c4-3.6,8-7.2,12-10.7
			C469.4,252.8,465.8,249.3,463.4,251.4L463.4,251.4z"/>
	</g>
</g>
<g id="XMLID_1058_">
	<g id="XMLID_58_">
		<path id="XMLID_62_" class="st0" d="M449.6,258.9c-0.4,1.7-1.2,3.2-2.4,4.4c-2.2,2.3,1.3,5.8,3.5,3.5c1.8-1.9,3.1-4.1,3.7-6.6
			C455.2,257.1,450.4,255.8,449.6,258.9L449.6,258.9z"/>
	</g>
</g>
<g id="XMLID_1681_">
	<g id="XMLID_51_">
		<path id="XMLID_55_" class="st0" d="M260.4,523.2c19.2,15.4,38.2,31,55.7,48.4c15.5,15.5,31.4,30.2,53.7,34.3
			c20.9,3.8,42.9-0.4,61.8-9.8c21.4-10.6,39.1-28.6,57.1-44c19.2-16.5,39.9-32.7,52.2-55.3c1.5-2.8-2.8-5.4-4.3-2.5
			c-10.2,18.8-26.5,32.9-42.5,46.7c-9.4,8.1-18.8,16.1-28.2,24.2c-8.5,7.2-16.9,14.7-26.2,20.7c-18.2,11.8-40.6,18.2-62.3,16.1
			c-23.1-2.3-39.4-15.7-55.2-31.5c-18.3-18.2-37.9-34.6-58-50.8C261.5,517.7,257.9,521.2,260.4,523.2L260.4,523.2z"/>
	</g>
</g>
<g id="XMLID_1688_">
	<g id="XMLID_43_">
		<path id="XMLID_49_" class="st0" d="M541.9,492.2c3.2,0,3.2-5,0-5C538.7,487.2,538.6,492.2,541.9,492.2L541.9,492.2z"/>
	</g>
</g>
<g id="XMLID_3_">
	<g id="XMLID_39_">
		<path id="XMLID_213_" class="st0" d="M365.3,420.3c6.8-1.7,12.9,0.2,18.1,4.7c4.1,3.6,7.9,4.1,13.3,4.3c5.5,0.1,11-0.4,15.9-3.2
			c5.5-3.2,9.7-9.3,16.7-8.5c3.2,0.4,3.2-4.6,0-5c-5.5-0.6-9.9,2-14,5.3c-6.5,5.1-12,6.7-20.3,6.3c-4.3-0.2-6.5-1.6-9.6-4.2
			c-1.7-1.4-3.5-2.5-5.5-3.4c-5.1-2.2-10.5-2.5-15.8-1.1C360.9,416.3,362.2,421.1,365.3,420.3L365.3,420.3z"/>
	</g>
</g>
<g id="XMLID_2_">
	<g id="XMLID_219_">
		<path id="XMLID_243_" class="st0" d="M382.1,305.6c2,16.3-0.1,32.7-6.7,47.8c-1.3,2.9,3,5.5,4.3,2.5c6.9-15.9,9.5-33.1,7.3-50.3
			C386.7,302.4,381.7,302.4,382.1,305.6L382.1,305.6z"/>
	</g>
</g>
</svg>
